ISO-10303-21;
HEADER;
FILE_DESCRIPTION( ( '' ), ' ' );
FILE_NAME( '/vol/tmp/translate-3010569720546917201/589d6d21c139c90fab4a4614.step', '2017-02-10T07:34:58', ( '' ), ( '' ), ' ', ' ', ' ' );
FILE_SCHEMA( ( 'AUTOMOTIVE_DESIGN { 1 0 10303 214 1 1 1 1 }' ) );
ENDSEC;
DATA;
#1 = MECHANICAL_DESIGN_GEOMETRIC_PRESENTATION_REPRESENTATION( ' ', ( #10, #11, #12, #13, #14, #15, #16, #17 ), #6 );
#2 = PRODUCT_DEFINITION_CONTEXT( '', #18, 'design' );
#3 = APPLICATION_PROTOCOL_DEFINITION( 'international standard', 'automotive_design', 2001, #18 );
#4 = PRODUCT_CATEGORY_RELATIONSHIP( 'NONE', 'NONE', #19, #20 );
#5 = SHAPE_DEFINITION_REPRESENTATION( #21, #22 );
#6 =  ( GEOMETRIC_REPRESENTATION_CONTEXT( 3 )GLOBAL_UNCERTAINTY_ASSIGNED_CONTEXT( ( #25 ) )GLOBAL_UNIT_ASSIGNED_CONTEXT( ( #27, #28, #29 ) )REPRESENTATION_CONTEXT( 'NONE', 'WORKSPACE' ) );
#10 = STYLED_ITEM( '', ( #31 ), #32 );
#11 = STYLED_ITEM( '', ( #33 ), #34 );
#12 = STYLED_ITEM( '', ( #35 ), #36 );
#13 = STYLED_ITEM( '', ( #37 ), #38 );
#14 = STYLED_ITEM( '', ( #39 ), #40 );
#15 = STYLED_ITEM( '', ( #41 ), #42 );
#16 = STYLED_ITEM( '', ( #43 ), #44 );
#17 = STYLED_ITEM( '', ( #45 ), #46 );
#18 = APPLICATION_CONTEXT( 'core data for automotive mechanical design processes' );
#19 = PRODUCT_CATEGORY( 'part', 'NONE' );
#20 = PRODUCT_RELATED_PRODUCT_CATEGORY( 'detail', ' ', ( #47 ) );
#21 = PRODUCT_DEFINITION_SHAPE( 'NONE', 'NONE', #48 );
#22 = ADVANCED_BREP_SHAPE_REPRESENTATION( 'M_PR07_A01_SPACER_RIVET', ( #49, #50 ), #6 );
#25 = UNCERTAINTY_MEASURE_WITH_UNIT( LENGTH_MEASURE( 1.00000000000000E-06 ), #27, '', '' );
#27 =  ( CONVERSION_BASED_UNIT( 'METRE', #53 )LENGTH_UNIT(  )NAMED_UNIT( #56 ) );
#28 =  ( NAMED_UNIT( #58 )PLANE_ANGLE_UNIT(  )SI_UNIT( $, .RADIAN. ) );
#29 =  ( NAMED_UNIT( #58 )SI_UNIT( $, .STERADIAN. )SOLID_ANGLE_UNIT(  ) );
#31 = PRESENTATION_STYLE_ASSIGNMENT( ( #64 ) );
#32 = ADVANCED_FACE( '', ( #65, #66 ), #67, .F. );
#33 = PRESENTATION_STYLE_ASSIGNMENT( ( #68 ) );
#34 = ADVANCED_FACE( '', ( #69, #70 ), #71, .T. );
#35 = PRESENTATION_STYLE_ASSIGNMENT( ( #72 ) );
#36 = ADVANCED_FACE( '', ( #73, #74 ), #75, .F. );
#37 = PRESENTATION_STYLE_ASSIGNMENT( ( #76 ) );
#38 = ADVANCED_FACE( '', ( #77, #78 ), #79, .T. );
#39 = PRESENTATION_STYLE_ASSIGNMENT( ( #80 ) );
#40 = ADVANCED_FACE( '', ( #81, #82 ), #83, .F. );
#41 = PRESENTATION_STYLE_ASSIGNMENT( ( #84 ) );
#42 = ADVANCED_FACE( '', ( #85, #86 ), #87, .T. );
#43 = PRESENTATION_STYLE_ASSIGNMENT( ( #88 ) );
#44 = ADVANCED_FACE( '', ( #89, #90 ), #91, .F. );
#45 = PRESENTATION_STYLE_ASSIGNMENT( ( #92 ) );
#46 = ADVANCED_FACE( '', ( #93, #94 ), #95, .F. );
#47 = PRODUCT( 'M_PR07_A01_SPACER_RIVET', 'M_PR07_A01_SPACER_RIVET', 'PART-M_PR07_A01_SPACER_RIVET-DESC', ( #96 ) );
#48 = PRODUCT_DEFINITION( 'NONE', 'NONE', #97, #2 );
#49 = MANIFOLD_SOLID_BREP( 'M_PR07_A01_SPACER_RIVET', #98 );
#50 = AXIS2_PLACEMENT_3D( '', #99, #100, #101 );
#53 = LENGTH_MEASURE_WITH_UNIT( LENGTH_MEASURE( 1.00000000000000 ), #102 );
#56 = DIMENSIONAL_EXPONENTS( 1.00000000000000, 0.00000000000000, 0.00000000000000, 0.00000000000000, 0.00000000000000, 0.00000000000000, 0.00000000000000 );
#58 = DIMENSIONAL_EXPONENTS( 0.00000000000000, 0.00000000000000, 0.00000000000000, 0.00000000000000, 0.00000000000000, 0.00000000000000, 0.00000000000000 );
#64 = SURFACE_STYLE_USAGE( .BOTH., #103 );
#65 = FACE_OUTER_BOUND( '', #104, .T. );
#66 = FACE_BOUND( '', #105, .T. );
#67 = PLANE( '', #106 );
#68 = SURFACE_STYLE_USAGE( .BOTH., #107 );
#69 = FACE_BOUND( '', #108, .T. );
#70 = FACE_OUTER_BOUND( '', #109, .T. );
#71 = PLANE( '', #110 );
#72 = SURFACE_STYLE_USAGE( .BOTH., #111 );
#73 = FACE_OUTER_BOUND( '', #112, .T. );
#74 = FACE_OUTER_BOUND( '', #113, .T. );
#75 = CYLINDRICAL_SURFACE( '', #114, 0.00201000000000000 );
#76 = SURFACE_STYLE_USAGE( .BOTH., #115 );
#77 = FACE_OUTER_BOUND( '', #116, .T. );
#78 = FACE_OUTER_BOUND( '', #117, .T. );
#79 = CYLINDRICAL_SURFACE( '', #118, 0.00350000000000000 );
#80 = SURFACE_STYLE_USAGE( .BOTH., #119 );
#81 = FACE_OUTER_BOUND( '', #120, .T. );
#82 = FACE_OUTER_BOUND( '', #121, .T. );
#83 = CYLINDRICAL_SURFACE( '', #122, 0.00250000000000000 );
#84 = SURFACE_STYLE_USAGE( .BOTH., #123 );
#85 = FACE_BOUND( '', #124, .T. );
#86 = FACE_OUTER_BOUND( '', #125, .T. );
#87 = PLANE( '', #126 );
#88 = SURFACE_STYLE_USAGE( .BOTH., #127 );
#89 = FACE_OUTER_BOUND( '', #128, .T. );
#90 = FACE_BOUND( '', #129, .T. );
#91 = PLANE( '', #130 );
#92 = SURFACE_STYLE_USAGE( .BOTH., #131 );
#93 = FACE_OUTER_BOUND( '', #132, .T. );
#94 = FACE_OUTER_BOUND( '', #133, .T. );
#95 = CYLINDRICAL_SURFACE( '', #134, 0.00250000000000000 );
#96 = PRODUCT_CONTEXT( '', #18, 'mechanical' );
#97 = PRODUCT_DEFINITION_FORMATION_WITH_SPECIFIED_SOURCE( ' ', 'NONE', #47, .NOT_KNOWN. );
#98 = CLOSED_SHELL( '', ( #36, #38, #32, #40, #42, #44, #34, #46 ) );
#99 = CARTESIAN_POINT( '', ( 0.00000000000000, 0.00000000000000, 0.00000000000000 ) );
#100 = DIRECTION( '', ( 0.00000000000000, 0.00000000000000, 1.00000000000000 ) );
#101 = DIRECTION( '', ( 1.00000000000000, 0.00000000000000, 0.00000000000000 ) );
#102 =  ( LENGTH_UNIT(  )NAMED_UNIT( #56 )SI_UNIT( $, .METRE. ) );
#103 = SURFACE_SIDE_STYLE( '', ( #136 ) );
#104 = EDGE_LOOP( '', ( #137, #138 ) );
#105 = EDGE_LOOP( '', ( #139, #140 ) );
#106 = AXIS2_PLACEMENT_3D( '', #141, #142, #143 );
#107 = SURFACE_SIDE_STYLE( '', ( #144 ) );
#108 = EDGE_LOOP( '', ( #145, #146 ) );
#109 = EDGE_LOOP( '', ( #147, #148 ) );
#110 = AXIS2_PLACEMENT_3D( '', #149, #150, #151 );
#111 = SURFACE_SIDE_STYLE( '', ( #152 ) );
#112 = EDGE_LOOP( '', ( #153, #154 ) );
#113 = EDGE_LOOP( '', ( #155, #156 ) );
#114 = AXIS2_PLACEMENT_3D( '', #157, #158, #159 );
#115 = SURFACE_SIDE_STYLE( '', ( #160 ) );
#116 = EDGE_LOOP( '', ( #161, #162 ) );
#117 = EDGE_LOOP( '', ( #163, #164 ) );
#118 = AXIS2_PLACEMENT_3D( '', #165, #166, #167 );
#119 = SURFACE_SIDE_STYLE( '', ( #168 ) );
#120 = EDGE_LOOP( '', ( #169, #170 ) );
#121 = EDGE_LOOP( '', ( #171, #172 ) );
#122 = AXIS2_PLACEMENT_3D( '', #173, #174, #175 );
#123 = SURFACE_SIDE_STYLE( '', ( #176 ) );
#124 = EDGE_LOOP( '', ( #177, #178 ) );
#125 = EDGE_LOOP( '', ( #179, #180 ) );
#126 = AXIS2_PLACEMENT_3D( '', #181, #182, #183 );
#127 = SURFACE_SIDE_STYLE( '', ( #184 ) );
#128 = EDGE_LOOP( '', ( #185, #186 ) );
#129 = EDGE_LOOP( '', ( #187, #188 ) );
#130 = AXIS2_PLACEMENT_3D( '', #189, #190, #191 );
#131 = SURFACE_SIDE_STYLE( '', ( #192 ) );
#132 = EDGE_LOOP( '', ( #193, #194 ) );
#133 = EDGE_LOOP( '', ( #195, #196 ) );
#134 = AXIS2_PLACEMENT_3D( '', #197, #198, #199 );
#136 = SURFACE_STYLE_FILL_AREA( #200 );
#137 = ORIENTED_EDGE( '', *, *, #201, .T. );
#138 = ORIENTED_EDGE( '', *, *, #202, .T. );
#139 = ORIENTED_EDGE( '', *, *, #203, .F. );
#140 = ORIENTED_EDGE( '', *, *, #204, .F. );
#141 = CARTESIAN_POINT( '', ( 0.00000000000000, -0.000700000000000000, 0.00000000000000 ) );
#142 = DIRECTION( '', ( -0.00000000000000, 1.00000000000000, 0.00000000000000 ) );
#143 = DIRECTION( '', ( 1.00000000000000, 0.00000000000000, 0.00000000000000 ) );
#144 = SURFACE_STYLE_FILL_AREA( #205 );
#145 = ORIENTED_EDGE( '', *, *, #206, .T. );
#146 = ORIENTED_EDGE( '', *, *, #207, .T. );
#147 = ORIENTED_EDGE( '', *, *, #208, .F. );
#148 = ORIENTED_EDGE( '', *, *, #209, .F. );
#149 = CARTESIAN_POINT( '', ( 0.00000000000000, 0.00150000000000000, 0.00000000000000 ) );
#150 = DIRECTION( '', ( -0.00000000000000, 1.00000000000000, 0.00000000000000 ) );
#151 = DIRECTION( '', ( 1.00000000000000, 0.00000000000000, 0.00000000000000 ) );
#152 = SURFACE_STYLE_FILL_AREA( #210 );
#153 = ORIENTED_EDGE( '', *, *, #211, .F. );
#154 = ORIENTED_EDGE( '', *, *, #212, .F. );
#155 = ORIENTED_EDGE( '', *, *, #203, .T. );
#156 = ORIENTED_EDGE( '', *, *, #204, .T. );
#157 = CARTESIAN_POINT( '', ( 0.00000000000000, -0.000700000000000000, 0.00000000000000 ) );
#158 = DIRECTION( '', ( 0.00000000000000, -1.00000000000000, -0.00000000000000 ) );
#159 = DIRECTION( '', ( 1.00000000000000, 0.00000000000000, 0.00000000000000 ) );
#160 = SURFACE_STYLE_FILL_AREA( #213 );
#161 = ORIENTED_EDGE( '', *, *, #209, .T. );
#162 = ORIENTED_EDGE( '', *, *, #208, .T. );
#163 = ORIENTED_EDGE( '', *, *, #214, .T. );
#164 = ORIENTED_EDGE( '', *, *, #215, .T. );
#165 = CARTESIAN_POINT( '', ( 0.00000000000000, -0.00150000000000000, 0.00000000000000 ) );
#166 = DIRECTION( '', ( 0.00000000000000, -1.00000000000000, -0.00000000000000 ) );
#167 = DIRECTION( '', ( 1.00000000000000, 0.00000000000000, 0.00000000000000 ) );
#168 = SURFACE_STYLE_FILL_AREA( #216 );
#169 = ORIENTED_EDGE( '', *, *, #207, .F. );
#170 = ORIENTED_EDGE( '', *, *, #206, .F. );
#171 = ORIENTED_EDGE( '', *, *, #217, .F. );
#172 = ORIENTED_EDGE( '', *, *, #218, .F. );
#173 = CARTESIAN_POINT( '', ( 0.00000000000000, -0.00150000000000000, 0.00000000000000 ) );
#174 = DIRECTION( '', ( 0.00000000000000, -1.00000000000000, -0.00000000000000 ) );
#175 = DIRECTION( '', ( 1.00000000000000, 0.00000000000000, 0.00000000000000 ) );
#176 = SURFACE_STYLE_FILL_AREA( #219 );
#177 = ORIENTED_EDGE( '', *, *, #211, .T. );
#178 = ORIENTED_EDGE( '', *, *, #212, .T. );
#179 = ORIENTED_EDGE( '', *, *, #217, .T. );
#180 = ORIENTED_EDGE( '', *, *, #218, .T. );
#181 = CARTESIAN_POINT( '', ( 0.00000000000000, 0.000700000000000000, 0.00000000000000 ) );
#182 = DIRECTION( '', ( -0.00000000000000, 1.00000000000000, 0.00000000000000 ) );
#183 = DIRECTION( '', ( 1.00000000000000, 0.00000000000000, 0.00000000000000 ) );
#184 = SURFACE_STYLE_FILL_AREA( #220 );
#185 = ORIENTED_EDGE( '', *, *, #215, .F. );
#186 = ORIENTED_EDGE( '', *, *, #214, .F. );
#187 = ORIENTED_EDGE( '', *, *, #221, .F. );
#188 = ORIENTED_EDGE( '', *, *, #222, .F. );
#189 = CARTESIAN_POINT( '', ( 0.00000000000000, -0.00150000000000000, 0.00000000000000 ) );
#190 = DIRECTION( '', ( -0.00000000000000, 1.00000000000000, 0.00000000000000 ) );
#191 = DIRECTION( '', ( 1.00000000000000, 0.00000000000000, 0.00000000000000 ) );
#192 = SURFACE_STYLE_FILL_AREA( #223 );
#193 = ORIENTED_EDGE( '', *, *, #222, .T. );
#194 = ORIENTED_EDGE( '', *, *, #221, .T. );
#195 = ORIENTED_EDGE( '', *, *, #201, .F. );
#196 = ORIENTED_EDGE( '', *, *, #202, .F. );
#197 = CARTESIAN_POINT( '', ( 0.00000000000000, -0.00150000000000000, 0.00000000000000 ) );
#198 = DIRECTION( '', ( 0.00000000000000, -1.00000000000000, -0.00000000000000 ) );
#199 = DIRECTION( '', ( 1.00000000000000, 0.00000000000000, 0.00000000000000 ) );
#200 = FILL_AREA_STYLE( '', ( #224 ) );
#201 = EDGE_CURVE( '', #225, #226, #227, .F. );
#202 = EDGE_CURVE( '', #226, #225, #228, .F. );
#203 = EDGE_CURVE( '', #229, #230, #231, .F. );
#204 = EDGE_CURVE( '', #230, #229, #232, .F. );
#205 = FILL_AREA_STYLE( '', ( #233 ) );
#206 = EDGE_CURVE( '', #234, #235, #236, .T. );
#207 = EDGE_CURVE( '', #235, #234, #237, .T. );
#208 = EDGE_CURVE( '', #238, #239, #240, .T. );
#209 = EDGE_CURVE( '', #239, #238, #241, .T. );
#210 = FILL_AREA_STYLE( '', ( #242 ) );
#211 = EDGE_CURVE( '', #243, #244, #245, .T. );
#212 = EDGE_CURVE( '', #244, #243, #246, .T. );
#213 = FILL_AREA_STYLE( '', ( #247 ) );
#214 = EDGE_CURVE( '', #248, #249, #250, .T. );
#215 = EDGE_CURVE( '', #249, #248, #251, .T. );
#216 = FILL_AREA_STYLE( '', ( #252 ) );
#217 = EDGE_CURVE( '', #253, #254, #255, .T. );
#218 = EDGE_CURVE( '', #254, #253, #256, .T. );
#219 = FILL_AREA_STYLE( '', ( #257 ) );
#220 = FILL_AREA_STYLE( '', ( #258 ) );
#221 = EDGE_CURVE( '', #259, #260, #261, .F. );
#222 = EDGE_CURVE( '', #260, #259, #262, .F. );
#223 = FILL_AREA_STYLE( '', ( #263 ) );
#224 = FILL_AREA_STYLE_COLOUR( '', #264 );
#225 = VERTEX_POINT( '', #265 );
#226 = VERTEX_POINT( '', #266 );
#227 = B_SPLINE_CURVE_WITH_KNOTS( '', 2, ( #267, #268, #269, #270, #271, #272, #273, #274, #275, #276, #277, #278, #279, #280, #281, #282, #283 ), .UNSPECIFIED., .F., .F., ( 3, 2, 2, 2, 2, 2, 2, 2, 3 ), ( 0.00000000000000, 0.125000000000000, 0.250000000000000, 0.375000000000000, 0.500000000000000, 0.625000000000000, 0.750000000000000, 0.875000000000000, 1.00000000000000 ), .UNSPECIFIED. );
#228 = B_SPLINE_CURVE_WITH_KNOTS( '', 2, ( #284, #285, #286, #287, #288, #289, #290, #291, #292, #293, #294, #295, #296, #297, #298, #299, #300 ), .UNSPECIFIED., .F., .F., ( 3, 2, 2, 2, 2, 2, 2, 2, 3 ), ( 0.00000000000000, 0.125000000000000, 0.250000000000000, 0.375000000000000, 0.500000000000000, 0.625000000000000, 0.750000000000000, 0.875000000000000, 1.00000000000000 ), .UNSPECIFIED. );
#229 = VERTEX_POINT( '', #301 );
#230 = VERTEX_POINT( '', #302 );
#231 = B_SPLINE_CURVE_WITH_KNOTS( '', 3, ( #303, #304, #305, #306, #307, #308, #309, #310, #311, #312, #313, #314, #315, #316, #317, #318, #319, #320 ), .UNSPECIFIED., .F., .F., ( 4, 2, 2, 2, 2, 2, 2, 2, 4 ), ( 0.00000000000000, 0.125000000000000, 0.250000000000000, 0.375000000000000, 0.500000000000000, 0.625000000000000, 0.750000000000000, 0.875000000000000, 1.00000000000000 ), .UNSPECIFIED. );
#232 = B_SPLINE_CURVE_WITH_KNOTS( '', 3, ( #321, #322, #323, #324, #325, #326, #327, #328, #329, #330, #331, #332, #333, #334, #335, #336, #337, #338 ), .UNSPECIFIED., .F., .F., ( 4, 2, 2, 2, 2, 2, 2, 2, 4 ), ( 0.00000000000000, 0.125000000000000, 0.250000000000000, 0.375000000000000, 0.500000000000000, 0.625000000000000, 0.750000000000000, 0.875000000000000, 1.00000000000000 ), .UNSPECIFIED. );
#233 = FILL_AREA_STYLE_COLOUR( '', #339 );
#234 = VERTEX_POINT( '', #340 );
#235 = VERTEX_POINT( '', #341 );
#236 = B_SPLINE_CURVE_WITH_KNOTS( '', 2, ( #342, #343, #344, #345, #346, #347, #348, #349, #350, #351, #352, #353, #354, #355, #356, #357, #358 ), .UNSPECIFIED., .F., .F., ( 3, 2, 2, 2, 2, 2, 2, 2, 3 ), ( 0.00000000000000, 0.125000000000000, 0.250000000000000, 0.375000000000000, 0.500000000000000, 0.625000000000000, 0.750000000000000, 0.875000000000000, 1.00000000000000 ), .UNSPECIFIED. );
#237 = B_SPLINE_CURVE_WITH_KNOTS( '', 2, ( #359, #360, #361, #362, #363, #364, #365, #366, #367, #368, #369, #370, #371, #372, #373, #374, #375 ), .UNSPECIFIED., .F., .F., ( 3, 2, 2, 2, 2, 2, 2, 2, 3 ), ( 0.00000000000000, 0.125000000000000, 0.250000000000000, 0.375000000000000, 0.500000000000000, 0.625000000000000, 0.750000000000000, 0.875000000000000, 1.00000000000000 ), .UNSPECIFIED. );
#238 = VERTEX_POINT( '', #376 );
#239 = VERTEX_POINT( '', #377 );
#240 = B_SPLINE_CURVE_WITH_KNOTS( '', 3, ( #378, #379, #380, #381, #382, #383, #384, #385, #386, #387, #388, #389, #390, #391, #392, #393, #394, #395 ), .UNSPECIFIED., .F., .F., ( 4, 2, 2, 2, 2, 2, 2, 2, 4 ), ( 0.00000000000000, 0.125000000000000, 0.250000000000000, 0.375000000000000, 0.500000000000000, 0.625000000000000, 0.750000000000000, 0.875000000000000, 1.00000000000000 ), .UNSPECIFIED. );
#241 = B_SPLINE_CURVE_WITH_KNOTS( '', 3, ( #396, #397, #398, #399, #400, #401, #402, #403, #404, #405, #406, #407, #408, #409, #410, #411, #412, #413 ), .UNSPECIFIED., .F., .F., ( 4, 2, 2, 2, 2, 2, 2, 2, 4 ), ( 0.00000000000000, 0.125000000000000, 0.250000000000000, 0.375000000000000, 0.500000000000000, 0.625000000000000, 0.750000000000000, 0.875000000000000, 1.00000000000000 ), .UNSPECIFIED. );
#242 = FILL_AREA_STYLE_COLOUR( '', #414 );
#243 = VERTEX_POINT( '', #415 );
#244 = VERTEX_POINT( '', #416 );
#245 = B_SPLINE_CURVE_WITH_KNOTS( '', 2, ( #417, #418, #419, #420, #421, #422, #423, #424, #425, #426, #427, #428, #429, #430, #431, #432, #433 ), .UNSPECIFIED., .F., .F., ( 3, 2, 2, 2, 2, 2, 2, 2, 3 ), ( 0.00000000000000, 0.125000000000000, 0.250000000000000, 0.375000000000000, 0.500000000000000, 0.625000000000000, 0.750000000000000, 0.875000000000000, 1.00000000000000 ), .UNSPECIFIED. );
#246 = B_SPLINE_CURVE_WITH_KNOTS( '', 2, ( #434, #435, #436, #437, #438, #439, #440, #441, #442, #443, #444, #445, #446, #447, #448, #449, #450 ), .UNSPECIFIED., .F., .F., ( 3, 2, 2, 2, 2, 2, 2, 2, 3 ), ( 0.00000000000000, 0.125000000000000, 0.250000000000000, 0.375000000000000, 0.500000000000000, 0.625000000000000, 0.750000000000000, 0.875000000000000, 1.00000000000000 ), .UNSPECIFIED. );
#247 = FILL_AREA_STYLE_COLOUR( '', #451 );
#248 = VERTEX_POINT( '', #452 );
#249 = VERTEX_POINT( '', #453 );
#250 = B_SPLINE_CURVE_WITH_KNOTS( '', 3, ( #454, #455, #456, #457, #458, #459, #460, #461, #462, #463, #464, #465, #466, #467, #468, #469, #470, #471 ), .UNSPECIFIED., .F., .F., ( 4, 2, 2, 2, 2, 2, 2, 2, 4 ), ( 0.00000000000000, 0.125000000000000, 0.250000000000000, 0.375000000000000, 0.500000000000000, 0.625000000000000, 0.750000000000000, 0.875000000000000, 1.00000000000000 ), .UNSPECIFIED. );
#251 = B_SPLINE_CURVE_WITH_KNOTS( '', 3, ( #472, #473, #474, #475, #476, #477, #478, #479, #480, #481, #482, #483, #484, #485, #486, #487, #488, #489 ), .UNSPECIFIED., .F., .F., ( 4, 2, 2, 2, 2, 2, 2, 2, 4 ), ( 0.00000000000000, 0.125000000000000, 0.250000000000000, 0.375000000000000, 0.500000000000000, 0.625000000000000, 0.750000000000000, 0.875000000000000, 1.00000000000000 ), .UNSPECIFIED. );
#252 = FILL_AREA_STYLE_COLOUR( '', #490 );
#253 = VERTEX_POINT( '', #491 );
#254 = VERTEX_POINT( '', #492 );
#255 = B_SPLINE_CURVE_WITH_KNOTS( '', 2, ( #493, #494, #495, #496, #497, #498, #499, #500, #501, #502, #503, #504, #505, #506, #507, #508, #509 ), .UNSPECIFIED., .F., .F., ( 3, 2, 2, 2, 2, 2, 2, 2, 3 ), ( 0.00000000000000, 0.125000000000000, 0.250000000000000, 0.375000000000000, 0.500000000000000, 0.625000000000000, 0.750000000000000, 0.875000000000000, 1.00000000000000 ), .UNSPECIFIED. );
#256 = B_SPLINE_CURVE_WITH_KNOTS( '', 2, ( #510, #511, #512, #513, #514, #515, #516, #517, #518, #519, #520, #521, #522, #523, #524, #525, #526 ), .UNSPECIFIED., .F., .F., ( 3, 2, 2, 2, 2, 2, 2, 2, 3 ), ( 0.00000000000000, 0.125000000000000, 0.250000000000000, 0.375000000000000, 0.500000000000000, 0.625000000000000, 0.750000000000000, 0.875000000000000, 1.00000000000000 ), .UNSPECIFIED. );
#257 = FILL_AREA_STYLE_COLOUR( '', #527 );
#258 = FILL_AREA_STYLE_COLOUR( '', #528 );
#259 = VERTEX_POINT( '', #529 );
#260 = VERTEX_POINT( '', #530 );
#261 = B_SPLINE_CURVE_WITH_KNOTS( '', 3, ( #531, #532, #533, #534, #535, #536, #537, #538, #539, #540, #541, #542, #543, #544, #545, #546, #547, #548 ), .UNSPECIFIED., .F., .F., ( 4, 2, 2, 2, 2, 2, 2, 2, 4 ), ( 0.00000000000000, 0.125000000000000, 0.250000000000000, 0.375000000000000, 0.500000000000000, 0.625000000000000, 0.750000000000000, 0.875000000000000, 1.00000000000000 ), .UNSPECIFIED. );
#262 = B_SPLINE_CURVE_WITH_KNOTS( '', 3, ( #549, #550, #551, #552, #553, #554, #555, #556, #557, #558, #559, #560, #561, #562, #563, #564, #565, #566 ), .UNSPECIFIED., .F., .F., ( 4, 2, 2, 2, 2, 2, 2, 2, 4 ), ( 0.00000000000000, 0.125000000000000, 0.250000000000000, 0.375000000000000, 0.500000000000000, 0.625000000000000, 0.750000000000000, 0.875000000000000, 1.00000000000000 ), .UNSPECIFIED. );
#263 = FILL_AREA_STYLE_COLOUR( '', #567 );
#264 = COLOUR_RGB( '', 1.00000000000000, 0.756862759600000, 0.0549019612000000 );
#265 = CARTESIAN_POINT( '', ( 0.00250000000000334, -0.000700000000003333, 2.55134749822569E-19 ) );
#266 = CARTESIAN_POINT( '', ( -0.00250000000000334, -0.000700000000003333, -2.55134749822569E-19 ) );
#267 = CARTESIAN_POINT( '', ( -0.00250000000001000, -0.000700000000000000, 0.00000000000000 ) );
#268 = CARTESIAN_POINT( '', ( -0.00250000000001000, -0.000700000000000000, 0.000496994885841552 ) );
#269 = CARTESIAN_POINT( '', ( -0.00230969883128745, -0.000700000000000000, 0.000956708580916551 ) );
#270 = CARTESIAN_POINT( '', ( -0.00211970910994932, -0.000700000000000000, 0.00141566990737043 ) );
#271 = CARTESIAN_POINT( '', ( -0.00176776695297344, -0.000700000000000000, 0.00176776695297344 ) );
#272 = CARTESIAN_POINT( '', ( -0.00141660244231160, -0.000700000000000000, 0.00211908601002272 ) );
#273 = CARTESIAN_POINT( '', ( -0.000956708580916551, -0.000700000000000000, 0.00230969883128745 ) );
#274 = CARTESIAN_POINT( '', ( -0.000497830894364614, -0.000700000000000000, 0.00249989047721151 ) );
#275 = CARTESIAN_POINT( '', ( 0.00000000000000, -0.000700000000000000, 0.00250000000001000 ) );
#276 = CARTESIAN_POINT( '', ( 0.000496730894400982, -0.000700000000000000, 0.00250010928080848 ) );
#277 = CARTESIAN_POINT( '', ( 0.000956708580916551, -0.000700000000000000, 0.00230969883128745 ) );
#278 = CARTESIAN_POINT( '', ( 0.00141566990737043, -0.000700000000000000, 0.00211970910994932 ) );
#279 = CARTESIAN_POINT( '', ( 0.00176776695297344, -0.000700000000000000, 0.00176776695297344 ) );
#280 = CARTESIAN_POINT( '', ( 0.00211908601002272, -0.000700000000000000, 0.00141660244231160 ) );
#281 = CARTESIAN_POINT( '', ( 0.00230969883128745, -0.000700000000000000, 0.000956708580916552 ) );
#282 = CARTESIAN_POINT( '', ( 0.00250000000001000, -0.000700000000000000, 0.000497566647382849 ) );
#283 = CARTESIAN_POINT( '', ( 0.00250000000001000, -0.000700000000000000, 3.06161699788063E-19 ) );
#284 = CARTESIAN_POINT( '', ( 0.00250000000001000, -0.000700000000000000, 0.00000000000000 ) );
#285 = CARTESIAN_POINT( '', ( 0.00250000000001000, -0.000700000000000000, -0.000496994885841552 ) );
#286 = CARTESIAN_POINT( '', ( 0.00230969883128745, -0.000700000000000000, -0.000956708580916551 ) );
#287 = CARTESIAN_POINT( '', ( 0.00211970910994932, -0.000700000000000000, -0.00141566990737043 ) );
#288 = CARTESIAN_POINT( '', ( 0.00176776695297344, -0.000700000000000000, -0.00176776695297344 ) );
#289 = CARTESIAN_POINT( '', ( 0.00141660244231160, -0.000700000000000000, -0.00211908601002272 ) );
#290 = CARTESIAN_POINT( '', ( 0.000956708580916551, -0.000700000000000000, -0.00230969883128745 ) );
#291 = CARTESIAN_POINT( '', ( 0.000497830894364614, -0.000700000000000000, -0.00249989047721151 ) );
#292 = CARTESIAN_POINT( '', ( 0.00000000000000, -0.000700000000000000, -0.00250000000001000 ) );
#293 = CARTESIAN_POINT( '', ( -0.000496730894400982, -0.000700000000000000, -0.00250010928080848 ) );
#294 = CARTESIAN_POINT( '', ( -0.000956708580916551, -0.000700000000000000, -0.00230969883128745 ) );
#295 = CARTESIAN_POINT( '', ( -0.00141566990737043, -0.000700000000000000, -0.00211970910994932 ) );
#296 = CARTESIAN_POINT( '', ( -0.00176776695297344, -0.000700000000000000, -0.00176776695297344 ) );
#297 = CARTESIAN_POINT( '', ( -0.00211908601002272, -0.000700000000000000, -0.00141660244231160 ) );
#298 = CARTESIAN_POINT( '', ( -0.00230969883128745, -0.000700000000000000, -0.000956708580916552 ) );
#299 = CARTESIAN_POINT( '', ( -0.00250000000001000, -0.000700000000000000, -0.000497566647382849 ) );
#300 = CARTESIAN_POINT( '', ( -0.00250000000001000, -0.000700000000000000, -3.06161699788063E-19 ) );
#301 = CARTESIAN_POINT( '', ( 0.00201000000000334, -0.000700000000006667, 1.23077003314105E-19 ) );
#302 = CARTESIAN_POINT( '', ( -0.00201000000000334, -0.000700000000006667, -1.23077003314105E-19 ) );
#303 = CARTESIAN_POINT( '', ( -0.00201000000000000, -0.000700000000010000, 4.21694255236451E-18 ) );
#304 = CARTESIAN_POINT( '', ( -0.00201000000000000, -0.000700000000010000, 0.000263108384738150 ) );
#305 = CARTESIAN_POINT( '', ( -0.00195768508010331, -0.000700000000010000, 0.000526113247562157 ) );
#306 = CARTESIAN_POINT( '', ( -0.00175631064059206, -0.000700000000010000, 0.00101227415054551 ) );
#307 = CARTESIAN_POINT( '', ( -0.00160733035322034, -0.000700000000010000, 0.00123523890714958 ) );
#308 = CARTESIAN_POINT( '', ( -0.00123523890714957, -0.000700000000010000, 0.00160733035322035 ) );
#309 = CARTESIAN_POINT( '', ( -0.00101227415054550, -0.000700000000010000, 0.00175631064059206 ) );
#310 = CARTESIAN_POINT( '', ( -0.000526113247562147, -0.000700000000010000, 0.00195768508010332 ) );
#311 = CARTESIAN_POINT( '', ( -0.000263108384738139, -0.000700000000010000, 0.00201000000000000 ) );
#312 = CARTESIAN_POINT( '', ( 0.000263108384738152, -0.000700000000010000, 0.00201000000000000 ) );
#313 = CARTESIAN_POINT( '', ( 0.000526113247562160, -0.000700000000010000, 0.00195768508010331 ) );
#314 = CARTESIAN_POINT( '', ( 0.00101227415054551, -0.000700000000010000, 0.00175631064059205 ) );
#315 = CARTESIAN_POINT( '', ( 0.00123523890714959, -0.000700000000010000, 0.00160733035322034 ) );
#316 = CARTESIAN_POINT( '', ( 0.00160733035322035, -0.000700000000010000, 0.00123523890714957 ) );
#317 = CARTESIAN_POINT( '', ( 0.00175631064059206, -0.000700000000010000, 0.00101227415054550 ) );
#318 = CARTESIAN_POINT( '', ( 0.00195768508010332, -0.000700000000010000, 0.000526113247562146 ) );
#319 = CARTESIAN_POINT( '', ( 0.00201000000000000, -0.000700000000010000, 0.000263108384738137 ) );
#320 = CARTESIAN_POINT( '', ( 0.00201000000000000, -0.000700000000010000, -9.13494667282876E-18 ) );
#321 = CARTESIAN_POINT( '', ( 0.00201000000000000, -0.000700000000010000, 0.00000000000000 ) );
#322 = CARTESIAN_POINT( '', ( 0.00201000000000000, -0.000700000000010000, -0.000263108384738146 ) );
#323 = CARTESIAN_POINT( '', ( 0.00195768508010331, -0.000700000000010000, -0.000526113247562154 ) );
#324 = CARTESIAN_POINT( '', ( 0.00175631064059206, -0.000700000000010000, -0.00101227415054551 ) );
#325 = CARTESIAN_POINT( '', ( 0.00160733035322034, -0.000700000000010000, -0.00123523890714958 ) );
#326 = CARTESIAN_POINT( '', ( 0.00123523890714958, -0.000700000000010000, -0.00160733035322034 ) );
#327 = CARTESIAN_POINT( '', ( 0.00101227415054551, -0.000700000000010000, -0.00175631064059206 ) );
#328 = CARTESIAN_POINT( '', ( 0.000526113247562151, -0.000700000000010000, -0.00195768508010331 ) );
#329 = CARTESIAN_POINT( '', ( 0.000263108384738143, -0.000700000000010000, -0.00201000000000000 ) );
#330 = CARTESIAN_POINT( '', ( -0.000263108384738148, -0.000700000000010000, -0.00201000000000000 ) );
#331 = CARTESIAN_POINT( '', ( -0.000526113247562155, -0.000700000000010000, -0.00195768508010331 ) );
#332 = CARTESIAN_POINT( '', ( -0.00101227415054551, -0.000700000000010000, -0.00175631064059206 ) );
#333 = CARTESIAN_POINT( '', ( -0.00123523890714958, -0.000700000000010000, -0.00160733035322034 ) );
#334 = CARTESIAN_POINT( '', ( -0.00160733035322034, -0.000700000000010000, -0.00123523890714958 ) );
#335 = CARTESIAN_POINT( '', ( -0.00175631064059206, -0.000700000000010000, -0.00101227415054550 ) );
#336 = CARTESIAN_POINT( '', ( -0.00195768508010332, -0.000700000000010000, -0.000526113247562150 ) );
#337 = CARTESIAN_POINT( '', ( -0.00201000000000000, -0.000700000000010000, -0.000263108384738141 ) );
#338 = CARTESIAN_POINT( '', ( -0.00201000000000000, -0.000700000000010000, 4.21694255236451E-18 ) );
#339 = COLOUR_RGB( '', 1.00000000000000, 0.756862759600000, 0.0549019612000000 );
#340 = CARTESIAN_POINT( '', ( -0.00250000000000334, 0.00150000000001000, -1.53080849893215E-19 ) );
#341 = CARTESIAN_POINT( '', ( 0.00250000000000334, 0.00150000000001000, 1.53080849893215E-19 ) );
#342 = CARTESIAN_POINT( '', ( -0.00250000000001000, 0.00150000000000000, 0.00000000000000 ) );
#343 = CARTESIAN_POINT( '', ( -0.00250000000001000, 0.00150000000000000, -0.000496994885841552 ) );
#344 = CARTESIAN_POINT( '', ( -0.00230969883128745, 0.00150000000000000, -0.000956708580916551 ) );
#345 = CARTESIAN_POINT( '', ( -0.00211970910994932, 0.00150000000000000, -0.00141566990737043 ) );
#346 = CARTESIAN_POINT( '', ( -0.00176776695297344, 0.00150000000000000, -0.00176776695297344 ) );
#347 = CARTESIAN_POINT( '', ( -0.00141660244231160, 0.00150000000000000, -0.00211908601002272 ) );
#348 = CARTESIAN_POINT( '', ( -0.000956708580916551, 0.00150000000000000, -0.00230969883128745 ) );
#349 = CARTESIAN_POINT( '', ( -0.000497830894364614, 0.00150000000000000, -0.00249989047721151 ) );
#350 = CARTESIAN_POINT( '', ( 0.00000000000000, 0.00150000000000000, -0.00250000000001000 ) );
#351 = CARTESIAN_POINT( '', ( 0.000496730894400982, 0.00150000000000000, -0.00250010928080848 ) );
#352 = CARTESIAN_POINT( '', ( 0.000956708580916551, 0.00150000000000000, -0.00230969883128745 ) );
#353 = CARTESIAN_POINT( '', ( 0.00141566990737043, 0.00150000000000000, -0.00211970910994932 ) );
#354 = CARTESIAN_POINT( '', ( 0.00176776695297344, 0.00150000000000000, -0.00176776695297344 ) );
#355 = CARTESIAN_POINT( '', ( 0.00211908601002272, 0.00150000000000000, -0.00141660244231160 ) );
#356 = CARTESIAN_POINT( '', ( 0.00230969883128745, 0.00150000000000000, -0.000956708580916552 ) );
#357 = CARTESIAN_POINT( '', ( 0.00250000000001000, 0.00150000000000000, -0.000497566647382849 ) );
#358 = CARTESIAN_POINT( '', ( 0.00250000000001000, 0.00150000000000000, -3.06161699788063E-19 ) );
#359 = CARTESIAN_POINT( '', ( 0.00250000000001000, 0.00150000000000000, 0.00000000000000 ) );
#360 = CARTESIAN_POINT( '', ( 0.00250000000001000, 0.00150000000000000, 0.000496994885841552 ) );
#361 = CARTESIAN_POINT( '', ( 0.00230969883128745, 0.00150000000000000, 0.000956708580916551 ) );
#362 = CARTESIAN_POINT( '', ( 0.00211970910994932, 0.00150000000000000, 0.00141566990737043 ) );
#363 = CARTESIAN_POINT( '', ( 0.00176776695297344, 0.00150000000000000, 0.00176776695297344 ) );
#364 = CARTESIAN_POINT( '', ( 0.00141660244231160, 0.00150000000000000, 0.00211908601002272 ) );
#365 = CARTESIAN_POINT( '', ( 0.000956708580916551, 0.00150000000000000, 0.00230969883128745 ) );
#366 = CARTESIAN_POINT( '', ( 0.000497830894364614, 0.00150000000000000, 0.00249989047721151 ) );
#367 = CARTESIAN_POINT( '', ( 0.00000000000000, 0.00150000000000000, 0.00250000000001000 ) );
#368 = CARTESIAN_POINT( '', ( -0.000496730894400982, 0.00150000000000000, 0.00250010928080848 ) );
#369 = CARTESIAN_POINT( '', ( -0.000956708580916551, 0.00150000000000000, 0.00230969883128745 ) );
#370 = CARTESIAN_POINT( '', ( -0.00141566990737043, 0.00150000000000000, 0.00211970910994932 ) );
#371 = CARTESIAN_POINT( '', ( -0.00176776695297344, 0.00150000000000000, 0.00176776695297344 ) );
#372 = CARTESIAN_POINT( '', ( -0.00211908601002272, 0.00150000000000000, 0.00141660244231160 ) );
#373 = CARTESIAN_POINT( '', ( -0.00230969883128745, 0.00150000000000000, 0.000956708580916552 ) );
#374 = CARTESIAN_POINT( '', ( -0.00250000000001000, 0.00150000000000000, 0.000497566647382849 ) );
#375 = CARTESIAN_POINT( '', ( -0.00250000000001000, 0.00150000000000000, 3.06161699788063E-19 ) );
#376 = CARTESIAN_POINT( '', ( 0.00350000000000334, 0.00150000000000334, 3.57188649751515E-19 ) );
#377 = CARTESIAN_POINT( '', ( -0.00350000000000334, 0.00150000000000334, -3.57188649751515E-19 ) );
#378 = CARTESIAN_POINT( '', ( 0.00350000000000000, 0.00150000000001000, -1.46858695853490E-17 ) );
#379 = CARTESIAN_POINT( '', ( 0.00350000000000000, 0.00150000000001000, 0.000458148928648497 ) );
#380 = CARTESIAN_POINT( '', ( 0.00340890436833911, 0.00150000000001000, 0.000916117595257467 ) );
#381 = CARTESIAN_POINT( '', ( 0.00305825235923991, 0.00150000000001000, 0.00176266643129814 ) );
#382 = CARTESIAN_POINT( '', ( 0.00279883394839364, 0.00150000000001000, 0.00215091351991219 ) );
#383 = CARTESIAN_POINT( '', ( 0.00215091351991221, 0.00150000000001000, 0.00279883394839362 ) );
#384 = CARTESIAN_POINT( '', ( 0.00176266643129816, 0.00150000000001000, 0.00305825235923990 ) );
#385 = CARTESIAN_POINT( '', ( 0.000916117595257493, 0.00150000000001000, 0.00340890436833910 ) );
#386 = CARTESIAN_POINT( '', ( 0.000458148928648523, 0.00150000000001000, 0.00350000000000000 ) );
#387 = CARTESIAN_POINT( '', ( -0.000458148928648500, 0.00150000000001000, 0.00350000000000000 ) );
#388 = CARTESIAN_POINT( '', ( -0.000916117595257470, 0.00150000000001000, 0.00340890436833911 ) );
#389 = CARTESIAN_POINT( '', ( -0.00176266643129814, 0.00150000000001000, 0.00305825235923991 ) );
#390 = CARTESIAN_POINT( '', ( -0.00215091351991220, 0.00150000000001000, 0.00279883394839364 ) );
#391 = CARTESIAN_POINT( '', ( -0.00279883394839363, 0.00150000000001000, 0.00215091351991221 ) );
#392 = CARTESIAN_POINT( '', ( -0.00305825235923990, 0.00150000000001000, 0.00176266643129815 ) );
#393 = CARTESIAN_POINT( '', ( -0.00340890436833910, 0.00150000000001000, 0.000916117595257487 ) );
#394 = CARTESIAN_POINT( '', ( -0.00350000000000000, 0.00150000000001000, 0.000458148928648519 ) );
#395 = CARTESIAN_POINT( '', ( -0.00350000000000000, 0.00150000000001000, 6.12218081837150E-18 ) );
#396 = CARTESIAN_POINT( '', ( -0.00350000000000000, 0.00150000000001000, 7.34293479267452E-18 ) );
#397 = CARTESIAN_POINT( '', ( -0.00350000000000000, 0.00150000000001000, -0.000458148928648505 ) );
#398 = CARTESIAN_POINT( '', ( -0.00340890436833911, 0.00150000000001000, -0.000916117595257475 ) );
#399 = CARTESIAN_POINT( '', ( -0.00305825235923990, 0.00150000000001000, -0.00176266643129814 ) );
#400 = CARTESIAN_POINT( '', ( -0.00279883394839363, 0.00150000000001000, -0.00215091351991220 ) );
#401 = CARTESIAN_POINT( '', ( -0.00215091351991221, 0.00150000000001000, -0.00279883394839363 ) );
#402 = CARTESIAN_POINT( '', ( -0.00176266643129815, 0.00150000000001000, -0.00305825235923990 ) );
#403 = CARTESIAN_POINT( '', ( -0.000916117595257485, 0.00150000000001000, -0.00340890436833910 ) );
#404 = CARTESIAN_POINT( '', ( -0.000458148928648516, 0.00150000000001000, -0.00350000000000000 ) );
#405 = CARTESIAN_POINT( '', ( 0.000458148928648508, 0.00150000000001000, -0.00350000000000000 ) );
#406 = CARTESIAN_POINT( '', ( 0.000916117595257477, 0.00150000000001000, -0.00340890436833911 ) );
#407 = CARTESIAN_POINT( '', ( 0.00176266643129815, 0.00150000000001000, -0.00305825235923990 ) );
#408 = CARTESIAN_POINT( '', ( 0.00215091351991220, 0.00150000000001000, -0.00279883394839363 ) );
#409 = CARTESIAN_POINT( '', ( 0.00279883394839363, 0.00150000000001000, -0.00215091351991220 ) );
#410 = CARTESIAN_POINT( '', ( 0.00305825235923990, 0.00150000000001000, -0.00176266643129815 ) );
#411 = CARTESIAN_POINT( '', ( 0.00340890436833910, 0.00150000000001000, -0.000916117595257481 ) );
#412 = CARTESIAN_POINT( '', ( 0.00350000000000000, 0.00150000000001000, -0.000458148928648512 ) );
#413 = CARTESIAN_POINT( '', ( 0.00350000000000000, 0.00150000000001000, 1.22075397430302E-18 ) );
#414 = COLOUR_RGB( '', 1.00000000000000, 0.756862759600000, 0.0549019612000000 );
#415 = CARTESIAN_POINT( '', ( -0.00201000000000334, 0.000700000000003333, -1.23077003314105E-19 ) );
#416 = CARTESIAN_POINT( '', ( 0.00201000000000334, 0.000700000000003333, 1.23077003314105E-19 ) );
#417 = CARTESIAN_POINT( '', ( -0.00201000000001000, 0.000700000000000000, 0.00000000000000 ) );
#418 = CARTESIAN_POINT( '', ( -0.00201000000001000, 0.000700000000000000, -0.000399527788762989 ) );
#419 = CARTESIAN_POINT( '', ( -0.00185699786035693, 0.000700000000000000, -0.000769193699057657 ) );
#420 = CARTESIAN_POINT( '', ( -0.00170430714307619, 0.000700000000000000, -0.00113810718696779 ) );
#421 = CARTESIAN_POINT( '', ( -0.00142128463019203, 0.000700000000000000, -0.00142128463019203 ) );
#422 = CARTESIAN_POINT( '', ( -0.00113903972189270, 0.000700000000000000, -0.00170368404316021 ) );
#423 = CARTESIAN_POINT( '', ( -0.000769193699057657, 0.000700000000000000, -0.00185699786035693 ) );
#424 = CARTESIAN_POINT( '', ( -0.000400363828471665, 0.000700000000000000, -0.00200989044771598 ) );
#425 = CARTESIAN_POINT( '', ( 0.00000000000000, 0.000700000000000000, -0.00201000000001000 ) );
#426 = CARTESIAN_POINT( '', ( 0.000399263828527147, 0.000700000000000000, -0.00201010925130899 ) );
#427 = CARTESIAN_POINT( '', ( 0.000769193699057657, 0.000700000000000000, -0.00185699786035693 ) );
#428 = CARTESIAN_POINT( '', ( 0.00113810718696765, 0.000700000000000000, -0.00170430714307617 ) );
#429 = CARTESIAN_POINT( '', ( 0.00142128463019203, 0.000700000000000000, -0.00142128463019203 ) );
#430 = CARTESIAN_POINT( '', ( 0.00170368404316001, 0.000700000000000000, -0.00113903972189306 ) );
#431 = CARTESIAN_POINT( '', ( 0.00185699786035693, 0.000700000000000000, -0.000769193699057658 ) );
#432 = CARTESIAN_POINT( '', ( 0.00201000000001000, 0.000700000000000000, -0.000400099550398407 ) );
#433 = CARTESIAN_POINT( '', ( 0.00201000000001000, 0.000700000000000000, -2.46154006629842E-19 ) );
#434 = CARTESIAN_POINT( '', ( 0.00201000000001000, 0.000700000000000000, 0.00000000000000 ) );
#435 = CARTESIAN_POINT( '', ( 0.00201000000001000, 0.000700000000000000, 0.000399527788762989 ) );
#436 = CARTESIAN_POINT( '', ( 0.00185699786035693, 0.000700000000000000, 0.000769193699057657 ) );
#437 = CARTESIAN_POINT( '', ( 0.00170430714307619, 0.000700000000000000, 0.00113810718696779 ) );
#438 = CARTESIAN_POINT( '', ( 0.00142128463019203, 0.000700000000000000, 0.00142128463019203 ) );
#439 = CARTESIAN_POINT( '', ( 0.00113903972189270, 0.000700000000000000, 0.00170368404316021 ) );
#440 = CARTESIAN_POINT( '', ( 0.000769193699057657, 0.000700000000000000, 0.00185699786035693 ) );
#441 = CARTESIAN_POINT( '', ( 0.000400363828471665, 0.000700000000000000, 0.00200989044771598 ) );
#442 = CARTESIAN_POINT( '', ( 0.00000000000000, 0.000700000000000000, 0.00201000000001000 ) );
#443 = CARTESIAN_POINT( '', ( -0.000399263828527147, 0.000700000000000000, 0.00201010925130899 ) );
#444 = CARTESIAN_POINT( '', ( -0.000769193699057657, 0.000700000000000000, 0.00185699786035693 ) );
#445 = CARTESIAN_POINT( '', ( -0.00113810718696765, 0.000700000000000000, 0.00170430714307617 ) );
#446 = CARTESIAN_POINT( '', ( -0.00142128463019203, 0.000700000000000000, 0.00142128463019203 ) );
#447 = CARTESIAN_POINT( '', ( -0.00170368404316001, 0.000700000000000000, 0.00113903972189306 ) );
#448 = CARTESIAN_POINT( '', ( -0.00185699786035693, 0.000700000000000000, 0.000769193699057658 ) );
#449 = CARTESIAN_POINT( '', ( -0.00201000000001000, 0.000700000000000000, 0.000400099550398407 ) );
#450 = CARTESIAN_POINT( '', ( -0.00201000000001000, 0.000700000000000000, 2.46154006629842E-19 ) );
#451 = COLOUR_RGB( '', 1.00000000000000, 0.756862759600000, 0.0549019612000000 );
#452 = CARTESIAN_POINT( '', ( -0.00350000000000334, -0.00150000000000667, -3.57188649751515E-19 ) );
#453 = CARTESIAN_POINT( '', ( 0.00350000000000334, -0.00150000000000667, 3.57188649751515E-19 ) );
#454 = CARTESIAN_POINT( '', ( -0.00350000000000000, -0.00150000000001000, 7.34293479267452E-18 ) );
#455 = CARTESIAN_POINT( '', ( -0.00350000000000000, -0.00150000000001000, 0.000458148928648519 ) );
#456 = CARTESIAN_POINT( '', ( -0.00340890436833910, -0.00150000000001000, 0.000916117595257488 ) );
#457 = CARTESIAN_POINT( '', ( -0.00305825235923990, -0.00150000000001000, 0.00176266643129815 ) );
#458 = CARTESIAN_POINT( '', ( -0.00279883394839363, -0.00150000000001000, 0.00215091351991221 ) );
#459 = CARTESIAN_POINT( '', ( -0.00215091351991219, -0.00150000000001000, 0.00279883394839364 ) );
#460 = CARTESIAN_POINT( '', ( -0.00176266643129814, -0.00150000000001000, 0.00305825235923991 ) );
#461 = CARTESIAN_POINT( '', ( -0.000916117595257470, -0.00150000000001000, 0.00340890436833911 ) );
#462 = CARTESIAN_POINT( '', ( -0.000458148928648500, -0.00150000000001000, 0.00350000000000000 ) );
#463 = CARTESIAN_POINT( '', ( 0.000458148928648524, -0.00150000000001000, 0.00350000000000000 ) );
#464 = CARTESIAN_POINT( '', ( 0.000916117595257493, -0.00150000000001000, 0.00340890436833910 ) );
#465 = CARTESIAN_POINT( '', ( 0.00176266643129816, -0.00150000000001000, 0.00305825235923990 ) );
#466 = CARTESIAN_POINT( '', ( 0.00215091351991221, -0.00150000000001000, 0.00279883394839362 ) );
#467 = CARTESIAN_POINT( '', ( 0.00279883394839364, -0.00150000000001000, 0.00215091351991219 ) );
#468 = CARTESIAN_POINT( '', ( 0.00305825235923991, -0.00150000000001000, 0.00176266643129814 ) );
#469 = CARTESIAN_POINT( '', ( 0.00340890436833911, -0.00150000000001000, 0.000916117595257467 ) );
#470 = CARTESIAN_POINT( '', ( 0.00350000000000000, -0.00150000000001000, 0.000458148928648497 ) );
#471 = CARTESIAN_POINT( '', ( 0.00350000000000000, -0.00150000000001000, -1.59066235596521E-17 ) );
#472 = CARTESIAN_POINT( '', ( 0.00350000000000000, -0.00150000000001000, 0.00000000000000 ) );
#473 = CARTESIAN_POINT( '', ( 0.00350000000000000, -0.00150000000001000, -0.000458148928648512 ) );
#474 = CARTESIAN_POINT( '', ( 0.00340890436833910, -0.00150000000001000, -0.000916117595257481 ) );
#475 = CARTESIAN_POINT( '', ( 0.00305825235923990, -0.00150000000001000, -0.00176266643129815 ) );
#476 = CARTESIAN_POINT( '', ( 0.00279883394839363, -0.00150000000001000, -0.00215091351991220 ) );
#477 = CARTESIAN_POINT( '', ( 0.00215091351991220, -0.00150000000001000, -0.00279883394839363 ) );
#478 = CARTESIAN_POINT( '', ( 0.00176266643129815, -0.00150000000001000, -0.00305825235923990 ) );
#479 = CARTESIAN_POINT( '', ( 0.000916117595257477, -0.00150000000001000, -0.00340890436833910 ) );
#480 = CARTESIAN_POINT( '', ( 0.000458148928648508, -0.00150000000001000, -0.00350000000000000 ) );
#481 = CARTESIAN_POINT( '', ( -0.000458148928648516, -0.00150000000001000, -0.00350000000000000 ) );
#482 = CARTESIAN_POINT( '', ( -0.000916117595257485, -0.00150000000001000, -0.00340890436833910 ) );
#483 = CARTESIAN_POINT( '', ( -0.00176266643129815, -0.00150000000001000, -0.00305825235923990 ) );
#484 = CARTESIAN_POINT( '', ( -0.00215091351991221, -0.00150000000001000, -0.00279883394839363 ) );
#485 = CARTESIAN_POINT( '', ( -0.00279883394839364, -0.00150000000001000, -0.00215091351991220 ) );
#486 = CARTESIAN_POINT( '', ( -0.00305825235923991, -0.00150000000001000, -0.00176266643129814 ) );
#487 = CARTESIAN_POINT( '', ( -0.00340890436833911, -0.00150000000001000, -0.000916117595257475 ) );
#488 = CARTESIAN_POINT( '', ( -0.00350000000000000, -0.00150000000001000, -0.000458148928648504 ) );
#489 = CARTESIAN_POINT( '', ( -0.00350000000000000, -0.00150000000001000, 8.56368876697754E-18 ) );
#490 = COLOUR_RGB( '', 1.00000000000000, 0.756862759600000, 0.0549019612000000 );
#491 = CARTESIAN_POINT( '', ( 0.00250000000000334, 0.000700000000006667, 2.55134749822569E-19 ) );
#492 = CARTESIAN_POINT( '', ( -0.00250000000000334, 0.000700000000006667, -2.55134749822569E-19 ) );
#493 = CARTESIAN_POINT( '', ( 0.00250000000001000, 0.000700000000000000, 0.00000000000000 ) );
#494 = CARTESIAN_POINT( '', ( 0.00250000000001000, 0.000700000000000000, -0.000496994885841552 ) );
#495 = CARTESIAN_POINT( '', ( 0.00230969883128745, 0.000700000000000000, -0.000956708580916551 ) );
#496 = CARTESIAN_POINT( '', ( 0.00211970910994932, 0.000700000000000000, -0.00141566990737043 ) );
#497 = CARTESIAN_POINT( '', ( 0.00176776695297344, 0.000700000000000000, -0.00176776695297344 ) );
#498 = CARTESIAN_POINT( '', ( 0.00141660244231160, 0.000700000000000000, -0.00211908601002272 ) );
#499 = CARTESIAN_POINT( '', ( 0.000956708580916551, 0.000700000000000000, -0.00230969883128745 ) );
#500 = CARTESIAN_POINT( '', ( 0.000497830894364614, 0.000700000000000000, -0.00249989047721151 ) );
#501 = CARTESIAN_POINT( '', ( 0.00000000000000, 0.000700000000000000, -0.00250000000001000 ) );
#502 = CARTESIAN_POINT( '', ( -0.000496730894400982, 0.000700000000000000, -0.00250010928080848 ) );
#503 = CARTESIAN_POINT( '', ( -0.000956708580916551, 0.000700000000000000, -0.00230969883128745 ) );
#504 = CARTESIAN_POINT( '', ( -0.00141566990737043, 0.000700000000000000, -0.00211970910994932 ) );
#505 = CARTESIAN_POINT( '', ( -0.00176776695297344, 0.000700000000000000, -0.00176776695297344 ) );
#506 = CARTESIAN_POINT( '', ( -0.00211908601002272, 0.000700000000000000, -0.00141660244231160 ) );
#507 = CARTESIAN_POINT( '', ( -0.00230969883128745, 0.000700000000000000, -0.000956708580916552 ) );
#508 = CARTESIAN_POINT( '', ( -0.00250000000001000, 0.000700000000000000, -0.000497566647382849 ) );
#509 = CARTESIAN_POINT( '', ( -0.00250000000001000, 0.000700000000000000, -3.06161699788063E-19 ) );
#510 = CARTESIAN_POINT( '', ( -0.00250000000001000, 0.000700000000000000, 0.00000000000000 ) );
#511 = CARTESIAN_POINT( '', ( -0.00250000000001000, 0.000700000000000000, 0.000496994885841552 ) );
#512 = CARTESIAN_POINT( '', ( -0.00230969883128745, 0.000700000000000000, 0.000956708580916551 ) );
#513 = CARTESIAN_POINT( '', ( -0.00211970910994932, 0.000700000000000000, 0.00141566990737043 ) );
#514 = CARTESIAN_POINT( '', ( -0.00176776695297344, 0.000700000000000000, 0.00176776695297344 ) );
#515 = CARTESIAN_POINT( '', ( -0.00141660244231160, 0.000700000000000000, 0.00211908601002272 ) );
#516 = CARTESIAN_POINT( '', ( -0.000956708580916551, 0.000700000000000000, 0.00230969883128745 ) );
#517 = CARTESIAN_POINT( '', ( -0.000497830894364614, 0.000700000000000000, 0.00249989047721151 ) );
#518 = CARTESIAN_POINT( '', ( 0.00000000000000, 0.000700000000000000, 0.00250000000001000 ) );
#519 = CARTESIAN_POINT( '', ( 0.000496730894400982, 0.000700000000000000, 0.00250010928080848 ) );
#520 = CARTESIAN_POINT( '', ( 0.000956708580916551, 0.000700000000000000, 0.00230969883128745 ) );
#521 = CARTESIAN_POINT( '', ( 0.00141566990737043, 0.000700000000000000, 0.00211970910994932 ) );
#522 = CARTESIAN_POINT( '', ( 0.00176776695297344, 0.000700000000000000, 0.00176776695297344 ) );
#523 = CARTESIAN_POINT( '', ( 0.00211908601002272, 0.000700000000000000, 0.00141660244231160 ) );
#524 = CARTESIAN_POINT( '', ( 0.00230969883128745, 0.000700000000000000, 0.000956708580916552 ) );
#525 = CARTESIAN_POINT( '', ( 0.00250000000001000, 0.000700000000000000, 0.000497566647382849 ) );
#526 = CARTESIAN_POINT( '', ( 0.00250000000001000, 0.000700000000000000, 3.06161699788063E-19 ) );
#527 = COLOUR_RGB( '', 1.00000000000000, 0.756862759600000, 0.0549019612000000 );
#528 = COLOUR_RGB( '', 1.00000000000000, 0.756862759600000, 0.0549019612000000 );
#529 = CARTESIAN_POINT( '', ( 0.00250000000000334, -0.00150000000000667, 1.53080849893215E-19 ) );
#530 = CARTESIAN_POINT( '', ( -0.00250000000000334, -0.00150000000000667, -1.53080849893215E-19 ) );
#531 = CARTESIAN_POINT( '', ( -0.00250000000000000, -0.00150000000001000, 5.24495342333894E-18 ) );
#532 = CARTESIAN_POINT( '', ( -0.00250000000000000, -0.00150000000001000, 0.000327249234748942 ) );
#533 = CARTESIAN_POINT( '', ( -0.00243493169167079, -0.00150000000001000, 0.000654369710898205 ) );
#534 = CARTESIAN_POINT( '', ( -0.00218446597088564, -0.00150000000001000, 0.00125904745092725 ) );
#535 = CARTESIAN_POINT( '', ( -0.00199916710599545, -0.00150000000001000, 0.00153636679993729 ) );
#536 = CARTESIAN_POINT( '', ( -0.00153636679993728, -0.00150000000001000, 0.00199916710599545 ) );
#537 = CARTESIAN_POINT( '', ( -0.00125904745092724, -0.00150000000001000, 0.00218446597088565 ) );
#538 = CARTESIAN_POINT( '', ( -0.000654369710898193, -0.00150000000001000, 0.00243493169167079 ) );
#539 = CARTESIAN_POINT( '', ( -0.000327249234748929, -0.00150000000001000, 0.00250000000000000 ) );
#540 = CARTESIAN_POINT( '', ( 0.000327249234748946, -0.00150000000001000, 0.00250000000000000 ) );
#541 = CARTESIAN_POINT( '', ( 0.000654369710898209, -0.00150000000001000, 0.00243493169167079 ) );
#542 = CARTESIAN_POINT( '', ( 0.00125904745092726, -0.00150000000001000, 0.00218446597088564 ) );
#543 = CARTESIAN_POINT( '', ( 0.00153636679993730, -0.00150000000001000, 0.00199916710599544 ) );
#544 = CARTESIAN_POINT( '', ( 0.00199916710599546, -0.00150000000001000, 0.00153636679993728 ) );
#545 = CARTESIAN_POINT( '', ( 0.00218446597088565, -0.00150000000001000, 0.00125904745092724 ) );
#546 = CARTESIAN_POINT( '', ( 0.00243493169167079, -0.00150000000001000, 0.000654369710898191 ) );
#547 = CARTESIAN_POINT( '', ( 0.00250000000000000, -0.00150000000001000, 0.000327249234748927 ) );
#548 = CARTESIAN_POINT( '', ( 0.00250000000000000, -0.00150000000001000, -1.13618739711800E-17 ) );
#549 = CARTESIAN_POINT( '', ( 0.00250000000000000, -0.00150000000001000, 0.00000000000000 ) );
#550 = CARTESIAN_POINT( '', ( 0.00250000000000000, -0.00150000000001000, -0.000327249234748937 ) );
#551 = CARTESIAN_POINT( '', ( 0.00243493169167079, -0.00150000000001000, -0.000654369710898201 ) );
#552 = CARTESIAN_POINT( '', ( 0.00218446597088564, -0.00150000000001000, -0.00125904745092725 ) );
#553 = CARTESIAN_POINT( '', ( 0.00199916710599545, -0.00150000000001000, -0.00153636679993729 ) );
#554 = CARTESIAN_POINT( '', ( 0.00153636679993729, -0.00150000000001000, -0.00199916710599545 ) );
#555 = CARTESIAN_POINT( '', ( 0.00125904745092725, -0.00150000000001000, -0.00218446597088565 ) );
#556 = CARTESIAN_POINT( '', ( 0.000654369710898198, -0.00150000000001000, -0.00243493169167079 ) );
#557 = CARTESIAN_POINT( '', ( 0.000327249234748934, -0.00150000000001000, -0.00250000000000000 ) );
#558 = CARTESIAN_POINT( '', ( -0.000327249234748939, -0.00150000000001000, -0.00250000000000000 ) );
#559 = CARTESIAN_POINT( '', ( -0.000654369710898204, -0.00150000000001000, -0.00243493169167079 ) );
#560 = CARTESIAN_POINT( '', ( -0.00125904745092725, -0.00150000000001000, -0.00218446597088564 ) );
#561 = CARTESIAN_POINT( '', ( -0.00153636679993729, -0.00150000000001000, -0.00199916710599545 ) );
#562 = CARTESIAN_POINT( '', ( -0.00199916710599545, -0.00150000000001000, -0.00153636679993728 ) );
#563 = CARTESIAN_POINT( '', ( -0.00218446597088565, -0.00150000000001000, -0.00125904745092725 ) );
#564 = CARTESIAN_POINT( '', ( -0.00243493169167079, -0.00150000000001000, -0.000654369710898196 ) );
#565 = CARTESIAN_POINT( '', ( -0.00250000000000000, -0.00150000000001000, -0.000327249234748932 ) );
#566 = CARTESIAN_POINT( '', ( -0.00250000000000000, -0.00150000000001000, 5.24495342333894E-18 ) );
#567 = COLOUR_RGB( '', 1.00000000000000, 0.756862759600000, 0.0549019612000000 );
ENDSEC;
END-ISO-10303-21;
