ISO-10303-21;
HEADER;
FILE_DESCRIPTION( ( '' ), ' ' );
FILE_NAME( '/vol/tmp/translate-1779693255539463488/589d5ad258735a1029ddc093.step', '2017-02-10T06:16:52', ( '' ), ( '' ), ' ', ' ', ' ' );
FILE_SCHEMA( ( 'AUTOMOTIVE_DESIGN { 1 0 10303 214 1 1 1 1 }' ) );
ENDSEC;
DATA;
#1 = MECHANICAL_DESIGN_GEOMETRIC_PRESENTATION_REPRESENTATION( ' ', ( #10, #11, #12, #13, #14, #15, #16, #17, #18, #19, #20, #21, #22 ), #6 );
#2 = PRODUCT_DEFINITION_CONTEXT( '', #23, 'design' );
#3 = APPLICATION_PROTOCOL_DEFINITION( 'international standard', 'automotive_design', 2001, #23 );
#4 = PRODUCT_CATEGORY_RELATIONSHIP( 'NONE', 'NONE', #24, #25 );
#5 = SHAPE_DEFINITION_REPRESENTATION( #26, #27 );
#6 =  ( GEOMETRIC_REPRESENTATION_CONTEXT( 3 )GLOBAL_UNCERTAINTY_ASSIGNED_CONTEXT( ( #30 ) )GLOBAL_UNIT_ASSIGNED_CONTEXT( ( #32, #33, #34 ) )REPRESENTATION_CONTEXT( 'NONE', 'WORKSPACE' ) );
#10 = STYLED_ITEM( '', ( #36 ), #37 );
#11 = STYLED_ITEM( '', ( #38 ), #39 );
#12 = STYLED_ITEM( '', ( #40 ), #41 );
#13 = STYLED_ITEM( '', ( #42 ), #43 );
#14 = STYLED_ITEM( '', ( #44 ), #45 );
#15 = STYLED_ITEM( '', ( #46 ), #47 );
#16 = STYLED_ITEM( '', ( #48 ), #49 );
#17 = STYLED_ITEM( '', ( #50 ), #51 );
#18 = STYLED_ITEM( '', ( #52 ), #53 );
#19 = STYLED_ITEM( '', ( #54 ), #55 );
#20 = STYLED_ITEM( '', ( #56 ), #57 );
#21 = STYLED_ITEM( '', ( #58 ), #59 );
#22 = STYLED_ITEM( '', ( #60 ), #61 );
#23 = APPLICATION_CONTEXT( 'core data for automotive mechanical design processes' );
#24 = PRODUCT_CATEGORY( 'part', 'NONE' );
#25 = PRODUCT_RELATED_PRODUCT_CATEGORY( 'detail', ' ', ( #62 ) );
#26 = PRODUCT_DEFINITION_SHAPE( 'NONE', 'NONE', #63 );
#27 = ADVANCED_BREP_SHAPE_REPRESENTATION( 'NUT2_M2_5', ( #64, #65 ), #6 );
#30 = UNCERTAINTY_MEASURE_WITH_UNIT( LENGTH_MEASURE( 1.00000000000000E-06 ), #32, '', '' );
#32 =  ( CONVERSION_BASED_UNIT( 'METRE', #68 )LENGTH_UNIT(  )NAMED_UNIT( #71 ) );
#33 =  ( NAMED_UNIT( #73 )PLANE_ANGLE_UNIT(  )SI_UNIT( $, .RADIAN. ) );
#34 =  ( NAMED_UNIT( #73 )SI_UNIT( $, .STERADIAN. )SOLID_ANGLE_UNIT(  ) );
#36 = PRESENTATION_STYLE_ASSIGNMENT( ( #79 ) );
#37 = ADVANCED_FACE( '', ( #80 ), #81, .T. );
#38 = PRESENTATION_STYLE_ASSIGNMENT( ( #82 ) );
#39 = ADVANCED_FACE( '', ( #83 ), #84, .T. );
#40 = PRESENTATION_STYLE_ASSIGNMENT( ( #85 ) );
#41 = ADVANCED_FACE( '', ( #86, #87 ), #88, .F. );
#42 = PRESENTATION_STYLE_ASSIGNMENT( ( #89 ) );
#43 = ADVANCED_FACE( '', ( #90 ), #91, .T. );
#44 = PRESENTATION_STYLE_ASSIGNMENT( ( #92 ) );
#45 = ADVANCED_FACE( '', ( #93, #94 ), #95, .F. );
#46 = PRESENTATION_STYLE_ASSIGNMENT( ( #96 ) );
#47 = ADVANCED_FACE( '', ( #97 ), #98, .T. );
#48 = PRESENTATION_STYLE_ASSIGNMENT( ( #99 ) );
#49 = ADVANCED_FACE( '', ( #100, #101 ), #102, .T. );
#50 = PRESENTATION_STYLE_ASSIGNMENT( ( #103 ) );
#51 = ADVANCED_FACE( '', ( #104, #105 ), #106, .F. );
#52 = PRESENTATION_STYLE_ASSIGNMENT( ( #107 ) );
#53 = ADVANCED_FACE( '', ( #108, #109 ), #110, .T. );
#54 = PRESENTATION_STYLE_ASSIGNMENT( ( #111 ) );
#55 = ADVANCED_FACE( '', ( #112 ), #113, .T. );
#56 = PRESENTATION_STYLE_ASSIGNMENT( ( #114 ) );
#57 = ADVANCED_FACE( '', ( #115, #116 ), #117, .F. );
#58 = PRESENTATION_STYLE_ASSIGNMENT( ( #118 ) );
#59 = ADVANCED_FACE( '', ( #119, #120 ), #121, .T. );
#60 = PRESENTATION_STYLE_ASSIGNMENT( ( #122 ) );
#61 = ADVANCED_FACE( '', ( #123 ), #124, .T. );
#62 = PRODUCT( 'NUT2_M2_5', 'NUT2_M2_5', 'PART-NUT2_M2_5-DESC', ( #125 ) );
#63 = PRODUCT_DEFINITION( 'NONE', 'NONE', #126, #2 );
#64 = MANIFOLD_SOLID_BREP( 'NUT2_M2_5', #127 );
#65 = AXIS2_PLACEMENT_3D( '', #128, #129, #130 );
#68 = LENGTH_MEASURE_WITH_UNIT( LENGTH_MEASURE( 1.00000000000000 ), #131 );
#71 = DIMENSIONAL_EXPONENTS( 1.00000000000000, 0.00000000000000, 0.00000000000000, 0.00000000000000, 0.00000000000000, 0.00000000000000, 0.00000000000000 );
#73 = DIMENSIONAL_EXPONENTS( 0.00000000000000, 0.00000000000000, 0.00000000000000, 0.00000000000000, 0.00000000000000, 0.00000000000000, 0.00000000000000 );
#79 = SURFACE_STYLE_USAGE( .BOTH., #132 );
#80 = FACE_OUTER_BOUND( '', #133, .T. );
#81 = PLANE( '', #134 );
#82 = SURFACE_STYLE_USAGE( .BOTH., #135 );
#83 = FACE_OUTER_BOUND( '', #136, .T. );
#84 = PLANE( '', #137 );
#85 = SURFACE_STYLE_USAGE( .BOTH., #138 );
#86 = FACE_OUTER_BOUND( '', #139, .T. );
#87 = FACE_BOUND( '', #140, .T. );
#88 = PLANE( '', #141 );
#89 = SURFACE_STYLE_USAGE( .BOTH., #142 );
#90 = FACE_OUTER_BOUND( '', #143, .T. );
#91 = PLANE( '', #144 );
#92 = SURFACE_STYLE_USAGE( .BOTH., #145 );
#93 = FACE_BOUND( '', #146, .T. );
#94 = FACE_OUTER_BOUND( '', #147, .T. );
#95 = CONICAL_SURFACE( '', #148, 0.00113750000000000, 0.785398163400000 );
#96 = SURFACE_STYLE_USAGE( .BOTH., #149 );
#97 = FACE_OUTER_BOUND( '', #150, .T. );
#98 = PLANE( '', #151 );
#99 = SURFACE_STYLE_USAGE( .BOTH., #152 );
#100 = FACE_OUTER_BOUND( '', #153, .T. );
#101 = FACE_BOUND( '', #154, .T. );
#102 = PLANE( '', #155 );
#103 = SURFACE_STYLE_USAGE( .BOTH., #156 );
#104 = FACE_OUTER_BOUND( '', #157, .T. );
#105 = FACE_BOUND( '', #158, .T. );
#106 = CONICAL_SURFACE( '', #159, 0.00113750000000000, 0.785398163400000 );
#107 = SURFACE_STYLE_USAGE( .BOTH., #160 );
#108 = FACE_OUTER_BOUND( '', #161, .T. );
#109 = FACE_BOUND( '', #162, .T. );
#110 = CONICAL_SURFACE( '', #163, 0.00263087570000000, 1.04719755120000 );
#111 = SURFACE_STYLE_USAGE( .BOTH., #164 );
#112 = FACE_OUTER_BOUND( '', #165, .T. );
#113 = PLANE( '', #166 );
#114 = SURFACE_STYLE_USAGE( .BOTH., #167 );
#115 = FACE_OUTER_BOUND( '', #168, .T. );
#116 = FACE_OUTER_BOUND( '', #169, .T. );
#117 = CYLINDRICAL_SURFACE( '', #170, 0.00102500000000000 );
#118 = SURFACE_STYLE_USAGE( .BOTH., #171 );
#119 = FACE_BOUND( '', #172, .T. );
#120 = FACE_OUTER_BOUND( '', #173, .T. );
#121 = CONICAL_SURFACE( '', #174, 0.00263087570000000, 1.04719755120000 );
#122 = SURFACE_STYLE_USAGE( .BOTH., #175 );
#123 = FACE_OUTER_BOUND( '', #176, .T. );
#124 = PLANE( '', #177 );
#125 = PRODUCT_CONTEXT( '', #23, 'mechanical' );
#126 = PRODUCT_DEFINITION_FORMATION_WITH_SPECIFIED_SOURCE( ' ', 'NONE', #62, .NOT_KNOWN. );
#127 = CLOSED_SHELL( '', ( #47, #59, #43, #37, #55, #49, #39, #53, #41, #45, #57, #61, #51 ) );
#128 = CARTESIAN_POINT( '', ( 0.00000000000000, 0.00000000000000, 0.00000000000000 ) );
#129 = DIRECTION( '', ( 0.00000000000000, 0.00000000000000, 1.00000000000000 ) );
#130 = DIRECTION( '', ( 1.00000000000000, 0.00000000000000, 0.00000000000000 ) );
#131 =  ( LENGTH_UNIT(  )NAMED_UNIT( #71 )SI_UNIT( $, .METRE. ) );
#132 = SURFACE_SIDE_STYLE( '', ( #179 ) );
#133 = EDGE_LOOP( '', ( #180, #181, #182, #183 ) );
#134 = AXIS2_PLACEMENT_3D( '', #184, #185, #186 );
#135 = SURFACE_SIDE_STYLE( '', ( #187 ) );
#136 = EDGE_LOOP( '', ( #188, #189, #190, #191 ) );
#137 = AXIS2_PLACEMENT_3D( '', #192, #193, #194 );
#138 = SURFACE_SIDE_STYLE( '', ( #195 ) );
#139 = EDGE_LOOP( '', ( #196 ) );
#140 = EDGE_LOOP( '', ( #197 ) );
#141 = AXIS2_PLACEMENT_3D( '', #198, #199, #200 );
#142 = SURFACE_SIDE_STYLE( '', ( #201 ) );
#143 = EDGE_LOOP( '', ( #202, #203, #204, #205 ) );
#144 = AXIS2_PLACEMENT_3D( '', #206, #207, #208 );
#145 = SURFACE_SIDE_STYLE( '', ( #209 ) );
#146 = EDGE_LOOP( '', ( #210 ) );
#147 = EDGE_LOOP( '', ( #211 ) );
#148 = AXIS2_PLACEMENT_3D( '', #212, #213, #214 );
#149 = SURFACE_SIDE_STYLE( '', ( #215 ) );
#150 = EDGE_LOOP( '', ( #216, #217, #218, #219 ) );
#151 = AXIS2_PLACEMENT_3D( '', #220, #221, #222 );
#152 = SURFACE_SIDE_STYLE( '', ( #223 ) );
#153 = EDGE_LOOP( '', ( #224 ) );
#154 = EDGE_LOOP( '', ( #225 ) );
#155 = AXIS2_PLACEMENT_3D( '', #226, #227, #228 );
#156 = SURFACE_SIDE_STYLE( '', ( #229 ) );
#157 = EDGE_LOOP( '', ( #230 ) );
#158 = EDGE_LOOP( '', ( #231 ) );
#159 = AXIS2_PLACEMENT_3D( '', #232, #233, #234 );
#160 = SURFACE_SIDE_STYLE( '', ( #235 ) );
#161 = EDGE_LOOP( '', ( #236, #237, #238, #239, #240, #241 ) );
#162 = EDGE_LOOP( '', ( #242 ) );
#163 = AXIS2_PLACEMENT_3D( '', #243, #244, #245 );
#164 = SURFACE_SIDE_STYLE( '', ( #246 ) );
#165 = EDGE_LOOP( '', ( #247, #248, #249, #250 ) );
#166 = AXIS2_PLACEMENT_3D( '', #251, #252, #253 );
#167 = SURFACE_SIDE_STYLE( '', ( #254 ) );
#168 = EDGE_LOOP( '', ( #255 ) );
#169 = EDGE_LOOP( '', ( #256 ) );
#170 = AXIS2_PLACEMENT_3D( '', #257, #258, #259 );
#171 = SURFACE_SIDE_STYLE( '', ( #260 ) );
#172 = EDGE_LOOP( '', ( #261 ) );
#173 = EDGE_LOOP( '', ( #262, #263, #264, #265, #266, #267 ) );
#174 = AXIS2_PLACEMENT_3D( '', #268, #269, #270 );
#175 = SURFACE_SIDE_STYLE( '', ( #271 ) );
#176 = EDGE_LOOP( '', ( #272, #273, #274, #275 ) );
#177 = AXIS2_PLACEMENT_3D( '', #276, #277, #278 );
#179 = SURFACE_STYLE_FILL_AREA( #279 );
#180 = ORIENTED_EDGE( '', *, *, #280, .F. );
#181 = ORIENTED_EDGE( '', *, *, #281, .T. );
#182 = ORIENTED_EDGE( '', *, *, #282, .T. );
#183 = ORIENTED_EDGE( '', *, *, #283, .F. );
#184 = CARTESIAN_POINT( '', ( 0.00000000000000, 0.00000000000000, 0.00288675134594800 ) );
#185 = DIRECTION( '', ( 0.500000000000017, 0.00000000000000, 0.866025403784429 ) );
#186 = DIRECTION( '', ( 0.00000000000000, -1.00000000000000, 0.00000000000000 ) );
#187 = SURFACE_STYLE_FILL_AREA( #284 );
#188 = ORIENTED_EDGE( '', *, *, #285, .F. );
#189 = ORIENTED_EDGE( '', *, *, #286, .T. );
#190 = ORIENTED_EDGE( '', *, *, #287, .T. );
#191 = ORIENTED_EDGE( '', *, *, #288, .F. );
#192 = CARTESIAN_POINT( '', ( 0.00000000000000, 0.00000000000000, -0.00288675134594800 ) );
#193 = DIRECTION( '', ( -0.500000000000017, 0.00000000000000, -0.866025403784429 ) );
#194 = DIRECTION( '', ( -0.866025403784429, 0.00000000000000, 0.500000000000017 ) );
#195 = SURFACE_STYLE_FILL_AREA( #289 );
#196 = ORIENTED_EDGE( '', *, *, #290, .F. );
#197 = ORIENTED_EDGE( '', *, *, #291, .T. );
#198 = CARTESIAN_POINT( '', ( 0.00000000000000, 0.00000000000000, 0.00000000000000 ) );
#199 = DIRECTION( '', ( -0.00000000000000, 1.00000000000000, 0.00000000000000 ) );
#200 = DIRECTION( '', ( 1.00000000000000, 0.00000000000000, 0.00000000000000 ) );
#201 = SURFACE_STYLE_FILL_AREA( #292 );
#202 = ORIENTED_EDGE( '', *, *, #287, .F. );
#203 = ORIENTED_EDGE( '', *, *, #293, .T. );
#204 = ORIENTED_EDGE( '', *, *, #294, .T. );
#205 = ORIENTED_EDGE( '', *, *, #295, .F. );
#206 = CARTESIAN_POINT( '', ( -0.00250000000000000, 0.00000000000000, -0.00144337567297400 ) );
#207 = DIRECTION( '', ( -1.00000000000000, 0.00000000000000, 0.00000000000000 ) );
#208 = DIRECTION( '', ( 0.00000000000000, 0.00000000000000, 1.00000000000000 ) );
#209 = SURFACE_STYLE_FILL_AREA( #296 );
#210 = ORIENTED_EDGE( '', *, *, #297, .T. );
#211 = ORIENTED_EDGE( '', *, *, #291, .F. );
#212 = CARTESIAN_POINT( '', ( 0.00000000000000, 0.000112500000000000, 0.00000000000000 ) );
#213 = DIRECTION( '', ( -0.00000000000000, -1.00000000000000, 0.00000000000000 ) );
#214 = DIRECTION( '', ( -1.00000000000000, 0.00000000000000, 0.00000000000000 ) );
#215 = SURFACE_STYLE_FILL_AREA( #298 );
#216 = ORIENTED_EDGE( '', *, *, #299, .F. );
#217 = ORIENTED_EDGE( '', *, *, #300, .T. );
#218 = ORIENTED_EDGE( '', *, *, #285, .T. );
#219 = ORIENTED_EDGE( '', *, *, #301, .F. );
#220 = CARTESIAN_POINT( '', ( 0.00250000000000000, 0.00000000000000, -0.00144337567297400 ) );
#221 = DIRECTION( '', ( 0.500000000000017, 0.00000000000000, -0.866025403784429 ) );
#222 = DIRECTION( '', ( 0.00000000000000, -1.00000000000000, 0.00000000000000 ) );
#223 = SURFACE_STYLE_FILL_AREA( #302 );
#224 = ORIENTED_EDGE( '', *, *, #303, .T. );
#225 = ORIENTED_EDGE( '', *, *, #304, .F. );
#226 = CARTESIAN_POINT( '', ( 0.00000000000000, 0.00200000000000000, 0.00000000000000 ) );
#227 = DIRECTION( '', ( -0.00000000000000, 1.00000000000000, 0.00000000000000 ) );
#228 = DIRECTION( '', ( 1.00000000000000, 0.00000000000000, 0.00000000000000 ) );
#229 = SURFACE_STYLE_FILL_AREA( #305 );
#230 = ORIENTED_EDGE( '', *, *, #304, .T. );
#231 = ORIENTED_EDGE( '', *, *, #306, .F. );
#232 = CARTESIAN_POINT( '', ( 0.00000000000000, 0.00188750000000000, 0.00000000000000 ) );
#233 = DIRECTION( '', ( -0.00000000000000, 1.00000000000000, -0.00000000000000 ) );
#234 = DIRECTION( '', ( 1.00000000000000, 0.00000000000000, 0.00000000000000 ) );
#235 = SURFACE_STYLE_FILL_AREA( #307 );
#236 = ORIENTED_EDGE( '', *, *, #283, .T. );
#237 = ORIENTED_EDGE( '', *, *, #308, .T. );
#238 = ORIENTED_EDGE( '', *, *, #301, .T. );
#239 = ORIENTED_EDGE( '', *, *, #288, .T. );
#240 = ORIENTED_EDGE( '', *, *, #295, .T. );
#241 = ORIENTED_EDGE( '', *, *, #309, .T. );
#242 = ORIENTED_EDGE( '', *, *, #303, .F. );
#243 = CARTESIAN_POINT( '', ( 0.00000000000000, 0.00185227011132900, 0.00000000000000 ) );
#244 = DIRECTION( '', ( -0.00000000000000, -1.00000000000000, -0.00000000000000 ) );
#245 = DIRECTION( '', ( -0.866025403784429, 0.00000000000000, -0.500000000000017 ) );
#246 = SURFACE_STYLE_FILL_AREA( #310 );
#247 = ORIENTED_EDGE( '', *, *, #282, .F. );
#248 = ORIENTED_EDGE( '', *, *, #311, .T. );
#249 = ORIENTED_EDGE( '', *, *, #299, .T. );
#250 = ORIENTED_EDGE( '', *, *, #308, .F. );
#251 = CARTESIAN_POINT( '', ( 0.00250000000000000, 0.00000000000000, 0.00144337567297400 ) );
#252 = DIRECTION( '', ( 1.00000000000000, 0.00000000000000, 0.00000000000000 ) );
#253 = DIRECTION( '', ( 0.00000000000000, 1.00000000000000, 0.00000000000000 ) );
#254 = SURFACE_STYLE_FILL_AREA( #312 );
#255 = ORIENTED_EDGE( '', *, *, #297, .F. );
#256 = ORIENTED_EDGE( '', *, *, #306, .T. );
#257 = CARTESIAN_POINT( '', ( 0.00000000000000, 0.00200000000000000, 0.00000000000000 ) );
#258 = DIRECTION( '', ( 0.00000000000000, -1.00000000000000, -0.00000000000000 ) );
#259 = DIRECTION( '', ( 1.00000000000000, 0.00000000000000, 0.00000000000000 ) );
#260 = SURFACE_STYLE_FILL_AREA( #313 );
#261 = ORIENTED_EDGE( '', *, *, #290, .T. );
#262 = ORIENTED_EDGE( '', *, *, #293, .F. );
#263 = ORIENTED_EDGE( '', *, *, #286, .F. );
#264 = ORIENTED_EDGE( '', *, *, #300, .F. );
#265 = ORIENTED_EDGE( '', *, *, #311, .F. );
#266 = ORIENTED_EDGE( '', *, *, #281, .F. );
#267 = ORIENTED_EDGE( '', *, *, #314, .F. );
#268 = CARTESIAN_POINT( '', ( 0.00000000000000, 0.000147729888670700, 0.00000000000000 ) );
#269 = DIRECTION( '', ( -0.00000000000000, 1.00000000000000, -0.00000000000000 ) );
#270 = DIRECTION( '', ( 0.866025403784429, 0.00000000000000, 0.500000000000017 ) );
#271 = SURFACE_STYLE_FILL_AREA( #315 );
#272 = ORIENTED_EDGE( '', *, *, #294, .F. );
#273 = ORIENTED_EDGE( '', *, *, #314, .T. );
#274 = ORIENTED_EDGE( '', *, *, #280, .T. );
#275 = ORIENTED_EDGE( '', *, *, #309, .F. );
#276 = CARTESIAN_POINT( '', ( -0.00250000000000000, 0.00000000000000, 0.00144337567297400 ) );
#277 = DIRECTION( '', ( -0.500000000000017, 0.00000000000000, 0.866025403784429 ) );
#278 = DIRECTION( '', ( 0.00000000000000, 1.00000000000000, 0.00000000000000 ) );
#279 = FILL_AREA_STYLE( '', ( #316 ) );
#280 = EDGE_CURVE( '', #317, #318, #319, .T. );
#281 = EDGE_CURVE( '', #317, #320, #321, .T. );
#282 = EDGE_CURVE( '', #320, #322, #323, .T. );
#283 = EDGE_CURVE( '', #318, #322, #324, .T. );
#284 = FILL_AREA_STYLE( '', ( #325 ) );
#285 = EDGE_CURVE( '', #326, #327, #328, .T. );
#286 = EDGE_CURVE( '', #326, #329, #330, .T. );
#287 = EDGE_CURVE( '', #329, #331, #332, .T. );
#288 = EDGE_CURVE( '', #327, #331, #333, .T. );
#289 = FILL_AREA_STYLE( '', ( #334 ) );
#290 = EDGE_CURVE( '', #335, #335, #336, .T. );
#291 = EDGE_CURVE( '', #337, #337, #338, .T. );
#292 = FILL_AREA_STYLE( '', ( #339 ) );
#293 = EDGE_CURVE( '', #329, #340, #341, .T. );
#294 = EDGE_CURVE( '', #340, #342, #343, .T. );
#295 = EDGE_CURVE( '', #331, #342, #344, .T. );
#296 = FILL_AREA_STYLE( '', ( #345 ) );
#297 = EDGE_CURVE( '', #346, #346, #347, .T. );
#298 = FILL_AREA_STYLE( '', ( #348 ) );
#299 = EDGE_CURVE( '', #349, #350, #351, .T. );
#300 = EDGE_CURVE( '', #349, #326, #352, .T. );
#301 = EDGE_CURVE( '', #350, #327, #353, .T. );
#302 = FILL_AREA_STYLE( '', ( #354 ) );
#303 = EDGE_CURVE( '', #355, #355, #356, .T. );
#304 = EDGE_CURVE( '', #357, #357, #358, .T. );
#305 = FILL_AREA_STYLE( '', ( #359 ) );
#306 = EDGE_CURVE( '', #360, #360, #361, .T. );
#307 = FILL_AREA_STYLE( '', ( #362 ) );
#308 = EDGE_CURVE( '', #322, #350, #363, .T. );
#309 = EDGE_CURVE( '', #342, #318, #364, .T. );
#310 = FILL_AREA_STYLE( '', ( #365 ) );
#311 = EDGE_CURVE( '', #320, #349, #366, .T. );
#312 = FILL_AREA_STYLE( '', ( #367 ) );
#313 = FILL_AREA_STYLE( '', ( #368 ) );
#314 = EDGE_CURVE( '', #340, #317, #369, .T. );
#315 = FILL_AREA_STYLE( '', ( #370 ) );
#316 = FILL_AREA_STYLE_COLOUR( '', #371 );
#317 = VERTEX_POINT( '', #372 );
#318 = VERTEX_POINT( '', #373 );
#319 = LINE( '', #374, #375 );
#320 = VERTEX_POINT( '', #376 );
#321 = B_SPLINE_CURVE_WITH_KNOTS( '', 2, ( #377, #378, #379, #380, #381, #382, #383, #384, #385 ), .UNSPECIFIED., .F., .F., ( 3, 2, 2, 2, 3 ), ( 0.00000000000000, 0.250000000000000, 0.500000000000000, 0.750000000000000, 1.00000000000000 ), .UNSPECIFIED. );
#322 = VERTEX_POINT( '', #386 );
#323 = LINE( '', #387, #388 );
#324 = B_SPLINE_CURVE_WITH_KNOTS( '', 3, ( #389, #390, #391, #392, #393, #394, #395, #396, #397, #398, #399, #400 ), .UNSPECIFIED., .F., .F., ( 4, 1, 1, 1, 1, 1, 1, 1, 1, 4 ), ( 0.00000000000000, 0.0882348844220734, 0.173619252785378, 0.257120300116875, 0.379410008129774, 0.500061094866110, 0.620685376512732, 0.742980684896373, 0.868814994636184, 1.00000000000000 ), .UNSPECIFIED. );
#325 = FILL_AREA_STYLE_COLOUR( '', #401 );
#326 = VERTEX_POINT( '', #402 );
#327 = VERTEX_POINT( '', #403 );
#328 = LINE( '', #404, #405 );
#329 = VERTEX_POINT( '', #406 );
#330 = B_SPLINE_CURVE_WITH_KNOTS( '', 2, ( #407, #408, #409, #410, #411, #412, #413, #414, #415 ), .UNSPECIFIED., .F., .F., ( 3, 2, 2, 2, 3 ), ( 0.00000000000000, 0.250000000000000, 0.500000000000000, 0.750000000000000, 1.00000000000000 ), .UNSPECIFIED. );
#331 = VERTEX_POINT( '', #416 );
#332 = LINE( '', #417, #418 );
#333 = B_SPLINE_CURVE_WITH_KNOTS( '', 3, ( #419, #420, #421, #422, #423, #424, #425, #426, #427, #428, #429, #430 ), .UNSPECIFIED., .F., .F., ( 4, 1, 1, 1, 1, 1, 1, 1, 1, 4 ), ( 0.00000000000000, 0.0882348844218037, 0.173619252785028, 0.257120300116613, 0.379410008129194, 0.500061094865597, 0.620685376511666, 0.742980684895611, 0.868814994636164, 1.00000000000000 ), .UNSPECIFIED. );
#334 = FILL_AREA_STYLE_COLOUR( '', #431 );
#335 = VERTEX_POINT( '', #432 );
#336 = CIRCLE( '', #433, 0.00237500000000000 );
#337 = VERTEX_POINT( '', #434 );
#338 = CIRCLE( '', #435, 0.00125000000000000 );
#339 = FILL_AREA_STYLE_COLOUR( '', #436 );
#340 = VERTEX_POINT( '', #437 );
#341 = B_SPLINE_CURVE_WITH_KNOTS( '', 2, ( #438, #439, #440, #441, #442, #443, #444, #445, #446 ), .UNSPECIFIED., .F., .F., ( 3, 2, 2, 2, 3 ), ( 0.00000000000000, 0.250000000000000, 0.500000000000000, 0.750000000000000, 1.00000000000000 ), .UNSPECIFIED. );
#342 = VERTEX_POINT( '', #447 );
#343 = LINE( '', #448, #449 );
#344 = B_SPLINE_CURVE_WITH_KNOTS( '', 3, ( #450, #451, #452, #453, #454, #455, #456, #457, #458, #459, #460, #461 ), .UNSPECIFIED., .F., .F., ( 4, 1, 1, 1, 1, 1, 1, 1, 1, 4 ), ( 0.00000000000000, 0.0882348844135860, 0.173619252775454, 0.257120300112173, 0.379410008123993, 0.500061094864052, 0.620685376509058, 0.742980684897155, 0.868814994633200, 1.00000000000000 ), .UNSPECIFIED. );
#345 = FILL_AREA_STYLE_COLOUR( '', #462 );
#346 = VERTEX_POINT( '', #463 );
#347 = CIRCLE( '', #464, 0.00102500000000000 );
#348 = FILL_AREA_STYLE_COLOUR( '', #465 );
#349 = VERTEX_POINT( '', #466 );
#350 = VERTEX_POINT( '', #467 );
#351 = LINE( '', #468, #469 );
#352 = B_SPLINE_CURVE_WITH_KNOTS( '', 2, ( #470, #471, #472, #473, #474, #475, #476, #477, #478 ), .UNSPECIFIED., .F., .F., ( 3, 2, 2, 2, 3 ), ( 0.00000000000000, 0.250000000000000, 0.500000000000000, 0.750000000000000, 1.00000000000000 ), .UNSPECIFIED. );
#353 = B_SPLINE_CURVE_WITH_KNOTS( '', 3, ( #479, #480, #481, #482, #483, #484, #485, #486, #487, #488, #489, #490 ), .UNSPECIFIED., .F., .F., ( 4, 1, 1, 1, 1, 1, 1, 1, 1, 4 ), ( 0.00000000000000, 0.0882348844134040, 0.173619252775897, 0.257120300114015, 0.379410008125964, 0.500061094863202, 0.620685376509457, 0.742980684893555, 0.868814994625932, 1.00000000000000 ), .UNSPECIFIED. );
#354 = FILL_AREA_STYLE_COLOUR( '', #491 );
#355 = VERTEX_POINT( '', #492 );
#356 = CIRCLE( '', #493, 0.00237500000000000 );
#357 = VERTEX_POINT( '', #494 );
#358 = CIRCLE( '', #495, 0.00125000000000000 );
#359 = FILL_AREA_STYLE_COLOUR( '', #496 );
#360 = VERTEX_POINT( '', #497 );
#361 = CIRCLE( '', #498, 0.00102500000000000 );
#362 = FILL_AREA_STYLE_COLOUR( '', #499 );
#363 = B_SPLINE_CURVE_WITH_KNOTS( '', 3, ( #500, #501, #502, #503, #504, #505, #506, #507, #508, #509, #510, #511 ), .UNSPECIFIED., .F., .F., ( 4, 1, 1, 1, 1, 1, 1, 1, 1, 4 ), ( 0.00000000000000, 0.0882348844131127, 0.173619252775253, 0.257120300112939, 0.379410008124631, 0.500061094864569, 0.620685376510979, 0.742980684897429, 0.868814994634932, 1.00000000000000 ), .UNSPECIFIED. );
#364 = B_SPLINE_CURVE_WITH_KNOTS( '', 3, ( #512, #513, #514, #515, #516, #517, #518, #519, #520, #521, #522, #523 ), .UNSPECIFIED., .F., .F., ( 4, 1, 1, 1, 1, 1, 1, 1, 1, 4 ), ( 0.00000000000000, 0.0882348844123198, 0.173619252774851, 0.257120300114000, 0.379410008124814, 0.500061094863194, 0.620685376510218, 0.742980684893556, 0.868814994626727, 1.00000000000000 ), .UNSPECIFIED. );
#365 = FILL_AREA_STYLE_COLOUR( '', #524 );
#366 = B_SPLINE_CURVE_WITH_KNOTS( '', 2, ( #525, #526, #527, #528, #529, #530, #531, #532, #533 ), .UNSPECIFIED., .F., .F., ( 3, 2, 2, 2, 3 ), ( 0.00000000000000, 0.250000000000000, 0.500000000000000, 0.750000000000000, 1.00000000000000 ), .UNSPECIFIED. );
#367 = FILL_AREA_STYLE_COLOUR( '', #534 );
#368 = FILL_AREA_STYLE_COLOUR( '', #535 );
#369 = B_SPLINE_CURVE_WITH_KNOTS( '', 2, ( #536, #537, #538, #539, #540, #541, #542, #543, #544 ), .UNSPECIFIED., .F., .F., ( 3, 2, 2, 2, 3 ), ( 0.00000000000000, 0.250000000000000, 0.500000000000000, 0.750000000000000, 1.00000000000000 ), .UNSPECIFIED. );
#370 = FILL_AREA_STYLE_COLOUR( '', #545 );
#371 = COLOUR_RGB( '', 0.564705908300000, 0.811764717100000, 0.945098042500000 );
#372 = CARTESIAN_POINT( '', ( 0.00000000000000, 0.000295459777341300, 0.00288675134594800 ) );
#373 = CARTESIAN_POINT( '', ( 0.00000000000000, 0.00170454022265900, 0.00288675134594800 ) );
#374 = CARTESIAN_POINT( '', ( 0.00000000000000, 0.000295459777351300, 0.00288675134595800 ) );
#375 = VECTOR( '', #546, 1.00000000000000 );
#376 = CARTESIAN_POINT( '', ( 0.00250000000000000, 0.000295459777341300, 0.00144337567297400 ) );
#377 = CARTESIAN_POINT( '', ( -4.33028098886626E-15, 0.000295459777351300, 0.00288675134595050 ) );
#378 = CARTESIAN_POINT( '', ( 0.000334493016694848, 0.000183962105126640, 0.00269363171271717 ) );
#379 = CARTESIAN_POINT( '', ( 0.000636037110339162, 0.000129086702922585, 0.00251953514907908 ) );
#380 = CARTESIAN_POINT( '', ( 0.000948603695949412, 7.22054127151822E-05, 0.00233907474673731 ) );
#381 = CARTESIAN_POINT( '', ( 0.00125012560673187, 7.21743942426097E-05, 0.00216499099038048 ) );
#382 = CARTESIAN_POINT( '', ( 0.00155070231697376, 7.21434730056808E-05, 0.00199145294581018 ) );
#383 = CARTESIAN_POINT( '', ( 0.00186415778876007, 0.000129122540545963, 0.00181047934479539 ) );
#384 = CARTESIAN_POINT( '', ( 0.00216510355131031, 0.000183827627787194, 0.00163672822777552 ) );
#385 = CARTESIAN_POINT( '', ( 0.00250000000000311, 0.000295459777351300, 0.00144337567297207 ) );
#386 = CARTESIAN_POINT( '', ( 0.00250000000000000, 0.00170454022265900, 0.00144337567297400 ) );
#387 = CARTESIAN_POINT( '', ( 0.00250000000001000, 0.000295459777351300, 0.00144337567298400 ) );
#388 = VECTOR( '', #547, 1.00000000000000 );
#389 = CARTESIAN_POINT( '', ( 3.84592537277079E-18, 0.00170454022265666, 0.00288675134595087 ) );
#390 = CARTESIAN_POINT( '', ( 7.19130969141708E-05, 0.00172763505192954, 0.00284521278087197 ) );
#391 = CARTESIAN_POINT( '', ( 0.000213416066329255, 0.00177307860895154, 0.00276347759554233 ) );
#392 = CARTESIAN_POINT( '', ( 0.000425633430949267, 0.00182854804398374, 0.00264091567428609 ) );
#393 = CARTESIAN_POINT( '', ( 0.000668089815707637, 0.00187966884246726, 0.00250113481733711 ) );
#394 = CARTESIAN_POINT( '', ( 0.000942286431381833, 0.00191827004158701, 0.00234231863916256 ) );
#395 = CARTESIAN_POINT( '', ( 0.00125018588200591, 0.00193256847345108, 0.00216515885946007 ) );
#396 = CARTESIAN_POINT( '', ( 0.00155759736672296, 0.00191830492537145, 0.00198707613256096 ) );
#397 = CARTESIAN_POINT( '', ( 0.00186772284748318, 0.00187439816109230, 0.00180856389144817 ) );
#398 = CARTESIAN_POINT( '', ( 0.00218303501386655, 0.00180445021675927, 0.00162622152061083 ) );
#399 = CARTESIAN_POINT( '', ( 0.00239288874128135, 0.00173830258031422, 0.00150516435547924 ) );
#400 = CARTESIAN_POINT( '', ( 0.00250000000000301, 0.00170454022265503, 0.00144337567297997 ) );
#401 = COLOUR_RGB( '', 0.564705908300000, 0.811764717100000, 0.945098042500000 );
#402 = CARTESIAN_POINT( '', ( 0.00000000000000, 0.000295459777341300, -0.00288675134594800 ) );
#403 = CARTESIAN_POINT( '', ( 0.00000000000000, 0.00170454022265900, -0.00288675134594800 ) );
#404 = CARTESIAN_POINT( '', ( 0.00000000000000, 0.000295459777351300, -0.00288675134595800 ) );
#405 = VECTOR( '', #548, 1.00000000000000 );
#406 = CARTESIAN_POINT( '', ( -0.00250000000000000, 0.000295459777341300, -0.00144337567297400 ) );
#407 = CARTESIAN_POINT( '', ( 4.33028098886626E-15, 0.000295459777351300, -0.00288675134595050 ) );
#408 = CARTESIAN_POINT( '', ( -0.000334493016694848, 0.000183962105126640, -0.00269363171271717 ) );
#409 = CARTESIAN_POINT( '', ( -0.000636037110339162, 0.000129086702922585, -0.00251953514907908 ) );
#410 = CARTESIAN_POINT( '', ( -0.000948603695949412, 7.22054127151822E-05, -0.00233907474673731 ) );
#411 = CARTESIAN_POINT( '', ( -0.00125012560673187, 7.21743942426097E-05, -0.00216499099038048 ) );
#412 = CARTESIAN_POINT( '', ( -0.00155070231697376, 7.21434730056808E-05, -0.00199145294581018 ) );
#413 = CARTESIAN_POINT( '', ( -0.00186415778876007, 0.000129122540545963, -0.00181047934479539 ) );
#414 = CARTESIAN_POINT( '', ( -0.00216510355131031, 0.000183827627787194, -0.00163672822777552 ) );
#415 = CARTESIAN_POINT( '', ( -0.00250000000000311, 0.000295459777351300, -0.00144337567297207 ) );
#416 = CARTESIAN_POINT( '', ( -0.00250000000000000, 0.00170454022265900, -0.00144337567297400 ) );
#417 = CARTESIAN_POINT( '', ( -0.00250000000001000, 0.000295459777351300, -0.00144337567298400 ) );
#418 = VECTOR( '', #549, 1.00000000000000 );
#419 = CARTESIAN_POINT( '', ( -1.60246890532116E-19, 0.00170454022265666, -0.00288675134595087 ) );
#420 = CARTESIAN_POINT( '', ( -7.19130969140289E-05, 0.00172763505192949, -0.00284521278087206 ) );
#421 = CARTESIAN_POINT( '', ( -0.000213416066328988, 0.00177307860895143, -0.00276347759554253 ) );
#422 = CARTESIAN_POINT( '', ( -0.000425633430949056, 0.00182854804398361, -0.00264091567428637 ) );
#423 = CARTESIAN_POINT( '', ( -0.000668089815707315, 0.00187966884246723, -0.00250113481733725 ) );
#424 = CARTESIAN_POINT( '', ( -0.000942286431381616, 0.00191827004158705, -0.00234231863916257 ) );
#425 = CARTESIAN_POINT( '', ( -0.00125018588200536, 0.00193256847345109, -0.00216515885946035 ) );
#426 = CARTESIAN_POINT( '', ( -0.00155759736672270, 0.00191830492537135, -0.00198707613256138 ) );
#427 = CARTESIAN_POINT( '', ( -0.00186772284748364, 0.00187439816109218, -0.00180856389144813 ) );
#428 = CARTESIAN_POINT( '', ( -0.00218303501386769, 0.00180445021675943, -0.00162622152060896 ) );
#429 = CARTESIAN_POINT( '', ( -0.00239288874128312, 0.00173830258031421, -0.00150516435547645 ) );
#430 = CARTESIAN_POINT( '', ( -0.00250000000000479, 0.00170454022265503, -0.00144337567297689 ) );
#431 = COLOUR_RGB( '', 0.564705908300000, 0.811764717100000, 0.945098042500000 );
#432 = CARTESIAN_POINT( '', ( -0.00205681033399802, 0.00000000000000, -0.00118750000001004 ) );
#433 = AXIS2_PLACEMENT_3D( '', #550, #551, #552 );
#434 = CARTESIAN_POINT( '', ( -0.00125000000001000, 0.00000000000000, 0.00000000000000 ) );
#435 = AXIS2_PLACEMENT_3D( '', #553, #554, #555 );
#436 = COLOUR_RGB( '', 0.564705908300000, 0.811764717100000, 0.945098042500000 );
#437 = CARTESIAN_POINT( '', ( -0.00250000000000000, 0.000295459777341300, 0.00144337567297400 ) );
#438 = CARTESIAN_POINT( '', ( -0.00250000000000000, 0.000295459777351300, -0.00144337567298400 ) );
#439 = CARTESIAN_POINT( '', ( -0.00250000000000000, 0.000183962105133950, -0.00105713640657254 ) );
#440 = CARTESIAN_POINT( '', ( -0.00250000000000000, 0.000129086702922585, -0.000708943279249917 ) );
#441 = CARTESIAN_POINT( '', ( -0.00250000000000000, 7.22054127151794E-05, -0.000348022474566310 ) );
#442 = CARTESIAN_POINT( '', ( -0.00250000000000000, 7.21743942426097E-05, 0.00000000000000 ) );
#443 = CARTESIAN_POINT( '', ( -0.00250000000000000, 7.21434730056836E-05, 0.000347221127307470 ) );
#444 = CARTESIAN_POINT( '', ( -0.00250000000000000, 0.000129122540545963, 0.000709168329337525 ) );
#445 = CARTESIAN_POINT( '', ( -0.00250000000000000, 0.000183827627787630, 0.00105667056338047 ) );
#446 = CARTESIAN_POINT( '', ( -0.00250000000000000, 0.000295459777351300, 0.00144337567298400 ) );
#447 = CARTESIAN_POINT( '', ( -0.00250000000000000, 0.00170454022265900, 0.00144337567297400 ) );
#448 = CARTESIAN_POINT( '', ( -0.00250000000001000, 0.000295459777351300, 0.00144337567298400 ) );
#449 = VECTOR( '', #556, 1.00000000000000 );
#450 = CARTESIAN_POINT( '', ( -0.00250000000000478, 0.00170454022265503, -0.00144337567297691 ) );
#451 = CARTESIAN_POINT( '', ( -0.00249998309586410, 0.00172763505192713, -0.00136032782165308 ) );
#452 = CARTESIAN_POINT( '', ( -0.00249994983368787, 0.00177307860894936, -0.00119691506277345 ) );
#453 = CARTESIAN_POINT( '', ( -0.00249991677865509, 0.00182854804398117, -0.000951848473264029 ) );
#454 = CARTESIAN_POINT( '', ( -0.00250009119795386, 0.00187966884246644, -0.000671984656275822 ) );
#455 = CARTESIAN_POINT( '', ( -0.00249965066096019, 0.00191827004158811, -0.000355115332374499 ) );
#456 = CARTESIAN_POINT( '', ( -0.00250017551652176, 0.00193256847345267, 0.00000000000000 ) );
#457 = CARTESIAN_POINT( '', ( -0.00249965709341141, 0.00191830492537266, 0.000355380822167620 ) );
#458 = CARTESIAN_POINT( '', ( -0.00250012369809946, 0.00187439816109452, 0.000713213487423543 ) );
#459 = CARTESIAN_POINT( '', ( -0.00249986665595819, 0.00180445021676116, 0.00107745301905726 ) );
#460 = CARTESIAN_POINT( '', ( -0.00249995493935244, 0.00173830258031543, 0.00131972026064296 ) );
#461 = CARTESIAN_POINT( '', ( -0.00250000000000301, 0.00170454022265503, 0.00144337567297997 ) );
#462 = COLOUR_RGB( '', 0.564705908300000, 0.811764717100000, 0.945098042500000 );
#463 = CARTESIAN_POINT( '', ( -0.00102500000001000, 0.000225000000010000, 0.00000000000000 ) );
#464 = AXIS2_PLACEMENT_3D( '', #557, #558, #559 );
#465 = COLOUR_RGB( '', 0.564705908300000, 0.811764717100000, 0.945098042500000 );
#466 = CARTESIAN_POINT( '', ( 0.00250000000000000, 0.000295459777341300, -0.00144337567297400 ) );
#467 = CARTESIAN_POINT( '', ( 0.00250000000000000, 0.00170454022265900, -0.00144337567297400 ) );
#468 = CARTESIAN_POINT( '', ( 0.00250000000001000, 0.000295459777351300, -0.00144337567298400 ) );
#469 = VECTOR( '', #560, 1.00000000000000 );
#470 = CARTESIAN_POINT( '', ( 0.00250000000000317, 0.000295459777351300, -0.00144337567297217 ) );
#471 = CARTESIAN_POINT( '', ( 0.00216550698334921, 0.000183962105133514, -0.00163649530617939 ) );
#472 = CARTESIAN_POINT( '', ( 0.00186396288966711, 0.000129086702922585, -0.00181059186983930 ) );
#473 = CARTESIAN_POINT( '', ( 0.00155139630405683, 7.22054127151801E-05, -0.00199105227218109 ) );
#474 = CARTESIAN_POINT( '', ( 0.00124987439327447, 7.21743942426097E-05, -0.00216513602853786 ) );
#475 = CARTESIAN_POINT( '', ( 0.000949297683032877, 7.21434730056830E-05, -0.00233867407310799 ) );
#476 = CARTESIAN_POINT( '', ( 0.000635842211246059, 0.000129122540545963, -0.00251964767412307 ) );
#477 = CARTESIAN_POINT( '', ( 0.000334896448734773, 0.000183827627780025, -0.00269339879112045 ) );
#478 = CARTESIAN_POINT( '', ( -4.27262392133088E-15, 0.000295459777351300, -0.00288675134595060 ) );
#479 = CARTESIAN_POINT( '', ( 0.00250000000000302, 0.00170454022265503, -0.00144337567297996 ) );
#480 = CARTESIAN_POINT( '', ( 0.00242806999895690, 0.00172763505192694, -0.00148488495922645 ) );
#481 = CARTESIAN_POINT( '', ( 0.00228653376737661, 0.00177307860894901, -0.00156656253277673 ) );
#482 = CARTESIAN_POINT( '', ( 0.00207428334772565, 0.00182854804398051, -0.00168906720103460 ) );
#483 = CARTESIAN_POINT( '', ( 0.00183200138226235, 0.00187966884246533, -0.00182915016107361 ) );
#484 = CARTESIAN_POINT( '', ( 0.00155736422958823, 0.00191827004158702, -0.00198720330679415 ) );
#485 = CARTESIAN_POINT( '', ( 0.00124998963452608, 0.00193256847345087, -0.00216527216299583 ) );
#486 = CARTESIAN_POINT( '', ( 0.000942059726697561, 0.00191830492537118, -0.00234245695472786 ) );
#487 = CARTESIAN_POINT( '', ( 0.000632400850631968, 0.00187439816109479, -0.00252177737886513 ) );
#488 = CARTESIAN_POINT( '', ( 0.000316831642109054, 0.00180445021675981, -0.00270367453966270 ) );
#489 = CARTESIAN_POINT( '', ( 0.000107066198081733, 0.00173830258031698, -0.00282488461611373 ) );
#490 = CARTESIAN_POINT( '', ( -1.60246890532116E-19, 0.00170454022265666, -0.00288675134595087 ) );
#491 = COLOUR_RGB( '', 0.564705908300000, 0.811764717100000, 0.945098042500000 );
#492 = CARTESIAN_POINT( '', ( -0.00205681033399802, 0.00200000000001000, -0.00118750000001004 ) );
#493 = AXIS2_PLACEMENT_3D( '', #561, #562, #563 );
#494 = CARTESIAN_POINT( '', ( -0.00125000000001000, 0.00200000000001000, 0.00000000000000 ) );
#495 = AXIS2_PLACEMENT_3D( '', #564, #565, #566 );
#496 = COLOUR_RGB( '', 0.564705908300000, 0.811764717100000, 0.945098042500000 );
#497 = CARTESIAN_POINT( '', ( 0.00102500000001000, 0.00177500000001000, 0.00000000000000 ) );
#498 = AXIS2_PLACEMENT_3D( '', #567, #568, #569 );
#499 = COLOUR_RGB( '', 0.564705908300000, 0.811764717100000, 0.945098042500000 );
#500 = CARTESIAN_POINT( '', ( 0.00250000000000301, 0.00170454022265503, 0.00144337567297997 ) );
#501 = CARTESIAN_POINT( '', ( 0.00249998309586250, 0.00172763505192700, 0.00136032782165650 ) );
#502 = CARTESIAN_POINT( '', ( 0.00249994983368661, 0.00177307860894916, 0.00119691506277688 ) );
#503 = CARTESIAN_POINT( '', ( 0.00249991677865480, 0.00182854804398087, 0.000951848473266398 ) );
#504 = CARTESIAN_POINT( '', ( 0.00250009119795400, 0.00187966884246625, 0.000671984656276818 ) );
#505 = CARTESIAN_POINT( '', ( 0.00249965066096008, 0.00191827004158817, 0.000355115332374485 ) );
#506 = CARTESIAN_POINT( '', ( 0.00250017551652205, 0.00193256847345257, 0.00000000000000 ) );
#507 = CARTESIAN_POINT( '', ( 0.00249965709341038, 0.00191830492537312, -0.000355380822169166 ) );
#508 = CARTESIAN_POINT( '', ( 0.00250012369809950, 0.00187439816109402, -0.000713213487426556 ) );
#509 = CARTESIAN_POINT( '', ( 0.00249986665595916, 0.00180445021676032, -0.00107745301905867 ) );
#510 = CARTESIAN_POINT( '', ( 0.00249995493935277, 0.00173830258031488, -0.00131972026064442 ) );
#511 = CARTESIAN_POINT( '', ( 0.00250000000000302, 0.00170454022265503, -0.00144337567297996 ) );
#512 = CARTESIAN_POINT( '', ( -0.00250000000000301, 0.00170454022265503, 0.00144337567297997 ) );
#513 = CARTESIAN_POINT( '', ( -0.00242806999895781, 0.00172763505192663, 0.00148488495922602 ) );
#514 = CARTESIAN_POINT( '', ( -0.00228653376737843, 0.00177307860894838, 0.00156656253277594 ) );
#515 = CARTESIAN_POINT( '', ( -0.00207428334772775, 0.00182854804397968, 0.00168906720103433 ) );
#516 = CARTESIAN_POINT( '', ( -0.00183200138226410, 0.00187966884246510, 0.00182915016107237 ) );
#517 = CARTESIAN_POINT( '', ( -0.00155736422958885, 0.00191827004158736, 0.00198720330679291 ) );
#518 = CARTESIAN_POINT( '', ( -0.00124998963452658, 0.00193256847345076, 0.00216527216299592 ) );
#519 = CARTESIAN_POINT( '', ( -0.000942059726696623, 0.00191830492537144, 0.00234245695472774 ) );
#520 = CARTESIAN_POINT( '', ( -0.000632400850630686, 0.00187439816109453, 0.00252177737886591 ) );
#521 = CARTESIAN_POINT( '', ( -0.000316831642108690, 0.00180445021675939, 0.00270367453966347 ) );
#522 = CARTESIAN_POINT( '', ( -0.000107066198081178, 0.00173830258031670, 0.00282488461611423 ) );
#523 = CARTESIAN_POINT( '', ( 3.84592537277078E-18, 0.00170454022265666, 0.00288675134595087 ) );
#524 = COLOUR_RGB( '', 0.564705908300000, 0.811764717100000, 0.945098042500000 );
#525 = CARTESIAN_POINT( '', ( 0.00250000000000000, 0.000295459777351300, 0.00144337567298400 ) );
#526 = CARTESIAN_POINT( '', ( 0.00250000000000000, 0.000183962105133950, 0.00105713640657254 ) );
#527 = CARTESIAN_POINT( '', ( 0.00250000000000000, 0.000129086702922585, 0.000708943279249917 ) );
#528 = CARTESIAN_POINT( '', ( 0.00250000000000000, 7.22054127151794E-05, 0.000348022474566310 ) );
#529 = CARTESIAN_POINT( '', ( 0.00250000000000000, 7.21743942426097E-05, 0.00000000000000 ) );
#530 = CARTESIAN_POINT( '', ( 0.00250000000000000, 7.21434730056836E-05, -0.000347221127307470 ) );
#531 = CARTESIAN_POINT( '', ( 0.00250000000000000, 0.000129122540545963, -0.000709168329337525 ) );
#532 = CARTESIAN_POINT( '', ( 0.00250000000000000, 0.000183827627787630, -0.00105667056338047 ) );
#533 = CARTESIAN_POINT( '', ( 0.00250000000000000, 0.000295459777351300, -0.00144337567298400 ) );
#534 = COLOUR_RGB( '', 0.564705908300000, 0.811764717100000, 0.945098042500000 );
#535 = COLOUR_RGB( '', 0.564705908300000, 0.811764717100000, 0.945098042500000 );
#536 = CARTESIAN_POINT( '', ( -0.00250000000000317, 0.000295459777351300, 0.00144337567297217 ) );
#537 = CARTESIAN_POINT( '', ( -0.00216550698334921, 0.000183962105133514, 0.00163649530617939 ) );
#538 = CARTESIAN_POINT( '', ( -0.00186396288966711, 0.000129086702922585, 0.00181059186983930 ) );
#539 = CARTESIAN_POINT( '', ( -0.00155139630405683, 7.22054127151801E-05, 0.00199105227218109 ) );
#540 = CARTESIAN_POINT( '', ( -0.00124987439327447, 7.21743942426097E-05, 0.00216513602853786 ) );
#541 = CARTESIAN_POINT( '', ( -0.000949297683032877, 7.21434730056830E-05, 0.00233867407310799 ) );
#542 = CARTESIAN_POINT( '', ( -0.000635842211246059, 0.000129122540545963, 0.00251964767412307 ) );
#543 = CARTESIAN_POINT( '', ( -0.000334896448734773, 0.000183827627780025, 0.00269339879112045 ) );
#544 = CARTESIAN_POINT( '', ( 4.27262392133088E-15, 0.000295459777351300, 0.00288675134595060 ) );
#545 = COLOUR_RGB( '', 0.564705908300000, 0.811764717100000, 0.945098042500000 );
#546 = DIRECTION( '', ( 0.00000000000000, 1.00000000000000, 0.00000000000000 ) );
#547 = DIRECTION( '', ( 0.00000000000000, 1.00000000000000, 0.00000000000000 ) );
#548 = DIRECTION( '', ( 0.00000000000000, 1.00000000000000, 0.00000000000000 ) );
#549 = DIRECTION( '', ( 0.00000000000000, 1.00000000000000, 0.00000000000000 ) );
#550 = CARTESIAN_POINT( '', ( 0.00000000000000, 0.00000000000000, 0.00000000000000 ) );
#551 = DIRECTION( '', ( 0.00000000000000, 1.00000000000000, 0.00000000000000 ) );
#552 = DIRECTION( '', ( -0.866025403783658, 0.00000000000000, -0.500000000001352 ) );
#553 = CARTESIAN_POINT( '', ( 0.00000000000000, 0.00000000000000, 0.00000000000000 ) );
#554 = DIRECTION( '', ( 0.00000000000000, 1.00000000000000, 0.00000000000000 ) );
#555 = DIRECTION( '', ( -1.00000000000000, 0.00000000000000, 0.00000000000000 ) );
#556 = DIRECTION( '', ( 0.00000000000000, 1.00000000000000, 0.00000000000000 ) );
#557 = CARTESIAN_POINT( '', ( 0.00000000000000, 0.000225000000010000, 0.00000000000000 ) );
#558 = DIRECTION( '', ( 0.00000000000000, 1.00000000000000, 0.00000000000000 ) );
#559 = DIRECTION( '', ( -1.00000000000000, 0.00000000000000, 0.00000000000000 ) );
#560 = DIRECTION( '', ( 0.00000000000000, 1.00000000000000, 0.00000000000000 ) );
#561 = CARTESIAN_POINT( '', ( 0.00000000000000, 0.00200000000001000, 0.00000000000000 ) );
#562 = DIRECTION( '', ( 0.00000000000000, 1.00000000000000, 0.00000000000000 ) );
#563 = DIRECTION( '', ( -0.866025403783658, 0.00000000000000, -0.500000000001352 ) );
#564 = CARTESIAN_POINT( '', ( 0.00000000000000, 0.00200000000001000, 0.00000000000000 ) );
#565 = DIRECTION( '', ( 0.00000000000000, 1.00000000000000, 0.00000000000000 ) );
#566 = DIRECTION( '', ( -1.00000000000000, 0.00000000000000, 0.00000000000000 ) );
#567 = CARTESIAN_POINT( '', ( 0.00000000000000, 0.00177500000001000, 0.00000000000000 ) );
#568 = DIRECTION( '', ( -0.00000000000000, 1.00000000000000, 0.00000000000000 ) );
#569 = DIRECTION( '', ( 1.00000000000000, 0.00000000000000, 0.00000000000000 ) );
ENDSEC;
END-ISO-10303-21;
