ISO-10303-21;
HEADER;
FILE_DESCRIPTION( ( '' ), ' ' );
FILE_NAME( '/vol/tmp/translate-4297393125051408639/589d38f9c139c90fab49b5b7.step', '2017-02-10T03:52:26', ( '' ), ( '' ), ' ', ' ', ' ' );
FILE_SCHEMA( ( 'AUTOMOTIVE_DESIGN { 1 0 10303 214 1 1 1 1 }' ) );
ENDSEC;
DATA;
#1 = MECHANICAL_DESIGN_GEOMETRIC_PRESENTATION_REPRESENTATION( ' ', ( #10, #11, #12, #13, #14, #15, #16, #17, #18, #19, #20, #21, #22 ), #6 );
#2 = PRODUCT_DEFINITION_CONTEXT( '', #23, 'design' );
#3 = APPLICATION_PROTOCOL_DEFINITION( 'international standard', 'automotive_design', 2001, #23 );
#4 = PRODUCT_CATEGORY_RELATIONSHIP( 'NONE', 'NONE', #24, #25 );
#5 = SHAPE_DEFINITION_REPRESENTATION( #26, #27 );
#6 =  ( GEOMETRIC_REPRESENTATION_CONTEXT( 3 )GLOBAL_UNCERTAINTY_ASSIGNED_CONTEXT( ( #30 ) )GLOBAL_UNIT_ASSIGNED_CONTEXT( ( #32, #33, #34 ) )REPRESENTATION_CONTEXT( 'NONE', 'WORKSPACE' ) );
#10 = STYLED_ITEM( '', ( #36 ), #37 );
#11 = STYLED_ITEM( '', ( #38 ), #39 );
#12 = STYLED_ITEM( '', ( #40 ), #41 );
#13 = STYLED_ITEM( '', ( #42 ), #43 );
#14 = STYLED_ITEM( '', ( #44 ), #45 );
#15 = STYLED_ITEM( '', ( #46 ), #47 );
#16 = STYLED_ITEM( '', ( #48 ), #49 );
#17 = STYLED_ITEM( '', ( #50 ), #51 );
#18 = STYLED_ITEM( '', ( #52 ), #53 );
#19 = STYLED_ITEM( '', ( #54 ), #55 );
#20 = STYLED_ITEM( '', ( #56 ), #57 );
#21 = STYLED_ITEM( '', ( #58 ), #59 );
#22 = STYLED_ITEM( '', ( #60 ), #61 );
#23 = APPLICATION_CONTEXT( 'core data for automotive mechanical design processes' );
#24 = PRODUCT_CATEGORY( 'part', 'NONE' );
#25 = PRODUCT_RELATED_PRODUCT_CATEGORY( 'detail', ' ', ( #62 ) );
#26 = PRODUCT_DEFINITION_SHAPE( 'NONE', 'NONE', #63 );
#27 = ADVANCED_BREP_SHAPE_REPRESENTATION( 'NUT2_M3', ( #64, #65 ), #6 );
#30 = UNCERTAINTY_MEASURE_WITH_UNIT( LENGTH_MEASURE( 1.00000000000000E-06 ), #32, '', '' );
#32 =  ( CONVERSION_BASED_UNIT( 'METRE', #68 )LENGTH_UNIT(  )NAMED_UNIT( #71 ) );
#33 =  ( NAMED_UNIT( #73 )PLANE_ANGLE_UNIT(  )SI_UNIT( $, .RADIAN. ) );
#34 =  ( NAMED_UNIT( #73 )SI_UNIT( $, .STERADIAN. )SOLID_ANGLE_UNIT(  ) );
#36 = PRESENTATION_STYLE_ASSIGNMENT( ( #79 ) );
#37 = ADVANCED_FACE( '', ( #80, #81 ), #82, .F. );
#38 = PRESENTATION_STYLE_ASSIGNMENT( ( #83 ) );
#39 = ADVANCED_FACE( '', ( #84 ), #85, .T. );
#40 = PRESENTATION_STYLE_ASSIGNMENT( ( #86 ) );
#41 = ADVANCED_FACE( '', ( #87, #88 ), #89, .T. );
#42 = PRESENTATION_STYLE_ASSIGNMENT( ( #90 ) );
#43 = ADVANCED_FACE( '', ( #91 ), #92, .T. );
#44 = PRESENTATION_STYLE_ASSIGNMENT( ( #93 ) );
#45 = ADVANCED_FACE( '', ( #94, #95 ), #96, .F. );
#46 = PRESENTATION_STYLE_ASSIGNMENT( ( #97 ) );
#47 = ADVANCED_FACE( '', ( #98 ), #99, .T. );
#48 = PRESENTATION_STYLE_ASSIGNMENT( ( #100 ) );
#49 = ADVANCED_FACE( '', ( #101, #102 ), #103, .F. );
#50 = PRESENTATION_STYLE_ASSIGNMENT( ( #104 ) );
#51 = ADVANCED_FACE( '', ( #105 ), #106, .T. );
#52 = PRESENTATION_STYLE_ASSIGNMENT( ( #107 ) );
#53 = ADVANCED_FACE( '', ( #108, #109 ), #110, .F. );
#54 = PRESENTATION_STYLE_ASSIGNMENT( ( #111 ) );
#55 = ADVANCED_FACE( '', ( #112, #113 ), #114, .T. );
#56 = PRESENTATION_STYLE_ASSIGNMENT( ( #115 ) );
#57 = ADVANCED_FACE( '', ( #116, #117 ), #118, .T. );
#58 = PRESENTATION_STYLE_ASSIGNMENT( ( #119 ) );
#59 = ADVANCED_FACE( '', ( #120 ), #121, .T. );
#60 = PRESENTATION_STYLE_ASSIGNMENT( ( #122 ) );
#61 = ADVANCED_FACE( '', ( #123 ), #124, .T. );
#62 = PRODUCT( 'NUT2_M3', 'NUT2_M3', 'PART-NUT2_M3-DESC', ( #125 ) );
#63 = PRODUCT_DEFINITION( 'NONE', 'NONE', #126, #2 );
#64 = MANIFOLD_SOLID_BREP( 'NUT2_M3', #127 );
#65 = AXIS2_PLACEMENT_3D( '', #128, #129, #130 );
#68 = LENGTH_MEASURE_WITH_UNIT( LENGTH_MEASURE( 1.00000000000000 ), #131 );
#71 = DIMENSIONAL_EXPONENTS( 1.00000000000000, 0.00000000000000, 0.00000000000000, 0.00000000000000, 0.00000000000000, 0.00000000000000, 0.00000000000000 );
#73 = DIMENSIONAL_EXPONENTS( 0.00000000000000, 0.00000000000000, 0.00000000000000, 0.00000000000000, 0.00000000000000, 0.00000000000000, 0.00000000000000 );
#79 = SURFACE_STYLE_USAGE( .BOTH., #132 );
#80 = FACE_OUTER_BOUND( '', #133, .T. );
#81 = FACE_OUTER_BOUND( '', #134, .T. );
#82 = CYLINDRICAL_SURFACE( '', #135, 0.00125000000000000 );
#83 = SURFACE_STYLE_USAGE( .BOTH., #136 );
#84 = FACE_OUTER_BOUND( '', #137, .T. );
#85 = PLANE( '', #138 );
#86 = SURFACE_STYLE_USAGE( .BOTH., #139 );
#87 = FACE_OUTER_BOUND( '', #140, .T. );
#88 = FACE_BOUND( '', #141, .T. );
#89 = PLANE( '', #142 );
#90 = SURFACE_STYLE_USAGE( .BOTH., #143 );
#91 = FACE_OUTER_BOUND( '', #144, .T. );
#92 = PLANE( '', #145 );
#93 = SURFACE_STYLE_USAGE( .BOTH., #146 );
#94 = FACE_OUTER_BOUND( '', #147, .T. );
#95 = FACE_BOUND( '', #148, .T. );
#96 = CONICAL_SURFACE( '', #149, 0.00137500000000000, 0.785398163400000 );
#97 = SURFACE_STYLE_USAGE( .BOTH., #150 );
#98 = FACE_OUTER_BOUND( '', #151, .T. );
#99 = PLANE( '', #152 );
#100 = SURFACE_STYLE_USAGE( .BOTH., #153 );
#101 = FACE_OUTER_BOUND( '', #154, .T. );
#102 = FACE_BOUND( '', #155, .T. );
#103 = PLANE( '', #156 );
#104 = SURFACE_STYLE_USAGE( .BOTH., #157 );
#105 = FACE_OUTER_BOUND( '', #158, .T. );
#106 = PLANE( '', #159 );
#107 = SURFACE_STYLE_USAGE( .BOTH., #160 );
#108 = FACE_BOUND( '', #161, .T. );
#109 = FACE_OUTER_BOUND( '', #162, .T. );
#110 = CONICAL_SURFACE( '', #163, 0.00137500000000000, 0.785398163400000 );
#111 = SURFACE_STYLE_USAGE( .BOTH., #164 );
#112 = FACE_BOUND( '', #165, .T. );
#113 = FACE_OUTER_BOUND( '', #166, .T. );
#114 = CONICAL_SURFACE( '', #167, 0.00289396320000000, 1.04719755120000 );
#115 = SURFACE_STYLE_USAGE( .BOTH., #168 );
#116 = FACE_OUTER_BOUND( '', #169, .T. );
#117 = FACE_BOUND( '', #170, .T. );
#118 = CONICAL_SURFACE( '', #171, 0.00289396320000000, 1.04719755120000 );
#119 = SURFACE_STYLE_USAGE( .BOTH., #172 );
#120 = FACE_OUTER_BOUND( '', #173, .T. );
#121 = PLANE( '', #174 );
#122 = SURFACE_STYLE_USAGE( .BOTH., #175 );
#123 = FACE_OUTER_BOUND( '', #176, .T. );
#124 = PLANE( '', #177 );
#125 = PRODUCT_CONTEXT( '', #23, 'mechanical' );
#126 = PRODUCT_DEFINITION_FORMATION_WITH_SPECIFIED_SOURCE( ' ', 'NONE', #62, .NOT_KNOWN. );
#127 = CLOSED_SHELL( '', ( #61, #55, #57, #41, #51, #49, #53, #37, #45, #59, #43, #39, #47 ) );
#128 = CARTESIAN_POINT( '', ( 0.00000000000000, 0.00000000000000, 0.00000000000000 ) );
#129 = DIRECTION( '', ( 0.00000000000000, 0.00000000000000, 1.00000000000000 ) );
#130 = DIRECTION( '', ( 1.00000000000000, 0.00000000000000, 0.00000000000000 ) );
#131 =  ( LENGTH_UNIT(  )NAMED_UNIT( #71 )SI_UNIT( $, .METRE. ) );
#132 = SURFACE_SIDE_STYLE( '', ( #179 ) );
#133 = EDGE_LOOP( '', ( #180 ) );
#134 = EDGE_LOOP( '', ( #181 ) );
#135 = AXIS2_PLACEMENT_3D( '', #182, #183, #184 );
#136 = SURFACE_SIDE_STYLE( '', ( #185 ) );
#137 = EDGE_LOOP( '', ( #186, #187, #188, #189 ) );
#138 = AXIS2_PLACEMENT_3D( '', #190, #191, #192 );
#139 = SURFACE_SIDE_STYLE( '', ( #193 ) );
#140 = EDGE_LOOP( '', ( #194 ) );
#141 = EDGE_LOOP( '', ( #195 ) );
#142 = AXIS2_PLACEMENT_3D( '', #196, #197, #198 );
#143 = SURFACE_SIDE_STYLE( '', ( #199 ) );
#144 = EDGE_LOOP( '', ( #200, #201, #202, #203 ) );
#145 = AXIS2_PLACEMENT_3D( '', #204, #205, #206 );
#146 = SURFACE_SIDE_STYLE( '', ( #207 ) );
#147 = EDGE_LOOP( '', ( #208 ) );
#148 = EDGE_LOOP( '', ( #209 ) );
#149 = AXIS2_PLACEMENT_3D( '', #210, #211, #212 );
#150 = SURFACE_SIDE_STYLE( '', ( #213 ) );
#151 = EDGE_LOOP( '', ( #214, #215, #216, #217 ) );
#152 = AXIS2_PLACEMENT_3D( '', #218, #219, #220 );
#153 = SURFACE_SIDE_STYLE( '', ( #221 ) );
#154 = EDGE_LOOP( '', ( #222 ) );
#155 = EDGE_LOOP( '', ( #223 ) );
#156 = AXIS2_PLACEMENT_3D( '', #224, #225, #226 );
#157 = SURFACE_SIDE_STYLE( '', ( #227 ) );
#158 = EDGE_LOOP( '', ( #228, #229, #230, #231 ) );
#159 = AXIS2_PLACEMENT_3D( '', #232, #233, #234 );
#160 = SURFACE_SIDE_STYLE( '', ( #235 ) );
#161 = EDGE_LOOP( '', ( #236 ) );
#162 = EDGE_LOOP( '', ( #237 ) );
#163 = AXIS2_PLACEMENT_3D( '', #238, #239, #240 );
#164 = SURFACE_SIDE_STYLE( '', ( #241 ) );
#165 = EDGE_LOOP( '', ( #242 ) );
#166 = EDGE_LOOP( '', ( #243, #244, #245, #246, #247, #248 ) );
#167 = AXIS2_PLACEMENT_3D( '', #249, #250, #251 );
#168 = SURFACE_SIDE_STYLE( '', ( #252 ) );
#169 = EDGE_LOOP( '', ( #253, #254, #255, #256, #257, #258 ) );
#170 = EDGE_LOOP( '', ( #259 ) );
#171 = AXIS2_PLACEMENT_3D( '', #260, #261, #262 );
#172 = SURFACE_SIDE_STYLE( '', ( #263 ) );
#173 = EDGE_LOOP( '', ( #264, #265, #266, #267 ) );
#174 = AXIS2_PLACEMENT_3D( '', #268, #269, #270 );
#175 = SURFACE_SIDE_STYLE( '', ( #271 ) );
#176 = EDGE_LOOP( '', ( #272, #273, #274, #275 ) );
#177 = AXIS2_PLACEMENT_3D( '', #276, #277, #278 );
#179 = SURFACE_STYLE_FILL_AREA( #279 );
#180 = ORIENTED_EDGE( '', *, *, #280, .F. );
#181 = ORIENTED_EDGE( '', *, *, #281, .T. );
#182 = CARTESIAN_POINT( '', ( 0.00000000000000, 0.00240000000000000, 0.00000000000000 ) );
#183 = DIRECTION( '', ( 0.00000000000000, -1.00000000000000, -0.00000000000000 ) );
#184 = DIRECTION( '', ( 1.00000000000000, 0.00000000000000, 0.00000000000000 ) );
#185 = SURFACE_STYLE_FILL_AREA( #282 );
#186 = ORIENTED_EDGE( '', *, *, #283, .F. );
#187 = ORIENTED_EDGE( '', *, *, #284, .T. );
#188 = ORIENTED_EDGE( '', *, *, #285, .T. );
#189 = ORIENTED_EDGE( '', *, *, #286, .F. );
#190 = CARTESIAN_POINT( '', ( 0.00275000000000000, 0.00000000000000, -0.00158771324027100 ) );
#191 = DIRECTION( '', ( 0.500000000000017, 0.00000000000000, -0.866025403784429 ) );
#192 = DIRECTION( '', ( 0.00000000000000, -1.00000000000000, 0.00000000000000 ) );
#193 = SURFACE_STYLE_FILL_AREA( #287 );
#194 = ORIENTED_EDGE( '', *, *, #288, .T. );
#195 = ORIENTED_EDGE( '', *, *, #289, .F. );
#196 = CARTESIAN_POINT( '', ( 0.00000000000000, 0.00240000000000000, 0.00000000000000 ) );
#197 = DIRECTION( '', ( -0.00000000000000, 1.00000000000000, 0.00000000000000 ) );
#198 = DIRECTION( '', ( 1.00000000000000, 0.00000000000000, 0.00000000000000 ) );
#199 = SURFACE_STYLE_FILL_AREA( #290 );
#200 = ORIENTED_EDGE( '', *, *, #291, .F. );
#201 = ORIENTED_EDGE( '', *, *, #292, .T. );
#202 = ORIENTED_EDGE( '', *, *, #293, .T. );
#203 = ORIENTED_EDGE( '', *, *, #294, .F. );
#204 = CARTESIAN_POINT( '', ( 0.00000000000000, 0.00000000000000, 0.00317542648054300 ) );
#205 = DIRECTION( '', ( 0.500000000000017, 0.00000000000000, 0.866025403784429 ) );
#206 = DIRECTION( '', ( 0.00000000000000, -1.00000000000000, 0.00000000000000 ) );
#207 = SURFACE_STYLE_FILL_AREA( #295 );
#208 = ORIENTED_EDGE( '', *, *, #289, .T. );
#209 = ORIENTED_EDGE( '', *, *, #281, .F. );
#210 = CARTESIAN_POINT( '', ( 0.00000000000000, 0.00227500000000000, 0.00000000000000 ) );
#211 = DIRECTION( '', ( -0.00000000000000, 1.00000000000000, -0.00000000000000 ) );
#212 = DIRECTION( '', ( 1.00000000000000, 0.00000000000000, 0.00000000000000 ) );
#213 = SURFACE_STYLE_FILL_AREA( #296 );
#214 = ORIENTED_EDGE( '', *, *, #297, .F. );
#215 = ORIENTED_EDGE( '', *, *, #298, .T. );
#216 = ORIENTED_EDGE( '', *, *, #299, .T. );
#217 = ORIENTED_EDGE( '', *, *, #300, .F. );
#218 = CARTESIAN_POINT( '', ( -0.00275000000000000, 0.00000000000000, -0.00158771324027100 ) );
#219 = DIRECTION( '', ( -1.00000000000000, 0.00000000000000, 0.00000000000000 ) );
#220 = DIRECTION( '', ( 0.00000000000000, 0.00000000000000, 1.00000000000000 ) );
#221 = SURFACE_STYLE_FILL_AREA( #301 );
#222 = ORIENTED_EDGE( '', *, *, #302, .F. );
#223 = ORIENTED_EDGE( '', *, *, #303, .T. );
#224 = CARTESIAN_POINT( '', ( 0.00000000000000, 0.00000000000000, 0.00000000000000 ) );
#225 = DIRECTION( '', ( -0.00000000000000, 1.00000000000000, 0.00000000000000 ) );
#226 = DIRECTION( '', ( 1.00000000000000, 0.00000000000000, 0.00000000000000 ) );
#227 = SURFACE_STYLE_FILL_AREA( #304 );
#228 = ORIENTED_EDGE( '', *, *, #285, .F. );
#229 = ORIENTED_EDGE( '', *, *, #305, .T. );
#230 = ORIENTED_EDGE( '', *, *, #297, .T. );
#231 = ORIENTED_EDGE( '', *, *, #306, .F. );
#232 = CARTESIAN_POINT( '', ( 0.00000000000000, 0.00000000000000, -0.00317542648054300 ) );
#233 = DIRECTION( '', ( -0.500000000000017, 0.00000000000000, -0.866025403784429 ) );
#234 = DIRECTION( '', ( -0.866025403784429, 0.00000000000000, 0.500000000000017 ) );
#235 = SURFACE_STYLE_FILL_AREA( #307 );
#236 = ORIENTED_EDGE( '', *, *, #280, .T. );
#237 = ORIENTED_EDGE( '', *, *, #303, .F. );
#238 = CARTESIAN_POINT( '', ( 0.00000000000000, 0.000125000000000000, 0.00000000000000 ) );
#239 = DIRECTION( '', ( -0.00000000000000, -1.00000000000000, 0.00000000000000 ) );
#240 = DIRECTION( '', ( -1.00000000000000, 0.00000000000000, 0.00000000000000 ) );
#241 = SURFACE_STYLE_FILL_AREA( #308 );
#242 = ORIENTED_EDGE( '', *, *, #302, .T. );
#243 = ORIENTED_EDGE( '', *, *, #298, .F. );
#244 = ORIENTED_EDGE( '', *, *, #305, .F. );
#245 = ORIENTED_EDGE( '', *, *, #284, .F. );
#246 = ORIENTED_EDGE( '', *, *, #309, .F. );
#247 = ORIENTED_EDGE( '', *, *, #292, .F. );
#248 = ORIENTED_EDGE( '', *, *, #310, .F. );
#249 = CARTESIAN_POINT( '', ( 0.00000000000000, 0.000162502877537700, 0.00000000000000 ) );
#250 = DIRECTION( '', ( -0.00000000000000, 1.00000000000000, -0.00000000000000 ) );
#251 = DIRECTION( '', ( 0.866025403784429, 0.00000000000000, 0.500000000000017 ) );
#252 = SURFACE_STYLE_FILL_AREA( #311 );
#253 = ORIENTED_EDGE( '', *, *, #294, .T. );
#254 = ORIENTED_EDGE( '', *, *, #312, .T. );
#255 = ORIENTED_EDGE( '', *, *, #286, .T. );
#256 = ORIENTED_EDGE( '', *, *, #306, .T. );
#257 = ORIENTED_EDGE( '', *, *, #300, .T. );
#258 = ORIENTED_EDGE( '', *, *, #313, .T. );
#259 = ORIENTED_EDGE( '', *, *, #288, .F. );
#260 = CARTESIAN_POINT( '', ( 0.00000000000000, 0.00223749712246200, 0.00000000000000 ) );
#261 = DIRECTION( '', ( -0.00000000000000, -1.00000000000000, -0.00000000000000 ) );
#262 = DIRECTION( '', ( -0.866025403784429, 0.00000000000000, -0.500000000000017 ) );
#263 = SURFACE_STYLE_FILL_AREA( #314 );
#264 = ORIENTED_EDGE( '', *, *, #299, .F. );
#265 = ORIENTED_EDGE( '', *, *, #310, .T. );
#266 = ORIENTED_EDGE( '', *, *, #291, .T. );
#267 = ORIENTED_EDGE( '', *, *, #313, .F. );
#268 = CARTESIAN_POINT( '', ( -0.00275000000000000, 0.00000000000000, 0.00158771324027100 ) );
#269 = DIRECTION( '', ( -0.500000000000017, 0.00000000000000, 0.866025403784429 ) );
#270 = DIRECTION( '', ( 0.00000000000000, 1.00000000000000, 0.00000000000000 ) );
#271 = SURFACE_STYLE_FILL_AREA( #315 );
#272 = ORIENTED_EDGE( '', *, *, #293, .F. );
#273 = ORIENTED_EDGE( '', *, *, #309, .T. );
#274 = ORIENTED_EDGE( '', *, *, #283, .T. );
#275 = ORIENTED_EDGE( '', *, *, #312, .F. );
#276 = CARTESIAN_POINT( '', ( 0.00275000000000000, 0.00000000000000, 0.00158771324027100 ) );
#277 = DIRECTION( '', ( 1.00000000000000, 0.00000000000000, 0.00000000000000 ) );
#278 = DIRECTION( '', ( 0.00000000000000, 1.00000000000000, 0.00000000000000 ) );
#279 = FILL_AREA_STYLE( '', ( #316 ) );
#280 = EDGE_CURVE( '', #317, #317, #318, .T. );
#281 = EDGE_CURVE( '', #319, #319, #320, .T. );
#282 = FILL_AREA_STYLE( '', ( #321 ) );
#283 = EDGE_CURVE( '', #322, #323, #324, .T. );
#284 = EDGE_CURVE( '', #322, #325, #326, .T. );
#285 = EDGE_CURVE( '', #325, #327, #328, .T. );
#286 = EDGE_CURVE( '', #323, #327, #329, .T. );
#287 = FILL_AREA_STYLE( '', ( #330 ) );
#288 = EDGE_CURVE( '', #331, #331, #332, .T. );
#289 = EDGE_CURVE( '', #333, #333, #334, .T. );
#290 = FILL_AREA_STYLE( '', ( #335 ) );
#291 = EDGE_CURVE( '', #336, #337, #338, .T. );
#292 = EDGE_CURVE( '', #336, #339, #340, .T. );
#293 = EDGE_CURVE( '', #339, #341, #342, .T. );
#294 = EDGE_CURVE( '', #337, #341, #343, .T. );
#295 = FILL_AREA_STYLE( '', ( #344 ) );
#296 = FILL_AREA_STYLE( '', ( #345 ) );
#297 = EDGE_CURVE( '', #346, #347, #348, .T. );
#298 = EDGE_CURVE( '', #346, #349, #350, .T. );
#299 = EDGE_CURVE( '', #349, #351, #352, .T. );
#300 = EDGE_CURVE( '', #347, #351, #353, .T. );
#301 = FILL_AREA_STYLE( '', ( #354 ) );
#302 = EDGE_CURVE( '', #355, #355, #356, .T. );
#303 = EDGE_CURVE( '', #357, #357, #358, .T. );
#304 = FILL_AREA_STYLE( '', ( #359 ) );
#305 = EDGE_CURVE( '', #325, #346, #360, .T. );
#306 = EDGE_CURVE( '', #327, #347, #361, .T. );
#307 = FILL_AREA_STYLE( '', ( #362 ) );
#308 = FILL_AREA_STYLE( '', ( #363 ) );
#309 = EDGE_CURVE( '', #339, #322, #364, .T. );
#310 = EDGE_CURVE( '', #349, #336, #365, .T. );
#311 = FILL_AREA_STYLE( '', ( #366 ) );
#312 = EDGE_CURVE( '', #341, #323, #367, .T. );
#313 = EDGE_CURVE( '', #351, #337, #368, .T. );
#314 = FILL_AREA_STYLE( '', ( #369 ) );
#315 = FILL_AREA_STYLE( '', ( #370 ) );
#316 = FILL_AREA_STYLE_COLOUR( '', #371 );
#317 = VERTEX_POINT( '', #372 );
#318 = CIRCLE( '', #373, 0.00125000000000000 );
#319 = VERTEX_POINT( '', #374 );
#320 = CIRCLE( '', #375, 0.00125000000000000 );
#321 = FILL_AREA_STYLE_COLOUR( '', #376 );
#322 = VERTEX_POINT( '', #377 );
#323 = VERTEX_POINT( '', #378 );
#324 = LINE( '', #379, #380 );
#325 = VERTEX_POINT( '', #381 );
#326 = B_SPLINE_CURVE_WITH_KNOTS( '', 2, ( #382, #383, #384, #385, #386, #387, #388, #389, #390 ), .UNSPECIFIED., .F., .F., ( 3, 2, 2, 2, 3 ), ( 0.00000000000000, 0.250000000000000, 0.500000000000000, 0.750000000000000, 1.00000000000000 ), .UNSPECIFIED. );
#327 = VERTEX_POINT( '', #391 );
#328 = LINE( '', #392, #393 );
#329 = B_SPLINE_CURVE_WITH_KNOTS( '', 3, ( #394, #395, #396, #397, #398, #399, #400, #401, #402, #403, #404, #405 ), .UNSPECIFIED., .F., .F., ( 4, 1, 1, 1, 1, 1, 1, 1, 1, 4 ), ( 0.00000000000000, 0.0882352836737565, 0.173619703746169, 0.257120496242518, 0.379410809759297, 0.500061105877774, 0.620686008301767, 0.742980535092748, 0.868815281869176, 1.00000000000000 ), .UNSPECIFIED. );
#330 = FILL_AREA_STYLE_COLOUR( '', #406 );
#331 = VERTEX_POINT( '', #407 );
#332 = CIRCLE( '', #408, 0.00261250000000000 );
#333 = VERTEX_POINT( '', #409 );
#334 = CIRCLE( '', #410, 0.00150000000000000 );
#335 = FILL_AREA_STYLE_COLOUR( '', #411 );
#336 = VERTEX_POINT( '', #412 );
#337 = VERTEX_POINT( '', #413 );
#338 = LINE( '', #414, #415 );
#339 = VERTEX_POINT( '', #416 );
#340 = B_SPLINE_CURVE_WITH_KNOTS( '', 2, ( #417, #418, #419, #420, #421, #422, #423, #424, #425 ), .UNSPECIFIED., .F., .F., ( 3, 2, 2, 2, 3 ), ( 0.00000000000000, 0.250000000000000, 0.500000000000000, 0.750000000000000, 1.00000000000000 ), .UNSPECIFIED. );
#341 = VERTEX_POINT( '', #426 );
#342 = LINE( '', #427, #428 );
#343 = B_SPLINE_CURVE_WITH_KNOTS( '', 3, ( #429, #430, #431, #432, #433, #434, #435, #436, #437, #438, #439, #440 ), .UNSPECIFIED., .F., .F., ( 4, 1, 1, 1, 1, 1, 1, 1, 1, 4 ), ( 0.00000000000000, 0.0882352836789323, 0.173619703752169, 0.257120496245093, 0.379410809759143, 0.500061105880340, 0.620686008301962, 0.742980535095231, 0.868815281876104, 1.00000000000000 ), .UNSPECIFIED. );
#344 = FILL_AREA_STYLE_COLOUR( '', #441 );
#345 = FILL_AREA_STYLE_COLOUR( '', #442 );
#346 = VERTEX_POINT( '', #443 );
#347 = VERTEX_POINT( '', #444 );
#348 = LINE( '', #445, #446 );
#349 = VERTEX_POINT( '', #447 );
#350 = B_SPLINE_CURVE_WITH_KNOTS( '', 2, ( #448, #449, #450, #451, #452, #453, #454, #455, #456 ), .UNSPECIFIED., .F., .F., ( 3, 2, 2, 2, 3 ), ( 0.00000000000000, 0.250000000000000, 0.500000000000000, 0.750000000000000, 1.00000000000000 ), .UNSPECIFIED. );
#351 = VERTEX_POINT( '', #457 );
#352 = LINE( '', #458, #459 );
#353 = B_SPLINE_CURVE_WITH_KNOTS( '', 3, ( #460, #461, #462, #463, #464, #465, #466, #467, #468, #469, #470, #471 ), .UNSPECIFIED., .F., .F., ( 4, 1, 1, 1, 1, 1, 1, 1, 1, 4 ), ( 0.00000000000000, 0.0882352836734312, 0.173619703745307, 0.257120496240913, 0.379410809760423, 0.500061105878750, 0.620686008304736, 0.742980535096124, 0.868815281876550, 1.00000000000000 ), .UNSPECIFIED. );
#354 = FILL_AREA_STYLE_COLOUR( '', #472 );
#355 = VERTEX_POINT( '', #473 );
#356 = CIRCLE( '', #474, 0.00261250000000000 );
#357 = VERTEX_POINT( '', #475 );
#358 = CIRCLE( '', #476, 0.00150000000000000 );
#359 = FILL_AREA_STYLE_COLOUR( '', #477 );
#360 = B_SPLINE_CURVE_WITH_KNOTS( '', 2, ( #478, #479, #480, #481, #482, #483, #484, #485, #486 ), .UNSPECIFIED., .F., .F., ( 3, 2, 2, 2, 3 ), ( 0.00000000000000, 0.250000000000000, 0.500000000000000, 0.750000000000000, 1.00000000000000 ), .UNSPECIFIED. );
#361 = B_SPLINE_CURVE_WITH_KNOTS( '', 3, ( #487, #488, #489, #490, #491, #492, #493, #494, #495, #496, #497, #498 ), .UNSPECIFIED., .F., .F., ( 4, 1, 1, 1, 1, 1, 1, 1, 1, 4 ), ( 0.00000000000000, 0.0882352836782654, 0.173619703751452, 0.257120496244876, 0.379410809758196, 0.500061105879922, 0.620686008301601, 0.742980535094610, 0.868815281876620, 1.00000000000000 ), .UNSPECIFIED. );
#362 = FILL_AREA_STYLE_COLOUR( '', #499 );
#363 = FILL_AREA_STYLE_COLOUR( '', #500 );
#364 = B_SPLINE_CURVE_WITH_KNOTS( '', 2, ( #501, #502, #503, #504, #505, #506, #507, #508, #509 ), .UNSPECIFIED., .F., .F., ( 3, 2, 2, 2, 3 ), ( 0.00000000000000, 0.250000000000000, 0.500000000000000, 0.750000000000000, 1.00000000000000 ), .UNSPECIFIED. );
#365 = B_SPLINE_CURVE_WITH_KNOTS( '', 2, ( #510, #511, #512, #513, #514, #515, #516, #517, #518 ), .UNSPECIFIED., .F., .F., ( 3, 2, 2, 2, 3 ), ( 0.00000000000000, 0.250000000000000, 0.500000000000000, 0.750000000000000, 1.00000000000000 ), .UNSPECIFIED. );
#366 = FILL_AREA_STYLE_COLOUR( '', #519 );
#367 = B_SPLINE_CURVE_WITH_KNOTS( '', 3, ( #520, #521, #522, #523, #524, #525, #526, #527, #528, #529, #530, #531 ), .UNSPECIFIED., .F., .F., ( 4, 1, 1, 1, 1, 1, 1, 1, 1, 4 ), ( 0.00000000000000, 0.0882352836730419, 0.173619703745138, 0.257120496241529, 0.379410809760941, 0.500061105879166, 0.620686008305048, 0.742980535096336, 0.868815281876657, 1.00000000000000 ), .UNSPECIFIED. );
#368 = B_SPLINE_CURVE_WITH_KNOTS( '', 3, ( #532, #533, #534, #535, #536, #537, #538, #539, #540, #541, #542, #543 ), .UNSPECIFIED., .F., .F., ( 4, 1, 1, 1, 1, 1, 1, 1, 1, 4 ), ( 0.00000000000000, 0.0882352836741539, 0.173619703746555, 0.257120496242527, 0.379410809759720, 0.500061105877778, 0.620686008301346, 0.742980535092744, 0.868815281868736, 1.00000000000000 ), .UNSPECIFIED. );
#369 = FILL_AREA_STYLE_COLOUR( '', #544 );
#370 = FILL_AREA_STYLE_COLOUR( '', #545 );
#371 = COLOUR_RGB( '', 0.564705908300000, 0.811764717100000, 0.945098042500000 );
#372 = CARTESIAN_POINT( '', ( -0.00125000000001000, 0.000250000000010000, 0.00000000000000 ) );
#373 = AXIS2_PLACEMENT_3D( '', #546, #547, #548 );
#374 = CARTESIAN_POINT( '', ( 0.00125000000001000, 0.00215000000001000, 0.00000000000000 ) );
#375 = AXIS2_PLACEMENT_3D( '', #549, #550, #551 );
#376 = COLOUR_RGB( '', 0.564705908300000, 0.811764717100000, 0.945098042500000 );
#377 = CARTESIAN_POINT( '', ( 0.00275000000000000, 0.000325005755075400, -0.00158771324027100 ) );
#378 = CARTESIAN_POINT( '', ( 0.00275000000000000, 0.00207499424492500, -0.00158771324027100 ) );
#379 = CARTESIAN_POINT( '', ( 0.00275000000001000, 0.000325005755085400, -0.00158771324028100 ) );
#380 = VECTOR( '', #552, 1.00000000000000 );
#381 = CARTESIAN_POINT( '', ( 0.00000000000000, 0.000325005755075400, -0.00317542648054300 ) );
#382 = CARTESIAN_POINT( '', ( 0.00275000000000317, 0.000325005755085400, -0.00158771324026917 ) );
#383 = CARTESIAN_POINT( '', ( 0.00238203211117538, 0.000202349792142668, -0.00180015959993704 ) );
#384 = CARTESIAN_POINT( '', ( 0.00205035864295268, 0.000141995276004106, -0.00199165136609848 ) );
#385 = CARTESIAN_POINT( '', ( 0.00170649034533572, 7.94216706166305E-05, -0.00219018382029342 ) );
#386 = CARTESIAN_POINT( '', ( 0.00137486180735540, 7.93918334229880E-05, -0.00238164964596733 ) );
#387 = CARTESIAN_POINT( '', ( 0.00104418233362494, 7.93620816182989E-05, -0.00257256752914110 ) );
#388 = CARTESIAN_POINT( '', ( 0.000699426850774542, 0.000142034718955519, -0.00277161219996939 ) );
#389 = CARTESIAN_POINT( '', ( 0.000368361123223116, 0.000202218714017948, -0.00296275308689067 ) );
#390 = CARTESIAN_POINT( '', ( -4.52762827229947E-15, 0.000325005755085400, -0.00317542648054516 ) );
#391 = CARTESIAN_POINT( '', ( 0.00000000000000, 0.00207499424492500, -0.00317542648054300 ) );
#392 = CARTESIAN_POINT( '', ( 0.00000000000000, 0.000325005755085400, -0.00317542648055300 ) );
#393 = VECTOR( '', #553, 1.00000000000000 );
#394 = CARTESIAN_POINT( '', ( 0.00275000000000294, 0.00207499424492089, -0.00158771324027693 ) );
#395 = CARTESIAN_POINT( '', ( 0.00267087663060611, 0.00210039867950162, -0.00163337363936778 ) );
#396 = CARTESIAN_POINT( '', ( 0.00251518635136509, 0.00215038673668354, -0.00172321915958390 ) );
#397 = CARTESIAN_POINT( '', ( 0.00228171061271429, 0.00221140322094850, -0.00185797420593673 ) );
#398 = CARTESIAN_POINT( '', ( 0.00201520024312262, 0.00226763590919750, -0.00201206605003317 ) );
#399 = CARTESIAN_POINT( '', ( 0.00171309970245551, 0.00231009714719465, -0.00218592414404406 ) );
#400 = CARTESIAN_POINT( '', ( 0.00137498726060746, 0.00232582531107965, -0.00238180015623417 ) );
#401 = CARTESIAN_POINT( '', ( 0.00103626525567576, 0.00231013535650782, -0.00257670292830355 ) );
#402 = CARTESIAN_POINT( '', ( 0.000695640196285775, 0.00226183787235075, -0.00277395546580941 ) );
#403 = CARTESIAN_POINT( '', ( 0.000348514840540074, 0.00218489507690249, -0.00297404228038651 ) );
#404 = CARTESIAN_POINT( '', ( 0.000117772613274948, 0.00211213271559216, -0.00310737329954406 ) );
#405 = CARTESIAN_POINT( '', ( 5.99323370590064E-18, 0.00207499424492235, -0.00317542648054569 ) );
#406 = COLOUR_RGB( '', 0.564705908300000, 0.811764717100000, 0.945098042500000 );
#407 = CARTESIAN_POINT( '', ( -0.00226249136739682, 0.00240000000001000, -0.00130625000001004 ) );
#408 = AXIS2_PLACEMENT_3D( '', #554, #555, #556 );
#409 = CARTESIAN_POINT( '', ( -0.00150000000001000, 0.00240000000001000, 0.00000000000000 ) );
#410 = AXIS2_PLACEMENT_3D( '', #557, #558, #559 );
#411 = COLOUR_RGB( '', 0.564705908300000, 0.811764717100000, 0.945098042500000 );
#412 = CARTESIAN_POINT( '', ( 0.00000000000000, 0.000325005755075400, 0.00317542648054300 ) );
#413 = CARTESIAN_POINT( '', ( 0.00000000000000, 0.00207499424492500, 0.00317542648054300 ) );
#414 = CARTESIAN_POINT( '', ( 0.00000000000000, 0.000325005755085400, 0.00317542648055300 ) );
#415 = VECTOR( '', #560, 1.00000000000000 );
#416 = CARTESIAN_POINT( '', ( 0.00275000000000000, 0.000325005755075400, 0.00158771324027100 ) );
#417 = CARTESIAN_POINT( '', ( -4.33028098886626E-15, 0.000325005755085400, 0.00317542648054550 ) );
#418 = CARTESIAN_POINT( '', ( 0.000367967888873104, 0.000202349792134891, 0.00296298012084897 ) );
#419 = CARTESIAN_POINT( '', ( 0.000699641357053543, 0.000141995276004106, 0.00277148835471192 ) );
#420 = CARTESIAN_POINT( '', ( 0.00104350965467098, 7.94216706166325E-05, 0.00257295590051671 ) );
#421 = CARTESIAN_POINT( '', ( 0.00137513819265072, 7.93918334229880E-05, 0.00238149007484313 ) );
#422 = CARTESIAN_POINT( '', ( 0.00170581766638091, 7.93620816182969E-05, 0.00219057219166952 ) );
#423 = CARTESIAN_POINT( '', ( 0.00205057314923139, 0.000142034718955519, 0.00199152752084118 ) );
#424 = CARTESIAN_POINT( '', ( 0.00238163887681957, 0.000202218714024614, 0.00180038663389868 ) );
#425 = CARTESIAN_POINT( '', ( 0.00275000000000337, 0.000325005755085400, 0.00158771324026951 ) );
#426 = CARTESIAN_POINT( '', ( 0.00275000000000000, 0.00207499424492500, 0.00158771324027100 ) );
#427 = CARTESIAN_POINT( '', ( 0.00275000000001000, 0.000325005755085400, 0.00158771324028100 ) );
#428 = VECTOR( '', #561, 1.00000000000000 );
#429 = CARTESIAN_POINT( '', ( 4.23051791004751E-18, 0.00207499424492235, 0.00317542648054569 ) );
#430 = CARTESIAN_POINT( '', ( 7.91047502642958E-05, 0.00210039867950330, 0.00312973383215987 ) );
#431 = CARTESIAN_POINT( '', ( 0.000234758392816758, 0.00215038673668443, 0.00303982485532396 ) );
#432 = CARTESIAN_POINT( '', ( 0.000468197555573746, 0.00221140322094960, 0.00290500645765926 ) );
#433 = CARTESIAN_POINT( '', ( 0.000734900191866411, 0.00226763590919862, 0.00275124762926917 ) );
#434 = CARTESIAN_POINT( '', ( 0.00103651598826428, 0.00231009714719465, 0.00257654993356242 ) );
#435 = CARTESIAN_POINT( '', ( 0.00137520581173436, 0.00232582531107969, 0.00238167397568219 ) );
#436 = CARTESIAN_POINT( '', ( 0.00171335756608220, 0.00231013535650810, 0.00218578350062278 ) );
#437 = CARTESIAN_POINT( '', ( 0.00205449580422313, 0.00226183787234907, 0.00198941981477806 ) );
#438 = CARTESIAN_POINT( '', ( 0.00240133874647920, 0.00218489507690294, 0.00178884384568762 ) );
#439 = CARTESIAN_POINT( '', ( 0.00263217790981475, 0.00211213271559028, 0.00165568072473586 ) );
#440 = CARTESIAN_POINT( '', ( 0.00275000000000294, 0.00207499424492089, 0.00158771324027693 ) );
#441 = COLOUR_RGB( '', 0.564705908300000, 0.811764717100000, 0.945098042500000 );
#442 = COLOUR_RGB( '', 0.564705908300000, 0.811764717100000, 0.945098042500000 );
#443 = CARTESIAN_POINT( '', ( -0.00275000000000000, 0.000325005755075400, -0.00158771324027100 ) );
#444 = CARTESIAN_POINT( '', ( -0.00275000000000000, 0.00207499424492500, -0.00158771324027100 ) );
#445 = CARTESIAN_POINT( '', ( -0.00275000000001000, 0.000325005755085400, -0.00158771324028100 ) );
#446 = VECTOR( '', #562, 1.00000000000000 );
#447 = CARTESIAN_POINT( '', ( -0.00275000000000000, 0.000325005755075400, 0.00158771324027100 ) );
#448 = CARTESIAN_POINT( '', ( -0.00275000000000000, 0.000325005755085400, -0.00158771324028100 ) );
#449 = CARTESIAN_POINT( '', ( -0.00275000000000000, 0.000202349792143100, -0.00116282052094920 ) );
#450 = CARTESIAN_POINT( '', ( -0.00275000000000000, 0.000141995276004106, -0.000779836988622892 ) );
#451 = CARTESIAN_POINT( '', ( -0.00275000000000000, 7.94216706166298E-05, -0.000382772080232308 ) );
#452 = CARTESIAN_POINT( '', ( -0.00275000000000000, 7.93918334229880E-05, 0.00000000000000 ) );
#453 = CARTESIAN_POINT( '', ( -0.00275000000000000, 7.93620816182995E-05, 0.000381995337482255 ) );
#454 = CARTESIAN_POINT( '', ( -0.00275000000000000, 0.000142034718955519, 0.000780084679138575 ) );
#455 = CARTESIAN_POINT( '', ( -0.00275000000000000, 0.000202218714025855, 0.00116236645303114 ) );
#456 = CARTESIAN_POINT( '', ( -0.00275000000000000, 0.000325005755085400, 0.00158771324028100 ) );
#457 = CARTESIAN_POINT( '', ( -0.00275000000000000, 0.00207499424492500, 0.00158771324027100 ) );
#458 = CARTESIAN_POINT( '', ( -0.00275000000001000, 0.000325005755085400, 0.00158771324028100 ) );
#459 = VECTOR( '', #563, 1.00000000000000 );
#460 = CARTESIAN_POINT( '', ( -0.00275000000000453, 0.00207499424492089, -0.00158771324027418 ) );
#461 = CARTESIAN_POINT( '', ( -0.00274998138086551, 0.00210039867950174, -0.00149636019279822 ) );
#462 = CARTESIAN_POINT( '', ( -0.00274994474416797, 0.00215038673668383, -0.00131660569574567 ) );
#463 = CARTESIAN_POINT( '', ( -0.00274990816827159, 0.00221140322094913, -0.00104703225173147 ) );
#464 = CARTESIAN_POINT( '', ( -0.00275010043497913, 0.00226763590919895, -0.000739181579242653 ) );
#465 = CARTESIAN_POINT( '', ( -0.00274961569071127, 0.00231009714719734, -0.000390625789519714 ) );
#466 = CARTESIAN_POINT( '', ( -0.00275019307233744, 0.00232582531108140, 0.00000000000000 ) );
#467 = CARTESIAN_POINT( '', ( -0.00274962282175322, 0.00231013535650789, 0.000390919427686982 ) );
#468 = CARTESIAN_POINT( '', ( -0.00275013600049736, 0.00226183787235003, 0.000784535651044965 ) );
#469 = CARTESIAN_POINT( '', ( -0.00274985358700433, 0.00218489507690370, 0.00118519843470530 ) );
#470 = CARTESIAN_POINT( '', ( -0.00274995052308129, 0.00211213271559054, 0.00145169257481770 ) );
#471 = CARTESIAN_POINT( '', ( -0.00275000000000295, 0.00207499424492089, 0.00158771324027691 ) );
#472 = COLOUR_RGB( '', 0.564705908300000, 0.811764717100000, 0.945098042500000 );
#473 = CARTESIAN_POINT( '', ( -0.00226249136739682, 0.00000000000000, -0.00130625000001004 ) );
#474 = AXIS2_PLACEMENT_3D( '', #564, #565, #566 );
#475 = CARTESIAN_POINT( '', ( -0.00150000000001000, 0.00000000000000, 0.00000000000000 ) );
#476 = AXIS2_PLACEMENT_3D( '', #567, #568, #569 );
#477 = COLOUR_RGB( '', 0.564705908300000, 0.811764717100000, 0.945098042500000 );
#478 = CARTESIAN_POINT( '', ( 4.33028098886626E-15, 0.000325005755085400, -0.00317542648054550 ) );
#479 = CARTESIAN_POINT( '', ( -0.000367967888873168, 0.000202349792134870, -0.00296298012084893 ) );
#480 = CARTESIAN_POINT( '', ( -0.000699641357053543, 0.000141995276004106, -0.00277148835471192 ) );
#481 = CARTESIAN_POINT( '', ( -0.00104350965467090, 7.94216706166567E-05, -0.00257295590051675 ) );
#482 = CARTESIAN_POINT( '', ( -0.00137513819265072, 7.93918334229927E-05, -0.00238149007484313 ) );
#483 = CARTESIAN_POINT( '', ( -0.00170581766638083, 7.93620816182823E-05, -0.00219057219166957 ) );
#484 = CARTESIAN_POINT( '', ( -0.00205057314923139, 0.000142034718955519, -0.00199152752084118 ) );
#485 = CARTESIAN_POINT( '', ( -0.00238163887681957, 0.000202218714024614, -0.00180038663389868 ) );
#486 = CARTESIAN_POINT( '', ( -0.00275000000000337, 0.000325005755085400, -0.00158771324026951 ) );
#487 = CARTESIAN_POINT( '', ( 5.99323370590064E-18, 0.00207499424492235, -0.00317542648054569 ) );
#488 = CARTESIAN_POINT( '', ( -7.91047502637827E-05, 0.00210039867950311, -0.00312973383216021 ) );
#489 = CARTESIAN_POINT( '', ( -0.000234758392815789, 0.00215038673668405, -0.00303982485532468 ) );
#490 = CARTESIAN_POINT( '', ( -0.000468197555572976, 0.00221140322094910, -0.00290500645766028 ) );
#491 = CARTESIAN_POINT( '', ( -0.000734900191865241, 0.00226763590919848, -0.00275124762926971 ) );
#492 = CARTESIAN_POINT( '', ( -0.00103651598826345, 0.00231009714719485, -0.00257654993356237 ) );
#493 = CARTESIAN_POINT( '', ( -0.00137520581173400, 0.00232582531107963, -0.00238167397568259 ) );
#494 = CARTESIAN_POINT( '', ( -0.00171335756608226, 0.00231013535650820, -0.00218578350062252 ) );
#495 = CARTESIAN_POINT( '', ( -0.00205449580422451, 0.00226183787234878, -0.00198941981477748 ) );
#496 = CARTESIAN_POINT( '', ( -0.00240133874648085, 0.00218489507690278, -0.00178884384568599 ) );
#497 = CARTESIAN_POINT( '', ( -0.00263217790981686, 0.00211213271559007, -0.00165568072473318 ) );
#498 = CARTESIAN_POINT( '', ( -0.00275000000000454, 0.00207499424492089, -0.00158771324027416 ) );
#499 = COLOUR_RGB( '', 0.564705908300000, 0.811764717100000, 0.945098042500000 );
#500 = COLOUR_RGB( '', 0.564705908300000, 0.811764717100000, 0.945098042500000 );
#501 = CARTESIAN_POINT( '', ( 0.00275000000000000, 0.000325005755085400, 0.00158771324028100 ) );
#502 = CARTESIAN_POINT( '', ( 0.00275000000000000, 0.000202349792143100, 0.00116282052094920 ) );
#503 = CARTESIAN_POINT( '', ( 0.00275000000000000, 0.000141995276004106, 0.000779836988622892 ) );
#504 = CARTESIAN_POINT( '', ( 0.00275000000000000, 7.94216706166298E-05, 0.000382772080232308 ) );
#505 = CARTESIAN_POINT( '', ( 0.00275000000000000, 7.93918334229880E-05, 0.00000000000000 ) );
#506 = CARTESIAN_POINT( '', ( 0.00275000000000000, 7.93620816182995E-05, -0.000381995337482255 ) );
#507 = CARTESIAN_POINT( '', ( 0.00275000000000000, 0.000142034718955519, -0.000780084679138575 ) );
#508 = CARTESIAN_POINT( '', ( 0.00275000000000000, 0.000202218714025855, -0.00116236645303114 ) );
#509 = CARTESIAN_POINT( '', ( 0.00275000000000000, 0.000325005755085400, -0.00158771324028100 ) );
#510 = CARTESIAN_POINT( '', ( -0.00275000000000317, 0.000325005755085400, 0.00158771324026917 ) );
#511 = CARTESIAN_POINT( '', ( -0.00238203211117538, 0.000202349792142668, 0.00180015959993704 ) );
#512 = CARTESIAN_POINT( '', ( -0.00205035864295268, 0.000141995276004106, 0.00199165136609848 ) );
#513 = CARTESIAN_POINT( '', ( -0.00170649034533572, 7.94216706166305E-05, 0.00219018382029342 ) );
#514 = CARTESIAN_POINT( '', ( -0.00137486180735540, 7.93918334229880E-05, 0.00238164964596733 ) );
#515 = CARTESIAN_POINT( '', ( -0.00104418233362494, 7.93620816182989E-05, 0.00257256752914110 ) );
#516 = CARTESIAN_POINT( '', ( -0.000699426850774542, 0.000142034718955519, 0.00277161219996939 ) );
#517 = CARTESIAN_POINT( '', ( -0.000368361123223116, 0.000202218714017948, 0.00296275308689067 ) );
#518 = CARTESIAN_POINT( '', ( 4.52762827229947E-15, 0.000325005755085400, 0.00317542648054516 ) );
#519 = COLOUR_RGB( '', 0.564705908300000, 0.811764717100000, 0.945098042500000 );
#520 = CARTESIAN_POINT( '', ( 0.00275000000000294, 0.00207499424492089, 0.00158771324027693 ) );
#521 = CARTESIAN_POINT( '', ( 0.00274998138086408, 0.00210039867950163, 0.00149636019280130 ) );
#522 = CARTESIAN_POINT( '', ( 0.00274994474416684, 0.00215038673668365, 0.00131660569574876 ) );
#523 = CARTESIAN_POINT( '', ( 0.00274990816827132, 0.00221140322094886, 0.00104703225173361 ) );
#524 = CARTESIAN_POINT( '', ( 0.00275010043497924, 0.00226763590919878, 0.000739181579243562 ) );
#525 = CARTESIAN_POINT( '', ( 0.00274961569071124, 0.00231009714719735, 0.000390625789519717 ) );
#526 = CARTESIAN_POINT( '', ( 0.00275019307233745, 0.00232582531108140, 0.00000000000000 ) );
#527 = CARTESIAN_POINT( '', ( 0.00274962282175322, 0.00231013535650789, -0.000390919427686984 ) );
#528 = CARTESIAN_POINT( '', ( 0.00275013600049736, 0.00226183787235003, -0.000784535651044968 ) );
#529 = CARTESIAN_POINT( '', ( 0.00274985358700433, 0.00218489507690369, -0.00118519843470531 ) );
#530 = CARTESIAN_POINT( '', ( 0.00274995052308128, 0.00211213271559054, -0.00145169257481771 ) );
#531 = CARTESIAN_POINT( '', ( 0.00275000000000294, 0.00207499424492089, -0.00158771324027693 ) );
#532 = CARTESIAN_POINT( '', ( -0.00275000000000295, 0.00207499424492089, 0.00158771324027691 ) );
#533 = CARTESIAN_POINT( '', ( -0.00267087663060575, 0.00210039867950175, 0.00163337363936794 ) );
#534 = CARTESIAN_POINT( '', ( -0.00251518635136436, 0.00215038673668380, 0.00172321915958421 ) );
#535 = CARTESIAN_POINT( '', ( -0.00228171061271345, 0.00221140322094883, 0.00185797420593683 ) );
#536 = CARTESIAN_POINT( '', ( -0.00201520024312192, 0.00226763590919759, 0.00201206605003367 ) );
#537 = CARTESIAN_POINT( '', ( -0.00171309970245526, 0.00231009714719451, 0.00218592414404457 ) );
#538 = CARTESIAN_POINT( '', ( -0.00137498726060738, 0.00232582531107971, 0.00238180015623403 ) );
#539 = CARTESIAN_POINT( '', ( -0.00103626525567633, 0.00231013535650767, 0.00257670292830360 ) );
#540 = CARTESIAN_POINT( '', ( -0.000695640196286558, 0.00226183787235091, 0.00277395546580894 ) );
#541 = CARTESIAN_POINT( '', ( -0.000348514840540294, 0.00218489507690274, 0.00297404228038605 ) );
#542 = CARTESIAN_POINT( '', ( -0.000117772613275275, 0.00211213271559233, 0.00310737329954375 ) );
#543 = CARTESIAN_POINT( '', ( 4.23051791004751E-18, 0.00207499424492235, 0.00317542648054569 ) );
#544 = COLOUR_RGB( '', 0.564705908300000, 0.811764717100000, 0.945098042500000 );
#545 = COLOUR_RGB( '', 0.564705908300000, 0.811764717100000, 0.945098042500000 );
#546 = CARTESIAN_POINT( '', ( 0.00000000000000, 0.000250000000010000, 0.00000000000000 ) );
#547 = DIRECTION( '', ( 0.00000000000000, 1.00000000000000, 0.00000000000000 ) );
#548 = DIRECTION( '', ( -1.00000000000000, 0.00000000000000, 0.00000000000000 ) );
#549 = CARTESIAN_POINT( '', ( 0.00000000000000, 0.00215000000001000, 0.00000000000000 ) );
#550 = DIRECTION( '', ( -0.00000000000000, 1.00000000000000, 0.00000000000000 ) );
#551 = DIRECTION( '', ( 1.00000000000000, 0.00000000000000, 0.00000000000000 ) );
#552 = DIRECTION( '', ( 0.00000000000000, 1.00000000000000, 0.00000000000000 ) );
#553 = DIRECTION( '', ( 0.00000000000000, 1.00000000000000, 0.00000000000000 ) );
#554 = CARTESIAN_POINT( '', ( 0.00000000000000, 0.00240000000001000, 0.00000000000000 ) );
#555 = DIRECTION( '', ( 0.00000000000000, 1.00000000000000, 0.00000000000000 ) );
#556 = DIRECTION( '', ( -0.866025403783729, 0.00000000000000, -0.500000000001230 ) );
#557 = CARTESIAN_POINT( '', ( 0.00000000000000, 0.00240000000001000, 0.00000000000000 ) );
#558 = DIRECTION( '', ( 0.00000000000000, 1.00000000000000, 0.00000000000000 ) );
#559 = DIRECTION( '', ( -1.00000000000000, 0.00000000000000, 0.00000000000000 ) );
#560 = DIRECTION( '', ( 0.00000000000000, 1.00000000000000, 0.00000000000000 ) );
#561 = DIRECTION( '', ( 0.00000000000000, 1.00000000000000, 0.00000000000000 ) );
#562 = DIRECTION( '', ( 0.00000000000000, 1.00000000000000, 0.00000000000000 ) );
#563 = DIRECTION( '', ( 0.00000000000000, 1.00000000000000, 0.00000000000000 ) );
#564 = CARTESIAN_POINT( '', ( 0.00000000000000, 0.00000000000000, 0.00000000000000 ) );
#565 = DIRECTION( '', ( 0.00000000000000, 1.00000000000000, 0.00000000000000 ) );
#566 = DIRECTION( '', ( -0.866025403783729, 0.00000000000000, -0.500000000001230 ) );
#567 = CARTESIAN_POINT( '', ( 0.00000000000000, 0.00000000000000, 0.00000000000000 ) );
#568 = DIRECTION( '', ( 0.00000000000000, 1.00000000000000, 0.00000000000000 ) );
#569 = DIRECTION( '', ( -1.00000000000000, 0.00000000000000, 0.00000000000000 ) );
ENDSEC;
END-ISO-10303-21;
