ISO-10303-21;
HEADER;
FILE_DESCRIPTION( ( '' ), ' ' );
FILE_NAME( '/vol/tmp/translate-4802078760567179387/589d6d80c139c90fab4a4622.step', '2017-02-10T07:36:33', ( '' ), ( '' ), ' ', ' ', ' ' );
FILE_SCHEMA( ( 'AUTOMOTIVE_DESIGN { 1 0 10303 214 1 1 1 1 }' ) );
ENDSEC;
DATA;
#1 = MECHANICAL_DESIGN_GEOMETRIC_PRESENTATION_REPRESENTATION( ' ', ( #10, #11, #12, #13, #14, #15, #16, #17, #18, #19, #20, #21, #22, #23, #24, #25, #26, #27, #28, #29, #30, #31, #32 ), #6 );
#2 = PRODUCT_DEFINITION_CONTEXT( '', #33, 'design' );
#3 = APPLICATION_PROTOCOL_DEFINITION( 'international standard', 'automotive_design', 2001, #33 );
#4 = PRODUCT_CATEGORY_RELATIONSHIP( 'NONE', 'NONE', #34, #35 );
#5 = SHAPE_DEFINITION_REPRESENTATION( #36, #37 );
#6 =  ( GEOMETRIC_REPRESENTATION_CONTEXT( 3 )GLOBAL_UNCERTAINTY_ASSIGNED_CONTEXT( ( #40 ) )GLOBAL_UNIT_ASSIGNED_CONTEXT( ( #42, #43, #44 ) )REPRESENTATION_CONTEXT( 'NONE', 'WORKSPACE' ) );
#10 = STYLED_ITEM( '', ( #46 ), #47 );
#11 = STYLED_ITEM( '', ( #48 ), #49 );
#12 = STYLED_ITEM( '', ( #50 ), #51 );
#13 = STYLED_ITEM( '', ( #52 ), #53 );
#14 = STYLED_ITEM( '', ( #54 ), #55 );
#15 = STYLED_ITEM( '', ( #56 ), #57 );
#16 = STYLED_ITEM( '', ( #58 ), #59 );
#17 = STYLED_ITEM( '', ( #60 ), #61 );
#18 = STYLED_ITEM( '', ( #62 ), #63 );
#19 = STYLED_ITEM( '', ( #64 ), #65 );
#20 = STYLED_ITEM( '', ( #66 ), #67 );
#21 = STYLED_ITEM( '', ( #68 ), #69 );
#22 = STYLED_ITEM( '', ( #70 ), #71 );
#23 = STYLED_ITEM( '', ( #72 ), #73 );
#24 = STYLED_ITEM( '', ( #74 ), #75 );
#25 = STYLED_ITEM( '', ( #76 ), #77 );
#26 = STYLED_ITEM( '', ( #78 ), #79 );
#27 = STYLED_ITEM( '', ( #80 ), #81 );
#28 = STYLED_ITEM( '', ( #82 ), #83 );
#29 = STYLED_ITEM( '', ( #84 ), #85 );
#30 = STYLED_ITEM( '', ( #86 ), #87 );
#31 = STYLED_ITEM( '', ( #88 ), #89 );
#32 = STYLED_ITEM( '', ( #90 ), #91 );
#33 = APPLICATION_CONTEXT( 'core data for automotive mechanical design processes' );
#34 = PRODUCT_CATEGORY( 'part', 'NONE' );
#35 = PRODUCT_RELATED_PRODUCT_CATEGORY( 'detail', ' ', ( #92 ) );
#36 = PRODUCT_DEFINITION_SHAPE( 'NONE', 'NONE', #93 );
#37 = ADVANCED_BREP_SHAPE_REPRESENTATION( 'PHS_M2_5X16', ( #94, #95 ), #6 );
#40 = UNCERTAINTY_MEASURE_WITH_UNIT( LENGTH_MEASURE( 1.00000000000000E-06 ), #42, '', '' );
#42 =  ( CONVERSION_BASED_UNIT( 'METRE', #98 )LENGTH_UNIT(  )NAMED_UNIT( #101 ) );
#43 =  ( NAMED_UNIT( #103 )PLANE_ANGLE_UNIT(  )SI_UNIT( $, .RADIAN. ) );
#44 =  ( NAMED_UNIT( #103 )SI_UNIT( $, .STERADIAN. )SOLID_ANGLE_UNIT(  ) );
#46 = PRESENTATION_STYLE_ASSIGNMENT( ( #109 ) );
#47 = ADVANCED_FACE( '', ( #110 ), #111, .F. );
#48 = PRESENTATION_STYLE_ASSIGNMENT( ( #112 ) );
#49 = ADVANCED_FACE( '', ( #113, #114 ), #115, .T. );
#50 = PRESENTATION_STYLE_ASSIGNMENT( ( #116 ) );
#51 = ADVANCED_FACE( '', ( #117, #118 ), #119, .T. );
#52 = PRESENTATION_STYLE_ASSIGNMENT( ( #120 ) );
#53 = ADVANCED_FACE( '', ( #121 ), #122, .F. );
#54 = PRESENTATION_STYLE_ASSIGNMENT( ( #123 ) );
#55 = ADVANCED_FACE( '', ( #124 ), #125, .T. );
#56 = PRESENTATION_STYLE_ASSIGNMENT( ( #126 ) );
#57 = ADVANCED_FACE( '', ( #127 ), #128, .T. );
#58 = PRESENTATION_STYLE_ASSIGNMENT( ( #129 ) );
#59 = ADVANCED_FACE( '', ( #130 ), #131, .T. );
#60 = PRESENTATION_STYLE_ASSIGNMENT( ( #132 ) );
#61 = ADVANCED_FACE( '', ( #133 ), #134, .F. );
#62 = PRESENTATION_STYLE_ASSIGNMENT( ( #135 ) );
#63 = ADVANCED_FACE( '', ( #136, #137, #138 ), #139, .T. );
#64 = PRESENTATION_STYLE_ASSIGNMENT( ( #140 ) );
#65 = ADVANCED_FACE( '', ( #141 ), #142, .F. );
#66 = PRESENTATION_STYLE_ASSIGNMENT( ( #143 ) );
#67 = ADVANCED_FACE( '', ( #144, #145 ), #146, .T. );
#68 = PRESENTATION_STYLE_ASSIGNMENT( ( #147 ) );
#69 = ADVANCED_FACE( '', ( #148 ), #149, .F. );
#70 = PRESENTATION_STYLE_ASSIGNMENT( ( #150 ) );
#71 = ADVANCED_FACE( '', ( #151 ), #152, .F. );
#72 = PRESENTATION_STYLE_ASSIGNMENT( ( #153 ) );
#73 = ADVANCED_FACE( '', ( #154 ), #155, .F. );
#74 = PRESENTATION_STYLE_ASSIGNMENT( ( #156 ) );
#75 = ADVANCED_FACE( '', ( #157 ), #158, .F. );
#76 = PRESENTATION_STYLE_ASSIGNMENT( ( #159 ) );
#77 = ADVANCED_FACE( '', ( #160 ), #161, .F. );
#78 = PRESENTATION_STYLE_ASSIGNMENT( ( #162 ) );
#79 = ADVANCED_FACE( '', ( #163, #164 ), #165, .T. );
#80 = PRESENTATION_STYLE_ASSIGNMENT( ( #166 ) );
#81 = ADVANCED_FACE( '', ( #167 ), #168, .F. );
#82 = PRESENTATION_STYLE_ASSIGNMENT( ( #169 ) );
#83 = ADVANCED_FACE( '', ( #170 ), #171, .T. );
#84 = PRESENTATION_STYLE_ASSIGNMENT( ( #172 ) );
#85 = ADVANCED_FACE( '', ( #173 ), #174, .F. );
#86 = PRESENTATION_STYLE_ASSIGNMENT( ( #175 ) );
#87 = ADVANCED_FACE( '', ( #176 ), #177, .F. );
#88 = PRESENTATION_STYLE_ASSIGNMENT( ( #178 ) );
#89 = ADVANCED_FACE( '', ( #179 ), #180, .F. );
#90 = PRESENTATION_STYLE_ASSIGNMENT( ( #181 ) );
#91 = ADVANCED_FACE( '', ( #182 ), #183, .T. );
#92 = PRODUCT( 'PHS_M2_5X16', 'PHS_M2_5X16', 'PART-PHS_M2_5X16-DESC', ( #184 ) );
#93 = PRODUCT_DEFINITION( 'NONE', 'NONE', #185, #2 );
#94 = MANIFOLD_SOLID_BREP( 'PHS_M2_5X16', #186 );
#95 = AXIS2_PLACEMENT_3D( '', #187, #188, #189 );
#98 = LENGTH_MEASURE_WITH_UNIT( LENGTH_MEASURE( 1.00000000000000 ), #190 );
#101 = DIMENSIONAL_EXPONENTS( 1.00000000000000, 0.00000000000000, 0.00000000000000, 0.00000000000000, 0.00000000000000, 0.00000000000000, 0.00000000000000 );
#103 = DIMENSIONAL_EXPONENTS( 0.00000000000000, 0.00000000000000, 0.00000000000000, 0.00000000000000, 0.00000000000000, 0.00000000000000, 0.00000000000000 );
#109 = SURFACE_STYLE_USAGE( .BOTH., #191 );
#110 = FACE_OUTER_BOUND( '', #192, .T. );
#111 = PLANE( '', #193 );
#112 = SURFACE_STYLE_USAGE( .BOTH., #194 );
#113 = FACE_BOUND( '', #195, .T. );
#114 = FACE_OUTER_BOUND( '', #196, .T. );
#115 = CONICAL_SURFACE( '', #197, 0.00116250000000000, 0.785398163400000 );
#116 = SURFACE_STYLE_USAGE( .BOTH., #198 );
#117 = FACE_OUTER_BOUND( '', #199, .T. );
#118 = FACE_OUTER_BOUND( '', #200, .T. );
#119 = CYLINDRICAL_SURFACE( '', #201, 0.00125000000000000 );
#120 = SURFACE_STYLE_USAGE( .BOTH., #202 );
#121 = FACE_OUTER_BOUND( '', #203, .T. );
#122 = PLANE( '', #204 );
#123 = SURFACE_STYLE_USAGE( .BOTH., #205 );
#124 = FACE_OUTER_BOUND( '', #206, .T. );
#125 = CYLINDRICAL_SURFACE( '', #207, 0.000625000000000000 );
#126 = SURFACE_STYLE_USAGE( .BOTH., #208 );
#127 = FACE_OUTER_BOUND( '', #209, .T. );
#128 = CYLINDRICAL_SURFACE( '', #210, 0.000625000000000000 );
#129 = SURFACE_STYLE_USAGE( .BOTH., #211 );
#130 = FACE_OUTER_BOUND( '', #212, .T. );
#131 = PLANE( '', #213 );
#132 = SURFACE_STYLE_USAGE( .BOTH., #214 );
#133 = FACE_OUTER_BOUND( '', #215, .T. );
#134 = CYLINDRICAL_SURFACE( '', #216, 0.00150000000000000 );
#135 = SURFACE_STYLE_USAGE( .BOTH., #217 );
#136 = FACE_BOUND( '', #218, .T. );
#137 = FACE_OUTER_BOUND( '', #219, .T. );
#138 = FACE_OUTER_BOUND( '', #220, .T. );
#139 = TOROIDAL_SURFACE( '', #221, 0.00142857140000000, 0.000821428600000000 );
#140 = SURFACE_STYLE_USAGE( .BOTH., #222 );
#141 = FACE_OUTER_BOUND( '', #223, .T. );
#142 = PLANE( '', #224 );
#143 = SURFACE_STYLE_USAGE( .BOTH., #225 );
#144 = FACE_OUTER_BOUND( '', #226, .T. );
#145 = FACE_OUTER_BOUND( '', #227, .T. );
#146 = SPHERICAL_SURFACE( '', #228, 0.00575000000000000 );
#147 = SURFACE_STYLE_USAGE( .BOTH., #229 );
#148 = FACE_OUTER_BOUND( '', #230, .T. );
#149 = PLANE( '', #231 );
#150 = SURFACE_STYLE_USAGE( .BOTH., #232 );
#151 = FACE_OUTER_BOUND( '', #233, .T. );
#152 = PLANE( '', #234 );
#153 = SURFACE_STYLE_USAGE( .BOTH., #235 );
#154 = FACE_OUTER_BOUND( '', #236, .T. );
#155 = PLANE( '', #237 );
#156 = SURFACE_STYLE_USAGE( .BOTH., #238 );
#157 = FACE_OUTER_BOUND( '', #239, .T. );
#158 = PLANE( '', #240 );
#159 = SURFACE_STYLE_USAGE( .BOTH., #241 );
#160 = FACE_OUTER_BOUND( '', #242, .T. );
#161 = CYLINDRICAL_SURFACE( '', #243, 0.00150000000000000 );
#162 = SURFACE_STYLE_USAGE( .BOTH., #244 );
#163 = FACE_OUTER_BOUND( '', #245, .T. );
#164 = FACE_BOUND( '', #246, .T. );
#165 = PLANE( '', #247 );
#166 = SURFACE_STYLE_USAGE( .BOTH., #248 );
#167 = FACE_OUTER_BOUND( '', #249, .T. );
#168 = CYLINDRICAL_SURFACE( '', #250, 0.00150000000000000 );
#169 = SURFACE_STYLE_USAGE( .BOTH., #251 );
#170 = FACE_OUTER_BOUND( '', #252, .T. );
#171 = CYLINDRICAL_SURFACE( '', #253, 0.000625000000000000 );
#172 = SURFACE_STYLE_USAGE( .BOTH., #254 );
#173 = FACE_OUTER_BOUND( '', #255, .T. );
#174 = CYLINDRICAL_SURFACE( '', #256, 0.00150000000000000 );
#175 = SURFACE_STYLE_USAGE( .BOTH., #257 );
#176 = FACE_OUTER_BOUND( '', #258, .T. );
#177 = PLANE( '', #259 );
#178 = SURFACE_STYLE_USAGE( .BOTH., #260 );
#179 = FACE_OUTER_BOUND( '', #261, .T. );
#180 = PLANE( '', #262 );
#181 = SURFACE_STYLE_USAGE( .BOTH., #263 );
#182 = FACE_OUTER_BOUND( '', #264, .T. );
#183 = CYLINDRICAL_SURFACE( '', #265, 0.000625000000000000 );
#184 = PRODUCT_CONTEXT( '', #33, 'mechanical' );
#185 = PRODUCT_DEFINITION_FORMATION_WITH_SPECIFIED_SOURCE( ' ', 'NONE', #92, .NOT_KNOWN. );
#186 = CLOSED_SHELL( '', ( #67, #91, #87, #49, #55, #57, #83, #75, #47, #77, #71, #59, #51, #79, #63, #61, #65, #69, #89, #85, #73, #53, #81 ) );
#187 = CARTESIAN_POINT( '', ( 0.00000000000000, 0.00000000000000, 0.00000000000000 ) );
#188 = DIRECTION( '', ( 0.00000000000000, 0.00000000000000, 1.00000000000000 ) );
#189 = DIRECTION( '', ( 1.00000000000000, 0.00000000000000, 0.00000000000000 ) );
#190 =  ( LENGTH_UNIT(  )NAMED_UNIT( #101 )SI_UNIT( $, .METRE. ) );
#191 = SURFACE_SIDE_STYLE( '', ( #267 ) );
#192 = EDGE_LOOP( '', ( #268, #269, #270, #271 ) );
#193 = AXIS2_PLACEMENT_3D( '', #272, #273, #274 );
#194 = SURFACE_SIDE_STYLE( '', ( #275 ) );
#195 = EDGE_LOOP( '', ( #276 ) );
#196 = EDGE_LOOP( '', ( #277 ) );
#197 = AXIS2_PLACEMENT_3D( '', #278, #279, #280 );
#198 = SURFACE_SIDE_STYLE( '', ( #281 ) );
#199 = EDGE_LOOP( '', ( #282 ) );
#200 = EDGE_LOOP( '', ( #283 ) );
#201 = AXIS2_PLACEMENT_3D( '', #284, #285, #286 );
#202 = SURFACE_SIDE_STYLE( '', ( #287 ) );
#203 = EDGE_LOOP( '', ( #288, #289, #290, #291 ) );
#204 = AXIS2_PLACEMENT_3D( '', #292, #293, #294 );
#205 = SURFACE_SIDE_STYLE( '', ( #295 ) );
#206 = EDGE_LOOP( '', ( #296, #297, #298, #299 ) );
#207 = AXIS2_PLACEMENT_3D( '', #300, #301, #302 );
#208 = SURFACE_SIDE_STYLE( '', ( #303 ) );
#209 = EDGE_LOOP( '', ( #304, #305, #306, #307 ) );
#210 = AXIS2_PLACEMENT_3D( '', #308, #309, #310 );
#211 = SURFACE_SIDE_STYLE( '', ( #311 ) );
#212 = EDGE_LOOP( '', ( #312 ) );
#213 = AXIS2_PLACEMENT_3D( '', #313, #314, #315 );
#214 = SURFACE_SIDE_STYLE( '', ( #316 ) );
#215 = EDGE_LOOP( '', ( #317, #318, #319, #320 ) );
#216 = AXIS2_PLACEMENT_3D( '', #321, #322, #323 );
#217 = SURFACE_SIDE_STYLE( '', ( #324 ) );
#218 = VERTEX_LOOP( '', #325 );
#219 = EDGE_LOOP( '', ( #326 ) );
#220 = EDGE_LOOP( '', ( #327 ) );
#221 = AXIS2_PLACEMENT_3D( '', #328, #329, #330 );
#222 = SURFACE_SIDE_STYLE( '', ( #331 ) );
#223 = EDGE_LOOP( '', ( #332, #333, #334, #335 ) );
#224 = AXIS2_PLACEMENT_3D( '', #336, #337, #338 );
#225 = SURFACE_SIDE_STYLE( '', ( #339 ) );
#226 = EDGE_LOOP( '', ( #340, #341, #342, #343, #344, #345, #346, #347, #348, #349, #350, #351, #352, #353, #354, #355 ) );
#227 = EDGE_LOOP( '', ( #356 ) );
#228 = AXIS2_PLACEMENT_3D( '', #357, #358, #359 );
#229 = SURFACE_SIDE_STYLE( '', ( #360 ) );
#230 = EDGE_LOOP( '', ( #361, #362, #363, #364, #365, #366, #367, #368, #369, #370, #371, #372, #373, #374, #375, #376 ) );
#231 = AXIS2_PLACEMENT_3D( '', #377, #378, #379 );
#232 = SURFACE_SIDE_STYLE( '', ( #380 ) );
#233 = EDGE_LOOP( '', ( #381, #382, #383, #384 ) );
#234 = AXIS2_PLACEMENT_3D( '', #385, #386, #387 );
#235 = SURFACE_SIDE_STYLE( '', ( #388 ) );
#236 = EDGE_LOOP( '', ( #389, #390, #391, #392 ) );
#237 = AXIS2_PLACEMENT_3D( '', #393, #394, #395 );
#238 = SURFACE_SIDE_STYLE( '', ( #396 ) );
#239 = EDGE_LOOP( '', ( #397, #398, #399, #400 ) );
#240 = AXIS2_PLACEMENT_3D( '', #401, #402, #403 );
#241 = SURFACE_SIDE_STYLE( '', ( #404 ) );
#242 = EDGE_LOOP( '', ( #405, #406, #407, #408 ) );
#243 = AXIS2_PLACEMENT_3D( '', #409, #410, #411 );
#244 = SURFACE_SIDE_STYLE( '', ( #412 ) );
#245 = EDGE_LOOP( '', ( #413 ) );
#246 = EDGE_LOOP( '', ( #414 ) );
#247 = AXIS2_PLACEMENT_3D( '', #415, #416, #417 );
#248 = SURFACE_SIDE_STYLE( '', ( #418 ) );
#249 = EDGE_LOOP( '', ( #419, #420, #421, #422 ) );
#250 = AXIS2_PLACEMENT_3D( '', #423, #424, #425 );
#251 = SURFACE_SIDE_STYLE( '', ( #426 ) );
#252 = EDGE_LOOP( '', ( #427, #428, #429, #430 ) );
#253 = AXIS2_PLACEMENT_3D( '', #431, #432, #433 );
#254 = SURFACE_SIDE_STYLE( '', ( #434 ) );
#255 = EDGE_LOOP( '', ( #435, #436, #437, #438 ) );
#256 = AXIS2_PLACEMENT_3D( '', #439, #440, #441 );
#257 = SURFACE_SIDE_STYLE( '', ( #442 ) );
#258 = EDGE_LOOP( '', ( #443, #444, #445, #446 ) );
#259 = AXIS2_PLACEMENT_3D( '', #447, #448, #449 );
#260 = SURFACE_SIDE_STYLE( '', ( #450 ) );
#261 = EDGE_LOOP( '', ( #451, #452, #453, #454 ) );
#262 = AXIS2_PLACEMENT_3D( '', #455, #456, #457 );
#263 = SURFACE_SIDE_STYLE( '', ( #458 ) );
#264 = EDGE_LOOP( '', ( #459, #460, #461, #462 ) );
#265 = AXIS2_PLACEMENT_3D( '', #463, #464, #465 );
#267 = SURFACE_STYLE_FILL_AREA( #466 );
#268 = ORIENTED_EDGE( '', *, *, #467, .F. );
#269 = ORIENTED_EDGE( '', *, *, #468, .T. );
#270 = ORIENTED_EDGE( '', *, *, #469, .T. );
#271 = ORIENTED_EDGE( '', *, *, #470, .F. );
#272 = CARTESIAN_POINT( '', ( 0.000258883476483200, 0.000850000000000000, 0.000883883476483200 ) );
#273 = DIRECTION( '', ( 1.00000000000000, 0.00000000000000, 0.00000000000000 ) );
#274 = DIRECTION( '', ( 0.00000000000000, 1.00000000000000, 0.00000000000000 ) );
#275 = SURFACE_STYLE_FILL_AREA( #471 );
#276 = ORIENTED_EDGE( '', *, *, #472, .T. );
#277 = ORIENTED_EDGE( '', *, *, #473, .T. );
#278 = CARTESIAN_POINT( '', ( 0.00000000000000, -0.0159125000000000, 0.00000000000000 ) );
#279 = DIRECTION( '', ( -0.00000000000000, 1.00000000000000, -0.00000000000000 ) );
#280 = DIRECTION( '', ( 1.00000000000000, 0.00000000000000, 0.00000000000000 ) );
#281 = SURFACE_STYLE_FILL_AREA( #474 );
#282 = ORIENTED_EDGE( '', *, *, #475, .T. );
#283 = ORIENTED_EDGE( '', *, *, #473, .F. );
#284 = CARTESIAN_POINT( '', ( 0.00000000000000, 0.00258500000000000, 0.00000000000000 ) );
#285 = DIRECTION( '', ( -0.00000000000000, 1.00000000000000, -0.00000000000000 ) );
#286 = DIRECTION( '', ( -1.00000000000000, 0.00000000000000, 0.00000000000000 ) );
#287 = SURFACE_STYLE_FILL_AREA( #476 );
#288 = ORIENTED_EDGE( '', *, *, #477, .F. );
#289 = ORIENTED_EDGE( '', *, *, #478, .T. );
#290 = ORIENTED_EDGE( '', *, *, #479, .T. );
#291 = ORIENTED_EDGE( '', *, *, #480, .F. );
#292 = CARTESIAN_POINT( '', ( 0.000883883476483200, 0.000850000000000000, -0.000258883476483200 ) );
#293 = DIRECTION( '', ( 0.00000000000000, 0.00000000000000, -1.00000000000000 ) );
#294 = DIRECTION( '', ( 0.00000000000000, -1.00000000000000, 0.00000000000000 ) );
#295 = SURFACE_STYLE_FILL_AREA( #481 );
#296 = ORIENTED_EDGE( '', *, *, #482, .F. );
#297 = ORIENTED_EDGE( '', *, *, #483, .T. );
#298 = ORIENTED_EDGE( '', *, *, #484, .T. );
#299 = ORIENTED_EDGE( '', *, *, #485, .F. );
#300 = CARTESIAN_POINT( '', ( -0.000883883476483200, 0.000850000000000000, -0.000883883476483200 ) );
#301 = DIRECTION( '', ( -0.00000000000000, 1.00000000000000, -0.00000000000000 ) );
#302 = DIRECTION( '', ( 1.00000000000000, 0.00000000000000, 0.00000000000000 ) );
#303 = SURFACE_STYLE_FILL_AREA( #486 );
#304 = ORIENTED_EDGE( '', *, *, #487, .F. );
#305 = ORIENTED_EDGE( '', *, *, #488, .T. );
#306 = ORIENTED_EDGE( '', *, *, #467, .T. );
#307 = ORIENTED_EDGE( '', *, *, #489, .F. );
#308 = CARTESIAN_POINT( '', ( 0.000883883476483200, 0.000850000000000000, 0.000883883476483200 ) );
#309 = DIRECTION( '', ( -0.00000000000000, 1.00000000000000, -0.00000000000000 ) );
#310 = DIRECTION( '', ( 1.00000000000000, 0.00000000000000, 0.00000000000000 ) );
#311 = SURFACE_STYLE_FILL_AREA( #490 );
#312 = ORIENTED_EDGE( '', *, *, #472, .F. );
#313 = CARTESIAN_POINT( '', ( 0.00000000000000, -0.0160000000000000, 0.00000000000000 ) );
#314 = DIRECTION( '', ( 0.00000000000000, -1.00000000000000, 0.00000000000000 ) );
#315 = DIRECTION( '', ( 0.00000000000000, 0.00000000000000, -1.00000000000000 ) );
#316 = SURFACE_STYLE_FILL_AREA( #491 );
#317 = ORIENTED_EDGE( '', *, *, #492, .F. );
#318 = ORIENTED_EDGE( '', *, *, #493, .T. );
#319 = ORIENTED_EDGE( '', *, *, #494, .T. );
#320 = ORIENTED_EDGE( '', *, *, #495, .F. );
#321 = CARTESIAN_POINT( '', ( 0.00000000000000, 0.000850000000000000, 0.00000000000000 ) );
#322 = DIRECTION( '', ( -0.00000000000000, 1.00000000000000, -0.00000000000000 ) );
#323 = DIRECTION( '', ( 1.00000000000000, 0.00000000000000, 0.00000000000000 ) );
#324 = SURFACE_STYLE_FILL_AREA( #496 );
#325 = VERTEX_POINT( '', #497 );
#326 = ORIENTED_EDGE( '', *, *, #498, .T. );
#327 = ORIENTED_EDGE( '', *, *, #499, .T. );
#328 = CARTESIAN_POINT( '', ( 0.00000000000000, 0.000666990566028300, 0.00000000000000 ) );
#329 = DIRECTION( '', ( 0.00000000000000, -1.00000000000000, 0.00000000000000 ) );
#330 = DIRECTION( '', ( -1.00000000000000, 0.00000000000000, 0.00000000000000 ) );
#331 = SURFACE_STYLE_FILL_AREA( #500 );
#332 = ORIENTED_EDGE( '', *, *, #501, .F. );
#333 = ORIENTED_EDGE( '', *, *, #502, .T. );
#334 = ORIENTED_EDGE( '', *, *, #492, .T. );
#335 = ORIENTED_EDGE( '', *, *, #503, .F. );
#336 = CARTESIAN_POINT( '', ( -0.000883883476483200, 0.000850000000000000, 0.000258883476483200 ) );
#337 = DIRECTION( '', ( 0.00000000000000, 0.00000000000000, 1.00000000000000 ) );
#338 = DIRECTION( '', ( 1.00000000000000, 0.00000000000000, 0.00000000000000 ) );
#339 = SURFACE_STYLE_FILL_AREA( #504 );
#340 = ORIENTED_EDGE( '', *, *, #505, .T. );
#341 = ORIENTED_EDGE( '', *, *, #506, .T. );
#342 = ORIENTED_EDGE( '', *, *, #489, .T. );
#343 = ORIENTED_EDGE( '', *, *, #470, .T. );
#344 = ORIENTED_EDGE( '', *, *, #507, .T. );
#345 = ORIENTED_EDGE( '', *, *, #508, .T. );
#346 = ORIENTED_EDGE( '', *, *, #509, .T. );
#347 = ORIENTED_EDGE( '', *, *, #503, .T. );
#348 = ORIENTED_EDGE( '', *, *, #495, .T. );
#349 = ORIENTED_EDGE( '', *, *, #510, .T. );
#350 = ORIENTED_EDGE( '', *, *, #485, .T. );
#351 = ORIENTED_EDGE( '', *, *, #511, .T. );
#352 = ORIENTED_EDGE( '', *, *, #512, .T. );
#353 = ORIENTED_EDGE( '', *, *, #513, .T. );
#354 = ORIENTED_EDGE( '', *, *, #514, .T. );
#355 = ORIENTED_EDGE( '', *, *, #480, .T. );
#356 = ORIENTED_EDGE( '', *, *, #498, .F. );
#357 = CARTESIAN_POINT( '', ( 0.00000000000000, -0.00405000000000000, 0.00000000000000 ) );
#358 = DIRECTION( '', ( 0.00000000000000, -1.00000000000000, 0.00000000000000 ) );
#359 = DIRECTION( '', ( -1.00000000000000, 0.00000000000000, 0.00000000000000 ) );
#360 = SURFACE_STYLE_FILL_AREA( #515 );
#361 = ORIENTED_EDGE( '', *, *, #516, .F. );
#362 = ORIENTED_EDGE( '', *, *, #517, .F. );
#363 = ORIENTED_EDGE( '', *, *, #518, .F. );
#364 = ORIENTED_EDGE( '', *, *, #468, .F. );
#365 = ORIENTED_EDGE( '', *, *, #488, .F. );
#366 = ORIENTED_EDGE( '', *, *, #519, .F. );
#367 = ORIENTED_EDGE( '', *, *, #520, .F. );
#368 = ORIENTED_EDGE( '', *, *, #478, .F. );
#369 = ORIENTED_EDGE( '', *, *, #521, .F. );
#370 = ORIENTED_EDGE( '', *, *, #522, .F. );
#371 = ORIENTED_EDGE( '', *, *, #523, .F. );
#372 = ORIENTED_EDGE( '', *, *, #524, .F. );
#373 = ORIENTED_EDGE( '', *, *, #483, .F. );
#374 = ORIENTED_EDGE( '', *, *, #525, .F. );
#375 = ORIENTED_EDGE( '', *, *, #493, .F. );
#376 = ORIENTED_EDGE( '', *, *, #502, .F. );
#377 = CARTESIAN_POINT( '', ( 0.00000000000000, 0.000850000000000000, 0.00000000000000 ) );
#378 = DIRECTION( '', ( 0.00000000000000, -1.00000000000000, 0.00000000000000 ) );
#379 = DIRECTION( '', ( 0.00000000000000, 0.00000000000000, -1.00000000000000 ) );
#380 = SURFACE_STYLE_FILL_AREA( #526 );
#381 = ORIENTED_EDGE( '', *, *, #527, .F. );
#382 = ORIENTED_EDGE( '', *, *, #517, .T. );
#383 = ORIENTED_EDGE( '', *, *, #528, .T. );
#384 = ORIENTED_EDGE( '', *, *, #508, .F. );
#385 = CARTESIAN_POINT( '', ( -0.000258883476483200, 0.000850000000000000, 0.00147749089526900 ) );
#386 = DIRECTION( '', ( -1.00000000000000, 0.00000000000000, 0.00000000000000 ) );
#387 = DIRECTION( '', ( 0.00000000000000, 0.00000000000000, 1.00000000000000 ) );
#388 = SURFACE_STYLE_FILL_AREA( #529 );
#389 = ORIENTED_EDGE( '', *, *, #530, .F. );
#390 = ORIENTED_EDGE( '', *, *, #522, .T. );
#391 = ORIENTED_EDGE( '', *, *, #531, .T. );
#392 = ORIENTED_EDGE( '', *, *, #513, .F. );
#393 = CARTESIAN_POINT( '', ( 0.000258883476483200, 0.000850000000000000, -0.00147749089526900 ) );
#394 = DIRECTION( '', ( 1.00000000000000, 0.00000000000000, 0.00000000000000 ) );
#395 = DIRECTION( '', ( 0.00000000000000, 1.00000000000000, 0.00000000000000 ) );
#396 = SURFACE_STYLE_FILL_AREA( #532 );
#397 = ORIENTED_EDGE( '', *, *, #533, .F. );
#398 = ORIENTED_EDGE( '', *, *, #519, .T. );
#399 = ORIENTED_EDGE( '', *, *, #487, .T. );
#400 = ORIENTED_EDGE( '', *, *, #506, .F. );
#401 = CARTESIAN_POINT( '', ( 0.00147749089526900, 0.000850000000000000, 0.000258883476483200 ) );
#402 = DIRECTION( '', ( 0.00000000000000, 0.00000000000000, 1.00000000000000 ) );
#403 = DIRECTION( '', ( 1.00000000000000, 0.00000000000000, 0.00000000000000 ) );
#404 = SURFACE_STYLE_FILL_AREA( #534 );
#405 = ORIENTED_EDGE( '', *, *, #469, .F. );
#406 = ORIENTED_EDGE( '', *, *, #518, .T. );
#407 = ORIENTED_EDGE( '', *, *, #527, .T. );
#408 = ORIENTED_EDGE( '', *, *, #507, .F. );
#409 = CARTESIAN_POINT( '', ( 0.00000000000000, 0.000850000000000000, 0.00000000000000 ) );
#410 = DIRECTION( '', ( -0.00000000000000, 1.00000000000000, -0.00000000000000 ) );
#411 = DIRECTION( '', ( 1.00000000000000, 0.00000000000000, 0.00000000000000 ) );
#412 = SURFACE_STYLE_FILL_AREA( #535 );
#413 = ORIENTED_EDGE( '', *, *, #499, .F. );
#414 = ORIENTED_EDGE( '', *, *, #475, .F. );
#415 = CARTESIAN_POINT( '', ( 0.00000000000000, 0.00000000000000, 0.00000000000000 ) );
#416 = DIRECTION( '', ( 0.00000000000000, -1.00000000000000, 0.00000000000000 ) );
#417 = DIRECTION( '', ( 0.00000000000000, 0.00000000000000, -1.00000000000000 ) );
#418 = SURFACE_STYLE_FILL_AREA( #536 );
#419 = ORIENTED_EDGE( '', *, *, #505, .F. );
#420 = ORIENTED_EDGE( '', *, *, #479, .F. );
#421 = ORIENTED_EDGE( '', *, *, #520, .T. );
#422 = ORIENTED_EDGE( '', *, *, #533, .T. );
#423 = CARTESIAN_POINT( '', ( 0.00000000000000, 0.000850000000000000, 0.00000000000000 ) );
#424 = DIRECTION( '', ( -0.00000000000000, 1.00000000000000, -0.00000000000000 ) );
#425 = DIRECTION( '', ( 1.00000000000000, 0.00000000000000, 0.00000000000000 ) );
#426 = SURFACE_STYLE_FILL_AREA( #537 );
#427 = ORIENTED_EDGE( '', *, *, #531, .F. );
#428 = ORIENTED_EDGE( '', *, *, #521, .T. );
#429 = ORIENTED_EDGE( '', *, *, #477, .T. );
#430 = ORIENTED_EDGE( '', *, *, #514, .F. );
#431 = CARTESIAN_POINT( '', ( 0.000883883476483200, 0.000850000000000000, -0.000883883476483200 ) );
#432 = DIRECTION( '', ( -0.00000000000000, 1.00000000000000, -0.00000000000000 ) );
#433 = DIRECTION( '', ( 1.00000000000000, 0.00000000000000, 0.00000000000000 ) );
#434 = SURFACE_STYLE_FILL_AREA( #538 );
#435 = ORIENTED_EDGE( '', *, *, #539, .F. );
#436 = ORIENTED_EDGE( '', *, *, #523, .T. );
#437 = ORIENTED_EDGE( '', *, *, #530, .T. );
#438 = ORIENTED_EDGE( '', *, *, #512, .F. );
#439 = CARTESIAN_POINT( '', ( 0.00000000000000, 0.000850000000000000, 0.00000000000000 ) );
#440 = DIRECTION( '', ( -0.00000000000000, 1.00000000000000, -0.00000000000000 ) );
#441 = DIRECTION( '', ( 1.00000000000000, 0.00000000000000, 0.00000000000000 ) );
#442 = SURFACE_STYLE_FILL_AREA( #540 );
#443 = ORIENTED_EDGE( '', *, *, #484, .F. );
#444 = ORIENTED_EDGE( '', *, *, #524, .T. );
#445 = ORIENTED_EDGE( '', *, *, #539, .T. );
#446 = ORIENTED_EDGE( '', *, *, #511, .F. );
#447 = CARTESIAN_POINT( '', ( -0.000258883476483200, 0.000850000000000000, -0.000883883476483200 ) );
#448 = DIRECTION( '', ( -1.00000000000000, 0.00000000000000, 0.00000000000000 ) );
#449 = DIRECTION( '', ( 0.00000000000000, 0.00000000000000, 1.00000000000000 ) );
#450 = SURFACE_STYLE_FILL_AREA( #541 );
#451 = ORIENTED_EDGE( '', *, *, #494, .F. );
#452 = ORIENTED_EDGE( '', *, *, #525, .T. );
#453 = ORIENTED_EDGE( '', *, *, #482, .T. );
#454 = ORIENTED_EDGE( '', *, *, #510, .F. );
#455 = CARTESIAN_POINT( '', ( -0.00147749089526900, 0.000850000000000000, -0.000258883476483200 ) );
#456 = DIRECTION( '', ( 0.00000000000000, 0.00000000000000, -1.00000000000000 ) );
#457 = DIRECTION( '', ( 0.00000000000000, -1.00000000000000, 0.00000000000000 ) );
#458 = SURFACE_STYLE_FILL_AREA( #542 );
#459 = ORIENTED_EDGE( '', *, *, #528, .F. );
#460 = ORIENTED_EDGE( '', *, *, #516, .T. );
#461 = ORIENTED_EDGE( '', *, *, #501, .T. );
#462 = ORIENTED_EDGE( '', *, *, #509, .F. );
#463 = CARTESIAN_POINT( '', ( -0.000883883476483200, 0.000850000000000000, 0.000883883476483200 ) );
#464 = DIRECTION( '', ( -0.00000000000000, 1.00000000000000, -0.00000000000000 ) );
#465 = DIRECTION( '', ( 1.00000000000000, 0.00000000000000, 0.00000000000000 ) );
#466 = FILL_AREA_STYLE( '', ( #543 ) );
#467 = EDGE_CURVE( '', #544, #545, #546, .T. );
#468 = EDGE_CURVE( '', #544, #547, #548, .T. );
#469 = EDGE_CURVE( '', #547, #549, #550, .T. );
#470 = EDGE_CURVE( '', #545, #549, #551, .T. );
#471 = FILL_AREA_STYLE( '', ( #552 ) );
#472 = EDGE_CURVE( '', #553, #553, #554, .T. );
#473 = EDGE_CURVE( '', #555, #555, #556, .T. );
#474 = FILL_AREA_STYLE( '', ( #557 ) );
#475 = EDGE_CURVE( '', #558, #558, #559, .T. );
#476 = FILL_AREA_STYLE( '', ( #560 ) );
#477 = EDGE_CURVE( '', #561, #562, #563, .T. );
#478 = EDGE_CURVE( '', #561, #564, #565, .T. );
#479 = EDGE_CURVE( '', #564, #566, #567, .T. );
#480 = EDGE_CURVE( '', #562, #566, #568, .T. );
#481 = FILL_AREA_STYLE( '', ( #569 ) );
#482 = EDGE_CURVE( '', #570, #571, #572, .T. );
#483 = EDGE_CURVE( '', #570, #573, #574, .T. );
#484 = EDGE_CURVE( '', #573, #575, #576, .T. );
#485 = EDGE_CURVE( '', #571, #575, #577, .T. );
#486 = FILL_AREA_STYLE( '', ( #578 ) );
#487 = EDGE_CURVE( '', #579, #580, #581, .T. );
#488 = EDGE_CURVE( '', #579, #544, #582, .T. );
#489 = EDGE_CURVE( '', #580, #545, #583, .T. );
#490 = FILL_AREA_STYLE( '', ( #584 ) );
#491 = FILL_AREA_STYLE( '', ( #585 ) );
#492 = EDGE_CURVE( '', #586, #587, #588, .T. );
#493 = EDGE_CURVE( '', #586, #589, #590, .T. );
#494 = EDGE_CURVE( '', #589, #591, #592, .T. );
#495 = EDGE_CURVE( '', #587, #591, #593, .T. );
#496 = FILL_AREA_STYLE( '', ( #594 ) );
#497 = CARTESIAN_POINT( '', ( -0.00224999999999960, 0.000666990566028300, 0.00000000000000 ) );
#498 = EDGE_CURVE( '', #595, #595, #596, .T. );
#499 = EDGE_CURVE( '', #597, #597, #598, .T. );
#500 = FILL_AREA_STYLE( '', ( #599 ) );
#501 = EDGE_CURVE( '', #600, #601, #602, .T. );
#502 = EDGE_CURVE( '', #600, #586, #603, .T. );
#503 = EDGE_CURVE( '', #601, #587, #604, .T. );
#504 = FILL_AREA_STYLE( '', ( #605 ) );
#505 = EDGE_CURVE( '', #566, #606, #607, .T. );
#506 = EDGE_CURVE( '', #606, #580, #608, .T. );
#507 = EDGE_CURVE( '', #549, #609, #610, .T. );
#508 = EDGE_CURVE( '', #609, #611, #612, .T. );
#509 = EDGE_CURVE( '', #611, #601, #613, .T. );
#510 = EDGE_CURVE( '', #591, #571, #614, .T. );
#511 = EDGE_CURVE( '', #575, #615, #616, .T. );
#512 = EDGE_CURVE( '', #615, #617, #618, .T. );
#513 = EDGE_CURVE( '', #617, #619, #620, .T. );
#514 = EDGE_CURVE( '', #619, #562, #621, .T. );
#515 = FILL_AREA_STYLE( '', ( #622 ) );
#516 = EDGE_CURVE( '', #623, #600, #624, .T. );
#517 = EDGE_CURVE( '', #625, #623, #626, .T. );
#518 = EDGE_CURVE( '', #547, #625, #627, .T. );
#519 = EDGE_CURVE( '', #628, #579, #629, .T. );
#520 = EDGE_CURVE( '', #564, #628, #630, .T. );
#521 = EDGE_CURVE( '', #631, #561, #632, .T. );
#522 = EDGE_CURVE( '', #633, #631, #634, .T. );
#523 = EDGE_CURVE( '', #635, #633, #636, .T. );
#524 = EDGE_CURVE( '', #573, #635, #637, .T. );
#525 = EDGE_CURVE( '', #589, #570, #638, .T. );
#526 = FILL_AREA_STYLE( '', ( #639 ) );
#527 = EDGE_CURVE( '', #625, #609, #640, .T. );
#528 = EDGE_CURVE( '', #623, #611, #641, .T. );
#529 = FILL_AREA_STYLE( '', ( #642 ) );
#530 = EDGE_CURVE( '', #633, #617, #643, .T. );
#531 = EDGE_CURVE( '', #631, #619, #644, .T. );
#532 = FILL_AREA_STYLE( '', ( #645 ) );
#533 = EDGE_CURVE( '', #628, #606, #646, .T. );
#534 = FILL_AREA_STYLE( '', ( #647 ) );
#535 = FILL_AREA_STYLE( '', ( #648 ) );
#536 = FILL_AREA_STYLE( '', ( #649 ) );
#537 = FILL_AREA_STYLE( '', ( #650 ) );
#538 = FILL_AREA_STYLE( '', ( #651 ) );
#539 = EDGE_CURVE( '', #635, #615, #652, .T. );
#540 = FILL_AREA_STYLE( '', ( #653 ) );
#541 = FILL_AREA_STYLE( '', ( #654 ) );
#542 = FILL_AREA_STYLE( '', ( #655 ) );
#543 = FILL_AREA_STYLE_COLOUR( '', #656 );
#544 = VERTEX_POINT( '', #657 );
#545 = VERTEX_POINT( '', #658 );
#546 = LINE( '', #659, #660 );
#547 = VERTEX_POINT( '', #661 );
#548 = LINE( '', #662, #663 );
#549 = VERTEX_POINT( '', #664 );
#550 = LINE( '', #665, #666 );
#551 = CIRCLE( '', #667, 0.00574416920000000 );
#552 = FILL_AREA_STYLE_COLOUR( '', #668 );
#553 = VERTEX_POINT( '', #669 );
#554 = CIRCLE( '', #670, 0.00107500000000000 );
#555 = VERTEX_POINT( '', #671 );
#556 = CIRCLE( '', #672, 0.00125000000000000 );
#557 = FILL_AREA_STYLE_COLOUR( '', #673 );
#558 = VERTEX_POINT( '', #674 );
#559 = CIRCLE( '', #675, 0.00125000000000000 );
#560 = FILL_AREA_STYLE_COLOUR( '', #676 );
#561 = VERTEX_POINT( '', #677 );
#562 = VERTEX_POINT( '', #678 );
#563 = LINE( '', #679, #680 );
#564 = VERTEX_POINT( '', #681 );
#565 = LINE( '', #682, #683 );
#566 = VERTEX_POINT( '', #684 );
#567 = LINE( '', #685, #686 );
#568 = CIRCLE( '', #687, 0.00574416920000000 );
#569 = FILL_AREA_STYLE_COLOUR( '', #688 );
#570 = VERTEX_POINT( '', #689 );
#571 = VERTEX_POINT( '', #690 );
#572 = LINE( '', #691, #692 );
#573 = VERTEX_POINT( '', #693 );
#574 = CIRCLE( '', #694, 0.000625000000000000 );
#575 = VERTEX_POINT( '', #695 );
#576 = LINE( '', #696, #697 );
#577 = B_SPLINE_CURVE_WITH_KNOTS( '', 3, ( #698, #699, #700, #701, #702, #703, #704, #705, #706, #707, #708, #709, #710 ), .UNSPECIFIED., .F., .F., ( 4, 1, 1, 1, 1, 1, 1, 1, 1, 1, 4 ), ( 0.00000000000000, 0.0678993966819873, 0.131706384580761, 0.192215040425374, 0.250263060682273, 0.375805175001449, 0.498438449755129, 0.623888012249284, 0.749734555385783, 0.868274763743904, 1.00000000000000 ), .UNSPECIFIED. );
#578 = FILL_AREA_STYLE_COLOUR( '', #711 );
#579 = VERTEX_POINT( '', #712 );
#580 = VERTEX_POINT( '', #713 );
#581 = LINE( '', #714, #715 );
#582 = CIRCLE( '', #716, 0.000625000000000000 );
#583 = B_SPLINE_CURVE_WITH_KNOTS( '', 3, ( #717, #718, #719, #720, #721, #722, #723, #724, #725, #726, #727, #728, #729 ), .UNSPECIFIED., .F., .F., ( 4, 1, 1, 1, 1, 1, 1, 1, 1, 1, 4 ), ( 0.00000000000000, 0.0678993966821570, 0.131706384580981, 0.192215040425533, 0.250263060682280, 0.375805175001451, 0.498438449755125, 0.623888012249279, 0.749734555385771, 0.868274763743576, 1.00000000000000 ), .UNSPECIFIED. );
#584 = FILL_AREA_STYLE_COLOUR( '', #730 );
#585 = FILL_AREA_STYLE_COLOUR( '', #731 );
#586 = VERTEX_POINT( '', #732 );
#587 = VERTEX_POINT( '', #733 );
#588 = LINE( '', #734, #735 );
#589 = VERTEX_POINT( '', #736 );
#590 = CIRCLE( '', #737, 0.00150000000000000 );
#591 = VERTEX_POINT( '', #738 );
#592 = LINE( '', #739, #740 );
#593 = CIRCLE( '', #741, 0.00150000000000000 );
#594 = FILL_AREA_STYLE_COLOUR( '', #742 );
#595 = VERTEX_POINT( '', #743 );
#596 = CIRCLE( '', #744, 0.00166666670000000 );
#597 = VERTEX_POINT( '', #745 );
#598 = CIRCLE( '', #746, 0.00190801740000000 );
#599 = FILL_AREA_STYLE_COLOUR( '', #747 );
#600 = VERTEX_POINT( '', #748 );
#601 = VERTEX_POINT( '', #749 );
#602 = LINE( '', #750, #751 );
#603 = LINE( '', #752, #753 );
#604 = CIRCLE( '', #754, 0.00574416920000000 );
#605 = FILL_AREA_STYLE_COLOUR( '', #755 );
#606 = VERTEX_POINT( '', #756 );
#607 = CIRCLE( '', #757, 0.00150000000000000 );
#608 = CIRCLE( '', #758, 0.00574416920000000 );
#609 = VERTEX_POINT( '', #759 );
#610 = CIRCLE( '', #760, 0.00150000000000000 );
#611 = VERTEX_POINT( '', #761 );
#612 = CIRCLE( '', #762, 0.00574416920000000 );
#613 = B_SPLINE_CURVE_WITH_KNOTS( '', 3, ( #763, #764, #765, #766, #767, #768, #769, #770, #771, #772, #773, #774, #775 ), .UNSPECIFIED., .F., .F., ( 4, 1, 1, 1, 1, 1, 1, 1, 1, 1, 4 ), ( 0.00000000000000, 0.0695852807891807, 0.134879968748916, 0.196741859429249, 0.256081772473816, 0.384780487390574, 0.508870687347102, 0.631234631034251, 0.754799413326522, 0.871035270571872, 1.00000000000000 ), .UNSPECIFIED. );
#614 = CIRCLE( '', #776, 0.00574416920000000 );
#615 = VERTEX_POINT( '', #777 );
#616 = CIRCLE( '', #778, 0.00574416920000000 );
#617 = VERTEX_POINT( '', #779 );
#618 = CIRCLE( '', #780, 0.00150000000000000 );
#619 = VERTEX_POINT( '', #781 );
#620 = CIRCLE( '', #782, 0.00574416920000000 );
#621 = B_SPLINE_CURVE_WITH_KNOTS( '', 3, ( #783, #784, #785, #786, #787, #788, #789, #790, #791, #792, #793, #794, #795 ), .UNSPECIFIED., .F., .F., ( 4, 1, 1, 1, 1, 1, 1, 1, 1, 1, 4 ), ( 0.00000000000000, 0.0695852807891792, 0.134879968748914, 0.196741859429245, 0.256081772473811, 0.384780487390570, 0.508870687347097, 0.631234631034241, 0.754799413326508, 0.871035270571634, 1.00000000000000 ), .UNSPECIFIED. );
#622 = FILL_AREA_STYLE_COLOUR( '', #796 );
#623 = VERTEX_POINT( '', #797 );
#624 = CIRCLE( '', #798, 0.000625000000000000 );
#625 = VERTEX_POINT( '', #799 );
#626 = LINE( '', #800, #801 );
#627 = CIRCLE( '', #802, 0.00150000000000000 );
#628 = VERTEX_POINT( '', #803 );
#629 = LINE( '', #804, #805 );
#630 = CIRCLE( '', #806, 0.00150000000000000 );
#631 = VERTEX_POINT( '', #807 );
#632 = CIRCLE( '', #808, 0.000625000000000000 );
#633 = VERTEX_POINT( '', #809 );
#634 = LINE( '', #810, #811 );
#635 = VERTEX_POINT( '', #812 );
#636 = CIRCLE( '', #813, 0.00150000000000000 );
#637 = LINE( '', #814, #815 );
#638 = LINE( '', #816, #817 );
#639 = FILL_AREA_STYLE_COLOUR( '', #818 );
#640 = LINE( '', #819, #820 );
#641 = LINE( '', #821, #822 );
#642 = FILL_AREA_STYLE_COLOUR( '', #823 );
#643 = LINE( '', #824, #825 );
#644 = LINE( '', #826, #827 );
#645 = FILL_AREA_STYLE_COLOUR( '', #828 );
#646 = LINE( '', #829, #830 );
#647 = FILL_AREA_STYLE_COLOUR( '', #831 );
#648 = FILL_AREA_STYLE_COLOUR( '', #832 );
#649 = FILL_AREA_STYLE_COLOUR( '', #833 );
#650 = FILL_AREA_STYLE_COLOUR( '', #834 );
#651 = FILL_AREA_STYLE_COLOUR( '', #835 );
#652 = LINE( '', #836, #837 );
#653 = FILL_AREA_STYLE_COLOUR( '', #838 );
#654 = FILL_AREA_STYLE_COLOUR( '', #839 );
#655 = FILL_AREA_STYLE_COLOUR( '', #840 );
#656 = COLOUR_RGB( '', 0.850980401000000, 0.756862759600000, 0.870588243000000 );
#657 = CARTESIAN_POINT( '', ( 0.000258883476483200, 0.000850000000000000, 0.000883883476483200 ) );
#658 = CARTESIAN_POINT( '', ( 0.000258883476483200, 0.00162575804149600, 0.000883883476483200 ) );
#659 = CARTESIAN_POINT( '', ( 0.000258883476493200, 0.000850000000010000, 0.000883883476493200 ) );
#660 = VECTOR( '', #841, 1.00000000000000 );
#661 = CARTESIAN_POINT( '', ( 0.000258883476483200, 0.000850000000000000, 0.00147749089526900 ) );
#662 = CARTESIAN_POINT( '', ( 0.000258883476493200, 0.000850000000010000, 0.000883883476493200 ) );
#663 = VECTOR( '', #842, 1.00000000000000 );
#664 = CARTESIAN_POINT( '', ( 0.000258883476483200, 0.00150090082779400, 0.00147749089526900 ) );
#665 = CARTESIAN_POINT( '', ( 0.000258883476493200, 0.000850000000010000, 0.00147749089527900 ) );
#666 = VECTOR( '', #843, 1.00000000000000 );
#667 = AXIS2_PLACEMENT_3D( '', #844, #845, #846 );
#668 = COLOUR_RGB( '', 0.850980401000000, 0.756862759600000, 0.870588243000000 );
#669 = CARTESIAN_POINT( '', ( -0.00107500000001000, -0.0160000000000100, 0.00000000000000 ) );
#670 = AXIS2_PLACEMENT_3D( '', #847, #848, #849 );
#671 = CARTESIAN_POINT( '', ( -0.00125000000001000, -0.0158250000000100, 0.00000000000000 ) );
#672 = AXIS2_PLACEMENT_3D( '', #850, #851, #852 );
#673 = COLOUR_RGB( '', 0.850980401000000, 0.756862759600000, 0.870588243000000 );
#674 = CARTESIAN_POINT( '', ( 0.00125000000001000, 0.00000000000000, 0.00000000000000 ) );
#675 = AXIS2_PLACEMENT_3D( '', #853, #854, #855 );
#676 = COLOUR_RGB( '', 0.850980401000000, 0.756862759600000, 0.870588243000000 );
#677 = CARTESIAN_POINT( '', ( 0.000883883476483200, 0.000850000000000000, -0.000258883476483200 ) );
#678 = CARTESIAN_POINT( '', ( 0.000883883476483200, 0.00162575804149600, -0.000258883476483200 ) );
#679 = CARTESIAN_POINT( '', ( 0.000883883476493200, 0.000850000000010000, -0.000258883476493200 ) );
#680 = VECTOR( '', #856, 1.00000000000000 );
#681 = CARTESIAN_POINT( '', ( 0.00147749089526900, 0.000850000000000000, -0.000258883476483200 ) );
#682 = CARTESIAN_POINT( '', ( 0.000883883476493200, 0.000850000000010000, -0.000258883476493200 ) );
#683 = VECTOR( '', #857, 1.00000000000000 );
#684 = CARTESIAN_POINT( '', ( 0.00147749089526900, 0.00150090082779400, -0.000258883476483200 ) );
#685 = CARTESIAN_POINT( '', ( 0.00147749089527900, 0.000850000000010000, -0.000258883476493200 ) );
#686 = VECTOR( '', #858, 1.00000000000000 );
#687 = AXIS2_PLACEMENT_3D( '', #859, #860, #861 );
#688 = COLOUR_RGB( '', 0.850980401000000, 0.756862759600000, 0.870588243000000 );
#689 = CARTESIAN_POINT( '', ( -0.000883883476483200, 0.000850000000000000, -0.000258883476483200 ) );
#690 = CARTESIAN_POINT( '', ( -0.000883883476483200, 0.00162575804149600, -0.000258883476483200 ) );
#691 = CARTESIAN_POINT( '', ( -0.000883883476493200, 0.000850000000010000, -0.000258883476493200 ) );
#692 = VECTOR( '', #862, 1.00000000000000 );
#693 = CARTESIAN_POINT( '', ( -0.000258883476483200, 0.000850000000000000, -0.000883883476483200 ) );
#694 = AXIS2_PLACEMENT_3D( '', #863, #864, #865 );
#695 = CARTESIAN_POINT( '', ( -0.000258883476483200, 0.00162575804149600, -0.000883883476483200 ) );
#696 = CARTESIAN_POINT( '', ( -0.000258883476493200, 0.000850000000010000, -0.000883883476493200 ) );
#697 = VECTOR( '', #866, 1.00000000000000 );
#698 = CARTESIAN_POINT( '', ( -0.000883883476491341, 0.00162575804149408, -0.000258883476492656 ) );
#699 = CARTESIAN_POINT( '', ( -0.000861835208073056, 0.00162908557578483, -0.000259551051351530 ) );
#700 = CARTESIAN_POINT( '', ( -0.000819067556789803, 0.00163554008837875, -0.000260845965229943 ) );
#701 = CARTESIAN_POINT( '', ( -0.000757139874648720, 0.00164359382222008, -0.000270907858139808 ) );
#702 = CARTESIAN_POINT( '', ( -0.000699454066377192, 0.00165024338380712, -0.000285740617169216 ) );
#703 = CARTESIAN_POINT( '', ( -0.000624322874314108, 0.00165768680371490, -0.000312854375484135 ) );
#704 = CARTESIAN_POINT( '', ( -0.000535173973056471, 0.00166412401295466, -0.000360439523397955 ) );
#705 = CARTESIAN_POINT( '', ( -0.000439674525539350, 0.00166680590982442, -0.000438539270424029 ) );
#706 = CARTESIAN_POINT( '', ( -0.000361046071250640, 0.00166421903903671, -0.000533937521341812 ) );
#707 = CARTESIAN_POINT( '', ( -0.000303902598025373, 0.00165641314699168, -0.000641500322145523 ) );
#708 = CARTESIAN_POINT( '', ( -0.000266179468712659, 0.00164395589612651, -0.000759575778249789 ) );
#709 = CARTESIAN_POINT( '', ( -0.000261399418234253, 0.00163203336919409, -0.000841017349804656 ) );
#710 = CARTESIAN_POINT( '', ( -0.000258883476492656, 0.00162575804149408, -0.000883883476491340 ) );
#711 = COLOUR_RGB( '', 0.850980401000000, 0.756862759600000, 0.870588243000000 );
#712 = CARTESIAN_POINT( '', ( 0.000883883476483200, 0.000850000000000000, 0.000258883476483200 ) );
#713 = CARTESIAN_POINT( '', ( 0.000883883476483200, 0.00162575804149600, 0.000258883476483200 ) );
#714 = CARTESIAN_POINT( '', ( 0.000883883476493200, 0.000850000000010000, 0.000258883476493200 ) );
#715 = VECTOR( '', #867, 1.00000000000000 );
#716 = AXIS2_PLACEMENT_3D( '', #868, #869, #870 );
#717 = CARTESIAN_POINT( '', ( 0.000883883476491341, 0.00162575804149408, 0.000258883476492655 ) );
#718 = CARTESIAN_POINT( '', ( 0.000861835208073000, 0.00162908557578484, 0.000259551051351526 ) );
#719 = CARTESIAN_POINT( '', ( 0.000819067556789674, 0.00163554008837877, 0.000260845965229931 ) );
#720 = CARTESIAN_POINT( '', ( 0.000757139874648534, 0.00164359382222010, 0.000270907858139777 ) );
#721 = CARTESIAN_POINT( '', ( 0.000699454066377047, 0.00165024338380713, 0.000285740617169161 ) );
#722 = CARTESIAN_POINT( '', ( 0.000624322874314085, 0.00165768680371490, 0.000312854375484216 ) );
#723 = CARTESIAN_POINT( '', ( 0.000535173973056464, 0.00166412401295466, 0.000360439523397935 ) );
#724 = CARTESIAN_POINT( '', ( 0.000439674525539355, 0.00166680590982442, 0.000438539270424035 ) );
#725 = CARTESIAN_POINT( '', ( 0.000361046071250626, 0.00166421903903671, 0.000533937521341807 ) );
#726 = CARTESIAN_POINT( '', ( 0.000303902598025464, 0.00165641314699169, 0.000641500322145445 ) );
#727 = CARTESIAN_POINT( '', ( 0.000266179468712524, 0.00164395589612654, 0.000759575778249651 ) );
#728 = CARTESIAN_POINT( '', ( 0.000261399418234209, 0.00163203336919411, 0.000841017349804540 ) );
#729 = CARTESIAN_POINT( '', ( 0.000258883476492654, 0.00162575804149408, 0.000883883476491341 ) );
#730 = COLOUR_RGB( '', 0.850980401000000, 0.756862759600000, 0.870588243000000 );
#731 = COLOUR_RGB( '', 0.850980401000000, 0.756862759600000, 0.870588243000000 );
#732 = CARTESIAN_POINT( '', ( -0.00147749089526900, 0.000850000000000000, 0.000258883476483200 ) );
#733 = CARTESIAN_POINT( '', ( -0.00147749089526900, 0.00150090082779400, 0.000258883476483200 ) );
#734 = CARTESIAN_POINT( '', ( -0.00147749089527900, 0.000850000000010000, 0.000258883476493200 ) );
#735 = VECTOR( '', #871, 1.00000000000000 );
#736 = CARTESIAN_POINT( '', ( -0.00147749089526900, 0.000850000000000000, -0.000258883476483200 ) );
#737 = AXIS2_PLACEMENT_3D( '', #872, #873, #874 );
#738 = CARTESIAN_POINT( '', ( -0.00147749089526900, 0.00150090082779400, -0.000258883476483200 ) );
#739 = CARTESIAN_POINT( '', ( -0.00147749089527900, 0.000850000000010000, -0.000258883476493200 ) );
#740 = VECTOR( '', #875, 1.00000000000000 );
#741 = AXIS2_PLACEMENT_3D( '', #876, #877, #878 );
#742 = COLOUR_RGB( '', 0.850980401000000, 0.756862759600000, 0.870588243000000 );
#743 = CARTESIAN_POINT( '', ( 0.00166666666667700, 0.00145315566037600, 0.00000000000000 ) );
#744 = AXIS2_PLACEMENT_3D( '', #879, #880, #881 );
#745 = CARTESIAN_POINT( '', ( 0.00190801744513400, 0.00000000000000, 0.00000000000000 ) );
#746 = AXIS2_PLACEMENT_3D( '', #882, #883, #884 );
#747 = COLOUR_RGB( '', 0.850980401000000, 0.756862759600000, 0.870588243000000 );
#748 = CARTESIAN_POINT( '', ( -0.000883883476483200, 0.000850000000000000, 0.000258883476483200 ) );
#749 = CARTESIAN_POINT( '', ( -0.000883883476483200, 0.00162575804149600, 0.000258883476483200 ) );
#750 = CARTESIAN_POINT( '', ( -0.000883883476493200, 0.000850000000010000, 0.000258883476493200 ) );
#751 = VECTOR( '', #885, 1.00000000000000 );
#752 = CARTESIAN_POINT( '', ( -0.000883883476493200, 0.000850000000010000, 0.000258883476493200 ) );
#753 = VECTOR( '', #886, 1.00000000000000 );
#754 = AXIS2_PLACEMENT_3D( '', #887, #888, #889 );
#755 = COLOUR_RGB( '', 0.850980401000000, 0.756862759600000, 0.870588243000000 );
#756 = CARTESIAN_POINT( '', ( 0.00147749089526900, 0.00150090082779400, 0.000258883476483200 ) );
#757 = AXIS2_PLACEMENT_3D( '', #890, #891, #892 );
#758 = AXIS2_PLACEMENT_3D( '', #893, #894, #895 );
#759 = CARTESIAN_POINT( '', ( -0.000258883476483200, 0.00150090082779400, 0.00147749089526900 ) );
#760 = AXIS2_PLACEMENT_3D( '', #896, #897, #898 );
#761 = CARTESIAN_POINT( '', ( -0.000258883476483200, 0.00162575804149600, 0.000883883476483200 ) );
#762 = AXIS2_PLACEMENT_3D( '', #899, #900, #901 );
#763 = CARTESIAN_POINT( '', ( -0.000258883476492654, 0.00162575804149408, 0.000883883476491341 ) );
#764 = CARTESIAN_POINT( '', ( -0.000259584204393939, 0.00162916573764555, 0.000861286329673703 ) );
#765 = CARTESIAN_POINT( '', ( -0.000260942453672448, 0.00163577101314641, 0.000817485364555639 ) );
#766 = CARTESIAN_POINT( '', ( -0.000271489170041771, 0.00164397102052959, 0.000754124740962118 ) );
#767 = CARTESIAN_POINT( '', ( -0.000287016373470650, 0.00165070281622430, 0.000695211952106362 ) );
#768 = CARTESIAN_POINT( '', ( -0.000315408882464137, 0.00165819172278908, 0.000618507292527122 ) );
#769 = CARTESIAN_POINT( '', ( -0.000364997881590112, 0.00166450397482597, 0.000528161557010911 ) );
#770 = CARTESIAN_POINT( '', ( -0.000444900756725726, 0.00166678308938463, 0.000433460278264107 ) );
#771 = CARTESIAN_POINT( '', ( -0.000540344825858091, 0.00166384973533890, 0.000357026344812023 ) );
#772 = CARTESIAN_POINT( '', ( -0.000646185154395468, 0.00165596472334663, 0.000302111642866200 ) );
#773 = CARTESIAN_POINT( '', ( -0.000762134093067695, 0.00164360508226369, 0.000265883475629681 ) );
#774 = CARTESIAN_POINT( '', ( -0.000841919735824880, 0.00163190943683966, 0.000261296188082576 ) );
#775 = CARTESIAN_POINT( '', ( -0.000883883476491340, 0.00162575804149408, 0.000258883476492659 ) );
#776 = AXIS2_PLACEMENT_3D( '', #902, #903, #904 );
#777 = CARTESIAN_POINT( '', ( -0.000258883476483200, 0.00150090082779400, -0.00147749089526900 ) );
#778 = AXIS2_PLACEMENT_3D( '', #905, #906, #907 );
#779 = CARTESIAN_POINT( '', ( 0.000258883476483200, 0.00150090082779400, -0.00147749089526900 ) );
#780 = AXIS2_PLACEMENT_3D( '', #908, #909, #910 );
#781 = CARTESIAN_POINT( '', ( 0.000258883476483200, 0.00162575804149600, -0.000883883476483200 ) );
#782 = AXIS2_PLACEMENT_3D( '', #911, #912, #913 );
#783 = CARTESIAN_POINT( '', ( 0.000258883476492657, 0.00162575804149408, -0.000883883476491340 ) );
#784 = CARTESIAN_POINT( '', ( 0.000259584204393941, 0.00162916573764555, -0.000861286329673703 ) );
#785 = CARTESIAN_POINT( '', ( 0.000260942453672449, 0.00163577101314641, -0.000817485364555638 ) );
#786 = CARTESIAN_POINT( '', ( 0.000271489170041770, 0.00164397102052959, -0.000754124740962118 ) );
#787 = CARTESIAN_POINT( '', ( 0.000287016373470649, 0.00165070281622430, -0.000695211952106362 ) );
#788 = CARTESIAN_POINT( '', ( 0.000315408882464136, 0.00165819172278908, -0.000618507292527121 ) );
#789 = CARTESIAN_POINT( '', ( 0.000364997881590114, 0.00166450397482597, -0.000528161557010910 ) );
#790 = CARTESIAN_POINT( '', ( 0.000444900756725727, 0.00166678308938463, -0.000433460278264108 ) );
#791 = CARTESIAN_POINT( '', ( 0.000540344825858088, 0.00166384973533890, -0.000357026344812015 ) );
#792 = CARTESIAN_POINT( '', ( 0.000646185154395410, 0.00165596472334663, -0.000302111642866268 ) );
#793 = CARTESIAN_POINT( '', ( 0.000762134093067595, 0.00164360508226371, -0.000265883475629589 ) );
#794 = CARTESIAN_POINT( '', ( 0.000841919735824797, 0.00163190943683967, -0.000261296188082545 ) );
#795 = CARTESIAN_POINT( '', ( 0.000883883476491340, 0.00162575804149408, -0.000258883476492657 ) );
#796 = COLOUR_RGB( '', 0.850980401000000, 0.756862759600000, 0.870588243000000 );
#797 = CARTESIAN_POINT( '', ( -0.000258883476483200, 0.000850000000000000, 0.000883883476483200 ) );
#798 = AXIS2_PLACEMENT_3D( '', #914, #915, #916 );
#799 = CARTESIAN_POINT( '', ( -0.000258883476483200, 0.000850000000000000, 0.00147749089526900 ) );
#800 = CARTESIAN_POINT( '', ( -0.000258883476493200, 0.000850000000010000, 0.00147749089527900 ) );
#801 = VECTOR( '', #917, 1.00000000000000 );
#802 = AXIS2_PLACEMENT_3D( '', #918, #919, #920 );
#803 = CARTESIAN_POINT( '', ( 0.00147749089526900, 0.000850000000000000, 0.000258883476483200 ) );
#804 = CARTESIAN_POINT( '', ( 0.00147749089527900, 0.000850000000010000, 0.000258883476493200 ) );
#805 = VECTOR( '', #921, 1.00000000000000 );
#806 = AXIS2_PLACEMENT_3D( '', #922, #923, #924 );
#807 = CARTESIAN_POINT( '', ( 0.000258883476483200, 0.000850000000000000, -0.000883883476483200 ) );
#808 = AXIS2_PLACEMENT_3D( '', #925, #926, #927 );
#809 = CARTESIAN_POINT( '', ( 0.000258883476483200, 0.000850000000000000, -0.00147749089526900 ) );
#810 = CARTESIAN_POINT( '', ( 0.000258883476493200, 0.000850000000010000, -0.00147749089527900 ) );
#811 = VECTOR( '', #928, 1.00000000000000 );
#812 = CARTESIAN_POINT( '', ( -0.000258883476483200, 0.000850000000000000, -0.00147749089526900 ) );
#813 = AXIS2_PLACEMENT_3D( '', #929, #930, #931 );
#814 = CARTESIAN_POINT( '', ( -0.000258883476493200, 0.000850000000010000, -0.000883883476493200 ) );
#815 = VECTOR( '', #932, 1.00000000000000 );
#816 = CARTESIAN_POINT( '', ( -0.00147749089527900, 0.000850000000010000, -0.000258883476493200 ) );
#817 = VECTOR( '', #933, 1.00000000000000 );
#818 = COLOUR_RGB( '', 0.850980401000000, 0.756862759600000, 0.870588243000000 );
#819 = CARTESIAN_POINT( '', ( -0.000258883476493200, 0.000850000000010000, 0.00147749089527900 ) );
#820 = VECTOR( '', #934, 1.00000000000000 );
#821 = CARTESIAN_POINT( '', ( -0.000258883476493200, 0.000850000000010000, 0.000883883476493200 ) );
#822 = VECTOR( '', #935, 1.00000000000000 );
#823 = COLOUR_RGB( '', 0.850980401000000, 0.756862759600000, 0.870588243000000 );
#824 = CARTESIAN_POINT( '', ( 0.000258883476493200, 0.000850000000010000, -0.00147749089527900 ) );
#825 = VECTOR( '', #936, 1.00000000000000 );
#826 = CARTESIAN_POINT( '', ( 0.000258883476493200, 0.000850000000010000, -0.000883883476493200 ) );
#827 = VECTOR( '', #937, 1.00000000000000 );
#828 = COLOUR_RGB( '', 0.850980401000000, 0.756862759600000, 0.870588243000000 );
#829 = CARTESIAN_POINT( '', ( 0.00147749089527900, 0.000850000000010000, 0.000258883476493200 ) );
#830 = VECTOR( '', #938, 1.00000000000000 );
#831 = COLOUR_RGB( '', 0.850980401000000, 0.756862759600000, 0.870588243000000 );
#832 = COLOUR_RGB( '', 0.850980401000000, 0.756862759600000, 0.870588243000000 );
#833 = COLOUR_RGB( '', 0.850980401000000, 0.756862759600000, 0.870588243000000 );
#834 = COLOUR_RGB( '', 0.850980401000000, 0.756862759600000, 0.870588243000000 );
#835 = COLOUR_RGB( '', 0.850980401000000, 0.756862759600000, 0.870588243000000 );
#836 = CARTESIAN_POINT( '', ( -0.000258883476493200, 0.000850000000010000, -0.00147749089527900 ) );
#837 = VECTOR( '', #939, 1.00000000000000 );
#838 = COLOUR_RGB( '', 0.850980401000000, 0.756862759600000, 0.870588243000000 );
#839 = COLOUR_RGB( '', 0.850980401000000, 0.756862759600000, 0.870588243000000 );
#840 = COLOUR_RGB( '', 0.850980401000000, 0.756862759600000, 0.870588243000000 );
#841 = DIRECTION( '', ( 0.00000000000000, 1.00000000000000, 0.00000000000000 ) );
#842 = DIRECTION( '', ( 0.00000000000000, 0.00000000000000, 1.00000000000000 ) );
#843 = DIRECTION( '', ( 0.00000000000000, 1.00000000000000, 0.00000000000000 ) );
#844 = CARTESIAN_POINT( '', ( 0.000258883476493200, -0.00405000000001000, 0.00000000000000 ) );
#845 = DIRECTION( '', ( 1.00000000000000, 0.00000000000000, -0.00000000000000 ) );
#846 = DIRECTION( '', ( 0.00000000000000, 0.988090336967073, 0.153874903711735 ) );
#847 = CARTESIAN_POINT( '', ( 0.00000000000000, -0.0160000000000100, 0.00000000000000 ) );
#848 = DIRECTION( '', ( 0.00000000000000, 1.00000000000000, 0.00000000000000 ) );
#849 = DIRECTION( '', ( -1.00000000000000, 0.00000000000000, 0.00000000000000 ) );
#850 = CARTESIAN_POINT( '', ( 0.00000000000000, -0.0158250000000100, 0.00000000000000 ) );
#851 = DIRECTION( '', ( 0.00000000000000, -1.00000000000000, 0.00000000000000 ) );
#852 = DIRECTION( '', ( -1.00000000000000, 0.00000000000000, 0.00000000000000 ) );
#853 = CARTESIAN_POINT( '', ( 0.00000000000000, 0.00000000000000, 0.00000000000000 ) );
#854 = DIRECTION( '', ( 0.00000000000000, -1.00000000000000, 0.00000000000000 ) );
#855 = DIRECTION( '', ( 1.00000000000000, 0.00000000000000, 0.00000000000000 ) );
#856 = DIRECTION( '', ( 0.00000000000000, 1.00000000000000, 0.00000000000000 ) );
#857 = DIRECTION( '', ( 1.00000000000000, 0.00000000000000, 0.00000000000000 ) );
#858 = DIRECTION( '', ( 0.00000000000000, 1.00000000000000, 0.00000000000000 ) );
#859 = CARTESIAN_POINT( '', ( 0.00000000000000, -0.00405000000001000, -0.000258883476493200 ) );
#860 = DIRECTION( '', ( 0.00000000000000, 0.00000000000000, -1.00000000000000 ) );
#861 = DIRECTION( '', ( 0.153874903711735, 0.988090336967073, 0.00000000000000 ) );
#862 = DIRECTION( '', ( 0.00000000000000, 1.00000000000000, 0.00000000000000 ) );
#863 = CARTESIAN_POINT( '', ( -0.000883883476493200, 0.000850000000010000, -0.000883883476493200 ) );
#864 = DIRECTION( '', ( 0.00000000000000, 1.00000000000000, 0.00000000000000 ) );
#865 = DIRECTION( '', ( 0.00000000000000, 0.00000000000000, 1.00000000000000 ) );
#866 = DIRECTION( '', ( 0.00000000000000, 1.00000000000000, 0.00000000000000 ) );
#867 = DIRECTION( '', ( 0.00000000000000, 1.00000000000000, 0.00000000000000 ) );
#868 = CARTESIAN_POINT( '', ( 0.000883883476493200, 0.000850000000010000, 0.000883883476493200 ) );
#869 = DIRECTION( '', ( 0.00000000000000, 1.00000000000000, 0.00000000000000 ) );
#870 = DIRECTION( '', ( 0.00000000000000, 0.00000000000000, -1.00000000000000 ) );
#871 = DIRECTION( '', ( 0.00000000000000, 1.00000000000000, 0.00000000000000 ) );
#872 = CARTESIAN_POINT( '', ( 0.00000000000000, 0.000850000000010000, 0.00000000000000 ) );
#873 = DIRECTION( '', ( 0.00000000000000, -1.00000000000000, 0.00000000000000 ) );
#874 = DIRECTION( '', ( -0.984993930178671, 0.00000000000000, 0.172588984327435 ) );
#875 = DIRECTION( '', ( 0.00000000000000, 1.00000000000000, 0.00000000000000 ) );
#876 = CARTESIAN_POINT( '', ( 0.00000000000000, 0.00150090082780400, 0.00000000000000 ) );
#877 = DIRECTION( '', ( 0.00000000000000, -1.00000000000000, 0.00000000000000 ) );
#878 = DIRECTION( '', ( -1.00000000000000, 0.00000000000000, 0.00000000000000 ) );
#879 = CARTESIAN_POINT( '', ( 0.00000000000000, 0.00145315566037600, 0.00000000000000 ) );
#880 = DIRECTION( '', ( 0.00000000000000, -1.00000000000000, 0.00000000000000 ) );
#881 = DIRECTION( '', ( 1.00000000000000, 0.00000000000000, 0.00000000000000 ) );
#882 = CARTESIAN_POINT( '', ( 0.00000000000000, 0.00000000000000, 0.00000000000000 ) );
#883 = DIRECTION( '', ( -0.00000000000000, 1.00000000000000, 0.00000000000000 ) );
#884 = DIRECTION( '', ( 1.00000000000000, 0.00000000000000, 0.00000000000000 ) );
#885 = DIRECTION( '', ( 0.00000000000000, 1.00000000000000, 0.00000000000000 ) );
#886 = DIRECTION( '', ( -1.00000000000000, 0.00000000000000, 0.00000000000000 ) );
#887 = CARTESIAN_POINT( '', ( 0.00000000000000, -0.00405000000001000, 0.000258883476493200 ) );
#888 = DIRECTION( '', ( 0.00000000000000, 0.00000000000000, 1.00000000000000 ) );
#889 = DIRECTION( '', ( -0.153874903711735, 0.988090336967073, 0.00000000000000 ) );
#890 = CARTESIAN_POINT( '', ( 0.00000000000000, 0.00150090082780400, 0.00000000000000 ) );
#891 = DIRECTION( '', ( 0.00000000000000, -1.00000000000000, 0.00000000000000 ) );
#892 = DIRECTION( '', ( 0.984993930178671, 0.00000000000000, -0.172588984327435 ) );
#893 = CARTESIAN_POINT( '', ( 0.00000000000000, -0.00405000000001000, 0.000258883476493200 ) );
#894 = DIRECTION( '', ( 0.00000000000000, -0.00000000000000, 1.00000000000000 ) );
#895 = DIRECTION( '', ( 0.257215770282393, 0.966353997000082, 0.00000000000000 ) );
#896 = CARTESIAN_POINT( '', ( 0.00000000000000, 0.00150090082780400, 0.00000000000000 ) );
#897 = DIRECTION( '', ( 0.00000000000000, -1.00000000000000, 0.00000000000000 ) );
#898 = DIRECTION( '', ( 0.172588984327435, 0.00000000000000, 0.984993930178671 ) );
#899 = CARTESIAN_POINT( '', ( -0.000258883476493200, -0.00405000000001000, 0.00000000000000 ) );
#900 = DIRECTION( '', ( -1.00000000000000, 0.00000000000000, 0.00000000000000 ) );
#901 = DIRECTION( '', ( 0.00000000000000, 0.966353997000082, 0.257215770282393 ) );
#902 = CARTESIAN_POINT( '', ( 0.00000000000000, -0.00405000000001000, -0.000258883476493200 ) );
#903 = DIRECTION( '', ( 0.00000000000000, 0.00000000000000, -1.00000000000000 ) );
#904 = DIRECTION( '', ( -0.257215770282393, 0.966353997000082, 0.00000000000000 ) );
#905 = CARTESIAN_POINT( '', ( -0.000258883476493200, -0.00405000000001000, 0.00000000000000 ) );
#906 = DIRECTION( '', ( -1.00000000000000, 0.00000000000000, 0.00000000000000 ) );
#907 = DIRECTION( '', ( 0.00000000000000, 0.988090336967073, -0.153874903711735 ) );
#908 = CARTESIAN_POINT( '', ( 0.00000000000000, 0.00150090082780400, 0.00000000000000 ) );
#909 = DIRECTION( '', ( 0.00000000000000, -1.00000000000000, -0.00000000000000 ) );
#910 = DIRECTION( '', ( -0.172588984327435, 0.00000000000000, -0.984993930178671 ) );
#911 = CARTESIAN_POINT( '', ( 0.000258883476493200, -0.00405000000001000, 0.00000000000000 ) );
#912 = DIRECTION( '', ( 1.00000000000000, 0.00000000000000, 0.00000000000000 ) );
#913 = DIRECTION( '', ( 0.00000000000000, 0.966353997000082, -0.257215770282393 ) );
#914 = CARTESIAN_POINT( '', ( -0.000883883476493200, 0.000850000000010000, 0.000883883476493200 ) );
#915 = DIRECTION( '', ( -0.00000000000000, 1.00000000000000, 0.00000000000000 ) );
#916 = DIRECTION( '', ( 1.00000000000000, 0.00000000000000, 0.00000000000000 ) );
#917 = DIRECTION( '', ( 0.00000000000000, 0.00000000000000, -1.00000000000000 ) );
#918 = CARTESIAN_POINT( '', ( 0.00000000000000, 0.000850000000010000, 0.00000000000000 ) );
#919 = DIRECTION( '', ( 0.00000000000000, -1.00000000000000, 0.00000000000000 ) );
#920 = DIRECTION( '', ( 0.172588984327435, 0.00000000000000, 0.984993930178671 ) );
#921 = DIRECTION( '', ( -1.00000000000000, 0.00000000000000, 0.00000000000000 ) );
#922 = CARTESIAN_POINT( '', ( 0.00000000000000, 0.000850000000010000, 0.00000000000000 ) );
#923 = DIRECTION( '', ( 0.00000000000000, -1.00000000000000, 0.00000000000000 ) );
#924 = DIRECTION( '', ( 0.984993930178671, 0.00000000000000, -0.172588984327435 ) );
#925 = CARTESIAN_POINT( '', ( 0.000883883476493200, 0.000850000000010000, -0.000883883476493200 ) );
#926 = DIRECTION( '', ( 0.00000000000000, 1.00000000000000, 0.00000000000000 ) );
#927 = DIRECTION( '', ( -1.00000000000000, 0.00000000000000, 0.00000000000000 ) );
#928 = DIRECTION( '', ( 0.00000000000000, 0.00000000000000, 1.00000000000000 ) );
#929 = CARTESIAN_POINT( '', ( 0.00000000000000, 0.000850000000010000, 0.00000000000000 ) );
#930 = DIRECTION( '', ( 0.00000000000000, -1.00000000000000, -0.00000000000000 ) );
#931 = DIRECTION( '', ( -0.172588984327435, 0.00000000000000, -0.984993930178671 ) );
#932 = DIRECTION( '', ( 0.00000000000000, 0.00000000000000, -1.00000000000000 ) );
#933 = DIRECTION( '', ( 1.00000000000000, 0.00000000000000, 0.00000000000000 ) );
#934 = DIRECTION( '', ( 0.00000000000000, 1.00000000000000, 0.00000000000000 ) );
#935 = DIRECTION( '', ( 0.00000000000000, 1.00000000000000, 0.00000000000000 ) );
#936 = DIRECTION( '', ( 0.00000000000000, 1.00000000000000, 0.00000000000000 ) );
#937 = DIRECTION( '', ( 0.00000000000000, 1.00000000000000, 0.00000000000000 ) );
#938 = DIRECTION( '', ( 0.00000000000000, 1.00000000000000, 0.00000000000000 ) );
#939 = DIRECTION( '', ( 0.00000000000000, 1.00000000000000, 0.00000000000000 ) );
ENDSEC;
END-ISO-10303-21;
