ISO-10303-21;
HEADER;
FILE_DESCRIPTION( ( '' ), ' ' );
FILE_NAME( '/vol/tmp/translate-848463171985286602/589d3925c139c90fab49b5c3.step', '2017-02-10T03:53:10', ( '' ), ( '' ), ' ', ' ', ' ' );
FILE_SCHEMA( ( 'AUTOMOTIVE_DESIGN { 1 0 10303 214 1 1 1 1 }' ) );
ENDSEC;
DATA;
#1 = MECHANICAL_DESIGN_GEOMETRIC_PRESENTATION_REPRESENTATION( ' ', ( #10, #11, #12, #13, #14, #15, #16, #17, #18, #19, #20, #21, #22, #23, #24, #25, #26, #27, #28, #29, #30, #31, #32 ), #6 );
#2 = PRODUCT_DEFINITION_CONTEXT( '', #33, 'design' );
#3 = APPLICATION_PROTOCOL_DEFINITION( 'international standard', 'automotive_design', 2001, #33 );
#4 = PRODUCT_CATEGORY_RELATIONSHIP( 'NONE', 'NONE', #34, #35 );
#5 = SHAPE_DEFINITION_REPRESENTATION( #36, #37 );
#6 =  ( GEOMETRIC_REPRESENTATION_CONTEXT( 3 )GLOBAL_UNCERTAINTY_ASSIGNED_CONTEXT( ( #40 ) )GLOBAL_UNIT_ASSIGNED_CONTEXT( ( #42, #43, #44 ) )REPRESENTATION_CONTEXT( 'NONE', 'WORKSPACE' ) );
#10 = STYLED_ITEM( '', ( #46 ), #47 );
#11 = STYLED_ITEM( '', ( #48 ), #49 );
#12 = STYLED_ITEM( '', ( #50 ), #51 );
#13 = STYLED_ITEM( '', ( #52 ), #53 );
#14 = STYLED_ITEM( '', ( #54 ), #55 );
#15 = STYLED_ITEM( '', ( #56 ), #57 );
#16 = STYLED_ITEM( '', ( #58 ), #59 );
#17 = STYLED_ITEM( '', ( #60 ), #61 );
#18 = STYLED_ITEM( '', ( #62 ), #63 );
#19 = STYLED_ITEM( '', ( #64 ), #65 );
#20 = STYLED_ITEM( '', ( #66 ), #67 );
#21 = STYLED_ITEM( '', ( #68 ), #69 );
#22 = STYLED_ITEM( '', ( #70 ), #71 );
#23 = STYLED_ITEM( '', ( #72 ), #73 );
#24 = STYLED_ITEM( '', ( #74 ), #75 );
#25 = STYLED_ITEM( '', ( #76 ), #77 );
#26 = STYLED_ITEM( '', ( #78 ), #79 );
#27 = STYLED_ITEM( '', ( #80 ), #81 );
#28 = STYLED_ITEM( '', ( #82 ), #83 );
#29 = STYLED_ITEM( '', ( #84 ), #85 );
#30 = STYLED_ITEM( '', ( #86 ), #87 );
#31 = STYLED_ITEM( '', ( #88 ), #89 );
#32 = STYLED_ITEM( '', ( #90 ), #91 );
#33 = APPLICATION_CONTEXT( 'core data for automotive mechanical design processes' );
#34 = PRODUCT_CATEGORY( 'part', 'NONE' );
#35 = PRODUCT_RELATED_PRODUCT_CATEGORY( 'detail', ' ', ( #92 ) );
#36 = PRODUCT_DEFINITION_SHAPE( 'NONE', 'NONE', #93 );
#37 = ADVANCED_BREP_SHAPE_REPRESENTATION( 'PHS_M2X4', ( #94, #95 ), #6 );
#40 = UNCERTAINTY_MEASURE_WITH_UNIT( LENGTH_MEASURE( 1.00000000000000E-06 ), #42, '', '' );
#42 =  ( CONVERSION_BASED_UNIT( 'METRE', #98 )LENGTH_UNIT(  )NAMED_UNIT( #101 ) );
#43 =  ( NAMED_UNIT( #103 )PLANE_ANGLE_UNIT(  )SI_UNIT( $, .RADIAN. ) );
#44 =  ( NAMED_UNIT( #103 )SI_UNIT( $, .STERADIAN. )SOLID_ANGLE_UNIT(  ) );
#46 = PRESENTATION_STYLE_ASSIGNMENT( ( #109 ) );
#47 = ADVANCED_FACE( '', ( #110, #111, #112 ), #113, .T. );
#48 = PRESENTATION_STYLE_ASSIGNMENT( ( #114 ) );
#49 = ADVANCED_FACE( '', ( #115 ), #116, .F. );
#50 = PRESENTATION_STYLE_ASSIGNMENT( ( #117 ) );
#51 = ADVANCED_FACE( '', ( #118, #119 ), #120, .T. );
#52 = PRESENTATION_STYLE_ASSIGNMENT( ( #121 ) );
#53 = ADVANCED_FACE( '', ( #122 ), #123, .F. );
#54 = PRESENTATION_STYLE_ASSIGNMENT( ( #124 ) );
#55 = ADVANCED_FACE( '', ( #125 ), #126, .F. );
#56 = PRESENTATION_STYLE_ASSIGNMENT( ( #127 ) );
#57 = ADVANCED_FACE( '', ( #128 ), #129, .F. );
#58 = PRESENTATION_STYLE_ASSIGNMENT( ( #130 ) );
#59 = ADVANCED_FACE( '', ( #131 ), #132, .F. );
#60 = PRESENTATION_STYLE_ASSIGNMENT( ( #133 ) );
#61 = ADVANCED_FACE( '', ( #134 ), #135, .F. );
#62 = PRESENTATION_STYLE_ASSIGNMENT( ( #136 ) );
#63 = ADVANCED_FACE( '', ( #137 ), #138, .T. );
#64 = PRESENTATION_STYLE_ASSIGNMENT( ( #139 ) );
#65 = ADVANCED_FACE( '', ( #140 ), #141, .F. );
#66 = PRESENTATION_STYLE_ASSIGNMENT( ( #142 ) );
#67 = ADVANCED_FACE( '', ( #143 ), #144, .F. );
#68 = PRESENTATION_STYLE_ASSIGNMENT( ( #145 ) );
#69 = ADVANCED_FACE( '', ( #146 ), #147, .F. );
#70 = PRESENTATION_STYLE_ASSIGNMENT( ( #148 ) );
#71 = ADVANCED_FACE( '', ( #149 ), #150, .T. );
#72 = PRESENTATION_STYLE_ASSIGNMENT( ( #151 ) );
#73 = ADVANCED_FACE( '', ( #152, #153 ), #154, .T. );
#74 = PRESENTATION_STYLE_ASSIGNMENT( ( #155 ) );
#75 = ADVANCED_FACE( '', ( #156 ), #157, .T. );
#76 = PRESENTATION_STYLE_ASSIGNMENT( ( #158 ) );
#77 = ADVANCED_FACE( '', ( #159, #160 ), #161, .T. );
#78 = PRESENTATION_STYLE_ASSIGNMENT( ( #162 ) );
#79 = ADVANCED_FACE( '', ( #163 ), #164, .F. );
#80 = PRESENTATION_STYLE_ASSIGNMENT( ( #165 ) );
#81 = ADVANCED_FACE( '', ( #166 ), #167, .T. );
#82 = PRESENTATION_STYLE_ASSIGNMENT( ( #168 ) );
#83 = ADVANCED_FACE( '', ( #169 ), #170, .T. );
#84 = PRESENTATION_STYLE_ASSIGNMENT( ( #171 ) );
#85 = ADVANCED_FACE( '', ( #172, #173 ), #174, .T. );
#86 = PRESENTATION_STYLE_ASSIGNMENT( ( #175 ) );
#87 = ADVANCED_FACE( '', ( #176 ), #177, .F. );
#88 = PRESENTATION_STYLE_ASSIGNMENT( ( #178 ) );
#89 = ADVANCED_FACE( '', ( #179 ), #180, .F. );
#90 = PRESENTATION_STYLE_ASSIGNMENT( ( #181 ) );
#91 = ADVANCED_FACE( '', ( #182 ), #183, .F. );
#92 = PRODUCT( 'PHS_M2X4', 'PHS_M2X4', 'PART-PHS_M2X4-DESC', ( #184 ) );
#93 = PRODUCT_DEFINITION( 'NONE', 'NONE', #185, #2 );
#94 = MANIFOLD_SOLID_BREP( 'PHS_M2X4', #186 );
#95 = AXIS2_PLACEMENT_3D( '', #187, #188, #189 );
#98 = LENGTH_MEASURE_WITH_UNIT( LENGTH_MEASURE( 1.00000000000000 ), #190 );
#101 = DIMENSIONAL_EXPONENTS( 1.00000000000000, 0.00000000000000, 0.00000000000000, 0.00000000000000, 0.00000000000000, 0.00000000000000, 0.00000000000000 );
#103 = DIMENSIONAL_EXPONENTS( 0.00000000000000, 0.00000000000000, 0.00000000000000, 0.00000000000000, 0.00000000000000, 0.00000000000000, 0.00000000000000 );
#109 = SURFACE_STYLE_USAGE( .BOTH., #191 );
#110 = FACE_BOUND( '', #192, .T. );
#111 = FACE_OUTER_BOUND( '', #193, .T. );
#112 = FACE_OUTER_BOUND( '', #194, .T. );
#113 = TOROIDAL_SURFACE( '', #195, 0.00109285710000000, 0.000657142900000000 );
#114 = SURFACE_STYLE_USAGE( .BOTH., #196 );
#115 = FACE_OUTER_BOUND( '', #197, .T. );
#116 = CYLINDRICAL_SURFACE( '', #198, 0.00125000000000000 );
#117 = SURFACE_STYLE_USAGE( .BOTH., #199 );
#118 = FACE_OUTER_BOUND( '', #200, .T. );
#119 = FACE_BOUND( '', #201, .T. );
#120 = PLANE( '', #202 );
#121 = SURFACE_STYLE_USAGE( .BOTH., #203 );
#122 = FACE_OUTER_BOUND( '', #204, .T. );
#123 = CYLINDRICAL_SURFACE( '', #205, 0.00125000000000000 );
#124 = SURFACE_STYLE_USAGE( .BOTH., #206 );
#125 = FACE_OUTER_BOUND( '', #207, .T. );
#126 = CYLINDRICAL_SURFACE( '', #208, 0.00125000000000000 );
#127 = SURFACE_STYLE_USAGE( .BOTH., #209 );
#128 = FACE_OUTER_BOUND( '', #210, .T. );
#129 = PLANE( '', #211 );
#130 = SURFACE_STYLE_USAGE( .BOTH., #212 );
#131 = FACE_OUTER_BOUND( '', #213, .T. );
#132 = PLANE( '', #214 );
#133 = SURFACE_STYLE_USAGE( .BOTH., #215 );
#134 = FACE_OUTER_BOUND( '', #216, .T. );
#135 = PLANE( '', #217 );
#136 = SURFACE_STYLE_USAGE( .BOTH., #218 );
#137 = FACE_OUTER_BOUND( '', #219, .T. );
#138 = CYLINDRICAL_SURFACE( '', #220, 0.000500000000000000 );
#139 = SURFACE_STYLE_USAGE( .BOTH., #221 );
#140 = FACE_OUTER_BOUND( '', #222, .T. );
#141 = PLANE( '', #223 );
#142 = SURFACE_STYLE_USAGE( .BOTH., #224 );
#143 = FACE_OUTER_BOUND( '', #225, .T. );
#144 = PLANE( '', #226 );
#145 = SURFACE_STYLE_USAGE( .BOTH., #227 );
#146 = FACE_OUTER_BOUND( '', #228, .T. );
#147 = PLANE( '', #229 );
#148 = SURFACE_STYLE_USAGE( .BOTH., #230 );
#149 = FACE_OUTER_BOUND( '', #231, .T. );
#150 = CYLINDRICAL_SURFACE( '', #232, 0.000500000000000000 );
#151 = SURFACE_STYLE_USAGE( .BOTH., #233 );
#152 = FACE_OUTER_BOUND( '', #234, .T. );
#153 = FACE_OUTER_BOUND( '', #235, .T. );
#154 = CYLINDRICAL_SURFACE( '', #236, 0.00100000000000000 );
#155 = SURFACE_STYLE_USAGE( .BOTH., #237 );
#156 = FACE_OUTER_BOUND( '', #238, .T. );
#157 = CYLINDRICAL_SURFACE( '', #239, 0.000500000000000000 );
#158 = SURFACE_STYLE_USAGE( .BOTH., #240 );
#159 = FACE_OUTER_BOUND( '', #241, .T. );
#160 = FACE_OUTER_BOUND( '', #242, .T. );
#161 = SPHERICAL_SURFACE( '', #243, 0.00460000000000000 );
#162 = SURFACE_STYLE_USAGE( .BOTH., #244 );
#163 = FACE_OUTER_BOUND( '', #245, .T. );
#164 = PLANE( '', #246 );
#165 = SURFACE_STYLE_USAGE( .BOTH., #247 );
#166 = FACE_OUTER_BOUND( '', #248, .T. );
#167 = CYLINDRICAL_SURFACE( '', #249, 0.000500000000000000 );
#168 = SURFACE_STYLE_USAGE( .BOTH., #250 );
#169 = FACE_OUTER_BOUND( '', #251, .T. );
#170 = PLANE( '', #252 );
#171 = SURFACE_STYLE_USAGE( .BOTH., #253 );
#172 = FACE_BOUND( '', #254, .T. );
#173 = FACE_OUTER_BOUND( '', #255, .T. );
#174 = CONICAL_SURFACE( '', #256, 0.000900000000000000, 0.785398163400000 );
#175 = SURFACE_STYLE_USAGE( .BOTH., #257 );
#176 = FACE_OUTER_BOUND( '', #258, .T. );
#177 = PLANE( '', #259 );
#178 = SURFACE_STYLE_USAGE( .BOTH., #260 );
#179 = FACE_OUTER_BOUND( '', #261, .T. );
#180 = PLANE( '', #262 );
#181 = SURFACE_STYLE_USAGE( .BOTH., #263 );
#182 = FACE_OUTER_BOUND( '', #264, .T. );
#183 = CYLINDRICAL_SURFACE( '', #265, 0.00125000000000000 );
#184 = PRODUCT_CONTEXT( '', #33, 'mechanical' );
#185 = PRODUCT_DEFINITION_FORMATION_WITH_SPECIFIED_SOURCE( ' ', 'NONE', #92, .NOT_KNOWN. );
#186 = CLOSED_SHELL( '', ( #77, #71, #75, #65, #79, #87, #57, #91, #61, #63, #89, #55, #67, #81, #69, #49, #59, #83, #85, #73, #51, #47, #53 ) );
#187 = CARTESIAN_POINT( '', ( 0.00000000000000, 0.00000000000000, 0.00000000000000 ) );
#188 = DIRECTION( '', ( 0.00000000000000, 0.00000000000000, 1.00000000000000 ) );
#189 = DIRECTION( '', ( 1.00000000000000, 0.00000000000000, 0.00000000000000 ) );
#190 =  ( LENGTH_UNIT(  )NAMED_UNIT( #101 )SI_UNIT( $, .METRE. ) );
#191 = SURFACE_SIDE_STYLE( '', ( #267 ) );
#192 = VERTEX_LOOP( '', #268 );
#193 = EDGE_LOOP( '', ( #269 ) );
#194 = EDGE_LOOP( '', ( #270 ) );
#195 = AXIS2_PLACEMENT_3D( '', #271, #272, #273 );
#196 = SURFACE_SIDE_STYLE( '', ( #274 ) );
#197 = EDGE_LOOP( '', ( #275, #276, #277, #278 ) );
#198 = AXIS2_PLACEMENT_3D( '', #279, #280, #281 );
#199 = SURFACE_SIDE_STYLE( '', ( #282 ) );
#200 = EDGE_LOOP( '', ( #283 ) );
#201 = EDGE_LOOP( '', ( #284 ) );
#202 = AXIS2_PLACEMENT_3D( '', #285, #286, #287 );
#203 = SURFACE_SIDE_STYLE( '', ( #288 ) );
#204 = EDGE_LOOP( '', ( #289, #290, #291, #292 ) );
#205 = AXIS2_PLACEMENT_3D( '', #293, #294, #295 );
#206 = SURFACE_SIDE_STYLE( '', ( #296 ) );
#207 = EDGE_LOOP( '', ( #297, #298, #299, #300 ) );
#208 = AXIS2_PLACEMENT_3D( '', #301, #302, #303 );
#209 = SURFACE_SIDE_STYLE( '', ( #304 ) );
#210 = EDGE_LOOP( '', ( #305, #306, #307, #308 ) );
#211 = AXIS2_PLACEMENT_3D( '', #309, #310, #311 );
#212 = SURFACE_SIDE_STYLE( '', ( #312 ) );
#213 = EDGE_LOOP( '', ( #313, #314, #315, #316 ) );
#214 = AXIS2_PLACEMENT_3D( '', #317, #318, #319 );
#215 = SURFACE_SIDE_STYLE( '', ( #320 ) );
#216 = EDGE_LOOP( '', ( #321, #322, #323, #324 ) );
#217 = AXIS2_PLACEMENT_3D( '', #325, #326, #327 );
#218 = SURFACE_SIDE_STYLE( '', ( #328 ) );
#219 = EDGE_LOOP( '', ( #329, #330, #331, #332 ) );
#220 = AXIS2_PLACEMENT_3D( '', #333, #334, #335 );
#221 = SURFACE_SIDE_STYLE( '', ( #336 ) );
#222 = EDGE_LOOP( '', ( #337, #338, #339, #340 ) );
#223 = AXIS2_PLACEMENT_3D( '', #341, #342, #343 );
#224 = SURFACE_SIDE_STYLE( '', ( #344 ) );
#225 = EDGE_LOOP( '', ( #345, #346, #347, #348 ) );
#226 = AXIS2_PLACEMENT_3D( '', #349, #350, #351 );
#227 = SURFACE_SIDE_STYLE( '', ( #352 ) );
#228 = EDGE_LOOP( '', ( #353, #354, #355, #356 ) );
#229 = AXIS2_PLACEMENT_3D( '', #357, #358, #359 );
#230 = SURFACE_SIDE_STYLE( '', ( #360 ) );
#231 = EDGE_LOOP( '', ( #361, #362, #363, #364 ) );
#232 = AXIS2_PLACEMENT_3D( '', #365, #366, #367 );
#233 = SURFACE_SIDE_STYLE( '', ( #368 ) );
#234 = EDGE_LOOP( '', ( #369 ) );
#235 = EDGE_LOOP( '', ( #370 ) );
#236 = AXIS2_PLACEMENT_3D( '', #371, #372, #373 );
#237 = SURFACE_SIDE_STYLE( '', ( #374 ) );
#238 = EDGE_LOOP( '', ( #375, #376, #377, #378 ) );
#239 = AXIS2_PLACEMENT_3D( '', #379, #380, #381 );
#240 = SURFACE_SIDE_STYLE( '', ( #382 ) );
#241 = EDGE_LOOP( '', ( #383, #384, #385, #386, #387, #388, #389, #390, #391, #392, #393, #394, #395, #396, #397, #398 ) );
#242 = EDGE_LOOP( '', ( #399 ) );
#243 = AXIS2_PLACEMENT_3D( '', #400, #401, #402 );
#244 = SURFACE_SIDE_STYLE( '', ( #403 ) );
#245 = EDGE_LOOP( '', ( #404, #405, #406, #407, #408, #409, #410, #411, #412, #413, #414, #415, #416, #417, #418, #419 ) );
#246 = AXIS2_PLACEMENT_3D( '', #420, #421, #422 );
#247 = SURFACE_SIDE_STYLE( '', ( #423 ) );
#248 = EDGE_LOOP( '', ( #424, #425, #426, #427 ) );
#249 = AXIS2_PLACEMENT_3D( '', #428, #429, #430 );
#250 = SURFACE_SIDE_STYLE( '', ( #431 ) );
#251 = EDGE_LOOP( '', ( #432 ) );
#252 = AXIS2_PLACEMENT_3D( '', #433, #434, #435 );
#253 = SURFACE_SIDE_STYLE( '', ( #436 ) );
#254 = EDGE_LOOP( '', ( #437 ) );
#255 = EDGE_LOOP( '', ( #438 ) );
#256 = AXIS2_PLACEMENT_3D( '', #439, #440, #441 );
#257 = SURFACE_SIDE_STYLE( '', ( #442 ) );
#258 = EDGE_LOOP( '', ( #443, #444, #445, #446 ) );
#259 = AXIS2_PLACEMENT_3D( '', #447, #448, #449 );
#260 = SURFACE_SIDE_STYLE( '', ( #450 ) );
#261 = EDGE_LOOP( '', ( #451, #452, #453, #454 ) );
#262 = AXIS2_PLACEMENT_3D( '', #455, #456, #457 );
#263 = SURFACE_SIDE_STYLE( '', ( #458 ) );
#264 = EDGE_LOOP( '', ( #459, #460, #461, #462 ) );
#265 = AXIS2_PLACEMENT_3D( '', #463, #464, #465 );
#267 = SURFACE_STYLE_FILL_AREA( #466 );
#268 = VERTEX_POINT( '', #467 );
#269 = ORIENTED_EDGE( '', *, *, #468, .T. );
#270 = ORIENTED_EDGE( '', *, *, #469, .T. );
#271 = CARTESIAN_POINT( '', ( 0.00000000000000, 0.000488375075713300, 0.00000000000000 ) );
#272 = DIRECTION( '', ( 0.00000000000000, -1.00000000000000, 0.00000000000000 ) );
#273 = DIRECTION( '', ( -1.00000000000000, 0.00000000000000, 0.00000000000000 ) );
#274 = SURFACE_STYLE_FILL_AREA( #470 );
#275 = ORIENTED_EDGE( '', *, *, #471, .F. );
#276 = ORIENTED_EDGE( '', *, *, #472, .T. );
#277 = ORIENTED_EDGE( '', *, *, #473, .T. );
#278 = ORIENTED_EDGE( '', *, *, #474, .F. );
#279 = CARTESIAN_POINT( '', ( 0.00000000000000, 0.000650000000000000, 0.00000000000000 ) );
#280 = DIRECTION( '', ( -0.00000000000000, 1.00000000000000, -0.00000000000000 ) );
#281 = DIRECTION( '', ( 1.00000000000000, 0.00000000000000, 0.00000000000000 ) );
#282 = SURFACE_STYLE_FILL_AREA( #475 );
#283 = ORIENTED_EDGE( '', *, *, #469, .F. );
#284 = ORIENTED_EDGE( '', *, *, #476, .F. );
#285 = CARTESIAN_POINT( '', ( 0.00000000000000, 0.00000000000000, 0.00000000000000 ) );
#286 = DIRECTION( '', ( 0.00000000000000, -1.00000000000000, 0.00000000000000 ) );
#287 = DIRECTION( '', ( 0.00000000000000, 0.00000000000000, -1.00000000000000 ) );
#288 = SURFACE_STYLE_FILL_AREA( #477 );
#289 = ORIENTED_EDGE( '', *, *, #478, .F. );
#290 = ORIENTED_EDGE( '', *, *, #479, .T. );
#291 = ORIENTED_EDGE( '', *, *, #480, .T. );
#292 = ORIENTED_EDGE( '', *, *, #481, .F. );
#293 = CARTESIAN_POINT( '', ( 0.00000000000000, 0.000650000000000000, 0.00000000000000 ) );
#294 = DIRECTION( '', ( -0.00000000000000, 1.00000000000000, -0.00000000000000 ) );
#295 = DIRECTION( '', ( 1.00000000000000, 0.00000000000000, 0.00000000000000 ) );
#296 = SURFACE_STYLE_FILL_AREA( #482 );
#297 = ORIENTED_EDGE( '', *, *, #483, .F. );
#298 = ORIENTED_EDGE( '', *, *, #484, .F. );
#299 = ORIENTED_EDGE( '', *, *, #485, .T. );
#300 = ORIENTED_EDGE( '', *, *, #486, .T. );
#301 = CARTESIAN_POINT( '', ( 0.00000000000000, 0.000650000000000000, 0.00000000000000 ) );
#302 = DIRECTION( '', ( -0.00000000000000, 1.00000000000000, -0.00000000000000 ) );
#303 = DIRECTION( '', ( 1.00000000000000, 0.00000000000000, 0.00000000000000 ) );
#304 = SURFACE_STYLE_FILL_AREA( #487 );
#305 = ORIENTED_EDGE( '', *, *, #488, .F. );
#306 = ORIENTED_EDGE( '', *, *, #489, .T. );
#307 = ORIENTED_EDGE( '', *, *, #490, .T. );
#308 = ORIENTED_EDGE( '', *, *, #491, .F. );
#309 = CARTESIAN_POINT( '', ( -0.000207106781186500, 0.000650000000000000, -0.000707106781186500 ) );
#310 = DIRECTION( '', ( -1.00000000000000, 0.00000000000000, 0.00000000000000 ) );
#311 = DIRECTION( '', ( 0.00000000000000, 0.00000000000000, 1.00000000000000 ) );
#312 = SURFACE_STYLE_FILL_AREA( #492 );
#313 = ORIENTED_EDGE( '', *, *, #473, .F. );
#314 = ORIENTED_EDGE( '', *, *, #493, .T. );
#315 = ORIENTED_EDGE( '', *, *, #494, .T. );
#316 = ORIENTED_EDGE( '', *, *, #495, .F. );
#317 = CARTESIAN_POINT( '', ( -0.000207106781186500, 0.000650000000000000, 0.00123272331899200 ) );
#318 = DIRECTION( '', ( -1.00000000000000, 0.00000000000000, 0.00000000000000 ) );
#319 = DIRECTION( '', ( 0.00000000000000, 0.00000000000000, 1.00000000000000 ) );
#320 = SURFACE_STYLE_FILL_AREA( #496 );
#321 = ORIENTED_EDGE( '', *, *, #497, .F. );
#322 = ORIENTED_EDGE( '', *, *, #498, .T. );
#323 = ORIENTED_EDGE( '', *, *, #499, .T. );
#324 = ORIENTED_EDGE( '', *, *, #500, .F. );
#325 = CARTESIAN_POINT( '', ( 0.000207106781186500, 0.000650000000000000, -0.00123272331899200 ) );
#326 = DIRECTION( '', ( 1.00000000000000, 0.00000000000000, 0.00000000000000 ) );
#327 = DIRECTION( '', ( 0.00000000000000, 1.00000000000000, 0.00000000000000 ) );
#328 = SURFACE_STYLE_FILL_AREA( #501 );
#329 = ORIENTED_EDGE( '', *, *, #499, .F. );
#330 = ORIENTED_EDGE( '', *, *, #502, .T. );
#331 = ORIENTED_EDGE( '', *, *, #503, .T. );
#332 = ORIENTED_EDGE( '', *, *, #504, .F. );
#333 = CARTESIAN_POINT( '', ( 0.000707106781186500, 0.000650000000000000, -0.000707106781186500 ) );
#334 = DIRECTION( '', ( -0.00000000000000, 1.00000000000000, -0.00000000000000 ) );
#335 = DIRECTION( '', ( 1.00000000000000, 0.00000000000000, 0.00000000000000 ) );
#336 = SURFACE_STYLE_FILL_AREA( #505 );
#337 = ORIENTED_EDGE( '', *, *, #506, .F. );
#338 = ORIENTED_EDGE( '', *, *, #507, .T. );
#339 = ORIENTED_EDGE( '', *, *, #478, .T. );
#340 = ORIENTED_EDGE( '', *, *, #508, .F. );
#341 = CARTESIAN_POINT( '', ( -0.000707106781186500, 0.000650000000000000, 0.000207106781186500 ) );
#342 = DIRECTION( '', ( 0.00000000000000, 0.00000000000000, 1.00000000000000 ) );
#343 = DIRECTION( '', ( 1.00000000000000, 0.00000000000000, 0.00000000000000 ) );
#344 = SURFACE_STYLE_FILL_AREA( #509 );
#345 = ORIENTED_EDGE( '', *, *, #486, .F. );
#346 = ORIENTED_EDGE( '', *, *, #510, .T. );
#347 = ORIENTED_EDGE( '', *, *, #511, .T. );
#348 = ORIENTED_EDGE( '', *, *, #512, .F. );
#349 = CARTESIAN_POINT( '', ( 0.00123272331899200, 0.000650000000000000, 0.000207106781186500 ) );
#350 = DIRECTION( '', ( 0.00000000000000, 0.00000000000000, 1.00000000000000 ) );
#351 = DIRECTION( '', ( 1.00000000000000, 0.00000000000000, 0.00000000000000 ) );
#352 = SURFACE_STYLE_FILL_AREA( #513 );
#353 = ORIENTED_EDGE( '', *, *, #514, .F. );
#354 = ORIENTED_EDGE( '', *, *, #515, .T. );
#355 = ORIENTED_EDGE( '', *, *, #471, .T. );
#356 = ORIENTED_EDGE( '', *, *, #516, .F. );
#357 = CARTESIAN_POINT( '', ( 0.000207106781186500, 0.000650000000000000, 0.000707106781186500 ) );
#358 = DIRECTION( '', ( 1.00000000000000, 0.00000000000000, 0.00000000000000 ) );
#359 = DIRECTION( '', ( 0.00000000000000, 1.00000000000000, 0.00000000000000 ) );
#360 = SURFACE_STYLE_FILL_AREA( #517 );
#361 = ORIENTED_EDGE( '', *, *, #494, .F. );
#362 = ORIENTED_EDGE( '', *, *, #518, .T. );
#363 = ORIENTED_EDGE( '', *, *, #506, .T. );
#364 = ORIENTED_EDGE( '', *, *, #519, .F. );
#365 = CARTESIAN_POINT( '', ( -0.000707106781186500, 0.000650000000000000, 0.000707106781186500 ) );
#366 = DIRECTION( '', ( -0.00000000000000, 1.00000000000000, -0.00000000000000 ) );
#367 = DIRECTION( '', ( 1.00000000000000, 0.00000000000000, 0.00000000000000 ) );
#368 = SURFACE_STYLE_FILL_AREA( #520 );
#369 = ORIENTED_EDGE( '', *, *, #476, .T. );
#370 = ORIENTED_EDGE( '', *, *, #521, .F. );
#371 = CARTESIAN_POINT( '', ( 0.00000000000000, 0.00156500000000000, 0.00000000000000 ) );
#372 = DIRECTION( '', ( -0.00000000000000, 1.00000000000000, -0.00000000000000 ) );
#373 = DIRECTION( '', ( -1.00000000000000, 0.00000000000000, 0.00000000000000 ) );
#374 = SURFACE_STYLE_FILL_AREA( #522 );
#375 = ORIENTED_EDGE( '', *, *, #523, .F. );
#376 = ORIENTED_EDGE( '', *, *, #524, .T. );
#377 = ORIENTED_EDGE( '', *, *, #488, .T. );
#378 = ORIENTED_EDGE( '', *, *, #525, .F. );
#379 = CARTESIAN_POINT( '', ( -0.000707106781186500, 0.000650000000000000, -0.000707106781186500 ) );
#380 = DIRECTION( '', ( -0.00000000000000, 1.00000000000000, -0.00000000000000 ) );
#381 = DIRECTION( '', ( 1.00000000000000, 0.00000000000000, 0.00000000000000 ) );
#382 = SURFACE_STYLE_FILL_AREA( #526 );
#383 = ORIENTED_EDGE( '', *, *, #483, .T. );
#384 = ORIENTED_EDGE( '', *, *, #512, .T. );
#385 = ORIENTED_EDGE( '', *, *, #527, .T. );
#386 = ORIENTED_EDGE( '', *, *, #516, .T. );
#387 = ORIENTED_EDGE( '', *, *, #474, .T. );
#388 = ORIENTED_EDGE( '', *, *, #495, .T. );
#389 = ORIENTED_EDGE( '', *, *, #519, .T. );
#390 = ORIENTED_EDGE( '', *, *, #508, .T. );
#391 = ORIENTED_EDGE( '', *, *, #481, .T. );
#392 = ORIENTED_EDGE( '', *, *, #528, .T. );
#393 = ORIENTED_EDGE( '', *, *, #525, .T. );
#394 = ORIENTED_EDGE( '', *, *, #491, .T. );
#395 = ORIENTED_EDGE( '', *, *, #529, .T. );
#396 = ORIENTED_EDGE( '', *, *, #500, .T. );
#397 = ORIENTED_EDGE( '', *, *, #504, .T. );
#398 = ORIENTED_EDGE( '', *, *, #530, .T. );
#399 = ORIENTED_EDGE( '', *, *, #468, .F. );
#400 = CARTESIAN_POINT( '', ( 0.00000000000000, -0.00330000000000000, 0.00000000000000 ) );
#401 = DIRECTION( '', ( 0.00000000000000, -1.00000000000000, 0.00000000000000 ) );
#402 = DIRECTION( '', ( -1.00000000000000, 0.00000000000000, 0.00000000000000 ) );
#403 = SURFACE_STYLE_FILL_AREA( #531 );
#404 = ORIENTED_EDGE( '', *, *, #518, .F. );
#405 = ORIENTED_EDGE( '', *, *, #493, .F. );
#406 = ORIENTED_EDGE( '', *, *, #472, .F. );
#407 = ORIENTED_EDGE( '', *, *, #515, .F. );
#408 = ORIENTED_EDGE( '', *, *, #532, .F. );
#409 = ORIENTED_EDGE( '', *, *, #510, .F. );
#410 = ORIENTED_EDGE( '', *, *, #485, .F. );
#411 = ORIENTED_EDGE( '', *, *, #533, .F. );
#412 = ORIENTED_EDGE( '', *, *, #502, .F. );
#413 = ORIENTED_EDGE( '', *, *, #498, .F. );
#414 = ORIENTED_EDGE( '', *, *, #534, .F. );
#415 = ORIENTED_EDGE( '', *, *, #489, .F. );
#416 = ORIENTED_EDGE( '', *, *, #524, .F. );
#417 = ORIENTED_EDGE( '', *, *, #535, .F. );
#418 = ORIENTED_EDGE( '', *, *, #479, .F. );
#419 = ORIENTED_EDGE( '', *, *, #507, .F. );
#420 = CARTESIAN_POINT( '', ( 0.00000000000000, 0.000650000000000000, 0.00000000000000 ) );
#421 = DIRECTION( '', ( 0.00000000000000, -1.00000000000000, 0.00000000000000 ) );
#422 = DIRECTION( '', ( 0.00000000000000, 0.00000000000000, -1.00000000000000 ) );
#423 = SURFACE_STYLE_FILL_AREA( #536 );
#424 = ORIENTED_EDGE( '', *, *, #511, .F. );
#425 = ORIENTED_EDGE( '', *, *, #532, .T. );
#426 = ORIENTED_EDGE( '', *, *, #514, .T. );
#427 = ORIENTED_EDGE( '', *, *, #527, .F. );
#428 = CARTESIAN_POINT( '', ( 0.000707106781186500, 0.000650000000000000, 0.000707106781186500 ) );
#429 = DIRECTION( '', ( -0.00000000000000, 1.00000000000000, -0.00000000000000 ) );
#430 = DIRECTION( '', ( 1.00000000000000, 0.00000000000000, 0.00000000000000 ) );
#431 = SURFACE_STYLE_FILL_AREA( #537 );
#432 = ORIENTED_EDGE( '', *, *, #538, .F. );
#433 = CARTESIAN_POINT( '', ( 0.00000000000000, -0.00400000000000000, 0.00000000000000 ) );
#434 = DIRECTION( '', ( 0.00000000000000, -1.00000000000000, 0.00000000000000 ) );
#435 = DIRECTION( '', ( 0.00000000000000, 0.00000000000000, -1.00000000000000 ) );
#436 = SURFACE_STYLE_FILL_AREA( #539 );
#437 = ORIENTED_EDGE( '', *, *, #538, .T. );
#438 = ORIENTED_EDGE( '', *, *, #521, .T. );
#439 = CARTESIAN_POINT( '', ( 0.00000000000000, -0.00390000000000000, 0.00000000000000 ) );
#440 = DIRECTION( '', ( -0.00000000000000, 1.00000000000000, -0.00000000000000 ) );
#441 = DIRECTION( '', ( 1.00000000000000, 0.00000000000000, 0.00000000000000 ) );
#442 = SURFACE_STYLE_FILL_AREA( #540 );
#443 = ORIENTED_EDGE( '', *, *, #480, .F. );
#444 = ORIENTED_EDGE( '', *, *, #535, .T. );
#445 = ORIENTED_EDGE( '', *, *, #523, .T. );
#446 = ORIENTED_EDGE( '', *, *, #528, .F. );
#447 = CARTESIAN_POINT( '', ( -0.00123272331899200, 0.000650000000000000, -0.000207106781186500 ) );
#448 = DIRECTION( '', ( 0.00000000000000, 0.00000000000000, -1.00000000000000 ) );
#449 = DIRECTION( '', ( 0.00000000000000, -1.00000000000000, 0.00000000000000 ) );
#450 = SURFACE_STYLE_FILL_AREA( #541 );
#451 = ORIENTED_EDGE( '', *, *, #503, .F. );
#452 = ORIENTED_EDGE( '', *, *, #533, .T. );
#453 = ORIENTED_EDGE( '', *, *, #484, .T. );
#454 = ORIENTED_EDGE( '', *, *, #530, .F. );
#455 = CARTESIAN_POINT( '', ( 0.000707106781186500, 0.000650000000000000, -0.000207106781186500 ) );
#456 = DIRECTION( '', ( 0.00000000000000, 0.00000000000000, -1.00000000000000 ) );
#457 = DIRECTION( '', ( 0.00000000000000, -1.00000000000000, 0.00000000000000 ) );
#458 = SURFACE_STYLE_FILL_AREA( #542 );
#459 = ORIENTED_EDGE( '', *, *, #490, .F. );
#460 = ORIENTED_EDGE( '', *, *, #534, .T. );
#461 = ORIENTED_EDGE( '', *, *, #497, .T. );
#462 = ORIENTED_EDGE( '', *, *, #529, .F. );
#463 = CARTESIAN_POINT( '', ( 0.00000000000000, 0.000650000000000000, 0.00000000000000 ) );
#464 = DIRECTION( '', ( -0.00000000000000, 1.00000000000000, -0.00000000000000 ) );
#465 = DIRECTION( '', ( 1.00000000000000, 0.00000000000000, 0.00000000000000 ) );
#466 = FILL_AREA_STYLE( '', ( #543 ) );
#467 = CARTESIAN_POINT( '', ( -0.00174999999999990, 0.000488375075713300, 0.00000000000000 ) );
#468 = EDGE_CURVE( '', #544, #544, #545, .T. );
#469 = EDGE_CURVE( '', #546, #546, #547, .T. );
#470 = FILL_AREA_STYLE( '', ( #548 ) );
#471 = EDGE_CURVE( '', #549, #550, #551, .T. );
#472 = EDGE_CURVE( '', #549, #552, #553, .T. );
#473 = EDGE_CURVE( '', #552, #554, #555, .T. );
#474 = EDGE_CURVE( '', #550, #554, #556, .T. );
#475 = FILL_AREA_STYLE( '', ( #557 ) );
#476 = EDGE_CURVE( '', #558, #558, #559, .T. );
#477 = FILL_AREA_STYLE( '', ( #560 ) );
#478 = EDGE_CURVE( '', #561, #562, #563, .T. );
#479 = EDGE_CURVE( '', #561, #564, #565, .T. );
#480 = EDGE_CURVE( '', #564, #566, #567, .T. );
#481 = EDGE_CURVE( '', #562, #566, #568, .T. );
#482 = FILL_AREA_STYLE( '', ( #569 ) );
#483 = EDGE_CURVE( '', #570, #571, #572, .T. );
#484 = EDGE_CURVE( '', #573, #570, #574, .T. );
#485 = EDGE_CURVE( '', #573, #575, #576, .T. );
#486 = EDGE_CURVE( '', #575, #571, #577, .T. );
#487 = FILL_AREA_STYLE( '', ( #578 ) );
#488 = EDGE_CURVE( '', #579, #580, #581, .T. );
#489 = EDGE_CURVE( '', #579, #582, #583, .T. );
#490 = EDGE_CURVE( '', #582, #584, #585, .T. );
#491 = EDGE_CURVE( '', #580, #584, #586, .T. );
#492 = FILL_AREA_STYLE( '', ( #587 ) );
#493 = EDGE_CURVE( '', #552, #588, #589, .T. );
#494 = EDGE_CURVE( '', #588, #590, #591, .T. );
#495 = EDGE_CURVE( '', #554, #590, #592, .T. );
#496 = FILL_AREA_STYLE( '', ( #593 ) );
#497 = EDGE_CURVE( '', #594, #595, #596, .T. );
#498 = EDGE_CURVE( '', #594, #597, #598, .T. );
#499 = EDGE_CURVE( '', #597, #599, #600, .T. );
#500 = EDGE_CURVE( '', #595, #599, #601, .T. );
#501 = FILL_AREA_STYLE( '', ( #602 ) );
#502 = EDGE_CURVE( '', #597, #603, #604, .T. );
#503 = EDGE_CURVE( '', #603, #605, #606, .T. );
#504 = EDGE_CURVE( '', #599, #605, #607, .T. );
#505 = FILL_AREA_STYLE( '', ( #608 ) );
#506 = EDGE_CURVE( '', #609, #610, #611, .T. );
#507 = EDGE_CURVE( '', #609, #561, #612, .T. );
#508 = EDGE_CURVE( '', #610, #562, #613, .T. );
#509 = FILL_AREA_STYLE( '', ( #614 ) );
#510 = EDGE_CURVE( '', #575, #615, #616, .T. );
#511 = EDGE_CURVE( '', #615, #617, #618, .T. );
#512 = EDGE_CURVE( '', #571, #617, #619, .T. );
#513 = FILL_AREA_STYLE( '', ( #620 ) );
#514 = EDGE_CURVE( '', #621, #622, #623, .T. );
#515 = EDGE_CURVE( '', #621, #549, #624, .T. );
#516 = EDGE_CURVE( '', #622, #550, #625, .T. );
#517 = FILL_AREA_STYLE( '', ( #626 ) );
#518 = EDGE_CURVE( '', #588, #609, #627, .T. );
#519 = EDGE_CURVE( '', #590, #610, #628, .T. );
#520 = FILL_AREA_STYLE( '', ( #629 ) );
#521 = EDGE_CURVE( '', #630, #630, #631, .T. );
#522 = FILL_AREA_STYLE( '', ( #632 ) );
#523 = EDGE_CURVE( '', #633, #634, #635, .T. );
#524 = EDGE_CURVE( '', #633, #579, #636, .T. );
#525 = EDGE_CURVE( '', #634, #580, #637, .T. );
#526 = FILL_AREA_STYLE( '', ( #638 ) );
#527 = EDGE_CURVE( '', #617, #622, #639, .T. );
#528 = EDGE_CURVE( '', #566, #634, #640, .T. );
#529 = EDGE_CURVE( '', #584, #595, #641, .T. );
#530 = EDGE_CURVE( '', #605, #570, #642, .T. );
#531 = FILL_AREA_STYLE( '', ( #643 ) );
#532 = EDGE_CURVE( '', #615, #621, #644, .T. );
#533 = EDGE_CURVE( '', #603, #573, #645, .T. );
#534 = EDGE_CURVE( '', #582, #594, #646, .T. );
#535 = EDGE_CURVE( '', #564, #633, #647, .T. );
#536 = FILL_AREA_STYLE( '', ( #648 ) );
#537 = FILL_AREA_STYLE( '', ( #649 ) );
#538 = EDGE_CURVE( '', #650, #650, #651, .T. );
#539 = FILL_AREA_STYLE( '', ( #652 ) );
#540 = FILL_AREA_STYLE( '', ( #653 ) );
#541 = FILL_AREA_STYLE( '', ( #654 ) );
#542 = FILL_AREA_STYLE( '', ( #655 ) );
#543 = FILL_AREA_STYLE_COLOUR( '', #656 );
#544 = VERTEX_POINT( '', #657 );
#545 = CIRCLE( '', #658, 0.00127500000000000 );
#546 = VERTEX_POINT( '', #659 );
#547 = CIRCLE( '', #660, 0.00153254630000000 );
#548 = FILL_AREA_STYLE_COLOUR( '', #661 );
#549 = VERTEX_POINT( '', #662 );
#550 = VERTEX_POINT( '', #663 );
#551 = LINE( '', #664, #665 );
#552 = VERTEX_POINT( '', #666 );
#553 = CIRCLE( '', #667, 0.00125000000000000 );
#554 = VERTEX_POINT( '', #668 );
#555 = LINE( '', #669, #670 );
#556 = CIRCLE( '', #671, 0.00125000000000000 );
#557 = FILL_AREA_STYLE_COLOUR( '', #672 );
#558 = VERTEX_POINT( '', #673 );
#559 = CIRCLE( '', #674, 0.00100000000000000 );
#560 = FILL_AREA_STYLE_COLOUR( '', #675 );
#561 = VERTEX_POINT( '', #676 );
#562 = VERTEX_POINT( '', #677 );
#563 = LINE( '', #678, #679 );
#564 = VERTEX_POINT( '', #680 );
#565 = CIRCLE( '', #681, 0.00125000000000000 );
#566 = VERTEX_POINT( '', #682 );
#567 = LINE( '', #683, #684 );
#568 = CIRCLE( '', #685, 0.00125000000000000 );
#569 = FILL_AREA_STYLE_COLOUR( '', #686 );
#570 = VERTEX_POINT( '', #687 );
#571 = VERTEX_POINT( '', #688 );
#572 = CIRCLE( '', #689, 0.00125000000000000 );
#573 = VERTEX_POINT( '', #690 );
#574 = LINE( '', #691, #692 );
#575 = VERTEX_POINT( '', #693 );
#576 = CIRCLE( '', #694, 0.00125000000000000 );
#577 = LINE( '', #695, #696 );
#578 = FILL_AREA_STYLE_COLOUR( '', #697 );
#579 = VERTEX_POINT( '', #698 );
#580 = VERTEX_POINT( '', #699 );
#581 = LINE( '', #700, #701 );
#582 = VERTEX_POINT( '', #702 );
#583 = LINE( '', #703, #704 );
#584 = VERTEX_POINT( '', #705 );
#585 = LINE( '', #706, #707 );
#586 = CIRCLE( '', #708, 0.00459533530000000 );
#587 = FILL_AREA_STYLE_COLOUR( '', #709 );
#588 = VERTEX_POINT( '', #710 );
#589 = LINE( '', #711, #712 );
#590 = VERTEX_POINT( '', #713 );
#591 = LINE( '', #714, #715 );
#592 = CIRCLE( '', #716, 0.00459533530000000 );
#593 = FILL_AREA_STYLE_COLOUR( '', #717 );
#594 = VERTEX_POINT( '', #718 );
#595 = VERTEX_POINT( '', #719 );
#596 = LINE( '', #720, #721 );
#597 = VERTEX_POINT( '', #722 );
#598 = LINE( '', #723, #724 );
#599 = VERTEX_POINT( '', #725 );
#600 = LINE( '', #726, #727 );
#601 = CIRCLE( '', #728, 0.00459533530000000 );
#602 = FILL_AREA_STYLE_COLOUR( '', #729 );
#603 = VERTEX_POINT( '', #730 );
#604 = CIRCLE( '', #731, 0.000500000000000000 );
#605 = VERTEX_POINT( '', #732 );
#606 = LINE( '', #733, #734 );
#607 = B_SPLINE_CURVE_WITH_KNOTS( '', 3, ( #735, #736, #737, #738, #739, #740, #741, #742, #743, #744, #745, #746, #747 ), .UNSPECIFIED., .F., .F., ( 4, 1, 1, 1, 1, 1, 1, 1, 1, 1, 4 ), ( 0.00000000000000, 0.0743366639359342, 0.143818152300746, 0.209501791356901, 0.272530013022538, 0.382313042286391, 0.491899471146078, 0.601341107132336, 0.712470563180734, 0.847948869498836, 1.00000000000000 ), .UNSPECIFIED. );
#608 = FILL_AREA_STYLE_COLOUR( '', #748 );
#609 = VERTEX_POINT( '', #749 );
#610 = VERTEX_POINT( '', #750 );
#611 = LINE( '', #751, #752 );
#612 = LINE( '', #753, #754 );
#613 = CIRCLE( '', #755, 0.00459533530000000 );
#614 = FILL_AREA_STYLE_COLOUR( '', #756 );
#615 = VERTEX_POINT( '', #757 );
#616 = LINE( '', #758, #759 );
#617 = VERTEX_POINT( '', #760 );
#618 = LINE( '', #761, #762 );
#619 = CIRCLE( '', #763, 0.00459533530000000 );
#620 = FILL_AREA_STYLE_COLOUR( '', #764 );
#621 = VERTEX_POINT( '', #765 );
#622 = VERTEX_POINT( '', #766 );
#623 = LINE( '', #767, #768 );
#624 = LINE( '', #769, #770 );
#625 = CIRCLE( '', #771, 0.00459533530000000 );
#626 = FILL_AREA_STYLE_COLOUR( '', #772 );
#627 = CIRCLE( '', #773, 0.000500000000000000 );
#628 = B_SPLINE_CURVE_WITH_KNOTS( '', 3, ( #774, #775, #776, #777, #778, #779, #780, #781, #782, #783, #784, #785, #786 ), .UNSPECIFIED., .F., .F., ( 4, 1, 1, 1, 1, 1, 1, 1, 1, 1, 4 ), ( 0.00000000000000, 0.0743366639359345, 0.143818152300746, 0.209501791356903, 0.272530013022541, 0.382313042286388, 0.491899471146077, 0.601341107132333, 0.712470563180731, 0.847948869498835, 1.00000000000000 ), .UNSPECIFIED. );
#629 = FILL_AREA_STYLE_COLOUR( '', #787 );
#630 = VERTEX_POINT( '', #788 );
#631 = CIRCLE( '', #789, 0.00100000000000000 );
#632 = FILL_AREA_STYLE_COLOUR( '', #790 );
#633 = VERTEX_POINT( '', #791 );
#634 = VERTEX_POINT( '', #792 );
#635 = LINE( '', #793, #794 );
#636 = CIRCLE( '', #795, 0.000500000000000000 );
#637 = B_SPLINE_CURVE_WITH_KNOTS( '', 3, ( #796, #797, #798, #799, #800, #801, #802, #803, #804, #805, #806, #807, #808 ), .UNSPECIFIED., .F., .F., ( 4, 1, 1, 1, 1, 1, 1, 1, 1, 1, 4 ), ( 0.00000000000000, 0.0786060039227661, 0.151787453695522, 0.220809465647081, 0.287066535088664, 0.398138052362654, 0.507629207469285, 0.617417540691209, 0.727020073491850, 0.855926071983431, 1.00000000000000 ), .UNSPECIFIED. );
#638 = FILL_AREA_STYLE_COLOUR( '', #809 );
#639 = B_SPLINE_CURVE_WITH_KNOTS( '', 3, ( #810, #811, #812, #813, #814, #815, #816, #817, #818, #819, #820, #821, #822 ), .UNSPECIFIED., .F., .F., ( 4, 1, 1, 1, 1, 1, 1, 1, 1, 1, 4 ), ( 0.00000000000000, 0.0786060039226884, 0.151787453695421, 0.220809465647010, 0.287066535088661, 0.398138052362655, 0.507629207469290, 0.617417540691214, 0.727020073491859, 0.855926071983658, 1.00000000000000 ), .UNSPECIFIED. );
#640 = CIRCLE( '', #823, 0.00459533530000000 );
#641 = CIRCLE( '', #824, 0.00125000000000000 );
#642 = CIRCLE( '', #825, 0.00459533530000000 );
#643 = FILL_AREA_STYLE_COLOUR( '', #826 );
#644 = CIRCLE( '', #827, 0.000500000000000000 );
#645 = LINE( '', #828, #829 );
#646 = CIRCLE( '', #830, 0.00125000000000000 );
#647 = LINE( '', #831, #832 );
#648 = FILL_AREA_STYLE_COLOUR( '', #833 );
#649 = FILL_AREA_STYLE_COLOUR( '', #834 );
#650 = VERTEX_POINT( '', #835 );
#651 = CIRCLE( '', #836, 0.000800000000000000 );
#652 = FILL_AREA_STYLE_COLOUR( '', #837 );
#653 = FILL_AREA_STYLE_COLOUR( '', #838 );
#654 = FILL_AREA_STYLE_COLOUR( '', #839 );
#655 = FILL_AREA_STYLE_COLOUR( '', #840 );
#656 = COLOUR_RGB( '', 0.376470595600000, 0.415686279500000, 0.450980395100000 );
#657 = CARTESIAN_POINT( '', ( 0.00127500000001000, 0.00111977092167600, 0.00000000000000 ) );
#658 = AXIS2_PLACEMENT_3D( '', #841, #842, #843 );
#659 = CARTESIAN_POINT( '', ( 0.00153254626044400, 0.00000000000000, 0.00000000000000 ) );
#660 = AXIS2_PLACEMENT_3D( '', #844, #845, #846 );
#661 = COLOUR_RGB( '', 0.376470595600000, 0.415686279500000, 0.450980395100000 );
#662 = CARTESIAN_POINT( '', ( 0.000207106781186500, 0.000650000000000000, 0.00123272331899200 ) );
#663 = CARTESIAN_POINT( '', ( 0.000207106781186500, 0.00112690636901200, 0.00123272331899200 ) );
#664 = CARTESIAN_POINT( '', ( 0.000207106781196500, 0.000650000000010000, 0.00123272331900200 ) );
#665 = VECTOR( '', #847, 1.00000000000000 );
#666 = CARTESIAN_POINT( '', ( -0.000207106781186500, 0.000650000000000000, 0.00123272331899200 ) );
#667 = AXIS2_PLACEMENT_3D( '', #848, #849, #850 );
#668 = CARTESIAN_POINT( '', ( -0.000207106781186500, 0.00112690636901200, 0.00123272331899200 ) );
#669 = CARTESIAN_POINT( '', ( -0.000207106781196500, 0.000650000000010000, 0.00123272331900200 ) );
#670 = VECTOR( '', #851, 1.00000000000000 );
#671 = AXIS2_PLACEMENT_3D( '', #852, #853, #854 );
#672 = COLOUR_RGB( '', 0.376470595600000, 0.415686279500000, 0.450980395100000 );
#673 = CARTESIAN_POINT( '', ( 0.00100000000001000, 0.00000000000000, 0.00000000000000 ) );
#674 = AXIS2_PLACEMENT_3D( '', #855, #856, #857 );
#675 = COLOUR_RGB( '', 0.376470595600000, 0.415686279500000, 0.450980395100000 );
#676 = CARTESIAN_POINT( '', ( -0.00123272331899200, 0.000650000000000000, 0.000207106781186500 ) );
#677 = CARTESIAN_POINT( '', ( -0.00123272331899200, 0.00112690636901200, 0.000207106781186500 ) );
#678 = CARTESIAN_POINT( '', ( -0.00123272331900200, 0.000650000000010000, 0.000207106781196500 ) );
#679 = VECTOR( '', #858, 1.00000000000000 );
#680 = CARTESIAN_POINT( '', ( -0.00123272331899200, 0.000650000000000000, -0.000207106781186500 ) );
#681 = AXIS2_PLACEMENT_3D( '', #859, #860, #861 );
#682 = CARTESIAN_POINT( '', ( -0.00123272331899200, 0.00112690636901200, -0.000207106781186500 ) );
#683 = CARTESIAN_POINT( '', ( -0.00123272331900200, 0.000650000000010000, -0.000207106781196500 ) );
#684 = VECTOR( '', #862, 1.00000000000000 );
#685 = AXIS2_PLACEMENT_3D( '', #863, #864, #865 );
#686 = COLOUR_RGB( '', 0.376470595600000, 0.415686279500000, 0.450980395100000 );
#687 = CARTESIAN_POINT( '', ( 0.00123272331899200, 0.00112690636901200, -0.000207106781186500 ) );
#688 = CARTESIAN_POINT( '', ( 0.00123272331899200, 0.00112690636901200, 0.000207106781186500 ) );
#689 = AXIS2_PLACEMENT_3D( '', #866, #867, #868 );
#690 = CARTESIAN_POINT( '', ( 0.00123272331899200, 0.000650000000000000, -0.000207106781186500 ) );
#691 = CARTESIAN_POINT( '', ( 0.00123272331900200, 0.000650000000010000, -0.000207106781196500 ) );
#692 = VECTOR( '', #869, 1.00000000000000 );
#693 = CARTESIAN_POINT( '', ( 0.00123272331899200, 0.000650000000000000, 0.000207106781186500 ) );
#694 = AXIS2_PLACEMENT_3D( '', #870, #871, #872 );
#695 = CARTESIAN_POINT( '', ( 0.00123272331900200, 0.000650000000010000, 0.000207106781196500 ) );
#696 = VECTOR( '', #873, 1.00000000000000 );
#697 = COLOUR_RGB( '', 0.376470595600000, 0.415686279500000, 0.450980395100000 );
#698 = CARTESIAN_POINT( '', ( -0.000207106781186500, 0.000650000000000000, -0.000707106781186500 ) );
#699 = CARTESIAN_POINT( '', ( -0.000207106781186500, 0.00124060643319700, -0.000707106781186500 ) );
#700 = CARTESIAN_POINT( '', ( -0.000207106781196500, 0.000650000000010000, -0.000707106781196500 ) );
#701 = VECTOR( '', #874, 1.00000000000000 );
#702 = CARTESIAN_POINT( '', ( -0.000207106781186500, 0.000650000000000000, -0.00123272331899200 ) );
#703 = CARTESIAN_POINT( '', ( -0.000207106781196500, 0.000650000000010000, -0.000707106781196500 ) );
#704 = VECTOR( '', #875, 1.00000000000000 );
#705 = CARTESIAN_POINT( '', ( -0.000207106781186500, 0.00112690636901200, -0.00123272331899200 ) );
#706 = CARTESIAN_POINT( '', ( -0.000207106781196500, 0.000650000000010000, -0.00123272331900200 ) );
#707 = VECTOR( '', #876, 1.00000000000000 );
#708 = AXIS2_PLACEMENT_3D( '', #877, #878, #879 );
#709 = COLOUR_RGB( '', 0.376470595600000, 0.415686279500000, 0.450980395100000 );
#710 = CARTESIAN_POINT( '', ( -0.000207106781186500, 0.000650000000000000, 0.000707106781186500 ) );
#711 = CARTESIAN_POINT( '', ( -0.000207106781196500, 0.000650000000010000, 0.00123272331900200 ) );
#712 = VECTOR( '', #880, 1.00000000000000 );
#713 = CARTESIAN_POINT( '', ( -0.000207106781186500, 0.00124060643319700, 0.000707106781186500 ) );
#714 = CARTESIAN_POINT( '', ( -0.000207106781196500, 0.000650000000010000, 0.000707106781196500 ) );
#715 = VECTOR( '', #881, 1.00000000000000 );
#716 = AXIS2_PLACEMENT_3D( '', #882, #883, #884 );
#717 = COLOUR_RGB( '', 0.376470595600000, 0.415686279500000, 0.450980395100000 );
#718 = CARTESIAN_POINT( '', ( 0.000207106781186500, 0.000650000000000000, -0.00123272331899200 ) );
#719 = CARTESIAN_POINT( '', ( 0.000207106781186500, 0.00112690636901200, -0.00123272331899200 ) );
#720 = CARTESIAN_POINT( '', ( 0.000207106781196500, 0.000650000000010000, -0.00123272331900200 ) );
#721 = VECTOR( '', #885, 1.00000000000000 );
#722 = CARTESIAN_POINT( '', ( 0.000207106781186500, 0.000650000000000000, -0.000707106781186500 ) );
#723 = CARTESIAN_POINT( '', ( 0.000207106781196500, 0.000650000000010000, -0.00123272331900200 ) );
#724 = VECTOR( '', #886, 1.00000000000000 );
#725 = CARTESIAN_POINT( '', ( 0.000207106781186500, 0.00124060643319700, -0.000707106781186500 ) );
#726 = CARTESIAN_POINT( '', ( 0.000207106781196500, 0.000650000000010000, -0.000707106781196500 ) );
#727 = VECTOR( '', #887, 1.00000000000000 );
#728 = AXIS2_PLACEMENT_3D( '', #888, #889, #890 );
#729 = COLOUR_RGB( '', 0.376470595600000, 0.415686279500000, 0.450980395100000 );
#730 = CARTESIAN_POINT( '', ( 0.000707106781186500, 0.000650000000000000, -0.000207106781186500 ) );
#731 = AXIS2_PLACEMENT_3D( '', #891, #892, #893 );
#732 = CARTESIAN_POINT( '', ( 0.000707106781186500, 0.00124060643319700, -0.000207106781186500 ) );
#733 = CARTESIAN_POINT( '', ( 0.000707106781196500, 0.000650000000010000, -0.000207106781196500 ) );
#734 = VECTOR( '', #894, 1.00000000000000 );
#735 = CARTESIAN_POINT( '', ( 0.000207106781195949, 0.00124060643319494, -0.000707106781194620 ) );
#736 = CARTESIAN_POINT( '', ( 0.000207746329334783, 0.00124351269115956, -0.000687791836740688 ) );
#737 = CARTESIAN_POINT( '', ( 0.000208983654589433, 0.00124913538968341, -0.000650423471305965 ) );
#738 = CARTESIAN_POINT( '', ( 0.000218570237492688, 0.00125601548436207, -0.000596514801434141 ) );
#739 = CARTESIAN_POINT( '', ( 0.000232630565086959, 0.00126157287555061, -0.000546635685033233 ) );
#740 = CARTESIAN_POINT( '', ( 0.000255663047915877, 0.00126700586834555, -0.000488543691513718 ) );
#741 = CARTESIAN_POINT( '', ( 0.000292169434048205, 0.00127139550188500, -0.000423668551043387 ) );
#742 = CARTESIAN_POINT( '', ( 0.000347117714857652, 0.00127327901786022, -0.000356535358867997 ) );
#743 = CARTESIAN_POINT( '', ( 0.000413076916616483, 0.00127189716426823, -0.000299507983806829 ) );
#744 = CARTESIAN_POINT( '', ( 0.000493659467967543, 0.00126682759771110, -0.000251709495150878 ) );
#745 = CARTESIAN_POINT( '', ( 0.000592558950368285, 0.00125721326512249, -0.000214818022909259 ) );
#746 = CARTESIAN_POINT( '', ( 0.000667484631198839, 0.00124635074437780, -0.000209774103428194 ) );
#747 = CARTESIAN_POINT( '', ( 0.000707106781194620, 0.00124060643319494, -0.000207106781195949 ) );
#748 = COLOUR_RGB( '', 0.376470595600000, 0.415686279500000, 0.450980395100000 );
#749 = CARTESIAN_POINT( '', ( -0.000707106781186500, 0.000650000000000000, 0.000207106781186500 ) );
#750 = CARTESIAN_POINT( '', ( -0.000707106781186500, 0.00124060643319700, 0.000207106781186500 ) );
#751 = CARTESIAN_POINT( '', ( -0.000707106781196500, 0.000650000000010000, 0.000207106781196500 ) );
#752 = VECTOR( '', #895, 1.00000000000000 );
#753 = CARTESIAN_POINT( '', ( -0.000707106781196500, 0.000650000000010000, 0.000207106781196500 ) );
#754 = VECTOR( '', #896, 1.00000000000000 );
#755 = AXIS2_PLACEMENT_3D( '', #897, #898, #899 );
#756 = COLOUR_RGB( '', 0.376470595600000, 0.415686279500000, 0.450980395100000 );
#757 = CARTESIAN_POINT( '', ( 0.000707106781186500, 0.000650000000000000, 0.000207106781186500 ) );
#758 = CARTESIAN_POINT( '', ( 0.00123272331900200, 0.000650000000010000, 0.000207106781196500 ) );
#759 = VECTOR( '', #900, 1.00000000000000 );
#760 = CARTESIAN_POINT( '', ( 0.000707106781186500, 0.00124060643319700, 0.000207106781186500 ) );
#761 = CARTESIAN_POINT( '', ( 0.000707106781196500, 0.000650000000010000, 0.000207106781196500 ) );
#762 = VECTOR( '', #901, 1.00000000000000 );
#763 = AXIS2_PLACEMENT_3D( '', #902, #903, #904 );
#764 = COLOUR_RGB( '', 0.376470595600000, 0.415686279500000, 0.450980395100000 );
#765 = CARTESIAN_POINT( '', ( 0.000207106781186500, 0.000650000000000000, 0.000707106781186500 ) );
#766 = CARTESIAN_POINT( '', ( 0.000207106781186500, 0.00124060643319700, 0.000707106781186500 ) );
#767 = CARTESIAN_POINT( '', ( 0.000207106781196500, 0.000650000000010000, 0.000707106781196500 ) );
#768 = VECTOR( '', #905, 1.00000000000000 );
#769 = CARTESIAN_POINT( '', ( 0.000207106781196500, 0.000650000000010000, 0.000707106781196500 ) );
#770 = VECTOR( '', #906, 1.00000000000000 );
#771 = AXIS2_PLACEMENT_3D( '', #907, #908, #909 );
#772 = COLOUR_RGB( '', 0.376470595600000, 0.415686279500000, 0.450980395100000 );
#773 = AXIS2_PLACEMENT_3D( '', #910, #911, #912 );
#774 = CARTESIAN_POINT( '', ( -0.000207106781195951, 0.00124060643319494, 0.000707106781194620 ) );
#775 = CARTESIAN_POINT( '', ( -0.000207746329334784, 0.00124351269115956, 0.000687791836740687 ) );
#776 = CARTESIAN_POINT( '', ( -0.000208983654589435, 0.00124913538968341, 0.000650423471305964 ) );
#777 = CARTESIAN_POINT( '', ( -0.000218570237492690, 0.00125601548436207, 0.000596514801434140 ) );
#778 = CARTESIAN_POINT( '', ( -0.000232630565086962, 0.00126157287555061, 0.000546635685033231 ) );
#779 = CARTESIAN_POINT( '', ( -0.000255663047915880, 0.00126700586834555, 0.000488543691513718 ) );
#780 = CARTESIAN_POINT( '', ( -0.000292169434048204, 0.00127139550188500, 0.000423668551043386 ) );
#781 = CARTESIAN_POINT( '', ( -0.000347117714857652, 0.00127327901786022, 0.000356535358867998 ) );
#782 = CARTESIAN_POINT( '', ( -0.000413076916616482, 0.00127189716426822, 0.000299507983806829 ) );
#783 = CARTESIAN_POINT( '', ( -0.000493659467967542, 0.00126682759771110, 0.000251709495150880 ) );
#784 = CARTESIAN_POINT( '', ( -0.000592558950368284, 0.00125721326512249, 0.000214818022909259 ) );
#785 = CARTESIAN_POINT( '', ( -0.000667484631198840, 0.00124635074437780, 0.000209774103428193 ) );
#786 = CARTESIAN_POINT( '', ( -0.000707106781194621, 0.00124060643319494, 0.000207106781195948 ) );
#787 = COLOUR_RGB( '', 0.376470595600000, 0.415686279500000, 0.450980395100000 );
#788 = CARTESIAN_POINT( '', ( -0.00100000000001000, -0.00380000000001000, 0.00000000000000 ) );
#789 = AXIS2_PLACEMENT_3D( '', #913, #914, #915 );
#790 = COLOUR_RGB( '', 0.376470595600000, 0.415686279500000, 0.450980395100000 );
#791 = CARTESIAN_POINT( '', ( -0.000707106781186500, 0.000650000000000000, -0.000207106781186500 ) );
#792 = CARTESIAN_POINT( '', ( -0.000707106781186500, 0.00124060643319700, -0.000207106781186500 ) );
#793 = CARTESIAN_POINT( '', ( -0.000707106781196500, 0.000650000000010000, -0.000207106781196500 ) );
#794 = VECTOR( '', #916, 1.00000000000000 );
#795 = AXIS2_PLACEMENT_3D( '', #917, #918, #919 );
#796 = CARTESIAN_POINT( '', ( -0.000707106781194620, 0.00124060643319494, -0.000207106781195949 ) );
#797 = CARTESIAN_POINT( '', ( -0.000686678756902850, 0.00124367411411508, -0.000207819610905818 ) );
#798 = CARTESIAN_POINT( '', ( -0.000647232434274307, 0.00124959777709732, -0.000209196078366060 ) );
#799 = CARTESIAN_POINT( '', ( -0.000590477708577466, 0.00125675059423614, -0.000219851423444373 ) );
#800 = CARTESIAN_POINT( '', ( -0.000538215348786682, 0.00126244006087796, -0.000235438911948494 ) );
#801 = CARTESIAN_POINT( '', ( -0.000478685436141457, 0.00126778528376546, -0.000260496438696659 ) );
#802 = CARTESIAN_POINT( '', ( -0.000413656491919347, 0.00127186506164313, -0.000299133875080630 ) );
#803 = CARTESIAN_POINT( '', ( -0.000347604226952034, 0.00127328220315478, -0.000356028655214393 ) );
#804 = CARTESIAN_POINT( '', ( -0.000292480629648626, 0.00127142835730986, -0.000423145364188173 ) );
#805 = CARTESIAN_POINT( '', ( -0.000247627769525887, 0.00126600404914511, -0.000503050916226781 ) );
#806 = CARTESIAN_POINT( '', ( -0.000214070247511835, 0.00125641672087505, -0.000598466370170777 ) );
#807 = CARTESIAN_POINT( '', ( -0.000209512355281541, 0.00124606819844284, -0.000669576254650567 ) );
#808 = CARTESIAN_POINT( '', ( -0.000207106781195950, 0.00124060643319494, -0.000707106781194620 ) );
#809 = COLOUR_RGB( '', 0.376470595600000, 0.415686279500000, 0.450980395100000 );
#810 = CARTESIAN_POINT( '', ( 0.000707106781194621, 0.00124060643319494, 0.000207106781195948 ) );
#811 = CARTESIAN_POINT( '', ( 0.000686678756902871, 0.00124367411411508, 0.000207819610905818 ) );
#812 = CARTESIAN_POINT( '', ( 0.000647232434274355, 0.00124959777709731, 0.000209196078366064 ) );
#813 = CARTESIAN_POINT( '', ( 0.000590477708577537, 0.00125675059423613, 0.000219851423444387 ) );
#814 = CARTESIAN_POINT( '', ( 0.000538215348786739, 0.00126244006087795, 0.000235438911948518 ) );
#815 = CARTESIAN_POINT( '', ( 0.000478685436141464, 0.00126778528376546, 0.000260496438696631 ) );
#816 = CARTESIAN_POINT( '', ( 0.000413656491919350, 0.00127186506164313, 0.000299133875080637 ) );
#817 = CARTESIAN_POINT( '', ( 0.000347604226952032, 0.00127328220315478, 0.000356028655214391 ) );
#818 = CARTESIAN_POINT( '', ( 0.000292480629648631, 0.00127142835730986, 0.000423145364188175 ) );
#819 = CARTESIAN_POINT( '', ( 0.000247627769525840, 0.00126600404914511, 0.000503050916226824 ) );
#820 = CARTESIAN_POINT( '', ( 0.000214070247511916, 0.00125641672087504, 0.000598466370170858 ) );
#821 = CARTESIAN_POINT( '', ( 0.000209512355281567, 0.00124606819844283, 0.000669576254650633 ) );
#822 = CARTESIAN_POINT( '', ( 0.000207106781195951, 0.00124060643319494, 0.000707106781194620 ) );
#823 = AXIS2_PLACEMENT_3D( '', #920, #921, #922 );
#824 = AXIS2_PLACEMENT_3D( '', #923, #924, #925 );
#825 = AXIS2_PLACEMENT_3D( '', #926, #927, #928 );
#826 = COLOUR_RGB( '', 0.376470595600000, 0.415686279500000, 0.450980395100000 );
#827 = AXIS2_PLACEMENT_3D( '', #929, #930, #931 );
#828 = CARTESIAN_POINT( '', ( 0.000707106781196500, 0.000650000000010000, -0.000207106781196500 ) );
#829 = VECTOR( '', #932, 1.00000000000000 );
#830 = AXIS2_PLACEMENT_3D( '', #933, #934, #935 );
#831 = CARTESIAN_POINT( '', ( -0.00123272331900200, 0.000650000000010000, -0.000207106781196500 ) );
#832 = VECTOR( '', #936, 1.00000000000000 );
#833 = COLOUR_RGB( '', 0.376470595600000, 0.415686279500000, 0.450980395100000 );
#834 = COLOUR_RGB( '', 0.376470595600000, 0.415686279500000, 0.450980395100000 );
#835 = CARTESIAN_POINT( '', ( -0.000800000000010000, -0.00400000000001000, 0.00000000000000 ) );
#836 = AXIS2_PLACEMENT_3D( '', #937, #938, #939 );
#837 = COLOUR_RGB( '', 0.376470595600000, 0.415686279500000, 0.450980395100000 );
#838 = COLOUR_RGB( '', 0.376470595600000, 0.415686279500000, 0.450980395100000 );
#839 = COLOUR_RGB( '', 0.376470595600000, 0.415686279500000, 0.450980395100000 );
#840 = COLOUR_RGB( '', 0.376470595600000, 0.415686279500000, 0.450980395100000 );
#841 = CARTESIAN_POINT( '', ( 0.00000000000000, 0.00111977092167600, 0.00000000000000 ) );
#842 = DIRECTION( '', ( 0.00000000000000, -1.00000000000000, 0.00000000000000 ) );
#843 = DIRECTION( '', ( 1.00000000000000, 0.00000000000000, 0.00000000000000 ) );
#844 = CARTESIAN_POINT( '', ( 0.00000000000000, 0.00000000000000, 0.00000000000000 ) );
#845 = DIRECTION( '', ( -0.00000000000000, 1.00000000000000, 0.00000000000000 ) );
#846 = DIRECTION( '', ( 1.00000000000000, 0.00000000000000, 0.00000000000000 ) );
#847 = DIRECTION( '', ( 0.00000000000000, 1.00000000000000, 0.00000000000000 ) );
#848 = CARTESIAN_POINT( '', ( 0.00000000000000, 0.000650000000010000, 0.00000000000000 ) );
#849 = DIRECTION( '', ( 0.00000000000000, -1.00000000000000, 0.00000000000000 ) );
#850 = DIRECTION( '', ( 0.165685424955668, 0.00000000000000, 0.986178655192486 ) );
#851 = DIRECTION( '', ( 0.00000000000000, 1.00000000000000, 0.00000000000000 ) );
#852 = CARTESIAN_POINT( '', ( 0.00000000000000, 0.00112690636902200, 0.00000000000000 ) );
#853 = DIRECTION( '', ( 0.00000000000000, -1.00000000000000, 0.00000000000000 ) );
#854 = DIRECTION( '', ( 0.165685424955668, 0.00000000000000, 0.986178655192486 ) );
#855 = CARTESIAN_POINT( '', ( 0.00000000000000, 0.00000000000000, 0.00000000000000 ) );
#856 = DIRECTION( '', ( 0.00000000000000, -1.00000000000000, 0.00000000000000 ) );
#857 = DIRECTION( '', ( 1.00000000000000, 0.00000000000000, 0.00000000000000 ) );
#858 = DIRECTION( '', ( 0.00000000000000, 1.00000000000000, 0.00000000000000 ) );
#859 = CARTESIAN_POINT( '', ( 0.00000000000000, 0.000650000000010000, 0.00000000000000 ) );
#860 = DIRECTION( '', ( 0.00000000000000, -1.00000000000000, 0.00000000000000 ) );
#861 = DIRECTION( '', ( -0.986178655192486, 0.00000000000000, 0.165685424955668 ) );
#862 = DIRECTION( '', ( 0.00000000000000, 1.00000000000000, 0.00000000000000 ) );
#863 = CARTESIAN_POINT( '', ( 0.00000000000000, 0.00112690636902200, 0.00000000000000 ) );
#864 = DIRECTION( '', ( 0.00000000000000, -1.00000000000000, 0.00000000000000 ) );
#865 = DIRECTION( '', ( -1.00000000000000, 0.00000000000000, 0.00000000000000 ) );
#866 = CARTESIAN_POINT( '', ( 0.00000000000000, 0.00112690636902200, 0.00000000000000 ) );
#867 = DIRECTION( '', ( 0.00000000000000, -1.00000000000000, 0.00000000000000 ) );
#868 = DIRECTION( '', ( 0.986178655192486, 0.00000000000000, -0.165685424955668 ) );
#869 = DIRECTION( '', ( 0.00000000000000, 1.00000000000000, 0.00000000000000 ) );
#870 = CARTESIAN_POINT( '', ( 0.00000000000000, 0.000650000000010000, 0.00000000000000 ) );
#871 = DIRECTION( '', ( 0.00000000000000, -1.00000000000000, 0.00000000000000 ) );
#872 = DIRECTION( '', ( 0.986178655192486, 0.00000000000000, -0.165685424955668 ) );
#873 = DIRECTION( '', ( 0.00000000000000, 1.00000000000000, 0.00000000000000 ) );
#874 = DIRECTION( '', ( 0.00000000000000, 1.00000000000000, 0.00000000000000 ) );
#875 = DIRECTION( '', ( 0.00000000000000, 0.00000000000000, -1.00000000000000 ) );
#876 = DIRECTION( '', ( 0.00000000000000, 1.00000000000000, 0.00000000000000 ) );
#877 = CARTESIAN_POINT( '', ( -0.000207106781196500, -0.00330000000001000, 0.00000000000000 ) );
#878 = DIRECTION( '', ( -1.00000000000000, 0.00000000000000, 0.00000000000000 ) );
#879 = DIRECTION( '', ( 0.00000000000000, 0.988090336967017, -0.153874903712093 ) );
#880 = DIRECTION( '', ( 0.00000000000000, 0.00000000000000, -1.00000000000000 ) );
#881 = DIRECTION( '', ( 0.00000000000000, 1.00000000000000, 0.00000000000000 ) );
#882 = CARTESIAN_POINT( '', ( -0.000207106781196500, -0.00330000000001000, 0.00000000000000 ) );
#883 = DIRECTION( '', ( -1.00000000000000, 0.00000000000000, 0.00000000000000 ) );
#884 = DIRECTION( '', ( 0.00000000000000, 0.963347841358401, 0.268255356983059 ) );
#885 = DIRECTION( '', ( 0.00000000000000, 1.00000000000000, 0.00000000000000 ) );
#886 = DIRECTION( '', ( 0.00000000000000, 0.00000000000000, 1.00000000000000 ) );
#887 = DIRECTION( '', ( 0.00000000000000, 1.00000000000000, 0.00000000000000 ) );
#888 = CARTESIAN_POINT( '', ( 0.000207106781196500, -0.00330000000001000, 0.00000000000000 ) );
#889 = DIRECTION( '', ( 1.00000000000000, 0.00000000000000, 0.00000000000000 ) );
#890 = DIRECTION( '', ( 0.00000000000000, 0.963347841358401, -0.268255356983059 ) );
#891 = CARTESIAN_POINT( '', ( 0.000707106781196500, 0.000650000000010000, -0.000707106781196500 ) );
#892 = DIRECTION( '', ( 0.00000000000000, 1.00000000000000, 0.00000000000000 ) );
#893 = DIRECTION( '', ( -1.00000000000000, 0.00000000000000, 0.00000000000000 ) );
#894 = DIRECTION( '', ( 0.00000000000000, 1.00000000000000, 0.00000000000000 ) );
#895 = DIRECTION( '', ( 0.00000000000000, 1.00000000000000, 0.00000000000000 ) );
#896 = DIRECTION( '', ( -1.00000000000000, 0.00000000000000, 0.00000000000000 ) );
#897 = CARTESIAN_POINT( '', ( 0.00000000000000, -0.00330000000001000, 0.000207106781196500 ) );
#898 = DIRECTION( '', ( 0.00000000000000, 0.00000000000000, 1.00000000000000 ) );
#899 = DIRECTION( '', ( -0.153874903712093, 0.988090336967017, 0.00000000000000 ) );
#900 = DIRECTION( '', ( -1.00000000000000, 0.00000000000000, 0.00000000000000 ) );
#901 = DIRECTION( '', ( 0.00000000000000, 1.00000000000000, 0.00000000000000 ) );
#902 = CARTESIAN_POINT( '', ( 0.00000000000000, -0.00330000000001000, 0.000207106781196500 ) );
#903 = DIRECTION( '', ( 0.00000000000000, -0.00000000000000, 1.00000000000000 ) );
#904 = DIRECTION( '', ( 0.268255356983059, 0.963347841358401, 0.00000000000000 ) );
#905 = DIRECTION( '', ( 0.00000000000000, 1.00000000000000, 0.00000000000000 ) );
#906 = DIRECTION( '', ( 0.00000000000000, 0.00000000000000, 1.00000000000000 ) );
#907 = CARTESIAN_POINT( '', ( 0.000207106781196500, -0.00330000000001000, 0.00000000000000 ) );
#908 = DIRECTION( '', ( 1.00000000000000, 0.00000000000000, -0.00000000000000 ) );
#909 = DIRECTION( '', ( 0.00000000000000, 0.988090336967017, 0.153874903712093 ) );
#910 = CARTESIAN_POINT( '', ( -0.000707106781196500, 0.000650000000010000, 0.000707106781196500 ) );
#911 = DIRECTION( '', ( -0.00000000000000, 1.00000000000000, 0.00000000000000 ) );
#912 = DIRECTION( '', ( 1.00000000000000, 0.00000000000000, 0.00000000000000 ) );
#913 = CARTESIAN_POINT( '', ( 0.00000000000000, -0.00380000000001000, 0.00000000000000 ) );
#914 = DIRECTION( '', ( 0.00000000000000, -1.00000000000000, 0.00000000000000 ) );
#915 = DIRECTION( '', ( -1.00000000000000, 0.00000000000000, 0.00000000000000 ) );
#916 = DIRECTION( '', ( 0.00000000000000, 1.00000000000000, 0.00000000000000 ) );
#917 = CARTESIAN_POINT( '', ( -0.000707106781196500, 0.000650000000010000, -0.000707106781196500 ) );
#918 = DIRECTION( '', ( 0.00000000000000, 1.00000000000000, 0.00000000000000 ) );
#919 = DIRECTION( '', ( 0.00000000000000, 0.00000000000000, 1.00000000000000 ) );
#920 = CARTESIAN_POINT( '', ( 0.00000000000000, -0.00330000000001000, -0.000207106781196500 ) );
#921 = DIRECTION( '', ( 0.00000000000000, 0.00000000000000, -1.00000000000000 ) );
#922 = DIRECTION( '', ( -0.268255356983059, 0.963347841358401, 0.00000000000000 ) );
#923 = CARTESIAN_POINT( '', ( 0.00000000000000, 0.00112690636902200, 0.00000000000000 ) );
#924 = DIRECTION( '', ( 0.00000000000000, -1.00000000000000, -0.00000000000000 ) );
#925 = DIRECTION( '', ( -0.165685424955668, 0.00000000000000, -0.986178655192486 ) );
#926 = CARTESIAN_POINT( '', ( 0.00000000000000, -0.00330000000001000, -0.000207106781196500 ) );
#927 = DIRECTION( '', ( 0.00000000000000, 0.00000000000000, -1.00000000000000 ) );
#928 = DIRECTION( '', ( 0.153874903712093, 0.988090336967017, 0.00000000000000 ) );
#929 = CARTESIAN_POINT( '', ( 0.000707106781196500, 0.000650000000010000, 0.000707106781196500 ) );
#930 = DIRECTION( '', ( 0.00000000000000, 1.00000000000000, 0.00000000000000 ) );
#931 = DIRECTION( '', ( 0.00000000000000, 0.00000000000000, -1.00000000000000 ) );
#932 = DIRECTION( '', ( 1.00000000000000, 0.00000000000000, 0.00000000000000 ) );
#933 = CARTESIAN_POINT( '', ( 0.00000000000000, 0.000650000000010000, 0.00000000000000 ) );
#934 = DIRECTION( '', ( 0.00000000000000, -1.00000000000000, -0.00000000000000 ) );
#935 = DIRECTION( '', ( -0.165685424955668, 0.00000000000000, -0.986178655192486 ) );
#936 = DIRECTION( '', ( 1.00000000000000, 0.00000000000000, 0.00000000000000 ) );
#937 = CARTESIAN_POINT( '', ( 0.00000000000000, -0.00400000000001000, 0.00000000000000 ) );
#938 = DIRECTION( '', ( 0.00000000000000, 1.00000000000000, 0.00000000000000 ) );
#939 = DIRECTION( '', ( -1.00000000000000, 0.00000000000000, 0.00000000000000 ) );
ENDSEC;
END-ISO-10303-21;
