ISO-10303-21;
HEADER;
FILE_DESCRIPTION( ( '' ), ' ' );
FILE_NAME( '/vol/tmp/translate-7514993376811446332/589d3899c139c90fab49b5a5.step', '2017-02-10T03:50:50', ( '' ), ( '' ), ' ', ' ', ' ' );
FILE_SCHEMA( ( 'AUTOMOTIVE_DESIGN { 1 0 10303 214 1 1 1 1 }' ) );
ENDSEC;
DATA;
#1 = MECHANICAL_DESIGN_GEOMETRIC_PRESENTATION_REPRESENTATION( ' ', ( #10, #11, #12, #13, #14, #15, #16, #17, #18, #19, #20, #21, #22, #23, #24, #25, #26, #27, #28, #29, #30, #31, #32 ), #6 );
#2 = PRODUCT_DEFINITION_CONTEXT( '', #33, 'design' );
#3 = APPLICATION_PROTOCOL_DEFINITION( 'international standard', 'automotive_design', 2001, #33 );
#4 = PRODUCT_CATEGORY_RELATIONSHIP( 'NONE', 'NONE', #34, #35 );
#5 = SHAPE_DEFINITION_REPRESENTATION( #36, #37 );
#6 =  ( GEOMETRIC_REPRESENTATION_CONTEXT( 3 )GLOBAL_UNCERTAINTY_ASSIGNED_CONTEXT( ( #40 ) )GLOBAL_UNIT_ASSIGNED_CONTEXT( ( #42, #43, #44 ) )REPRESENTATION_CONTEXT( 'NONE', 'WORKSPACE' ) );
#10 = STYLED_ITEM( '', ( #46 ), #47 );
#11 = STYLED_ITEM( '', ( #48 ), #49 );
#12 = STYLED_ITEM( '', ( #50 ), #51 );
#13 = STYLED_ITEM( '', ( #52 ), #53 );
#14 = STYLED_ITEM( '', ( #54 ), #55 );
#15 = STYLED_ITEM( '', ( #56 ), #57 );
#16 = STYLED_ITEM( '', ( #58 ), #59 );
#17 = STYLED_ITEM( '', ( #60 ), #61 );
#18 = STYLED_ITEM( '', ( #62 ), #63 );
#19 = STYLED_ITEM( '', ( #64 ), #65 );
#20 = STYLED_ITEM( '', ( #66 ), #67 );
#21 = STYLED_ITEM( '', ( #68 ), #69 );
#22 = STYLED_ITEM( '', ( #70 ), #71 );
#23 = STYLED_ITEM( '', ( #72 ), #73 );
#24 = STYLED_ITEM( '', ( #74 ), #75 );
#25 = STYLED_ITEM( '', ( #76 ), #77 );
#26 = STYLED_ITEM( '', ( #78 ), #79 );
#27 = STYLED_ITEM( '', ( #80 ), #81 );
#28 = STYLED_ITEM( '', ( #82 ), #83 );
#29 = STYLED_ITEM( '', ( #84 ), #85 );
#30 = STYLED_ITEM( '', ( #86 ), #87 );
#31 = STYLED_ITEM( '', ( #88 ), #89 );
#32 = STYLED_ITEM( '', ( #90 ), #91 );
#33 = APPLICATION_CONTEXT( 'core data for automotive mechanical design processes' );
#34 = PRODUCT_CATEGORY( 'part', 'NONE' );
#35 = PRODUCT_RELATED_PRODUCT_CATEGORY( 'detail', ' ', ( #92 ) );
#36 = PRODUCT_DEFINITION_SHAPE( 'NONE', 'NONE', #93 );
#37 = ADVANCED_BREP_SHAPE_REPRESENTATION( 'PHS_M3X6', ( #94, #95 ), #6 );
#40 = UNCERTAINTY_MEASURE_WITH_UNIT( LENGTH_MEASURE( 1.00000000000000E-06 ), #42, '', '' );
#42 =  ( CONVERSION_BASED_UNIT( 'METRE', #98 )LENGTH_UNIT(  )NAMED_UNIT( #101 ) );
#43 =  ( NAMED_UNIT( #103 )PLANE_ANGLE_UNIT(  )SI_UNIT( $, .RADIAN. ) );
#44 =  ( NAMED_UNIT( #103 )SI_UNIT( $, .STERADIAN. )SOLID_ANGLE_UNIT(  ) );
#46 = PRESENTATION_STYLE_ASSIGNMENT( ( #109 ) );
#47 = ADVANCED_FACE( '', ( #110 ), #111, .F. );
#48 = PRESENTATION_STYLE_ASSIGNMENT( ( #112 ) );
#49 = ADVANCED_FACE( '', ( #113 ), #114, .F. );
#50 = PRESENTATION_STYLE_ASSIGNMENT( ( #115 ) );
#51 = ADVANCED_FACE( '', ( #116, #117 ), #118, .T. );
#52 = PRESENTATION_STYLE_ASSIGNMENT( ( #119 ) );
#53 = ADVANCED_FACE( '', ( #120 ), #121, .T. );
#54 = PRESENTATION_STYLE_ASSIGNMENT( ( #122 ) );
#55 = ADVANCED_FACE( '', ( #123 ), #124, .T. );
#56 = PRESENTATION_STYLE_ASSIGNMENT( ( #125 ) );
#57 = ADVANCED_FACE( '', ( #126 ), #127, .F. );
#58 = PRESENTATION_STYLE_ASSIGNMENT( ( #128 ) );
#59 = ADVANCED_FACE( '', ( #129 ), #130, .F. );
#60 = PRESENTATION_STYLE_ASSIGNMENT( ( #131 ) );
#61 = ADVANCED_FACE( '', ( #132 ), #133, .F. );
#62 = PRESENTATION_STYLE_ASSIGNMENT( ( #134 ) );
#63 = ADVANCED_FACE( '', ( #135 ), #136, .F. );
#64 = PRESENTATION_STYLE_ASSIGNMENT( ( #137 ) );
#65 = ADVANCED_FACE( '', ( #138 ), #139, .T. );
#66 = PRESENTATION_STYLE_ASSIGNMENT( ( #140 ) );
#67 = ADVANCED_FACE( '', ( #141 ), #142, .F. );
#68 = PRESENTATION_STYLE_ASSIGNMENT( ( #143 ) );
#69 = ADVANCED_FACE( '', ( #144 ), #145, .F. );
#70 = PRESENTATION_STYLE_ASSIGNMENT( ( #146 ) );
#71 = ADVANCED_FACE( '', ( #147 ), #148, .F. );
#72 = PRESENTATION_STYLE_ASSIGNMENT( ( #149 ) );
#73 = ADVANCED_FACE( '', ( #150, #151 ), #152, .T. );
#74 = PRESENTATION_STYLE_ASSIGNMENT( ( #153 ) );
#75 = ADVANCED_FACE( '', ( #154, #155 ), #156, .T. );
#76 = PRESENTATION_STYLE_ASSIGNMENT( ( #157 ) );
#77 = ADVANCED_FACE( '', ( #158 ), #159, .T. );
#78 = PRESENTATION_STYLE_ASSIGNMENT( ( #160 ) );
#79 = ADVANCED_FACE( '', ( #161 ), #162, .F. );
#80 = PRESENTATION_STYLE_ASSIGNMENT( ( #163 ) );
#81 = ADVANCED_FACE( '', ( #164, #165 ), #166, .T. );
#82 = PRESENTATION_STYLE_ASSIGNMENT( ( #167 ) );
#83 = ADVANCED_FACE( '', ( #168 ), #169, .F. );
#84 = PRESENTATION_STYLE_ASSIGNMENT( ( #170 ) );
#85 = ADVANCED_FACE( '', ( #171 ), #172, .F. );
#86 = PRESENTATION_STYLE_ASSIGNMENT( ( #173 ) );
#87 = ADVANCED_FACE( '', ( #174, #175, #176 ), #177, .T. );
#88 = PRESENTATION_STYLE_ASSIGNMENT( ( #178 ) );
#89 = ADVANCED_FACE( '', ( #179 ), #180, .F. );
#90 = PRESENTATION_STYLE_ASSIGNMENT( ( #181 ) );
#91 = ADVANCED_FACE( '', ( #182 ), #183, .T. );
#92 = PRODUCT( 'PHS_M3X6', 'PHS_M3X6', 'PART-PHS_M3X6-DESC', ( #184 ) );
#93 = PRODUCT_DEFINITION( 'NONE', 'NONE', #185, #2 );
#94 = MANIFOLD_SOLID_BREP( 'PHS_M3X6', #186 );
#95 = AXIS2_PLACEMENT_3D( '', #187, #188, #189 );
#98 = LENGTH_MEASURE_WITH_UNIT( LENGTH_MEASURE( 1.00000000000000 ), #190 );
#101 = DIMENSIONAL_EXPONENTS( 1.00000000000000, 0.00000000000000, 0.00000000000000, 0.00000000000000, 0.00000000000000, 0.00000000000000, 0.00000000000000 );
#103 = DIMENSIONAL_EXPONENTS( 0.00000000000000, 0.00000000000000, 0.00000000000000, 0.00000000000000, 0.00000000000000, 0.00000000000000, 0.00000000000000 );
#109 = SURFACE_STYLE_USAGE( .BOTH., #191 );
#110 = FACE_OUTER_BOUND( '', #192, .T. );
#111 = CYLINDRICAL_SURFACE( '', #193, 0.00175000000000000 );
#112 = SURFACE_STYLE_USAGE( .BOTH., #194 );
#113 = FACE_OUTER_BOUND( '', #195, .T. );
#114 = CYLINDRICAL_SURFACE( '', #196, 0.00175000000000000 );
#115 = SURFACE_STYLE_USAGE( .BOTH., #197 );
#116 = FACE_OUTER_BOUND( '', #198, .T. );
#117 = FACE_OUTER_BOUND( '', #199, .T. );
#118 = SPHERICAL_SURFACE( '', #200, 0.00690000000000000 );
#119 = SURFACE_STYLE_USAGE( .BOTH., #201 );
#120 = FACE_OUTER_BOUND( '', #202, .T. );
#121 = CYLINDRICAL_SURFACE( '', #203, 0.000750000000000000 );
#122 = SURFACE_STYLE_USAGE( .BOTH., #204 );
#123 = FACE_OUTER_BOUND( '', #205, .T. );
#124 = CYLINDRICAL_SURFACE( '', #206, 0.000750000000000000 );
#125 = SURFACE_STYLE_USAGE( .BOTH., #207 );
#126 = FACE_OUTER_BOUND( '', #208, .T. );
#127 = CYLINDRICAL_SURFACE( '', #209, 0.00175000000000000 );
#128 = SURFACE_STYLE_USAGE( .BOTH., #210 );
#129 = FACE_OUTER_BOUND( '', #211, .T. );
#130 = PLANE( '', #212 );
#131 = SURFACE_STYLE_USAGE( .BOTH., #213 );
#132 = FACE_OUTER_BOUND( '', #214, .T. );
#133 = PLANE( '', #215 );
#134 = SURFACE_STYLE_USAGE( .BOTH., #216 );
#135 = FACE_OUTER_BOUND( '', #217, .T. );
#136 = PLANE( '', #218 );
#137 = SURFACE_STYLE_USAGE( .BOTH., #219 );
#138 = FACE_OUTER_BOUND( '', #220, .T. );
#139 = PLANE( '', #221 );
#140 = SURFACE_STYLE_USAGE( .BOTH., #222 );
#141 = FACE_OUTER_BOUND( '', #223, .T. );
#142 = PLANE( '', #224 );
#143 = SURFACE_STYLE_USAGE( .BOTH., #225 );
#144 = FACE_OUTER_BOUND( '', #226, .T. );
#145 = PLANE( '', #227 );
#146 = SURFACE_STYLE_USAGE( .BOTH., #228 );
#147 = FACE_OUTER_BOUND( '', #229, .T. );
#148 = PLANE( '', #230 );
#149 = SURFACE_STYLE_USAGE( .BOTH., #231 );
#150 = FACE_OUTER_BOUND( '', #232, .T. );
#151 = FACE_BOUND( '', #233, .T. );
#152 = PLANE( '', #234 );
#153 = SURFACE_STYLE_USAGE( .BOTH., #235 );
#154 = FACE_BOUND( '', #236, .T. );
#155 = FACE_OUTER_BOUND( '', #237, .T. );
#156 = CONICAL_SURFACE( '', #238, 0.00137500000000000, 0.785398163400000 );
#157 = SURFACE_STYLE_USAGE( .BOTH., #239 );
#158 = FACE_OUTER_BOUND( '', #240, .T. );
#159 = CYLINDRICAL_SURFACE( '', #241, 0.000750000000000000 );
#160 = SURFACE_STYLE_USAGE( .BOTH., #242 );
#161 = FACE_OUTER_BOUND( '', #243, .T. );
#162 = PLANE( '', #244 );
#163 = SURFACE_STYLE_USAGE( .BOTH., #245 );
#164 = FACE_OUTER_BOUND( '', #246, .T. );
#165 = FACE_OUTER_BOUND( '', #247, .T. );
#166 = CYLINDRICAL_SURFACE( '', #248, 0.00150000000000000 );
#167 = SURFACE_STYLE_USAGE( .BOTH., #249 );
#168 = FACE_OUTER_BOUND( '', #250, .T. );
#169 = PLANE( '', #251 );
#170 = SURFACE_STYLE_USAGE( .BOTH., #252 );
#171 = FACE_OUTER_BOUND( '', #253, .T. );
#172 = CYLINDRICAL_SURFACE( '', #254, 0.00175000000000000 );
#173 = SURFACE_STYLE_USAGE( .BOTH., #255 );
#174 = FACE_BOUND( '', #256, .T. );
#175 = FACE_OUTER_BOUND( '', #257, .T. );
#176 = FACE_OUTER_BOUND( '', #258, .T. );
#177 = TOROIDAL_SURFACE( '', #259, 0.00176428570000000, 0.000985714300000000 );
#178 = SURFACE_STYLE_USAGE( .BOTH., #260 );
#179 = FACE_OUTER_BOUND( '', #261, .T. );
#180 = PLANE( '', #262 );
#181 = SURFACE_STYLE_USAGE( .BOTH., #263 );
#182 = FACE_OUTER_BOUND( '', #264, .T. );
#183 = CYLINDRICAL_SURFACE( '', #265, 0.000750000000000000 );
#184 = PRODUCT_CONTEXT( '', #33, 'mechanical' );
#185 = PRODUCT_DEFINITION_FORMATION_WITH_SPECIFIED_SOURCE( ' ', 'NONE', #92, .NOT_KNOWN. );
#186 = CLOSED_SHELL( '', ( #51, #77, #79, #89, #75, #55, #91, #63, #81, #67, #49, #65, #59, #83, #57, #69, #71, #85, #73, #87, #61, #53, #47 ) );
#187 = CARTESIAN_POINT( '', ( 0.00000000000000, 0.00000000000000, 0.00000000000000 ) );
#188 = DIRECTION( '', ( 0.00000000000000, 0.00000000000000, 1.00000000000000 ) );
#189 = DIRECTION( '', ( 1.00000000000000, 0.00000000000000, 0.00000000000000 ) );
#190 =  ( LENGTH_UNIT(  )NAMED_UNIT( #101 )SI_UNIT( $, .METRE. ) );
#191 = SURFACE_SIDE_STYLE( '', ( #267 ) );
#192 = EDGE_LOOP( '', ( #268, #269, #270, #271 ) );
#193 = AXIS2_PLACEMENT_3D( '', #272, #273, #274 );
#194 = SURFACE_SIDE_STYLE( '', ( #275 ) );
#195 = EDGE_LOOP( '', ( #276, #277, #278, #279 ) );
#196 = AXIS2_PLACEMENT_3D( '', #280, #281, #282 );
#197 = SURFACE_SIDE_STYLE( '', ( #283 ) );
#198 = EDGE_LOOP( '', ( #284, #285, #286, #287, #288, #289, #290, #291, #292, #293, #294, #295, #296, #297, #298, #299 ) );
#199 = EDGE_LOOP( '', ( #300 ) );
#200 = AXIS2_PLACEMENT_3D( '', #301, #302, #303 );
#201 = SURFACE_SIDE_STYLE( '', ( #304 ) );
#202 = EDGE_LOOP( '', ( #305, #306, #307, #308 ) );
#203 = AXIS2_PLACEMENT_3D( '', #309, #310, #311 );
#204 = SURFACE_SIDE_STYLE( '', ( #312 ) );
#205 = EDGE_LOOP( '', ( #313, #314, #315, #316 ) );
#206 = AXIS2_PLACEMENT_3D( '', #317, #318, #319 );
#207 = SURFACE_SIDE_STYLE( '', ( #320 ) );
#208 = EDGE_LOOP( '', ( #321, #322, #323, #324 ) );
#209 = AXIS2_PLACEMENT_3D( '', #325, #326, #327 );
#210 = SURFACE_SIDE_STYLE( '', ( #328 ) );
#211 = EDGE_LOOP( '', ( #329, #330, #331, #332 ) );
#212 = AXIS2_PLACEMENT_3D( '', #333, #334, #335 );
#213 = SURFACE_SIDE_STYLE( '', ( #336 ) );
#214 = EDGE_LOOP( '', ( #337, #338, #339, #340 ) );
#215 = AXIS2_PLACEMENT_3D( '', #341, #342, #343 );
#216 = SURFACE_SIDE_STYLE( '', ( #344 ) );
#217 = EDGE_LOOP( '', ( #345, #346, #347, #348, #349, #350, #351, #352, #353, #354, #355, #356, #357, #358, #359, #360 ) );
#218 = AXIS2_PLACEMENT_3D( '', #361, #362, #363 );
#219 = SURFACE_SIDE_STYLE( '', ( #364 ) );
#220 = EDGE_LOOP( '', ( #365 ) );
#221 = AXIS2_PLACEMENT_3D( '', #366, #367, #368 );
#222 = SURFACE_SIDE_STYLE( '', ( #369 ) );
#223 = EDGE_LOOP( '', ( #370, #371, #372, #373 ) );
#224 = AXIS2_PLACEMENT_3D( '', #374, #375, #376 );
#225 = SURFACE_SIDE_STYLE( '', ( #377 ) );
#226 = EDGE_LOOP( '', ( #378, #379, #380, #381 ) );
#227 = AXIS2_PLACEMENT_3D( '', #382, #383, #384 );
#228 = SURFACE_SIDE_STYLE( '', ( #385 ) );
#229 = EDGE_LOOP( '', ( #386, #387, #388, #389 ) );
#230 = AXIS2_PLACEMENT_3D( '', #390, #391, #392 );
#231 = SURFACE_SIDE_STYLE( '', ( #393 ) );
#232 = EDGE_LOOP( '', ( #394 ) );
#233 = EDGE_LOOP( '', ( #395 ) );
#234 = AXIS2_PLACEMENT_3D( '', #396, #397, #398 );
#235 = SURFACE_SIDE_STYLE( '', ( #399 ) );
#236 = EDGE_LOOP( '', ( #400 ) );
#237 = EDGE_LOOP( '', ( #401 ) );
#238 = AXIS2_PLACEMENT_3D( '', #402, #403, #404 );
#239 = SURFACE_SIDE_STYLE( '', ( #405 ) );
#240 = EDGE_LOOP( '', ( #406, #407, #408, #409 ) );
#241 = AXIS2_PLACEMENT_3D( '', #410, #411, #412 );
#242 = SURFACE_SIDE_STYLE( '', ( #413 ) );
#243 = EDGE_LOOP( '', ( #414, #415, #416, #417 ) );
#244 = AXIS2_PLACEMENT_3D( '', #418, #419, #420 );
#245 = SURFACE_SIDE_STYLE( '', ( #421 ) );
#246 = EDGE_LOOP( '', ( #422 ) );
#247 = EDGE_LOOP( '', ( #423 ) );
#248 = AXIS2_PLACEMENT_3D( '', #424, #425, #426 );
#249 = SURFACE_SIDE_STYLE( '', ( #427 ) );
#250 = EDGE_LOOP( '', ( #428, #429, #430, #431 ) );
#251 = AXIS2_PLACEMENT_3D( '', #432, #433, #434 );
#252 = SURFACE_SIDE_STYLE( '', ( #435 ) );
#253 = EDGE_LOOP( '', ( #436, #437, #438, #439 ) );
#254 = AXIS2_PLACEMENT_3D( '', #440, #441, #442 );
#255 = SURFACE_SIDE_STYLE( '', ( #443 ) );
#256 = VERTEX_LOOP( '', #444 );
#257 = EDGE_LOOP( '', ( #445 ) );
#258 = EDGE_LOOP( '', ( #446 ) );
#259 = AXIS2_PLACEMENT_3D( '', #447, #448, #449 );
#260 = SURFACE_SIDE_STYLE( '', ( #450 ) );
#261 = EDGE_LOOP( '', ( #451, #452, #453, #454 ) );
#262 = AXIS2_PLACEMENT_3D( '', #455, #456, #457 );
#263 = SURFACE_SIDE_STYLE( '', ( #458 ) );
#264 = EDGE_LOOP( '', ( #459, #460, #461, #462 ) );
#265 = AXIS2_PLACEMENT_3D( '', #463, #464, #465 );
#267 = SURFACE_STYLE_FILL_AREA( #466 );
#268 = ORIENTED_EDGE( '', *, *, #467, .F. );
#269 = ORIENTED_EDGE( '', *, *, #468, .T. );
#270 = ORIENTED_EDGE( '', *, *, #469, .T. );
#271 = ORIENTED_EDGE( '', *, *, #470, .F. );
#272 = CARTESIAN_POINT( '', ( 0.00000000000000, 0.00100000000000000, 0.00000000000000 ) );
#273 = DIRECTION( '', ( -0.00000000000000, 1.00000000000000, -0.00000000000000 ) );
#274 = DIRECTION( '', ( 1.00000000000000, 0.00000000000000, 0.00000000000000 ) );
#275 = SURFACE_STYLE_FILL_AREA( #471 );
#276 = ORIENTED_EDGE( '', *, *, #472, .F. );
#277 = ORIENTED_EDGE( '', *, *, #473, .T. );
#278 = ORIENTED_EDGE( '', *, *, #474, .T. );
#279 = ORIENTED_EDGE( '', *, *, #475, .F. );
#280 = CARTESIAN_POINT( '', ( 0.00000000000000, 0.00100000000000000, 0.00000000000000 ) );
#281 = DIRECTION( '', ( -0.00000000000000, 1.00000000000000, -0.00000000000000 ) );
#282 = DIRECTION( '', ( 1.00000000000000, 0.00000000000000, 0.00000000000000 ) );
#283 = SURFACE_STYLE_FILL_AREA( #476 );
#284 = ORIENTED_EDGE( '', *, *, #477, .T. );
#285 = ORIENTED_EDGE( '', *, *, #478, .T. );
#286 = ORIENTED_EDGE( '', *, *, #479, .T. );
#287 = ORIENTED_EDGE( '', *, *, #480, .T. );
#288 = ORIENTED_EDGE( '', *, *, #481, .T. );
#289 = ORIENTED_EDGE( '', *, *, #482, .T. );
#290 = ORIENTED_EDGE( '', *, *, #483, .T. );
#291 = ORIENTED_EDGE( '', *, *, #484, .T. );
#292 = ORIENTED_EDGE( '', *, *, #475, .T. );
#293 = ORIENTED_EDGE( '', *, *, #485, .T. );
#294 = ORIENTED_EDGE( '', *, *, #486, .T. );
#295 = ORIENTED_EDGE( '', *, *, #487, .T. );
#296 = ORIENTED_EDGE( '', *, *, #470, .T. );
#297 = ORIENTED_EDGE( '', *, *, #488, .T. );
#298 = ORIENTED_EDGE( '', *, *, #489, .T. );
#299 = ORIENTED_EDGE( '', *, *, #490, .T. );
#300 = ORIENTED_EDGE( '', *, *, #491, .F. );
#301 = CARTESIAN_POINT( '', ( 0.00000000000000, -0.00490000000000000, 0.00000000000000 ) );
#302 = DIRECTION( '', ( 0.00000000000000, -1.00000000000000, 0.00000000000000 ) );
#303 = DIRECTION( '', ( -1.00000000000000, 0.00000000000000, 0.00000000000000 ) );
#304 = SURFACE_STYLE_FILL_AREA( #492 );
#305 = ORIENTED_EDGE( '', *, *, #493, .F. );
#306 = ORIENTED_EDGE( '', *, *, #494, .T. );
#307 = ORIENTED_EDGE( '', *, *, #495, .T. );
#308 = ORIENTED_EDGE( '', *, *, #486, .F. );
#309 = CARTESIAN_POINT( '', ( -0.00106066017178000, 0.00100000000000000, -0.00106066017178000 ) );
#310 = DIRECTION( '', ( -0.00000000000000, 1.00000000000000, -0.00000000000000 ) );
#311 = DIRECTION( '', ( 1.00000000000000, 0.00000000000000, 0.00000000000000 ) );
#312 = SURFACE_STYLE_FILL_AREA( #496 );
#313 = ORIENTED_EDGE( '', *, *, #497, .F. );
#314 = ORIENTED_EDGE( '', *, *, #498, .T. );
#315 = ORIENTED_EDGE( '', *, *, #499, .T. );
#316 = ORIENTED_EDGE( '', *, *, #489, .F. );
#317 = CARTESIAN_POINT( '', ( 0.00106066017178000, 0.00100000000000000, -0.00106066017178000 ) );
#318 = DIRECTION( '', ( -0.00000000000000, 1.00000000000000, -0.00000000000000 ) );
#319 = DIRECTION( '', ( 1.00000000000000, 0.00000000000000, 0.00000000000000 ) );
#320 = SURFACE_STYLE_FILL_AREA( #500 );
#321 = ORIENTED_EDGE( '', *, *, #477, .F. );
#322 = ORIENTED_EDGE( '', *, *, #501, .F. );
#323 = ORIENTED_EDGE( '', *, *, #502, .T. );
#324 = ORIENTED_EDGE( '', *, *, #503, .T. );
#325 = CARTESIAN_POINT( '', ( 0.00000000000000, 0.00100000000000000, 0.00000000000000 ) );
#326 = DIRECTION( '', ( -0.00000000000000, 1.00000000000000, -0.00000000000000 ) );
#327 = DIRECTION( '', ( 1.00000000000000, 0.00000000000000, 0.00000000000000 ) );
#328 = SURFACE_STYLE_FILL_AREA( #504 );
#329 = ORIENTED_EDGE( '', *, *, #505, .F. );
#330 = ORIENTED_EDGE( '', *, *, #506, .T. );
#331 = ORIENTED_EDGE( '', *, *, #507, .T. );
#332 = ORIENTED_EDGE( '', *, *, #480, .F. );
#333 = CARTESIAN_POINT( '', ( 0.000310660171779800, 0.00100000000000000, 0.00106066017178000 ) );
#334 = DIRECTION( '', ( 1.00000000000000, 0.00000000000000, 0.00000000000000 ) );
#335 = DIRECTION( '', ( 0.00000000000000, 1.00000000000000, 0.00000000000000 ) );
#336 = SURFACE_STYLE_FILL_AREA( #508 );
#337 = ORIENTED_EDGE( '', *, *, #474, .F. );
#338 = ORIENTED_EDGE( '', *, *, #509, .T. );
#339 = ORIENTED_EDGE( '', *, *, #493, .T. );
#340 = ORIENTED_EDGE( '', *, *, #485, .F. );
#341 = CARTESIAN_POINT( '', ( -0.00172220505680100, 0.00100000000000000, -0.000310660171779800 ) );
#342 = DIRECTION( '', ( 0.00000000000000, 0.00000000000000, -1.00000000000000 ) );
#343 = DIRECTION( '', ( 0.00000000000000, -1.00000000000000, 0.00000000000000 ) );
#344 = SURFACE_STYLE_FILL_AREA( #510 );
#345 = ORIENTED_EDGE( '', *, *, #511, .F. );
#346 = ORIENTED_EDGE( '', *, *, #512, .F. );
#347 = ORIENTED_EDGE( '', *, *, #513, .F. );
#348 = ORIENTED_EDGE( '', *, *, #506, .F. );
#349 = ORIENTED_EDGE( '', *, *, #514, .F. );
#350 = ORIENTED_EDGE( '', *, *, #515, .F. );
#351 = ORIENTED_EDGE( '', *, *, #502, .F. );
#352 = ORIENTED_EDGE( '', *, *, #516, .F. );
#353 = ORIENTED_EDGE( '', *, *, #498, .F. );
#354 = ORIENTED_EDGE( '', *, *, #517, .F. );
#355 = ORIENTED_EDGE( '', *, *, #468, .F. );
#356 = ORIENTED_EDGE( '', *, *, #518, .F. );
#357 = ORIENTED_EDGE( '', *, *, #494, .F. );
#358 = ORIENTED_EDGE( '', *, *, #509, .F. );
#359 = ORIENTED_EDGE( '', *, *, #473, .F. );
#360 = ORIENTED_EDGE( '', *, *, #519, .F. );
#361 = CARTESIAN_POINT( '', ( 0.00000000000000, 0.00100000000000000, 0.00000000000000 ) );
#362 = DIRECTION( '', ( 0.00000000000000, -1.00000000000000, 0.00000000000000 ) );
#363 = DIRECTION( '', ( 0.00000000000000, 0.00000000000000, -1.00000000000000 ) );
#364 = SURFACE_STYLE_FILL_AREA( #520 );
#365 = ORIENTED_EDGE( '', *, *, #521, .F. );
#366 = CARTESIAN_POINT( '', ( 0.00000000000000, -0.00600000000000000, 0.00000000000000 ) );
#367 = DIRECTION( '', ( 0.00000000000000, -1.00000000000000, 0.00000000000000 ) );
#368 = DIRECTION( '', ( 0.00000000000000, 0.00000000000000, -1.00000000000000 ) );
#369 = SURFACE_STYLE_FILL_AREA( #522 );
#370 = ORIENTED_EDGE( '', *, *, #523, .F. );
#371 = ORIENTED_EDGE( '', *, *, #519, .T. );
#372 = ORIENTED_EDGE( '', *, *, #472, .T. );
#373 = ORIENTED_EDGE( '', *, *, #484, .F. );
#374 = CARTESIAN_POINT( '', ( -0.00106066017178000, 0.00100000000000000, 0.000310660171779800 ) );
#375 = DIRECTION( '', ( 0.00000000000000, 0.00000000000000, 1.00000000000000 ) );
#376 = DIRECTION( '', ( 1.00000000000000, 0.00000000000000, 0.00000000000000 ) );
#377 = SURFACE_STYLE_FILL_AREA( #524 );
#378 = ORIENTED_EDGE( '', *, *, #499, .F. );
#379 = ORIENTED_EDGE( '', *, *, #516, .T. );
#380 = ORIENTED_EDGE( '', *, *, #501, .T. );
#381 = ORIENTED_EDGE( '', *, *, #490, .F. );
#382 = CARTESIAN_POINT( '', ( 0.00106066017178000, 0.00100000000000000, -0.000310660171779800 ) );
#383 = DIRECTION( '', ( 0.00000000000000, 0.00000000000000, -1.00000000000000 ) );
#384 = DIRECTION( '', ( 0.00000000000000, -1.00000000000000, 0.00000000000000 ) );
#385 = SURFACE_STYLE_FILL_AREA( #525 );
#386 = ORIENTED_EDGE( '', *, *, #503, .F. );
#387 = ORIENTED_EDGE( '', *, *, #515, .T. );
#388 = ORIENTED_EDGE( '', *, *, #526, .T. );
#389 = ORIENTED_EDGE( '', *, *, #478, .F. );
#390 = CARTESIAN_POINT( '', ( 0.00172220505680100, 0.00100000000000000, 0.000310660171779800 ) );
#391 = DIRECTION( '', ( 0.00000000000000, 0.00000000000000, 1.00000000000000 ) );
#392 = DIRECTION( '', ( 1.00000000000000, 0.00000000000000, 0.00000000000000 ) );
#393 = SURFACE_STYLE_FILL_AREA( #527 );
#394 = ORIENTED_EDGE( '', *, *, #528, .F. );
#395 = ORIENTED_EDGE( '', *, *, #529, .F. );
#396 = CARTESIAN_POINT( '', ( 0.00000000000000, 0.00000000000000, 0.00000000000000 ) );
#397 = DIRECTION( '', ( 0.00000000000000, -1.00000000000000, 0.00000000000000 ) );
#398 = DIRECTION( '', ( 0.00000000000000, 0.00000000000000, -1.00000000000000 ) );
#399 = SURFACE_STYLE_FILL_AREA( #530 );
#400 = ORIENTED_EDGE( '', *, *, #521, .T. );
#401 = ORIENTED_EDGE( '', *, *, #531, .T. );
#402 = CARTESIAN_POINT( '', ( 0.00000000000000, -0.00587500000000000, 0.00000000000000 ) );
#403 = DIRECTION( '', ( -0.00000000000000, 1.00000000000000, -0.00000000000000 ) );
#404 = DIRECTION( '', ( 1.00000000000000, 0.00000000000000, 0.00000000000000 ) );
#405 = SURFACE_STYLE_FILL_AREA( #532 );
#406 = ORIENTED_EDGE( '', *, *, #533, .F. );
#407 = ORIENTED_EDGE( '', *, *, #511, .T. );
#408 = ORIENTED_EDGE( '', *, *, #523, .T. );
#409 = ORIENTED_EDGE( '', *, *, #483, .F. );
#410 = CARTESIAN_POINT( '', ( -0.00106066017178000, 0.00100000000000000, 0.00106066017178000 ) );
#411 = DIRECTION( '', ( -0.00000000000000, 1.00000000000000, -0.00000000000000 ) );
#412 = DIRECTION( '', ( 1.00000000000000, 0.00000000000000, 0.00000000000000 ) );
#413 = SURFACE_STYLE_FILL_AREA( #534 );
#414 = ORIENTED_EDGE( '', *, *, #535, .F. );
#415 = ORIENTED_EDGE( '', *, *, #512, .T. );
#416 = ORIENTED_EDGE( '', *, *, #533, .T. );
#417 = ORIENTED_EDGE( '', *, *, #482, .F. );
#418 = CARTESIAN_POINT( '', ( -0.000310660171779800, 0.00100000000000000, 0.00172220505680100 ) );
#419 = DIRECTION( '', ( -1.00000000000000, 0.00000000000000, 0.00000000000000 ) );
#420 = DIRECTION( '', ( 0.00000000000000, 0.00000000000000, 1.00000000000000 ) );
#421 = SURFACE_STYLE_FILL_AREA( #536 );
#422 = ORIENTED_EDGE( '', *, *, #529, .T. );
#423 = ORIENTED_EDGE( '', *, *, #531, .F. );
#424 = CARTESIAN_POINT( '', ( 0.00000000000000, 0.00240000000000000, 0.00000000000000 ) );
#425 = DIRECTION( '', ( -0.00000000000000, 1.00000000000000, -0.00000000000000 ) );
#426 = DIRECTION( '', ( -1.00000000000000, 0.00000000000000, 0.00000000000000 ) );
#427 = SURFACE_STYLE_FILL_AREA( #537 );
#428 = ORIENTED_EDGE( '', *, *, #469, .F. );
#429 = ORIENTED_EDGE( '', *, *, #517, .T. );
#430 = ORIENTED_EDGE( '', *, *, #497, .T. );
#431 = ORIENTED_EDGE( '', *, *, #488, .F. );
#432 = CARTESIAN_POINT( '', ( 0.000310660171779800, 0.00100000000000000, -0.00172220505680100 ) );
#433 = DIRECTION( '', ( 1.00000000000000, 0.00000000000000, 0.00000000000000 ) );
#434 = DIRECTION( '', ( 0.00000000000000, 1.00000000000000, 0.00000000000000 ) );
#435 = SURFACE_STYLE_FILL_AREA( #538 );
#436 = ORIENTED_EDGE( '', *, *, #507, .F. );
#437 = ORIENTED_EDGE( '', *, *, #513, .T. );
#438 = ORIENTED_EDGE( '', *, *, #535, .T. );
#439 = ORIENTED_EDGE( '', *, *, #481, .F. );
#440 = CARTESIAN_POINT( '', ( 0.00000000000000, 0.00100000000000000, 0.00000000000000 ) );
#441 = DIRECTION( '', ( -0.00000000000000, 1.00000000000000, -0.00000000000000 ) );
#442 = DIRECTION( '', ( 1.00000000000000, 0.00000000000000, 0.00000000000000 ) );
#443 = SURFACE_STYLE_FILL_AREA( #539 );
#444 = VERTEX_POINT( '', #540 );
#445 = ORIENTED_EDGE( '', *, *, #491, .T. );
#446 = ORIENTED_EDGE( '', *, *, #528, .T. );
#447 = CARTESIAN_POINT( '', ( 0.00000000000000, 0.000745004112360900, 0.00000000000000 ) );
#448 = DIRECTION( '', ( 0.00000000000000, -1.00000000000000, 0.00000000000000 ) );
#449 = DIRECTION( '', ( -1.00000000000000, 0.00000000000000, 0.00000000000000 ) );
#450 = SURFACE_STYLE_FILL_AREA( #541 );
#451 = ORIENTED_EDGE( '', *, *, #495, .F. );
#452 = ORIENTED_EDGE( '', *, *, #518, .T. );
#453 = ORIENTED_EDGE( '', *, *, #467, .T. );
#454 = ORIENTED_EDGE( '', *, *, #487, .F. );
#455 = CARTESIAN_POINT( '', ( -0.000310660171779800, 0.00100000000000000, -0.00106066017178000 ) );
#456 = DIRECTION( '', ( -1.00000000000000, 0.00000000000000, 0.00000000000000 ) );
#457 = DIRECTION( '', ( 0.00000000000000, 0.00000000000000, 1.00000000000000 ) );
#458 = SURFACE_STYLE_FILL_AREA( #542 );
#459 = ORIENTED_EDGE( '', *, *, #526, .F. );
#460 = ORIENTED_EDGE( '', *, *, #514, .T. );
#461 = ORIENTED_EDGE( '', *, *, #505, .T. );
#462 = ORIENTED_EDGE( '', *, *, #479, .F. );
#463 = CARTESIAN_POINT( '', ( 0.00106066017178000, 0.00100000000000000, 0.00106066017178000 ) );
#464 = DIRECTION( '', ( -0.00000000000000, 1.00000000000000, -0.00000000000000 ) );
#465 = DIRECTION( '', ( 1.00000000000000, 0.00000000000000, 0.00000000000000 ) );
#466 = FILL_AREA_STYLE( '', ( #543 ) );
#467 = EDGE_CURVE( '', #544, #545, #546, .T. );
#468 = EDGE_CURVE( '', #544, #547, #548, .T. );
#469 = EDGE_CURVE( '', #547, #549, #550, .T. );
#470 = EDGE_CURVE( '', #545, #549, #551, .T. );
#471 = FILL_AREA_STYLE( '', ( #552 ) );
#472 = EDGE_CURVE( '', #553, #554, #555, .T. );
#473 = EDGE_CURVE( '', #553, #556, #557, .T. );
#474 = EDGE_CURVE( '', #556, #558, #559, .T. );
#475 = EDGE_CURVE( '', #554, #558, #560, .T. );
#476 = FILL_AREA_STYLE( '', ( #561 ) );
#477 = EDGE_CURVE( '', #562, #563, #564, .T. );
#478 = EDGE_CURVE( '', #563, #565, #566, .T. );
#479 = EDGE_CURVE( '', #565, #567, #568, .T. );
#480 = EDGE_CURVE( '', #567, #569, #570, .T. );
#481 = EDGE_CURVE( '', #569, #571, #572, .T. );
#482 = EDGE_CURVE( '', #571, #573, #574, .T. );
#483 = EDGE_CURVE( '', #573, #575, #576, .T. );
#484 = EDGE_CURVE( '', #575, #554, #577, .T. );
#485 = EDGE_CURVE( '', #558, #578, #579, .T. );
#486 = EDGE_CURVE( '', #578, #580, #581, .T. );
#487 = EDGE_CURVE( '', #580, #545, #582, .T. );
#488 = EDGE_CURVE( '', #549, #583, #584, .T. );
#489 = EDGE_CURVE( '', #583, #585, #586, .T. );
#490 = EDGE_CURVE( '', #585, #562, #587, .T. );
#491 = EDGE_CURVE( '', #588, #588, #589, .T. );
#492 = FILL_AREA_STYLE( '', ( #590 ) );
#493 = EDGE_CURVE( '', #591, #578, #592, .T. );
#494 = EDGE_CURVE( '', #591, #593, #594, .T. );
#495 = EDGE_CURVE( '', #593, #580, #595, .T. );
#496 = FILL_AREA_STYLE( '', ( #596 ) );
#497 = EDGE_CURVE( '', #597, #583, #598, .T. );
#498 = EDGE_CURVE( '', #597, #599, #600, .T. );
#499 = EDGE_CURVE( '', #599, #585, #601, .T. );
#500 = FILL_AREA_STYLE( '', ( #602 ) );
#501 = EDGE_CURVE( '', #603, #562, #604, .T. );
#502 = EDGE_CURVE( '', #603, #605, #606, .T. );
#503 = EDGE_CURVE( '', #605, #563, #607, .T. );
#504 = FILL_AREA_STYLE( '', ( #608 ) );
#505 = EDGE_CURVE( '', #609, #567, #610, .T. );
#506 = EDGE_CURVE( '', #609, #611, #612, .T. );
#507 = EDGE_CURVE( '', #611, #569, #613, .T. );
#508 = FILL_AREA_STYLE( '', ( #614 ) );
#509 = EDGE_CURVE( '', #556, #591, #615, .T. );
#510 = FILL_AREA_STYLE( '', ( #616 ) );
#511 = EDGE_CURVE( '', #617, #618, #619, .T. );
#512 = EDGE_CURVE( '', #620, #617, #621, .T. );
#513 = EDGE_CURVE( '', #611, #620, #622, .T. );
#514 = EDGE_CURVE( '', #623, #609, #624, .T. );
#515 = EDGE_CURVE( '', #605, #623, #625, .T. );
#516 = EDGE_CURVE( '', #599, #603, #626, .T. );
#517 = EDGE_CURVE( '', #547, #597, #627, .T. );
#518 = EDGE_CURVE( '', #593, #544, #628, .T. );
#519 = EDGE_CURVE( '', #618, #553, #629, .T. );
#520 = FILL_AREA_STYLE( '', ( #630 ) );
#521 = EDGE_CURVE( '', #631, #631, #632, .T. );
#522 = FILL_AREA_STYLE( '', ( #633 ) );
#523 = EDGE_CURVE( '', #618, #575, #634, .T. );
#524 = FILL_AREA_STYLE( '', ( #635 ) );
#525 = FILL_AREA_STYLE( '', ( #636 ) );
#526 = EDGE_CURVE( '', #623, #565, #637, .T. );
#527 = FILL_AREA_STYLE( '', ( #638 ) );
#528 = EDGE_CURVE( '', #639, #639, #640, .T. );
#529 = EDGE_CURVE( '', #641, #641, #642, .T. );
#530 = FILL_AREA_STYLE( '', ( #643 ) );
#531 = EDGE_CURVE( '', #644, #644, #645, .T. );
#532 = FILL_AREA_STYLE( '', ( #646 ) );
#533 = EDGE_CURVE( '', #617, #573, #647, .T. );
#534 = FILL_AREA_STYLE( '', ( #648 ) );
#535 = EDGE_CURVE( '', #620, #571, #649, .T. );
#536 = FILL_AREA_STYLE( '', ( #650 ) );
#537 = FILL_AREA_STYLE( '', ( #651 ) );
#538 = FILL_AREA_STYLE( '', ( #652 ) );
#539 = FILL_AREA_STYLE( '', ( #653 ) );
#540 = CARTESIAN_POINT( '', ( -0.00275000000000030, 0.000745004112360900, 0.00000000000000 ) );
#541 = FILL_AREA_STYLE( '', ( #654 ) );
#542 = FILL_AREA_STYLE( '', ( #655 ) );
#543 = FILL_AREA_STYLE_COLOUR( '', #656 );
#544 = VERTEX_POINT( '', #657 );
#545 = VERTEX_POINT( '', #658 );
#546 = LINE( '', #659, #660 );
#547 = VERTEX_POINT( '', #661 );
#548 = CIRCLE( '', #662, 0.00175000000000000 );
#549 = VERTEX_POINT( '', #663 );
#550 = LINE( '', #664, #665 );
#551 = CIRCLE( '', #666, 0.00175000000000000 );
#552 = FILL_AREA_STYLE_COLOUR( '', #667 );
#553 = VERTEX_POINT( '', #668 );
#554 = VERTEX_POINT( '', #669 );
#555 = LINE( '', #670, #671 );
#556 = VERTEX_POINT( '', #672 );
#557 = CIRCLE( '', #673, 0.00175000000000000 );
#558 = VERTEX_POINT( '', #674 );
#559 = LINE( '', #675, #676 );
#560 = CIRCLE( '', #677, 0.00175000000000000 );
#561 = FILL_AREA_STYLE_COLOUR( '', #678 );
#562 = VERTEX_POINT( '', #679 );
#563 = VERTEX_POINT( '', #680 );
#564 = CIRCLE( '', #681, 0.00175000000000000 );
#565 = VERTEX_POINT( '', #682 );
#566 = CIRCLE( '', #683, 0.00689300300000000 );
#567 = VERTEX_POINT( '', #684 );
#568 = B_SPLINE_CURVE_WITH_KNOTS( '', 3, ( #685, #686, #687, #688, #689, #690, #691, #692, #693, #694, #695, #696, #697 ), .UNSPECIFIED., .F., .F., ( 4, 1, 1, 1, 1, 1, 1, 1, 1, 1, 4 ), ( 0.00000000000000, 0.0661748925930374, 0.128463090675366, 0.187597358699983, 0.244345033967730, 0.361928101838665, 0.476471676299553, 0.596079490604571, 0.713548337591700, 0.848534005402206, 1.00000000000000 ), .UNSPECIFIED. );
#569 = VERTEX_POINT( '', #698 );
#570 = CIRCLE( '', #699, 0.00689300300000000 );
#571 = VERTEX_POINT( '', #700 );
#572 = CIRCLE( '', #701, 0.00175000000000000 );
#573 = VERTEX_POINT( '', #702 );
#574 = CIRCLE( '', #703, 0.00689300300000000 );
#575 = VERTEX_POINT( '', #704 );
#576 = B_SPLINE_CURVE_WITH_KNOTS( '', 3, ( #705, #706, #707, #708, #709, #710, #711, #712, #713, #714, #715, #716, #717 ), .UNSPECIFIED., .F., .F., ( 4, 1, 1, 1, 1, 1, 1, 1, 1, 1, 4 ), ( 0.00000000000000, 0.0778444966166193, 0.150360952215451, 0.218775298446282, 0.284434897729209, 0.401826341725502, 0.521188562057912, 0.635991750512775, 0.754638282433264, 0.870975824026858, 1.00000000000000 ), .UNSPECIFIED. );
#577 = CIRCLE( '', #718, 0.00689300300000000 );
#578 = VERTEX_POINT( '', #719 );
#579 = CIRCLE( '', #720, 0.00689300300000000 );
#580 = VERTEX_POINT( '', #721 );
#581 = B_SPLINE_CURVE_WITH_KNOTS( '', 3, ( #722, #723, #724, #725, #726, #727, #728, #729, #730, #731, #732, #733, #734 ), .UNSPECIFIED., .F., .F., ( 4, 1, 1, 1, 1, 1, 1, 1, 1, 1, 4 ), ( 0.00000000000000, 0.0661748925929656, 0.128463090675272, 0.187597358699914, 0.244345033967726, 0.361928101838661, 0.476471676299550, 0.596079490604567, 0.713548337591698, 0.848534005402205, 1.00000000000000 ), .UNSPECIFIED. );
#582 = CIRCLE( '', #735, 0.00689300300000000 );
#583 = VERTEX_POINT( '', #736 );
#584 = CIRCLE( '', #737, 0.00689300300000000 );
#585 = VERTEX_POINT( '', #738 );
#586 = B_SPLINE_CURVE_WITH_KNOTS( '', 3, ( #739, #740, #741, #742, #743, #744, #745, #746, #747, #748, #749, #750, #751 ), .UNSPECIFIED., .F., .F., ( 4, 1, 1, 1, 1, 1, 1, 1, 1, 1, 4 ), ( 0.00000000000000, 0.0778444966166214, 0.150360952215455, 0.218775298446286, 0.284434897729212, 0.401826341725507, 0.521188562057923, 0.635991750512792, 0.754638282433280, 0.870975824027216, 1.00000000000000 ), .UNSPECIFIED. );
#587 = CIRCLE( '', #752, 0.00689300300000000 );
#588 = VERTEX_POINT( '', #753 );
#589 = CIRCLE( '', #754, 0.00205833330000000 );
#590 = FILL_AREA_STYLE_COLOUR( '', #755 );
#591 = VERTEX_POINT( '', #756 );
#592 = LINE( '', #757, #758 );
#593 = VERTEX_POINT( '', #759 );
#594 = CIRCLE( '', #760, 0.000750000000000000 );
#595 = LINE( '', #761, #762 );
#596 = FILL_AREA_STYLE_COLOUR( '', #763 );
#597 = VERTEX_POINT( '', #764 );
#598 = LINE( '', #765, #766 );
#599 = VERTEX_POINT( '', #767 );
#600 = CIRCLE( '', #768, 0.000750000000000000 );
#601 = LINE( '', #769, #770 );
#602 = FILL_AREA_STYLE_COLOUR( '', #771 );
#603 = VERTEX_POINT( '', #772 );
#604 = LINE( '', #773, #774 );
#605 = VERTEX_POINT( '', #775 );
#606 = CIRCLE( '', #776, 0.00175000000000000 );
#607 = LINE( '', #777, #778 );
#608 = FILL_AREA_STYLE_COLOUR( '', #779 );
#609 = VERTEX_POINT( '', #780 );
#610 = LINE( '', #781, #782 );
#611 = VERTEX_POINT( '', #783 );
#612 = LINE( '', #784, #785 );
#613 = LINE( '', #786, #787 );
#614 = FILL_AREA_STYLE_COLOUR( '', #788 );
#615 = LINE( '', #789, #790 );
#616 = FILL_AREA_STYLE_COLOUR( '', #791 );
#617 = VERTEX_POINT( '', #792 );
#618 = VERTEX_POINT( '', #793 );
#619 = CIRCLE( '', #794, 0.000750000000000000 );
#620 = VERTEX_POINT( '', #795 );
#621 = LINE( '', #796, #797 );
#622 = CIRCLE( '', #798, 0.00175000000000000 );
#623 = VERTEX_POINT( '', #799 );
#624 = CIRCLE( '', #800, 0.000750000000000000 );
#625 = LINE( '', #801, #802 );
#626 = LINE( '', #803, #804 );
#627 = LINE( '', #805, #806 );
#628 = LINE( '', #807, #808 );
#629 = LINE( '', #809, #810 );
#630 = FILL_AREA_STYLE_COLOUR( '', #811 );
#631 = VERTEX_POINT( '', #812 );
#632 = CIRCLE( '', #813, 0.00125000000000000 );
#633 = FILL_AREA_STYLE_COLOUR( '', #814 );
#634 = LINE( '', #815, #816 );
#635 = FILL_AREA_STYLE_COLOUR( '', #817 );
#636 = FILL_AREA_STYLE_COLOUR( '', #818 );
#637 = LINE( '', #819, #820 );
#638 = FILL_AREA_STYLE_COLOUR( '', #821 );
#639 = VERTEX_POINT( '', #822 );
#640 = CIRCLE( '', #823, 0.00240973250000000 );
#641 = VERTEX_POINT( '', #824 );
#642 = CIRCLE( '', #825, 0.00150000000000000 );
#643 = FILL_AREA_STYLE_COLOUR( '', #826 );
#644 = VERTEX_POINT( '', #827 );
#645 = CIRCLE( '', #828, 0.00150000000000000 );
#646 = FILL_AREA_STYLE_COLOUR( '', #829 );
#647 = LINE( '', #830, #831 );
#648 = FILL_AREA_STYLE_COLOUR( '', #832 );
#649 = LINE( '', #833, #834 );
#650 = FILL_AREA_STYLE_COLOUR( '', #835 );
#651 = FILL_AREA_STYLE_COLOUR( '', #836 );
#652 = FILL_AREA_STYLE_COLOUR( '', #837 );
#653 = FILL_AREA_STYLE_COLOUR( '', #838 );
#654 = FILL_AREA_STYLE_COLOUR( '', #839 );
#655 = FILL_AREA_STYLE_COLOUR( '', #840 );
#656 = COLOUR_RGB( '', 0.850980401000000, 0.756862759600000, 0.870588243000000 );
#657 = CARTESIAN_POINT( '', ( -0.000310660171779800, 0.00100000000000000, -0.00172220505680100 ) );
#658 = CARTESIAN_POINT( '', ( -0.000310660171779800, 0.00177439135801900, -0.00172220505680100 ) );
#659 = CARTESIAN_POINT( '', ( -0.000310660171789800, 0.00100000000001000, -0.00172220505681100 ) );
#660 = VECTOR( '', #841, 1.00000000000000 );
#661 = CARTESIAN_POINT( '', ( 0.000310660171779800, 0.00100000000000000, -0.00172220505680100 ) );
#662 = AXIS2_PLACEMENT_3D( '', #842, #843, #844 );
#663 = CARTESIAN_POINT( '', ( 0.000310660171779800, 0.00177439135801900, -0.00172220505680100 ) );
#664 = CARTESIAN_POINT( '', ( 0.000310660171789800, 0.00100000000001000, -0.00172220505681100 ) );
#665 = VECTOR( '', #845, 1.00000000000000 );
#666 = AXIS2_PLACEMENT_3D( '', #846, #847, #848 );
#667 = COLOUR_RGB( '', 0.850980401000000, 0.756862759600000, 0.870588243000000 );
#668 = CARTESIAN_POINT( '', ( -0.00172220505680100, 0.00100000000000000, 0.000310660171779800 ) );
#669 = CARTESIAN_POINT( '', ( -0.00172220505680100, 0.00177439135801900, 0.000310660171779800 ) );
#670 = CARTESIAN_POINT( '', ( -0.00172220505681100, 0.00100000000001000, 0.000310660171789800 ) );
#671 = VECTOR( '', #849, 1.00000000000000 );
#672 = CARTESIAN_POINT( '', ( -0.00172220505680100, 0.00100000000000000, -0.000310660171779800 ) );
#673 = AXIS2_PLACEMENT_3D( '', #850, #851, #852 );
#674 = CARTESIAN_POINT( '', ( -0.00172220505680100, 0.00177439135801900, -0.000310660171779800 ) );
#675 = CARTESIAN_POINT( '', ( -0.00172220505681100, 0.00100000000001000, -0.000310660171789800 ) );
#676 = VECTOR( '', #853, 1.00000000000000 );
#677 = AXIS2_PLACEMENT_3D( '', #854, #855, #856 );
#678 = COLOUR_RGB( '', 0.850980401000000, 0.756862759600000, 0.870588243000000 );
#679 = CARTESIAN_POINT( '', ( 0.00172220505680100, 0.00177439135801900, -0.000310660171779800 ) );
#680 = CARTESIAN_POINT( '', ( 0.00172220505680100, 0.00177439135801900, 0.000310660171779800 ) );
#681 = AXIS2_PLACEMENT_3D( '', #857, #858, #859 );
#682 = CARTESIAN_POINT( '', ( 0.00106066017178000, 0.00191090964979500, 0.000310660171779800 ) );
#683 = AXIS2_PLACEMENT_3D( '', #860, #861, #862 );
#684 = CARTESIAN_POINT( '', ( 0.000310660171779800, 0.00191090964979500, 0.00106066017178000 ) );
#685 = CARTESIAN_POINT( '', ( 0.00106066017178817, 0.00191090964979320, 0.000310660171789263 ) );
#686 = CARTESIAN_POINT( '', ( 0.00103487622494445, 0.00191480406805233, 0.000311422179153241 ) );
#687 = CARTESIAN_POINT( '', ( 0.000984822717162815, 0.00192236417108154, 0.000312901438389762 ) );
#688 = CARTESIAN_POINT( '', ( 0.000912268222392050, 0.00193184642630813, 0.000324403526404859 ) );
#689 = CARTESIAN_POINT( '', ( 0.000844546794649982, 0.00193972194718356, 0.000341376486082004 ) );
#690 = CARTESIAN_POINT( '', ( 0.000758088669051552, 0.00194841266564963, 0.000371783368998768 ) );
#691 = CARTESIAN_POINT( '', ( 0.000656390962057208, 0.00195607867506331, 0.000423882736961658 ) );
#692 = CARTESIAN_POINT( '', ( 0.000546254526620050, 0.00195994758246321, 0.000509052164586476 ) );
#693 = CARTESIAN_POINT( '', ( 0.000453338319533640, 0.00195823598048473, 0.000613024207220780 ) );
#694 = CARTESIAN_POINT( '', ( 0.000377951439241944, 0.00195038678691924, 0.000739152324970722 ) );
#695 = CARTESIAN_POINT( '', ( 0.000322142808913715, 0.00193572950980761, 0.000889506845352600 ) );
#696 = CARTESIAN_POINT( '', ( 0.000314631761024902, 0.00191949428830393, 0.00100146203624251 ) );
#697 = CARTESIAN_POINT( '', ( 0.000310660171789266, 0.00191090964979320, 0.00106066017178817 ) );
#698 = CARTESIAN_POINT( '', ( 0.000310660171779800, 0.00177439135801900, 0.00172220505680100 ) );
#699 = AXIS2_PLACEMENT_3D( '', #863, #864, #865 );
#700 = CARTESIAN_POINT( '', ( -0.000310660171779800, 0.00177439135801900, 0.00172220505680100 ) );
#701 = AXIS2_PLACEMENT_3D( '', #866, #867, #868 );
#702 = CARTESIAN_POINT( '', ( -0.000310660171779800, 0.00191090964979500, 0.00106066017178000 ) );
#703 = AXIS2_PLACEMENT_3D( '', #869, #870, #871 );
#704 = CARTESIAN_POINT( '', ( -0.00106066017178000, 0.00191090964979500, 0.000310660171779800 ) );
#705 = CARTESIAN_POINT( '', ( -0.000310660171789267, 0.00191090964979320, 0.00106066017178817 ) );
#706 = CARTESIAN_POINT( '', ( -0.000311708760047422, 0.00191546821803548, 0.00103031502606349 ) );
#707 = CARTESIAN_POINT( '', ( -0.000313734166284612, 0.00192427334481307, 0.000971701698152204 ) );
#708 = CARTESIAN_POINT( '', ( -0.000329417784070277, 0.00193493070338998, 0.000887333020426454 ) );
#709 = CARTESIAN_POINT( '', ( -0.000352373716584300, 0.00194343064377892, 0.000809583615452663 ) );
#710 = CARTESIAN_POINT( '', ( -0.000390396685549536, 0.00195168856285381, 0.000718301589291894 ) );
#711 = CARTESIAN_POINT( '', ( -0.000451650713031105, 0.00195812226057370, 0.000615445166900717 ) );
#712 = CARTESIAN_POINT( '', ( -0.000544010732422517, 0.00195996984852583, 0.000511152068989715 ) );
#713 = CARTESIAN_POINT( '', ( -0.000654211704501334, 0.00195622133159508, 0.000425140661420358 ) );
#714 = CARTESIAN_POINT( '', ( -0.000777118843351632, 0.00194697136762807, 0.000362073825725504 ) );
#715 = CARTESIAN_POINT( '', ( -0.000914456000541193, 0.00193234048935833, 0.000319078694312730 ) );
#716 = CARTESIAN_POINT( '', ( -0.00101027399793793, 0.00191829533515960, 0.000313561437435870 ) );
#717 = CARTESIAN_POINT( '', ( -0.00106066017178817, 0.00191090964979320, 0.000310660171789262 ) );
#718 = AXIS2_PLACEMENT_3D( '', #872, #873, #874 );
#719 = CARTESIAN_POINT( '', ( -0.00106066017178000, 0.00191090964979500, -0.000310660171779800 ) );
#720 = AXIS2_PLACEMENT_3D( '', #875, #876, #877 );
#721 = CARTESIAN_POINT( '', ( -0.000310660171779800, 0.00191090964979500, -0.00106066017178000 ) );
#722 = CARTESIAN_POINT( '', ( -0.00106066017178817, 0.00191090964979320, -0.000310660171789264 ) );
#723 = CARTESIAN_POINT( '', ( -0.00103487622494447, 0.00191480406805233, -0.000311422179153244 ) );
#724 = CARTESIAN_POINT( '', ( -0.000984822717162880, 0.00192236417108153, -0.000312901438389769 ) );
#725 = CARTESIAN_POINT( '', ( -0.000912268222392143, 0.00193184642630812, -0.000324403526404874 ) );
#726 = CARTESIAN_POINT( '', ( -0.000844546794650054, 0.00193972194718355, -0.000341376486082032 ) );
#727 = CARTESIAN_POINT( '', ( -0.000758088669051565, 0.00194841266564963, -0.000371783368998731 ) );
#728 = CARTESIAN_POINT( '', ( -0.000656390962057210, 0.00195607867506331, -0.000423882736961667 ) );
#729 = CARTESIAN_POINT( '', ( -0.000546254526620049, 0.00195994758246321, -0.000509052164586474 ) );
#730 = CARTESIAN_POINT( '', ( -0.000453338319533641, 0.00195823598048473, -0.000613024207220782 ) );
#731 = CARTESIAN_POINT( '', ( -0.000377951439241943, 0.00195038678691924, -0.000739152324970721 ) );
#732 = CARTESIAN_POINT( '', ( -0.000322142808913715, 0.00193572950980761, -0.000889506845352601 ) );
#733 = CARTESIAN_POINT( '', ( -0.000314631761024901, 0.00191949428830393, -0.00100146203624251 ) );
#734 = CARTESIAN_POINT( '', ( -0.000310660171789264, 0.00191090964979320, -0.00106066017178817 ) );
#735 = AXIS2_PLACEMENT_3D( '', #878, #879, #880 );
#736 = CARTESIAN_POINT( '', ( 0.000310660171779800, 0.00191090964979500, -0.00106066017178000 ) );
#737 = AXIS2_PLACEMENT_3D( '', #881, #882, #883 );
#738 = CARTESIAN_POINT( '', ( 0.00106066017178000, 0.00191090964979500, -0.000310660171779800 ) );
#739 = CARTESIAN_POINT( '', ( 0.000310660171789264, 0.00191090964979320, -0.00106066017178817 ) );
#740 = CARTESIAN_POINT( '', ( 0.000311708760047420, 0.00191546821803548, -0.00103031502606349 ) );
#741 = CARTESIAN_POINT( '', ( 0.000313734166284612, 0.00192427334481307, -0.000971701698152204 ) );
#742 = CARTESIAN_POINT( '', ( 0.000329417784070276, 0.00193493070338998, -0.000887333020426454 ) );
#743 = CARTESIAN_POINT( '', ( 0.000352373716584298, 0.00194343064377892, -0.000809583615452664 ) );
#744 = CARTESIAN_POINT( '', ( 0.000390396685549530, 0.00195168856285381, -0.000718301589291895 ) );
#745 = CARTESIAN_POINT( '', ( 0.000451650713031101, 0.00195812226057370, -0.000615445166900719 ) );
#746 = CARTESIAN_POINT( '', ( 0.000544010732422515, 0.00195996984852583, -0.000511152068989713 ) );
#747 = CARTESIAN_POINT( '', ( 0.000654211704501337, 0.00195622133159508, -0.000425140661420370 ) );
#748 = CARTESIAN_POINT( '', ( 0.000777118843351737, 0.00194697136762806, -0.000362073825725392 ) );
#749 = CARTESIAN_POINT( '', ( 0.000914456000541372, 0.00193234048935830, -0.000319078694312906 ) );
#750 = CARTESIAN_POINT( '', ( 0.00101027399793808, 0.00191829533515957, -0.000313561437435927 ) );
#751 = CARTESIAN_POINT( '', ( 0.00106066017178817, 0.00191090964979320, -0.000310660171789264 ) );
#752 = AXIS2_PLACEMENT_3D( '', #884, #885, #886 );
#753 = CARTESIAN_POINT( '', ( 0.00205833333334300, 0.00168583813109800, 0.00000000000000 ) );
#754 = AXIS2_PLACEMENT_3D( '', #887, #888, #889 );
#755 = COLOUR_RGB( '', 0.850980401000000, 0.756862759600000, 0.870588243000000 );
#756 = CARTESIAN_POINT( '', ( -0.00106066017178000, 0.00100000000000000, -0.000310660171779800 ) );
#757 = CARTESIAN_POINT( '', ( -0.00106066017179000, 0.00100000000001000, -0.000310660171789800 ) );
#758 = VECTOR( '', #890, 1.00000000000000 );
#759 = CARTESIAN_POINT( '', ( -0.000310660171779800, 0.00100000000000000, -0.00106066017178000 ) );
#760 = AXIS2_PLACEMENT_3D( '', #891, #892, #893 );
#761 = CARTESIAN_POINT( '', ( -0.000310660171789800, 0.00100000000001000, -0.00106066017179000 ) );
#762 = VECTOR( '', #894, 1.00000000000000 );
#763 = COLOUR_RGB( '', 0.850980401000000, 0.756862759600000, 0.870588243000000 );
#764 = CARTESIAN_POINT( '', ( 0.000310660171779800, 0.00100000000000000, -0.00106066017178000 ) );
#765 = CARTESIAN_POINT( '', ( 0.000310660171789800, 0.00100000000001000, -0.00106066017179000 ) );
#766 = VECTOR( '', #895, 1.00000000000000 );
#767 = CARTESIAN_POINT( '', ( 0.00106066017178000, 0.00100000000000000, -0.000310660171779800 ) );
#768 = AXIS2_PLACEMENT_3D( '', #896, #897, #898 );
#769 = CARTESIAN_POINT( '', ( 0.00106066017179000, 0.00100000000001000, -0.000310660171789800 ) );
#770 = VECTOR( '', #899, 1.00000000000000 );
#771 = COLOUR_RGB( '', 0.850980401000000, 0.756862759600000, 0.870588243000000 );
#772 = CARTESIAN_POINT( '', ( 0.00172220505680100, 0.00100000000000000, -0.000310660171779800 ) );
#773 = CARTESIAN_POINT( '', ( 0.00172220505681100, 0.00100000000001000, -0.000310660171789800 ) );
#774 = VECTOR( '', #900, 1.00000000000000 );
#775 = CARTESIAN_POINT( '', ( 0.00172220505680100, 0.00100000000000000, 0.000310660171779800 ) );
#776 = AXIS2_PLACEMENT_3D( '', #901, #902, #903 );
#777 = CARTESIAN_POINT( '', ( 0.00172220505681100, 0.00100000000001000, 0.000310660171789800 ) );
#778 = VECTOR( '', #904, 1.00000000000000 );
#779 = COLOUR_RGB( '', 0.850980401000000, 0.756862759600000, 0.870588243000000 );
#780 = CARTESIAN_POINT( '', ( 0.000310660171779800, 0.00100000000000000, 0.00106066017178000 ) );
#781 = CARTESIAN_POINT( '', ( 0.000310660171789800, 0.00100000000001000, 0.00106066017179000 ) );
#782 = VECTOR( '', #905, 1.00000000000000 );
#783 = CARTESIAN_POINT( '', ( 0.000310660171779800, 0.00100000000000000, 0.00172220505680100 ) );
#784 = CARTESIAN_POINT( '', ( 0.000310660171789800, 0.00100000000001000, 0.00106066017179000 ) );
#785 = VECTOR( '', #906, 1.00000000000000 );
#786 = CARTESIAN_POINT( '', ( 0.000310660171789800, 0.00100000000001000, 0.00172220505681100 ) );
#787 = VECTOR( '', #907, 1.00000000000000 );
#788 = COLOUR_RGB( '', 0.850980401000000, 0.756862759600000, 0.870588243000000 );
#789 = CARTESIAN_POINT( '', ( -0.00172220505681100, 0.00100000000001000, -0.000310660171789800 ) );
#790 = VECTOR( '', #908, 1.00000000000000 );
#791 = COLOUR_RGB( '', 0.850980401000000, 0.756862759600000, 0.870588243000000 );
#792 = CARTESIAN_POINT( '', ( -0.000310660171779800, 0.00100000000000000, 0.00106066017178000 ) );
#793 = CARTESIAN_POINT( '', ( -0.00106066017178000, 0.00100000000000000, 0.000310660171779800 ) );
#794 = AXIS2_PLACEMENT_3D( '', #909, #910, #911 );
#795 = CARTESIAN_POINT( '', ( -0.000310660171779800, 0.00100000000000000, 0.00172220505680100 ) );
#796 = CARTESIAN_POINT( '', ( -0.000310660171789800, 0.00100000000001000, 0.00172220505681100 ) );
#797 = VECTOR( '', #912, 1.00000000000000 );
#798 = AXIS2_PLACEMENT_3D( '', #913, #914, #915 );
#799 = CARTESIAN_POINT( '', ( 0.00106066017178000, 0.00100000000000000, 0.000310660171779800 ) );
#800 = AXIS2_PLACEMENT_3D( '', #916, #917, #918 );
#801 = CARTESIAN_POINT( '', ( 0.00172220505681100, 0.00100000000001000, 0.000310660171789800 ) );
#802 = VECTOR( '', #919, 1.00000000000000 );
#803 = CARTESIAN_POINT( '', ( 0.00106066017179000, 0.00100000000001000, -0.000310660171789800 ) );
#804 = VECTOR( '', #920, 1.00000000000000 );
#805 = CARTESIAN_POINT( '', ( 0.000310660171789800, 0.00100000000001000, -0.00172220505681100 ) );
#806 = VECTOR( '', #921, 1.00000000000000 );
#807 = CARTESIAN_POINT( '', ( -0.000310660171789800, 0.00100000000001000, -0.00106066017179000 ) );
#808 = VECTOR( '', #922, 1.00000000000000 );
#809 = CARTESIAN_POINT( '', ( -0.00106066017179000, 0.00100000000001000, 0.000310660171789800 ) );
#810 = VECTOR( '', #923, 1.00000000000000 );
#811 = COLOUR_RGB( '', 0.850980401000000, 0.756862759600000, 0.870588243000000 );
#812 = CARTESIAN_POINT( '', ( -0.00125000000001000, -0.00600000000001000, 0.00000000000000 ) );
#813 = AXIS2_PLACEMENT_3D( '', #924, #925, #926 );
#814 = COLOUR_RGB( '', 0.850980401000000, 0.756862759600000, 0.870588243000000 );
#815 = CARTESIAN_POINT( '', ( -0.00106066017179000, 0.00100000000001000, 0.000310660171789800 ) );
#816 = VECTOR( '', #927, 1.00000000000000 );
#817 = COLOUR_RGB( '', 0.850980401000000, 0.756862759600000, 0.870588243000000 );
#818 = COLOUR_RGB( '', 0.850980401000000, 0.756862759600000, 0.870588243000000 );
#819 = CARTESIAN_POINT( '', ( 0.00106066017179000, 0.00100000000001000, 0.000310660171789800 ) );
#820 = VECTOR( '', #928, 1.00000000000000 );
#821 = COLOUR_RGB( '', 0.850980401000000, 0.756862759600000, 0.870588243000000 );
#822 = CARTESIAN_POINT( '', ( 0.00240973247865900, 0.00000000000000, 0.00000000000000 ) );
#823 = AXIS2_PLACEMENT_3D( '', #929, #930, #931 );
#824 = CARTESIAN_POINT( '', ( 0.00150000000001000, 0.00000000000000, 0.00000000000000 ) );
#825 = AXIS2_PLACEMENT_3D( '', #932, #933, #934 );
#826 = COLOUR_RGB( '', 0.850980401000000, 0.756862759600000, 0.870588243000000 );
#827 = CARTESIAN_POINT( '', ( -0.00150000000001000, -0.00575000000001000, 0.00000000000000 ) );
#828 = AXIS2_PLACEMENT_3D( '', #935, #936, #937 );
#829 = COLOUR_RGB( '', 0.850980401000000, 0.756862759600000, 0.870588243000000 );
#830 = CARTESIAN_POINT( '', ( -0.000310660171789800, 0.00100000000001000, 0.00106066017179000 ) );
#831 = VECTOR( '', #938, 1.00000000000000 );
#832 = COLOUR_RGB( '', 0.850980401000000, 0.756862759600000, 0.870588243000000 );
#833 = CARTESIAN_POINT( '', ( -0.000310660171789800, 0.00100000000001000, 0.00172220505681100 ) );
#834 = VECTOR( '', #939, 1.00000000000000 );
#835 = COLOUR_RGB( '', 0.850980401000000, 0.756862759600000, 0.870588243000000 );
#836 = COLOUR_RGB( '', 0.850980401000000, 0.756862759600000, 0.870588243000000 );
#837 = COLOUR_RGB( '', 0.850980401000000, 0.756862759600000, 0.870588243000000 );
#838 = COLOUR_RGB( '', 0.850980401000000, 0.756862759600000, 0.870588243000000 );
#839 = COLOUR_RGB( '', 0.850980401000000, 0.756862759600000, 0.870588243000000 );
#840 = COLOUR_RGB( '', 0.850980401000000, 0.756862759600000, 0.870588243000000 );
#841 = DIRECTION( '', ( 0.00000000000000, 1.00000000000000, 0.00000000000000 ) );
#842 = CARTESIAN_POINT( '', ( 0.00000000000000, 0.00100000000001000, 0.00000000000000 ) );
#843 = DIRECTION( '', ( 0.00000000000000, -1.00000000000000, -0.00000000000000 ) );
#844 = DIRECTION( '', ( -0.177520098164429, 0.00000000000000, -0.984117175313840 ) );
#845 = DIRECTION( '', ( 0.00000000000000, 1.00000000000000, 0.00000000000000 ) );
#846 = CARTESIAN_POINT( '', ( 0.00000000000000, 0.00177439135802900, 0.00000000000000 ) );
#847 = DIRECTION( '', ( 0.00000000000000, -1.00000000000000, -0.00000000000000 ) );
#848 = DIRECTION( '', ( -0.177520098164429, 0.00000000000000, -0.984117175313840 ) );
#849 = DIRECTION( '', ( 0.00000000000000, 1.00000000000000, 0.00000000000000 ) );
#850 = CARTESIAN_POINT( '', ( 0.00000000000000, 0.00100000000001000, 0.00000000000000 ) );
#851 = DIRECTION( '', ( 0.00000000000000, -1.00000000000000, 0.00000000000000 ) );
#852 = DIRECTION( '', ( -0.984117175313840, 0.00000000000000, 0.177520098164429 ) );
#853 = DIRECTION( '', ( 0.00000000000000, 1.00000000000000, 0.00000000000000 ) );
#854 = CARTESIAN_POINT( '', ( 0.00000000000000, 0.00177439135802900, 0.00000000000000 ) );
#855 = DIRECTION( '', ( 0.00000000000000, -1.00000000000000, 0.00000000000000 ) );
#856 = DIRECTION( '', ( -1.00000000000000, 0.00000000000000, 0.00000000000000 ) );
#857 = CARTESIAN_POINT( '', ( 0.00000000000000, 0.00177439135802900, 0.00000000000000 ) );
#858 = DIRECTION( '', ( 0.00000000000000, -1.00000000000000, 0.00000000000000 ) );
#859 = DIRECTION( '', ( 0.984117175313840, 0.00000000000000, -0.177520098164429 ) );
#860 = CARTESIAN_POINT( '', ( 0.00000000000000, -0.00490000000001000, 0.000310660171789800 ) );
#861 = DIRECTION( '', ( 0.00000000000000, -0.00000000000000, 1.00000000000000 ) );
#862 = DIRECTION( '', ( 0.249848296689616, 0.968284993502067, 0.00000000000000 ) );
#863 = CARTESIAN_POINT( '', ( 0.000310660171789800, -0.00490000000001000, 0.00000000000000 ) );
#864 = DIRECTION( '', ( 1.00000000000000, 0.00000000000000, -0.00000000000000 ) );
#865 = DIRECTION( '', ( 0.00000000000000, 0.988090336967110, 0.153874903711495 ) );
#866 = CARTESIAN_POINT( '', ( 0.00000000000000, 0.00177439135802900, 0.00000000000000 ) );
#867 = DIRECTION( '', ( 0.00000000000000, -1.00000000000000, 0.00000000000000 ) );
#868 = DIRECTION( '', ( 0.177520098164429, 0.00000000000000, 0.984117175313840 ) );
#869 = CARTESIAN_POINT( '', ( -0.000310660171789800, -0.00490000000001000, 0.00000000000000 ) );
#870 = DIRECTION( '', ( -1.00000000000000, 0.00000000000000, 0.00000000000000 ) );
#871 = DIRECTION( '', ( 0.00000000000000, 0.968284993502067, 0.249848296689616 ) );
#872 = CARTESIAN_POINT( '', ( 0.00000000000000, -0.00490000000001000, 0.000310660171789800 ) );
#873 = DIRECTION( '', ( 0.00000000000000, 0.00000000000000, 1.00000000000000 ) );
#874 = DIRECTION( '', ( -0.153874903711495, 0.988090336967110, 0.00000000000000 ) );
#875 = CARTESIAN_POINT( '', ( 0.00000000000000, -0.00490000000001000, -0.000310660171789800 ) );
#876 = DIRECTION( '', ( 0.00000000000000, 0.00000000000000, -1.00000000000000 ) );
#877 = DIRECTION( '', ( -0.249848296689616, 0.968284993502067, 0.00000000000000 ) );
#878 = CARTESIAN_POINT( '', ( -0.000310660171789800, -0.00490000000001000, 0.00000000000000 ) );
#879 = DIRECTION( '', ( -1.00000000000000, 0.00000000000000, 0.00000000000000 ) );
#880 = DIRECTION( '', ( 0.00000000000000, 0.988090336967110, -0.153874903711495 ) );
#881 = CARTESIAN_POINT( '', ( 0.000310660171789800, -0.00490000000001000, 0.00000000000000 ) );
#882 = DIRECTION( '', ( 1.00000000000000, 0.00000000000000, 0.00000000000000 ) );
#883 = DIRECTION( '', ( 0.00000000000000, 0.968284993502067, -0.249848296689616 ) );
#884 = CARTESIAN_POINT( '', ( 0.00000000000000, -0.00490000000001000, -0.000310660171789800 ) );
#885 = DIRECTION( '', ( 0.00000000000000, 0.00000000000000, -1.00000000000000 ) );
#886 = DIRECTION( '', ( 0.153874903711495, 0.988090336967110, 0.00000000000000 ) );
#887 = CARTESIAN_POINT( '', ( 0.00000000000000, 0.00168583813109800, 0.00000000000000 ) );
#888 = DIRECTION( '', ( 0.00000000000000, -1.00000000000000, 0.00000000000000 ) );
#889 = DIRECTION( '', ( 1.00000000000000, 0.00000000000000, 0.00000000000000 ) );
#890 = DIRECTION( '', ( 0.00000000000000, 1.00000000000000, 0.00000000000000 ) );
#891 = CARTESIAN_POINT( '', ( -0.00106066017179000, 0.00100000000001000, -0.00106066017179000 ) );
#892 = DIRECTION( '', ( 0.00000000000000, 1.00000000000000, 0.00000000000000 ) );
#893 = DIRECTION( '', ( 0.00000000000000, 0.00000000000000, 1.00000000000000 ) );
#894 = DIRECTION( '', ( 0.00000000000000, 1.00000000000000, 0.00000000000000 ) );
#895 = DIRECTION( '', ( 0.00000000000000, 1.00000000000000, 0.00000000000000 ) );
#896 = CARTESIAN_POINT( '', ( 0.00106066017179000, 0.00100000000001000, -0.00106066017179000 ) );
#897 = DIRECTION( '', ( 0.00000000000000, 1.00000000000000, 0.00000000000000 ) );
#898 = DIRECTION( '', ( -1.00000000000000, 0.00000000000000, 0.00000000000000 ) );
#899 = DIRECTION( '', ( 0.00000000000000, 1.00000000000000, 0.00000000000000 ) );
#900 = DIRECTION( '', ( 0.00000000000000, 1.00000000000000, 0.00000000000000 ) );
#901 = CARTESIAN_POINT( '', ( 0.00000000000000, 0.00100000000001000, 0.00000000000000 ) );
#902 = DIRECTION( '', ( 0.00000000000000, -1.00000000000000, 0.00000000000000 ) );
#903 = DIRECTION( '', ( 0.984117175313840, 0.00000000000000, -0.177520098164429 ) );
#904 = DIRECTION( '', ( 0.00000000000000, 1.00000000000000, 0.00000000000000 ) );
#905 = DIRECTION( '', ( 0.00000000000000, 1.00000000000000, 0.00000000000000 ) );
#906 = DIRECTION( '', ( 0.00000000000000, 0.00000000000000, 1.00000000000000 ) );
#907 = DIRECTION( '', ( 0.00000000000000, 1.00000000000000, 0.00000000000000 ) );
#908 = DIRECTION( '', ( 1.00000000000000, 0.00000000000000, 0.00000000000000 ) );
#909 = CARTESIAN_POINT( '', ( -0.00106066017179000, 0.00100000000001000, 0.00106066017179000 ) );
#910 = DIRECTION( '', ( -0.00000000000000, 1.00000000000000, 0.00000000000000 ) );
#911 = DIRECTION( '', ( 1.00000000000000, 0.00000000000000, 0.00000000000000 ) );
#912 = DIRECTION( '', ( 0.00000000000000, 0.00000000000000, -1.00000000000000 ) );
#913 = CARTESIAN_POINT( '', ( 0.00000000000000, 0.00100000000001000, 0.00000000000000 ) );
#914 = DIRECTION( '', ( 0.00000000000000, -1.00000000000000, 0.00000000000000 ) );
#915 = DIRECTION( '', ( 0.177520098164429, 0.00000000000000, 0.984117175313840 ) );
#916 = CARTESIAN_POINT( '', ( 0.00106066017179000, 0.00100000000001000, 0.00106066017179000 ) );
#917 = DIRECTION( '', ( 0.00000000000000, 1.00000000000000, 0.00000000000000 ) );
#918 = DIRECTION( '', ( 0.00000000000000, 0.00000000000000, -1.00000000000000 ) );
#919 = DIRECTION( '', ( -1.00000000000000, 0.00000000000000, 0.00000000000000 ) );
#920 = DIRECTION( '', ( 1.00000000000000, 0.00000000000000, 0.00000000000000 ) );
#921 = DIRECTION( '', ( 0.00000000000000, 0.00000000000000, 1.00000000000000 ) );
#922 = DIRECTION( '', ( 0.00000000000000, 0.00000000000000, -1.00000000000000 ) );
#923 = DIRECTION( '', ( -1.00000000000000, 0.00000000000000, 0.00000000000000 ) );
#924 = CARTESIAN_POINT( '', ( 0.00000000000000, -0.00600000000001000, 0.00000000000000 ) );
#925 = DIRECTION( '', ( 0.00000000000000, 1.00000000000000, 0.00000000000000 ) );
#926 = DIRECTION( '', ( -1.00000000000000, 0.00000000000000, 0.00000000000000 ) );
#927 = DIRECTION( '', ( 0.00000000000000, 1.00000000000000, 0.00000000000000 ) );
#928 = DIRECTION( '', ( 0.00000000000000, 1.00000000000000, 0.00000000000000 ) );
#929 = CARTESIAN_POINT( '', ( 0.00000000000000, 0.00000000000000, 0.00000000000000 ) );
#930 = DIRECTION( '', ( -0.00000000000000, 1.00000000000000, 0.00000000000000 ) );
#931 = DIRECTION( '', ( 1.00000000000000, 0.00000000000000, 0.00000000000000 ) );
#932 = CARTESIAN_POINT( '', ( 0.00000000000000, 0.00000000000000, 0.00000000000000 ) );
#933 = DIRECTION( '', ( 0.00000000000000, -1.00000000000000, 0.00000000000000 ) );
#934 = DIRECTION( '', ( 1.00000000000000, 0.00000000000000, 0.00000000000000 ) );
#935 = CARTESIAN_POINT( '', ( 0.00000000000000, -0.00575000000001000, 0.00000000000000 ) );
#936 = DIRECTION( '', ( 0.00000000000000, -1.00000000000000, 0.00000000000000 ) );
#937 = DIRECTION( '', ( -1.00000000000000, 0.00000000000000, 0.00000000000000 ) );
#938 = DIRECTION( '', ( 0.00000000000000, 1.00000000000000, 0.00000000000000 ) );
#939 = DIRECTION( '', ( 0.00000000000000, 1.00000000000000, 0.00000000000000 ) );
ENDSEC;
END-ISO-10303-21;
