ISO-10303-21;
HEADER;
FILE_DESCRIPTION( ( '' ), ' ' );
FILE_NAME( '/vol/tmp/translate-6398861055380293389/589d390ec139c90fab49b5bd.step', '2017-02-10T03:52:47', ( '' ), ( '' ), ' ', ' ', ' ' );
FILE_SCHEMA( ( 'AUTOMOTIVE_DESIGN { 1 0 10303 214 1 1 1 1 }' ) );
ENDSEC;
DATA;
#1 = MECHANICAL_DESIGN_GEOMETRIC_PRESENTATION_REPRESENTATION( ' ', ( #10, #11, #12, #13, #14, #15, #16, #17, #18, #19, #20, #21, #22, #23, #24, #25, #26, #27, #28, #29, #30, #31, #32 ), #6 );
#2 = PRODUCT_DEFINITION_CONTEXT( '', #33, 'design' );
#3 = APPLICATION_PROTOCOL_DEFINITION( 'international standard', 'automotive_design', 2001, #33 );
#4 = PRODUCT_CATEGORY_RELATIONSHIP( 'NONE', 'NONE', #34, #35 );
#5 = SHAPE_DEFINITION_REPRESENTATION( #36, #37 );
#6 =  ( GEOMETRIC_REPRESENTATION_CONTEXT( 3 )GLOBAL_UNCERTAINTY_ASSIGNED_CONTEXT( ( #40 ) )GLOBAL_UNIT_ASSIGNED_CONTEXT( ( #42, #43, #44 ) )REPRESENTATION_CONTEXT( 'NONE', 'WORKSPACE' ) );
#10 = STYLED_ITEM( '', ( #46 ), #47 );
#11 = STYLED_ITEM( '', ( #48 ), #49 );
#12 = STYLED_ITEM( '', ( #50 ), #51 );
#13 = STYLED_ITEM( '', ( #52 ), #53 );
#14 = STYLED_ITEM( '', ( #54 ), #55 );
#15 = STYLED_ITEM( '', ( #56 ), #57 );
#16 = STYLED_ITEM( '', ( #58 ), #59 );
#17 = STYLED_ITEM( '', ( #60 ), #61 );
#18 = STYLED_ITEM( '', ( #62 ), #63 );
#19 = STYLED_ITEM( '', ( #64 ), #65 );
#20 = STYLED_ITEM( '', ( #66 ), #67 );
#21 = STYLED_ITEM( '', ( #68 ), #69 );
#22 = STYLED_ITEM( '', ( #70 ), #71 );
#23 = STYLED_ITEM( '', ( #72 ), #73 );
#24 = STYLED_ITEM( '', ( #74 ), #75 );
#25 = STYLED_ITEM( '', ( #76 ), #77 );
#26 = STYLED_ITEM( '', ( #78 ), #79 );
#27 = STYLED_ITEM( '', ( #80 ), #81 );
#28 = STYLED_ITEM( '', ( #82 ), #83 );
#29 = STYLED_ITEM( '', ( #84 ), #85 );
#30 = STYLED_ITEM( '', ( #86 ), #87 );
#31 = STYLED_ITEM( '', ( #88 ), #89 );
#32 = STYLED_ITEM( '', ( #90 ), #91 );
#33 = APPLICATION_CONTEXT( 'core data for automotive mechanical design processes' );
#34 = PRODUCT_CATEGORY( 'part', 'NONE' );
#35 = PRODUCT_RELATED_PRODUCT_CATEGORY( 'detail', ' ', ( #92 ) );
#36 = PRODUCT_DEFINITION_SHAPE( 'NONE', 'NONE', #93 );
#37 = ADVANCED_BREP_SHAPE_REPRESENTATION( 'PHS_M2_5X12', ( #94, #95 ), #6 );
#40 = UNCERTAINTY_MEASURE_WITH_UNIT( LENGTH_MEASURE( 1.00000000000000E-06 ), #42, '', '' );
#42 =  ( CONVERSION_BASED_UNIT( 'METRE', #98 )LENGTH_UNIT(  )NAMED_UNIT( #101 ) );
#43 =  ( NAMED_UNIT( #103 )PLANE_ANGLE_UNIT(  )SI_UNIT( $, .RADIAN. ) );
#44 =  ( NAMED_UNIT( #103 )SI_UNIT( $, .STERADIAN. )SOLID_ANGLE_UNIT(  ) );
#46 = PRESENTATION_STYLE_ASSIGNMENT( ( #109 ) );
#47 = ADVANCED_FACE( '', ( #110 ), #111, .T. );
#48 = PRESENTATION_STYLE_ASSIGNMENT( ( #112 ) );
#49 = ADVANCED_FACE( '', ( #113 ), #114, .F. );
#50 = PRESENTATION_STYLE_ASSIGNMENT( ( #115 ) );
#51 = ADVANCED_FACE( '', ( #116 ), #117, .F. );
#52 = PRESENTATION_STYLE_ASSIGNMENT( ( #118 ) );
#53 = ADVANCED_FACE( '', ( #119 ), #120, .F. );
#54 = PRESENTATION_STYLE_ASSIGNMENT( ( #121 ) );
#55 = ADVANCED_FACE( '', ( #122 ), #123, .F. );
#56 = PRESENTATION_STYLE_ASSIGNMENT( ( #124 ) );
#57 = ADVANCED_FACE( '', ( #125 ), #126, .F. );
#58 = PRESENTATION_STYLE_ASSIGNMENT( ( #127 ) );
#59 = ADVANCED_FACE( '', ( #128, #129 ), #130, .T. );
#60 = PRESENTATION_STYLE_ASSIGNMENT( ( #131 ) );
#61 = ADVANCED_FACE( '', ( #132, #133 ), #134, .T. );
#62 = PRESENTATION_STYLE_ASSIGNMENT( ( #135 ) );
#63 = ADVANCED_FACE( '', ( #136 ), #137, .F. );
#64 = PRESENTATION_STYLE_ASSIGNMENT( ( #138 ) );
#65 = ADVANCED_FACE( '', ( #139, #140, #141 ), #142, .T. );
#66 = PRESENTATION_STYLE_ASSIGNMENT( ( #143 ) );
#67 = ADVANCED_FACE( '', ( #144 ), #145, .F. );
#68 = PRESENTATION_STYLE_ASSIGNMENT( ( #146 ) );
#69 = ADVANCED_FACE( '', ( #147 ), #148, .T. );
#70 = PRESENTATION_STYLE_ASSIGNMENT( ( #149 ) );
#71 = ADVANCED_FACE( '', ( #150, #151 ), #152, .T. );
#72 = PRESENTATION_STYLE_ASSIGNMENT( ( #153 ) );
#73 = ADVANCED_FACE( '', ( #154 ), #155, .F. );
#74 = PRESENTATION_STYLE_ASSIGNMENT( ( #156 ) );
#75 = ADVANCED_FACE( '', ( #157 ), #158, .F. );
#76 = PRESENTATION_STYLE_ASSIGNMENT( ( #159 ) );
#77 = ADVANCED_FACE( '', ( #160 ), #161, .T. );
#78 = PRESENTATION_STYLE_ASSIGNMENT( ( #162 ) );
#79 = ADVANCED_FACE( '', ( #163 ), #164, .F. );
#80 = PRESENTATION_STYLE_ASSIGNMENT( ( #165 ) );
#81 = ADVANCED_FACE( '', ( #166 ), #167, .F. );
#82 = PRESENTATION_STYLE_ASSIGNMENT( ( #168 ) );
#83 = ADVANCED_FACE( '', ( #169, #170 ), #171, .T. );
#84 = PRESENTATION_STYLE_ASSIGNMENT( ( #172 ) );
#85 = ADVANCED_FACE( '', ( #173 ), #174, .T. );
#86 = PRESENTATION_STYLE_ASSIGNMENT( ( #175 ) );
#87 = ADVANCED_FACE( '', ( #176 ), #177, .T. );
#88 = PRESENTATION_STYLE_ASSIGNMENT( ( #178 ) );
#89 = ADVANCED_FACE( '', ( #179 ), #180, .F. );
#90 = PRESENTATION_STYLE_ASSIGNMENT( ( #181 ) );
#91 = ADVANCED_FACE( '', ( #182 ), #183, .F. );
#92 = PRODUCT( 'PHS_M2_5X12', 'PHS_M2_5X12', 'PART-PHS_M2_5X12-DESC', ( #184 ) );
#93 = PRODUCT_DEFINITION( 'NONE', 'NONE', #185, #2 );
#94 = MANIFOLD_SOLID_BREP( 'PHS_M2_5X12', #186 );
#95 = AXIS2_PLACEMENT_3D( '', #187, #188, #189 );
#98 = LENGTH_MEASURE_WITH_UNIT( LENGTH_MEASURE( 1.00000000000000 ), #190 );
#101 = DIMENSIONAL_EXPONENTS( 1.00000000000000, 0.00000000000000, 0.00000000000000, 0.00000000000000, 0.00000000000000, 0.00000000000000, 0.00000000000000 );
#103 = DIMENSIONAL_EXPONENTS( 0.00000000000000, 0.00000000000000, 0.00000000000000, 0.00000000000000, 0.00000000000000, 0.00000000000000, 0.00000000000000 );
#109 = SURFACE_STYLE_USAGE( .BOTH., #191 );
#110 = FACE_OUTER_BOUND( '', #192, .T. );
#111 = PLANE( '', #193 );
#112 = SURFACE_STYLE_USAGE( .BOTH., #194 );
#113 = FACE_OUTER_BOUND( '', #195, .T. );
#114 = CYLINDRICAL_SURFACE( '', #196, 0.00150000000000000 );
#115 = SURFACE_STYLE_USAGE( .BOTH., #197 );
#116 = FACE_OUTER_BOUND( '', #198, .T. );
#117 = PLANE( '', #199 );
#118 = SURFACE_STYLE_USAGE( .BOTH., #200 );
#119 = FACE_OUTER_BOUND( '', #201, .T. );
#120 = PLANE( '', #202 );
#121 = SURFACE_STYLE_USAGE( .BOTH., #203 );
#122 = FACE_OUTER_BOUND( '', #204, .T. );
#123 = PLANE( '', #205 );
#124 = SURFACE_STYLE_USAGE( .BOTH., #206 );
#125 = FACE_OUTER_BOUND( '', #207, .T. );
#126 = PLANE( '', #208 );
#127 = SURFACE_STYLE_USAGE( .BOTH., #209 );
#128 = FACE_BOUND( '', #210, .T. );
#129 = FACE_OUTER_BOUND( '', #211, .T. );
#130 = CONICAL_SURFACE( '', #212, 0.00116250000000000, 0.785398163400000 );
#131 = SURFACE_STYLE_USAGE( .BOTH., #213 );
#132 = FACE_OUTER_BOUND( '', #214, .T. );
#133 = FACE_BOUND( '', #215, .T. );
#134 = PLANE( '', #216 );
#135 = SURFACE_STYLE_USAGE( .BOTH., #217 );
#136 = FACE_OUTER_BOUND( '', #218, .T. );
#137 = PLANE( '', #219 );
#138 = SURFACE_STYLE_USAGE( .BOTH., #220 );
#139 = FACE_BOUND( '', #221, .T. );
#140 = FACE_OUTER_BOUND( '', #222, .T. );
#141 = FACE_OUTER_BOUND( '', #223, .T. );
#142 = TOROIDAL_SURFACE( '', #224, 0.00142857140000000, 0.000821428600000000 );
#143 = SURFACE_STYLE_USAGE( .BOTH., #225 );
#144 = FACE_OUTER_BOUND( '', #226, .T. );
#145 = PLANE( '', #227 );
#146 = SURFACE_STYLE_USAGE( .BOTH., #228 );
#147 = FACE_OUTER_BOUND( '', #229, .T. );
#148 = CYLINDRICAL_SURFACE( '', #230, 0.000625000000000000 );
#149 = SURFACE_STYLE_USAGE( .BOTH., #231 );
#150 = FACE_OUTER_BOUND( '', #232, .T. );
#151 = FACE_OUTER_BOUND( '', #233, .T. );
#152 = CYLINDRICAL_SURFACE( '', #234, 0.00125000000000000 );
#153 = SURFACE_STYLE_USAGE( .BOTH., #235 );
#154 = FACE_OUTER_BOUND( '', #236, .T. );
#155 = PLANE( '', #237 );
#156 = SURFACE_STYLE_USAGE( .BOTH., #238 );
#157 = FACE_OUTER_BOUND( '', #239, .T. );
#158 = CYLINDRICAL_SURFACE( '', #240, 0.00150000000000000 );
#159 = SURFACE_STYLE_USAGE( .BOTH., #241 );
#160 = FACE_OUTER_BOUND( '', #242, .T. );
#161 = CYLINDRICAL_SURFACE( '', #243, 0.000625000000000000 );
#162 = SURFACE_STYLE_USAGE( .BOTH., #244 );
#163 = FACE_OUTER_BOUND( '', #245, .T. );
#164 = PLANE( '', #246 );
#165 = SURFACE_STYLE_USAGE( .BOTH., #247 );
#166 = FACE_OUTER_BOUND( '', #248, .T. );
#167 = PLANE( '', #249 );
#168 = SURFACE_STYLE_USAGE( .BOTH., #250 );
#169 = FACE_OUTER_BOUND( '', #251, .T. );
#170 = FACE_OUTER_BOUND( '', #252, .T. );
#171 = SPHERICAL_SURFACE( '', #253, 0.00575000000000000 );
#172 = SURFACE_STYLE_USAGE( .BOTH., #254 );
#173 = FACE_OUTER_BOUND( '', #255, .T. );
#174 = CYLINDRICAL_SURFACE( '', #256, 0.000625000000000000 );
#175 = SURFACE_STYLE_USAGE( .BOTH., #257 );
#176 = FACE_OUTER_BOUND( '', #258, .T. );
#177 = CYLINDRICAL_SURFACE( '', #259, 0.000625000000000000 );
#178 = SURFACE_STYLE_USAGE( .BOTH., #260 );
#179 = FACE_OUTER_BOUND( '', #261, .T. );
#180 = CYLINDRICAL_SURFACE( '', #262, 0.00150000000000000 );
#181 = SURFACE_STYLE_USAGE( .BOTH., #263 );
#182 = FACE_OUTER_BOUND( '', #264, .T. );
#183 = CYLINDRICAL_SURFACE( '', #265, 0.00150000000000000 );
#184 = PRODUCT_CONTEXT( '', #33, 'mechanical' );
#185 = PRODUCT_DEFINITION_FORMATION_WITH_SPECIFIED_SOURCE( ' ', 'NONE', #92, .NOT_KNOWN. );
#186 = CLOSED_SHELL( '', ( #85, #57, #51, #47, #59, #73, #61, #71, #63, #69, #81, #79, #87, #53, #49, #65, #83, #55, #75, #89, #67, #77, #91 ) );
#187 = CARTESIAN_POINT( '', ( 0.00000000000000, 0.00000000000000, 0.00000000000000 ) );
#188 = DIRECTION( '', ( 0.00000000000000, 0.00000000000000, 1.00000000000000 ) );
#189 = DIRECTION( '', ( 1.00000000000000, 0.00000000000000, 0.00000000000000 ) );
#190 =  ( LENGTH_UNIT(  )NAMED_UNIT( #101 )SI_UNIT( $, .METRE. ) );
#191 = SURFACE_SIDE_STYLE( '', ( #267 ) );
#192 = EDGE_LOOP( '', ( #268 ) );
#193 = AXIS2_PLACEMENT_3D( '', #269, #270, #271 );
#194 = SURFACE_SIDE_STYLE( '', ( #272 ) );
#195 = EDGE_LOOP( '', ( #273, #274, #275, #276 ) );
#196 = AXIS2_PLACEMENT_3D( '', #277, #278, #279 );
#197 = SURFACE_SIDE_STYLE( '', ( #280 ) );
#198 = EDGE_LOOP( '', ( #281, #282, #283, #284 ) );
#199 = AXIS2_PLACEMENT_3D( '', #285, #286, #287 );
#200 = SURFACE_SIDE_STYLE( '', ( #288 ) );
#201 = EDGE_LOOP( '', ( #289, #290, #291, #292 ) );
#202 = AXIS2_PLACEMENT_3D( '', #293, #294, #295 );
#203 = SURFACE_SIDE_STYLE( '', ( #296 ) );
#204 = EDGE_LOOP( '', ( #297, #298, #299, #300 ) );
#205 = AXIS2_PLACEMENT_3D( '', #301, #302, #303 );
#206 = SURFACE_SIDE_STYLE( '', ( #304 ) );
#207 = EDGE_LOOP( '', ( #305, #306, #307, #308 ) );
#208 = AXIS2_PLACEMENT_3D( '', #309, #310, #311 );
#209 = SURFACE_SIDE_STYLE( '', ( #312 ) );
#210 = EDGE_LOOP( '', ( #313 ) );
#211 = EDGE_LOOP( '', ( #314 ) );
#212 = AXIS2_PLACEMENT_3D( '', #315, #316, #317 );
#213 = SURFACE_SIDE_STYLE( '', ( #318 ) );
#214 = EDGE_LOOP( '', ( #319 ) );
#215 = EDGE_LOOP( '', ( #320 ) );
#216 = AXIS2_PLACEMENT_3D( '', #321, #322, #323 );
#217 = SURFACE_SIDE_STYLE( '', ( #324 ) );
#218 = EDGE_LOOP( '', ( #325, #326, #327, #328, #329, #330, #331, #332, #333, #334, #335, #336, #337, #338, #339, #340 ) );
#219 = AXIS2_PLACEMENT_3D( '', #341, #342, #343 );
#220 = SURFACE_SIDE_STYLE( '', ( #344 ) );
#221 = VERTEX_LOOP( '', #345 );
#222 = EDGE_LOOP( '', ( #346 ) );
#223 = EDGE_LOOP( '', ( #347 ) );
#224 = AXIS2_PLACEMENT_3D( '', #348, #349, #350 );
#225 = SURFACE_SIDE_STYLE( '', ( #351 ) );
#226 = EDGE_LOOP( '', ( #352, #353, #354, #355 ) );
#227 = AXIS2_PLACEMENT_3D( '', #356, #357, #358 );
#228 = SURFACE_SIDE_STYLE( '', ( #359 ) );
#229 = EDGE_LOOP( '', ( #360, #361, #362, #363 ) );
#230 = AXIS2_PLACEMENT_3D( '', #364, #365, #366 );
#231 = SURFACE_SIDE_STYLE( '', ( #367 ) );
#232 = EDGE_LOOP( '', ( #368 ) );
#233 = EDGE_LOOP( '', ( #369 ) );
#234 = AXIS2_PLACEMENT_3D( '', #370, #371, #372 );
#235 = SURFACE_SIDE_STYLE( '', ( #373 ) );
#236 = EDGE_LOOP( '', ( #374, #375, #376, #377 ) );
#237 = AXIS2_PLACEMENT_3D( '', #378, #379, #380 );
#238 = SURFACE_SIDE_STYLE( '', ( #381 ) );
#239 = EDGE_LOOP( '', ( #382, #383, #384, #385 ) );
#240 = AXIS2_PLACEMENT_3D( '', #386, #387, #388 );
#241 = SURFACE_SIDE_STYLE( '', ( #389 ) );
#242 = EDGE_LOOP( '', ( #390, #391, #392, #393 ) );
#243 = AXIS2_PLACEMENT_3D( '', #394, #395, #396 );
#244 = SURFACE_SIDE_STYLE( '', ( #397 ) );
#245 = EDGE_LOOP( '', ( #398, #399, #400, #401 ) );
#246 = AXIS2_PLACEMENT_3D( '', #402, #403, #404 );
#247 = SURFACE_SIDE_STYLE( '', ( #405 ) );
#248 = EDGE_LOOP( '', ( #406, #407, #408, #409 ) );
#249 = AXIS2_PLACEMENT_3D( '', #410, #411, #412 );
#250 = SURFACE_SIDE_STYLE( '', ( #413 ) );
#251 = EDGE_LOOP( '', ( #414, #415, #416, #417, #418, #419, #420, #421, #422, #423, #424, #425, #426, #427, #428, #429 ) );
#252 = EDGE_LOOP( '', ( #430 ) );
#253 = AXIS2_PLACEMENT_3D( '', #431, #432, #433 );
#254 = SURFACE_SIDE_STYLE( '', ( #434 ) );
#255 = EDGE_LOOP( '', ( #435, #436, #437, #438 ) );
#256 = AXIS2_PLACEMENT_3D( '', #439, #440, #441 );
#257 = SURFACE_SIDE_STYLE( '', ( #442 ) );
#258 = EDGE_LOOP( '', ( #443, #444, #445, #446 ) );
#259 = AXIS2_PLACEMENT_3D( '', #447, #448, #449 );
#260 = SURFACE_SIDE_STYLE( '', ( #450 ) );
#261 = EDGE_LOOP( '', ( #451, #452, #453, #454 ) );
#262 = AXIS2_PLACEMENT_3D( '', #455, #456, #457 );
#263 = SURFACE_SIDE_STYLE( '', ( #458 ) );
#264 = EDGE_LOOP( '', ( #459, #460, #461, #462 ) );
#265 = AXIS2_PLACEMENT_3D( '', #463, #464, #465 );
#267 = SURFACE_STYLE_FILL_AREA( #466 );
#268 = ORIENTED_EDGE( '', *, *, #467, .F. );
#269 = CARTESIAN_POINT( '', ( 0.00000000000000, -0.0120000000000000, 0.00000000000000 ) );
#270 = DIRECTION( '', ( 0.00000000000000, -1.00000000000000, 0.00000000000000 ) );
#271 = DIRECTION( '', ( 0.00000000000000, 0.00000000000000, -1.00000000000000 ) );
#272 = SURFACE_STYLE_FILL_AREA( #468 );
#273 = ORIENTED_EDGE( '', *, *, #469, .F. );
#274 = ORIENTED_EDGE( '', *, *, #470, .T. );
#275 = ORIENTED_EDGE( '', *, *, #471, .T. );
#276 = ORIENTED_EDGE( '', *, *, #472, .F. );
#277 = CARTESIAN_POINT( '', ( 0.00000000000000, 0.000850000000000000, 0.00000000000000 ) );
#278 = DIRECTION( '', ( -0.00000000000000, 1.00000000000000, -0.00000000000000 ) );
#279 = DIRECTION( '', ( 1.00000000000000, 0.00000000000000, 0.00000000000000 ) );
#280 = SURFACE_STYLE_FILL_AREA( #473 );
#281 = ORIENTED_EDGE( '', *, *, #474, .F. );
#282 = ORIENTED_EDGE( '', *, *, #475, .T. );
#283 = ORIENTED_EDGE( '', *, *, #476, .T. );
#284 = ORIENTED_EDGE( '', *, *, #477, .F. );
#285 = CARTESIAN_POINT( '', ( 0.000258883476483200, 0.000850000000000000, -0.00147749089526900 ) );
#286 = DIRECTION( '', ( 1.00000000000000, 0.00000000000000, 0.00000000000000 ) );
#287 = DIRECTION( '', ( 0.00000000000000, 1.00000000000000, 0.00000000000000 ) );
#288 = SURFACE_STYLE_FILL_AREA( #478 );
#289 = ORIENTED_EDGE( '', *, *, #471, .F. );
#290 = ORIENTED_EDGE( '', *, *, #479, .T. );
#291 = ORIENTED_EDGE( '', *, *, #480, .T. );
#292 = ORIENTED_EDGE( '', *, *, #481, .F. );
#293 = CARTESIAN_POINT( '', ( -0.000258883476483200, 0.000850000000000000, 0.00147749089526900 ) );
#294 = DIRECTION( '', ( -1.00000000000000, 0.00000000000000, 0.00000000000000 ) );
#295 = DIRECTION( '', ( 0.00000000000000, 0.00000000000000, 1.00000000000000 ) );
#296 = SURFACE_STYLE_FILL_AREA( #482 );
#297 = ORIENTED_EDGE( '', *, *, #483, .F. );
#298 = ORIENTED_EDGE( '', *, *, #484, .T. );
#299 = ORIENTED_EDGE( '', *, *, #485, .T. );
#300 = ORIENTED_EDGE( '', *, *, #486, .F. );
#301 = CARTESIAN_POINT( '', ( -0.000883883476483200, 0.000850000000000000, 0.000258883476483200 ) );
#302 = DIRECTION( '', ( 0.00000000000000, 0.00000000000000, 1.00000000000000 ) );
#303 = DIRECTION( '', ( 1.00000000000000, 0.00000000000000, 0.00000000000000 ) );
#304 = SURFACE_STYLE_FILL_AREA( #487 );
#305 = ORIENTED_EDGE( '', *, *, #488, .F. );
#306 = ORIENTED_EDGE( '', *, *, #489, .T. );
#307 = ORIENTED_EDGE( '', *, *, #490, .T. );
#308 = ORIENTED_EDGE( '', *, *, #491, .F. );
#309 = CARTESIAN_POINT( '', ( 0.000883883476483200, 0.000850000000000000, -0.000258883476483200 ) );
#310 = DIRECTION( '', ( 0.00000000000000, 0.00000000000000, -1.00000000000000 ) );
#311 = DIRECTION( '', ( 0.00000000000000, -1.00000000000000, 0.00000000000000 ) );
#312 = SURFACE_STYLE_FILL_AREA( #492 );
#313 = ORIENTED_EDGE( '', *, *, #467, .T. );
#314 = ORIENTED_EDGE( '', *, *, #493, .T. );
#315 = CARTESIAN_POINT( '', ( 0.00000000000000, -0.0119125000000000, 0.00000000000000 ) );
#316 = DIRECTION( '', ( -0.00000000000000, 1.00000000000000, -0.00000000000000 ) );
#317 = DIRECTION( '', ( 1.00000000000000, 0.00000000000000, 0.00000000000000 ) );
#318 = SURFACE_STYLE_FILL_AREA( #494 );
#319 = ORIENTED_EDGE( '', *, *, #495, .F. );
#320 = ORIENTED_EDGE( '', *, *, #496, .F. );
#321 = CARTESIAN_POINT( '', ( 0.00000000000000, 0.00000000000000, 0.00000000000000 ) );
#322 = DIRECTION( '', ( 0.00000000000000, -1.00000000000000, 0.00000000000000 ) );
#323 = DIRECTION( '', ( 0.00000000000000, 0.00000000000000, -1.00000000000000 ) );
#324 = SURFACE_STYLE_FILL_AREA( #497 );
#325 = ORIENTED_EDGE( '', *, *, #498, .F. );
#326 = ORIENTED_EDGE( '', *, *, #479, .F. );
#327 = ORIENTED_EDGE( '', *, *, #470, .F. );
#328 = ORIENTED_EDGE( '', *, *, #499, .F. );
#329 = ORIENTED_EDGE( '', *, *, #500, .F. );
#330 = ORIENTED_EDGE( '', *, *, #501, .F. );
#331 = ORIENTED_EDGE( '', *, *, #502, .F. );
#332 = ORIENTED_EDGE( '', *, *, #489, .F. );
#333 = ORIENTED_EDGE( '', *, *, #503, .F. );
#334 = ORIENTED_EDGE( '', *, *, #475, .F. );
#335 = ORIENTED_EDGE( '', *, *, #504, .F. );
#336 = ORIENTED_EDGE( '', *, *, #505, .F. );
#337 = ORIENTED_EDGE( '', *, *, #506, .F. );
#338 = ORIENTED_EDGE( '', *, *, #507, .F. );
#339 = ORIENTED_EDGE( '', *, *, #508, .F. );
#340 = ORIENTED_EDGE( '', *, *, #484, .F. );
#341 = CARTESIAN_POINT( '', ( 0.00000000000000, 0.000850000000000000, 0.00000000000000 ) );
#342 = DIRECTION( '', ( 0.00000000000000, -1.00000000000000, 0.00000000000000 ) );
#343 = DIRECTION( '', ( 0.00000000000000, 0.00000000000000, -1.00000000000000 ) );
#344 = SURFACE_STYLE_FILL_AREA( #509 );
#345 = VERTEX_POINT( '', #510 );
#346 = ORIENTED_EDGE( '', *, *, #511, .T. );
#347 = ORIENTED_EDGE( '', *, *, #495, .T. );
#348 = CARTESIAN_POINT( '', ( 0.00000000000000, 0.000666990566028300, 0.00000000000000 ) );
#349 = DIRECTION( '', ( 0.00000000000000, -1.00000000000000, 0.00000000000000 ) );
#350 = DIRECTION( '', ( -1.00000000000000, 0.00000000000000, 0.00000000000000 ) );
#351 = SURFACE_STYLE_FILL_AREA( #512 );
#352 = ORIENTED_EDGE( '', *, *, #513, .F. );
#353 = ORIENTED_EDGE( '', *, *, #501, .T. );
#354 = ORIENTED_EDGE( '', *, *, #514, .T. );
#355 = ORIENTED_EDGE( '', *, *, #515, .F. );
#356 = CARTESIAN_POINT( '', ( 0.00147749089526900, 0.000850000000000000, 0.000258883476483200 ) );
#357 = DIRECTION( '', ( 0.00000000000000, 0.00000000000000, 1.00000000000000 ) );
#358 = DIRECTION( '', ( 1.00000000000000, 0.00000000000000, 0.00000000000000 ) );
#359 = SURFACE_STYLE_FILL_AREA( #516 );
#360 = ORIENTED_EDGE( '', *, *, #517, .F. );
#361 = ORIENTED_EDGE( '', *, *, #506, .T. );
#362 = ORIENTED_EDGE( '', *, *, #518, .T. );
#363 = ORIENTED_EDGE( '', *, *, #519, .F. );
#364 = CARTESIAN_POINT( '', ( -0.000883883476483200, 0.000850000000000000, -0.000883883476483200 ) );
#365 = DIRECTION( '', ( -0.00000000000000, 1.00000000000000, -0.00000000000000 ) );
#366 = DIRECTION( '', ( 1.00000000000000, 0.00000000000000, 0.00000000000000 ) );
#367 = SURFACE_STYLE_FILL_AREA( #520 );
#368 = ORIENTED_EDGE( '', *, *, #496, .T. );
#369 = ORIENTED_EDGE( '', *, *, #493, .F. );
#370 = CARTESIAN_POINT( '', ( 0.00000000000000, 0.00238500000000000, 0.00000000000000 ) );
#371 = DIRECTION( '', ( -0.00000000000000, 1.00000000000000, -0.00000000000000 ) );
#372 = DIRECTION( '', ( -1.00000000000000, 0.00000000000000, 0.00000000000000 ) );
#373 = SURFACE_STYLE_FILL_AREA( #521 );
#374 = ORIENTED_EDGE( '', *, *, #518, .F. );
#375 = ORIENTED_EDGE( '', *, *, #505, .T. );
#376 = ORIENTED_EDGE( '', *, *, #522, .T. );
#377 = ORIENTED_EDGE( '', *, *, #523, .F. );
#378 = CARTESIAN_POINT( '', ( -0.000258883476483200, 0.000850000000000000, -0.000883883476483200 ) );
#379 = DIRECTION( '', ( -1.00000000000000, 0.00000000000000, 0.00000000000000 ) );
#380 = DIRECTION( '', ( 0.00000000000000, 0.00000000000000, 1.00000000000000 ) );
#381 = SURFACE_STYLE_FILL_AREA( #524 );
#382 = ORIENTED_EDGE( '', *, *, #522, .F. );
#383 = ORIENTED_EDGE( '', *, *, #504, .T. );
#384 = ORIENTED_EDGE( '', *, *, #474, .T. );
#385 = ORIENTED_EDGE( '', *, *, #525, .F. );
#386 = CARTESIAN_POINT( '', ( 0.00000000000000, 0.000850000000000000, 0.00000000000000 ) );
#387 = DIRECTION( '', ( -0.00000000000000, 1.00000000000000, -0.00000000000000 ) );
#388 = DIRECTION( '', ( 1.00000000000000, 0.00000000000000, 0.00000000000000 ) );
#389 = SURFACE_STYLE_FILL_AREA( #526 );
#390 = ORIENTED_EDGE( '', *, *, #514, .F. );
#391 = ORIENTED_EDGE( '', *, *, #500, .T. );
#392 = ORIENTED_EDGE( '', *, *, #527, .T. );
#393 = ORIENTED_EDGE( '', *, *, #528, .F. );
#394 = CARTESIAN_POINT( '', ( 0.000883883476483200, 0.000850000000000000, 0.000883883476483200 ) );
#395 = DIRECTION( '', ( -0.00000000000000, 1.00000000000000, -0.00000000000000 ) );
#396 = DIRECTION( '', ( 1.00000000000000, 0.00000000000000, 0.00000000000000 ) );
#397 = SURFACE_STYLE_FILL_AREA( #529 );
#398 = ORIENTED_EDGE( '', *, *, #527, .F. );
#399 = ORIENTED_EDGE( '', *, *, #499, .T. );
#400 = ORIENTED_EDGE( '', *, *, #469, .T. );
#401 = ORIENTED_EDGE( '', *, *, #530, .F. );
#402 = CARTESIAN_POINT( '', ( 0.000258883476483200, 0.000850000000000000, 0.000883883476483200 ) );
#403 = DIRECTION( '', ( 1.00000000000000, 0.00000000000000, 0.00000000000000 ) );
#404 = DIRECTION( '', ( 0.00000000000000, 1.00000000000000, 0.00000000000000 ) );
#405 = SURFACE_STYLE_FILL_AREA( #531 );
#406 = ORIENTED_EDGE( '', *, *, #532, .F. );
#407 = ORIENTED_EDGE( '', *, *, #507, .T. );
#408 = ORIENTED_EDGE( '', *, *, #517, .T. );
#409 = ORIENTED_EDGE( '', *, *, #533, .F. );
#410 = CARTESIAN_POINT( '', ( -0.00147749089526900, 0.000850000000000000, -0.000258883476483200 ) );
#411 = DIRECTION( '', ( 0.00000000000000, 0.00000000000000, -1.00000000000000 ) );
#412 = DIRECTION( '', ( 0.00000000000000, -1.00000000000000, 0.00000000000000 ) );
#413 = SURFACE_STYLE_FILL_AREA( #534 );
#414 = ORIENTED_EDGE( '', *, *, #535, .T. );
#415 = ORIENTED_EDGE( '', *, *, #515, .T. );
#416 = ORIENTED_EDGE( '', *, *, #528, .T. );
#417 = ORIENTED_EDGE( '', *, *, #530, .T. );
#418 = ORIENTED_EDGE( '', *, *, #472, .T. );
#419 = ORIENTED_EDGE( '', *, *, #481, .T. );
#420 = ORIENTED_EDGE( '', *, *, #536, .T. );
#421 = ORIENTED_EDGE( '', *, *, #486, .T. );
#422 = ORIENTED_EDGE( '', *, *, #537, .T. );
#423 = ORIENTED_EDGE( '', *, *, #533, .T. );
#424 = ORIENTED_EDGE( '', *, *, #519, .T. );
#425 = ORIENTED_EDGE( '', *, *, #523, .T. );
#426 = ORIENTED_EDGE( '', *, *, #525, .T. );
#427 = ORIENTED_EDGE( '', *, *, #477, .T. );
#428 = ORIENTED_EDGE( '', *, *, #538, .T. );
#429 = ORIENTED_EDGE( '', *, *, #491, .T. );
#430 = ORIENTED_EDGE( '', *, *, #511, .F. );
#431 = CARTESIAN_POINT( '', ( 0.00000000000000, -0.00405000000000000, 0.00000000000000 ) );
#432 = DIRECTION( '', ( 0.00000000000000, -1.00000000000000, 0.00000000000000 ) );
#433 = DIRECTION( '', ( -1.00000000000000, 0.00000000000000, 0.00000000000000 ) );
#434 = SURFACE_STYLE_FILL_AREA( #539 );
#435 = ORIENTED_EDGE( '', *, *, #476, .F. );
#436 = ORIENTED_EDGE( '', *, *, #503, .T. );
#437 = ORIENTED_EDGE( '', *, *, #488, .T. );
#438 = ORIENTED_EDGE( '', *, *, #538, .F. );
#439 = CARTESIAN_POINT( '', ( 0.000883883476483200, 0.000850000000000000, -0.000883883476483200 ) );
#440 = DIRECTION( '', ( -0.00000000000000, 1.00000000000000, -0.00000000000000 ) );
#441 = DIRECTION( '', ( 1.00000000000000, 0.00000000000000, 0.00000000000000 ) );
#442 = SURFACE_STYLE_FILL_AREA( #540 );
#443 = ORIENTED_EDGE( '', *, *, #480, .F. );
#444 = ORIENTED_EDGE( '', *, *, #498, .T. );
#445 = ORIENTED_EDGE( '', *, *, #483, .T. );
#446 = ORIENTED_EDGE( '', *, *, #536, .F. );
#447 = CARTESIAN_POINT( '', ( -0.000883883476483200, 0.000850000000000000, 0.000883883476483200 ) );
#448 = DIRECTION( '', ( -0.00000000000000, 1.00000000000000, -0.00000000000000 ) );
#449 = DIRECTION( '', ( 1.00000000000000, 0.00000000000000, 0.00000000000000 ) );
#450 = SURFACE_STYLE_FILL_AREA( #541 );
#451 = ORIENTED_EDGE( '', *, *, #535, .F. );
#452 = ORIENTED_EDGE( '', *, *, #490, .F. );
#453 = ORIENTED_EDGE( '', *, *, #502, .T. );
#454 = ORIENTED_EDGE( '', *, *, #513, .T. );
#455 = CARTESIAN_POINT( '', ( 0.00000000000000, 0.000850000000000000, 0.00000000000000 ) );
#456 = DIRECTION( '', ( -0.00000000000000, 1.00000000000000, -0.00000000000000 ) );
#457 = DIRECTION( '', ( 1.00000000000000, 0.00000000000000, 0.00000000000000 ) );
#458 = SURFACE_STYLE_FILL_AREA( #542 );
#459 = ORIENTED_EDGE( '', *, *, #485, .F. );
#460 = ORIENTED_EDGE( '', *, *, #508, .T. );
#461 = ORIENTED_EDGE( '', *, *, #532, .T. );
#462 = ORIENTED_EDGE( '', *, *, #537, .F. );
#463 = CARTESIAN_POINT( '', ( 0.00000000000000, 0.000850000000000000, 0.00000000000000 ) );
#464 = DIRECTION( '', ( -0.00000000000000, 1.00000000000000, -0.00000000000000 ) );
#465 = DIRECTION( '', ( 1.00000000000000, 0.00000000000000, 0.00000000000000 ) );
#466 = FILL_AREA_STYLE( '', ( #543 ) );
#467 = EDGE_CURVE( '', #544, #544, #545, .T. );
#468 = FILL_AREA_STYLE( '', ( #546 ) );
#469 = EDGE_CURVE( '', #547, #548, #549, .T. );
#470 = EDGE_CURVE( '', #547, #550, #551, .T. );
#471 = EDGE_CURVE( '', #550, #552, #553, .T. );
#472 = EDGE_CURVE( '', #548, #552, #554, .T. );
#473 = FILL_AREA_STYLE( '', ( #555 ) );
#474 = EDGE_CURVE( '', #556, #557, #558, .T. );
#475 = EDGE_CURVE( '', #556, #559, #560, .T. );
#476 = EDGE_CURVE( '', #559, #561, #562, .T. );
#477 = EDGE_CURVE( '', #557, #561, #563, .T. );
#478 = FILL_AREA_STYLE( '', ( #564 ) );
#479 = EDGE_CURVE( '', #550, #565, #566, .T. );
#480 = EDGE_CURVE( '', #565, #567, #568, .T. );
#481 = EDGE_CURVE( '', #552, #567, #569, .T. );
#482 = FILL_AREA_STYLE( '', ( #570 ) );
#483 = EDGE_CURVE( '', #571, #572, #573, .T. );
#484 = EDGE_CURVE( '', #571, #574, #575, .T. );
#485 = EDGE_CURVE( '', #574, #576, #577, .T. );
#486 = EDGE_CURVE( '', #572, #576, #578, .T. );
#487 = FILL_AREA_STYLE( '', ( #579 ) );
#488 = EDGE_CURVE( '', #580, #581, #582, .T. );
#489 = EDGE_CURVE( '', #580, #583, #584, .T. );
#490 = EDGE_CURVE( '', #583, #585, #586, .T. );
#491 = EDGE_CURVE( '', #581, #585, #587, .T. );
#492 = FILL_AREA_STYLE( '', ( #588 ) );
#493 = EDGE_CURVE( '', #589, #589, #590, .T. );
#494 = FILL_AREA_STYLE( '', ( #591 ) );
#495 = EDGE_CURVE( '', #592, #592, #593, .T. );
#496 = EDGE_CURVE( '', #594, #594, #595, .T. );
#497 = FILL_AREA_STYLE( '', ( #596 ) );
#498 = EDGE_CURVE( '', #565, #571, #597, .T. );
#499 = EDGE_CURVE( '', #598, #547, #599, .T. );
#500 = EDGE_CURVE( '', #600, #598, #601, .T. );
#501 = EDGE_CURVE( '', #602, #600, #603, .T. );
#502 = EDGE_CURVE( '', #583, #602, #604, .T. );
#503 = EDGE_CURVE( '', #559, #580, #605, .T. );
#504 = EDGE_CURVE( '', #606, #556, #607, .T. );
#505 = EDGE_CURVE( '', #608, #606, #609, .T. );
#506 = EDGE_CURVE( '', #610, #608, #611, .T. );
#507 = EDGE_CURVE( '', #612, #610, #613, .T. );
#508 = EDGE_CURVE( '', #574, #612, #614, .T. );
#509 = FILL_AREA_STYLE( '', ( #615 ) );
#510 = CARTESIAN_POINT( '', ( -0.00224999999999960, 0.000666990566028300, 0.00000000000000 ) );
#511 = EDGE_CURVE( '', #616, #616, #617, .T. );
#512 = FILL_AREA_STYLE( '', ( #618 ) );
#513 = EDGE_CURVE( '', #602, #619, #620, .T. );
#514 = EDGE_CURVE( '', #600, #621, #622, .T. );
#515 = EDGE_CURVE( '', #619, #621, #623, .T. );
#516 = FILL_AREA_STYLE( '', ( #624 ) );
#517 = EDGE_CURVE( '', #610, #625, #626, .T. );
#518 = EDGE_CURVE( '', #608, #627, #628, .T. );
#519 = EDGE_CURVE( '', #625, #627, #629, .T. );
#520 = FILL_AREA_STYLE( '', ( #630 ) );
#521 = FILL_AREA_STYLE( '', ( #631 ) );
#522 = EDGE_CURVE( '', #606, #632, #633, .T. );
#523 = EDGE_CURVE( '', #627, #632, #634, .T. );
#524 = FILL_AREA_STYLE( '', ( #635 ) );
#525 = EDGE_CURVE( '', #632, #557, #636, .T. );
#526 = FILL_AREA_STYLE( '', ( #637 ) );
#527 = EDGE_CURVE( '', #598, #638, #639, .T. );
#528 = EDGE_CURVE( '', #621, #638, #640, .T. );
#529 = FILL_AREA_STYLE( '', ( #641 ) );
#530 = EDGE_CURVE( '', #638, #548, #642, .T. );
#531 = FILL_AREA_STYLE( '', ( #643 ) );
#532 = EDGE_CURVE( '', #612, #644, #645, .T. );
#533 = EDGE_CURVE( '', #644, #625, #646, .T. );
#534 = FILL_AREA_STYLE( '', ( #647 ) );
#535 = EDGE_CURVE( '', #585, #619, #648, .T. );
#536 = EDGE_CURVE( '', #567, #572, #649, .T. );
#537 = EDGE_CURVE( '', #576, #644, #650, .T. );
#538 = EDGE_CURVE( '', #561, #581, #651, .T. );
#539 = FILL_AREA_STYLE( '', ( #652 ) );
#540 = FILL_AREA_STYLE( '', ( #653 ) );
#541 = FILL_AREA_STYLE( '', ( #654 ) );
#542 = FILL_AREA_STYLE( '', ( #655 ) );
#543 = FILL_AREA_STYLE_COLOUR( '', #656 );
#544 = VERTEX_POINT( '', #657 );
#545 = CIRCLE( '', #658, 0.00107500000000000 );
#546 = FILL_AREA_STYLE_COLOUR( '', #659 );
#547 = VERTEX_POINT( '', #660 );
#548 = VERTEX_POINT( '', #661 );
#549 = LINE( '', #662, #663 );
#550 = VERTEX_POINT( '', #664 );
#551 = CIRCLE( '', #665, 0.00150000000000000 );
#552 = VERTEX_POINT( '', #666 );
#553 = LINE( '', #667, #668 );
#554 = CIRCLE( '', #669, 0.00150000000000000 );
#555 = FILL_AREA_STYLE_COLOUR( '', #670 );
#556 = VERTEX_POINT( '', #671 );
#557 = VERTEX_POINT( '', #672 );
#558 = LINE( '', #673, #674 );
#559 = VERTEX_POINT( '', #675 );
#560 = LINE( '', #676, #677 );
#561 = VERTEX_POINT( '', #678 );
#562 = LINE( '', #679, #680 );
#563 = CIRCLE( '', #681, 0.00574416920000000 );
#564 = FILL_AREA_STYLE_COLOUR( '', #682 );
#565 = VERTEX_POINT( '', #683 );
#566 = LINE( '', #684, #685 );
#567 = VERTEX_POINT( '', #686 );
#568 = LINE( '', #687, #688 );
#569 = CIRCLE( '', #689, 0.00574416920000000 );
#570 = FILL_AREA_STYLE_COLOUR( '', #690 );
#571 = VERTEX_POINT( '', #691 );
#572 = VERTEX_POINT( '', #692 );
#573 = LINE( '', #693, #694 );
#574 = VERTEX_POINT( '', #695 );
#575 = LINE( '', #696, #697 );
#576 = VERTEX_POINT( '', #698 );
#577 = LINE( '', #699, #700 );
#578 = CIRCLE( '', #701, 0.00574416920000000 );
#579 = FILL_AREA_STYLE_COLOUR( '', #702 );
#580 = VERTEX_POINT( '', #703 );
#581 = VERTEX_POINT( '', #704 );
#582 = LINE( '', #705, #706 );
#583 = VERTEX_POINT( '', #707 );
#584 = LINE( '', #708, #709 );
#585 = VERTEX_POINT( '', #710 );
#586 = LINE( '', #711, #712 );
#587 = CIRCLE( '', #713, 0.00574416920000000 );
#588 = FILL_AREA_STYLE_COLOUR( '', #714 );
#589 = VERTEX_POINT( '', #715 );
#590 = CIRCLE( '', #716, 0.00125000000000000 );
#591 = FILL_AREA_STYLE_COLOUR( '', #717 );
#592 = VERTEX_POINT( '', #718 );
#593 = CIRCLE( '', #719, 0.00190801740000000 );
#594 = VERTEX_POINT( '', #720 );
#595 = CIRCLE( '', #721, 0.00125000000000000 );
#596 = FILL_AREA_STYLE_COLOUR( '', #722 );
#597 = CIRCLE( '', #723, 0.000625000000000000 );
#598 = VERTEX_POINT( '', #724 );
#599 = LINE( '', #725, #726 );
#600 = VERTEX_POINT( '', #727 );
#601 = CIRCLE( '', #728, 0.000625000000000000 );
#602 = VERTEX_POINT( '', #729 );
#603 = LINE( '', #730, #731 );
#604 = CIRCLE( '', #732, 0.00150000000000000 );
#605 = CIRCLE( '', #733, 0.000625000000000000 );
#606 = VERTEX_POINT( '', #734 );
#607 = CIRCLE( '', #735, 0.00150000000000000 );
#608 = VERTEX_POINT( '', #736 );
#609 = LINE( '', #737, #738 );
#610 = VERTEX_POINT( '', #739 );
#611 = CIRCLE( '', #740, 0.000625000000000000 );
#612 = VERTEX_POINT( '', #741 );
#613 = LINE( '', #742, #743 );
#614 = CIRCLE( '', #744, 0.00150000000000000 );
#615 = FILL_AREA_STYLE_COLOUR( '', #745 );
#616 = VERTEX_POINT( '', #746 );
#617 = CIRCLE( '', #747, 0.00166666670000000 );
#618 = FILL_AREA_STYLE_COLOUR( '', #748 );
#619 = VERTEX_POINT( '', #749 );
#620 = LINE( '', #750, #751 );
#621 = VERTEX_POINT( '', #752 );
#622 = LINE( '', #753, #754 );
#623 = CIRCLE( '', #755, 0.00574416920000000 );
#624 = FILL_AREA_STYLE_COLOUR( '', #756 );
#625 = VERTEX_POINT( '', #757 );
#626 = LINE( '', #758, #759 );
#627 = VERTEX_POINT( '', #760 );
#628 = LINE( '', #761, #762 );
#629 = B_SPLINE_CURVE_WITH_KNOTS( '', 3, ( #763, #764, #765, #766, #767, #768, #769, #770, #771, #772, #773, #774, #775, #776, #777, #778, #779, #780, #781, #782, #783, #784 ), .UNSPECIFIED., .F., .F., ( 4, 1, 1, 1, 1, 1, 1, 1, 1, 1, 1, 1, 1, 1, 1, 1, 1, 1, 1, 4 ), ( 0.00000000000000, 0.0526315789473700, 0.105263157894700, 0.157894736842100, 0.210526315789500, 0.263157894736800, 0.315789473684200, 0.368421052631600, 0.421052631578900, 0.473684210526300, 0.526315789473700, 0.578947368421100, 0.631578947368400, 0.684210526315800, 0.736842105263200, 0.789473684210500, 0.842105263157900, 0.894736842105300, 0.947368421052600, 1.00000000000000 ), .UNSPECIFIED. );
#630 = FILL_AREA_STYLE_COLOUR( '', #785 );
#631 = FILL_AREA_STYLE_COLOUR( '', #786 );
#632 = VERTEX_POINT( '', #787 );
#633 = LINE( '', #788, #789 );
#634 = CIRCLE( '', #790, 0.00574416920000000 );
#635 = FILL_AREA_STYLE_COLOUR( '', #791 );
#636 = CIRCLE( '', #792, 0.00150000000000000 );
#637 = FILL_AREA_STYLE_COLOUR( '', #793 );
#638 = VERTEX_POINT( '', #794 );
#639 = LINE( '', #795, #796 );
#640 = B_SPLINE_CURVE_WITH_KNOTS( '', 3, ( #797, #798, #799, #800, #801, #802, #803, #804, #805, #806, #807, #808, #809, #810, #811, #812, #813, #814, #815, #816, #817, #818 ), .UNSPECIFIED., .F., .F., ( 4, 1, 1, 1, 1, 1, 1, 1, 1, 1, 1, 1, 1, 1, 1, 1, 1, 1, 1, 4 ), ( 0.00000000000000, 0.0526315789473700, 0.105263157894700, 0.157894736842100, 0.210526315789500, 0.263157894736800, 0.315789473684200, 0.368421052631600, 0.421052631578900, 0.473684210526300, 0.526315789473700, 0.578947368421100, 0.631578947368400, 0.684210526315800, 0.736842105263200, 0.789473684210500, 0.842105263157900, 0.894736842105300, 0.947368421052600, 1.00000000000000 ), .UNSPECIFIED. );
#641 = FILL_AREA_STYLE_COLOUR( '', #819 );
#642 = CIRCLE( '', #820, 0.00574416920000000 );
#643 = FILL_AREA_STYLE_COLOUR( '', #821 );
#644 = VERTEX_POINT( '', #822 );
#645 = LINE( '', #823, #824 );
#646 = CIRCLE( '', #825, 0.00574416920000000 );
#647 = FILL_AREA_STYLE_COLOUR( '', #826 );
#648 = CIRCLE( '', #827, 0.00150000000000000 );
#649 = B_SPLINE_CURVE_WITH_KNOTS( '', 3, ( #828, #829, #830, #831, #832, #833, #834, #835, #836, #837, #838, #839, #840, #841, #842, #843, #844, #845, #846, #847, #848, #849 ), .UNSPECIFIED., .F., .F., ( 4, 1, 1, 1, 1, 1, 1, 1, 1, 1, 1, 1, 1, 1, 1, 1, 1, 1, 1, 4 ), ( 0.00000000000000, 0.0526315789473700, 0.105263157894700, 0.157894736842100, 0.210526315789500, 0.263157894736800, 0.315789473684200, 0.368421052631600, 0.421052631578900, 0.473684210526300, 0.526315789473700, 0.578947368421100, 0.631578947368400, 0.684210526315800, 0.736842105263200, 0.789473684210500, 0.842105263157900, 0.894736842105300, 0.947368421052600, 1.00000000000000 ), .UNSPECIFIED. );
#650 = CIRCLE( '', #850, 0.00150000000000000 );
#651 = B_SPLINE_CURVE_WITH_KNOTS( '', 3, ( #851, #852, #853, #854, #855, #856, #857, #858, #859, #860, #861, #862, #863, #864, #865, #866, #867, #868, #869, #870, #871, #872 ), .UNSPECIFIED., .F., .F., ( 4, 1, 1, 1, 1, 1, 1, 1, 1, 1, 1, 1, 1, 1, 1, 1, 1, 1, 1, 4 ), ( 0.00000000000000, 0.0526315789473700, 0.105263157894700, 0.157894736842100, 0.210526315789500, 0.263157894736800, 0.315789473684200, 0.368421052631600, 0.421052631578900, 0.473684210526300, 0.526315789473700, 0.578947368421100, 0.631578947368400, 0.684210526315800, 0.736842105263200, 0.789473684210500, 0.842105263157900, 0.894736842105300, 0.947368421052600, 1.00000000000000 ), .UNSPECIFIED. );
#652 = FILL_AREA_STYLE_COLOUR( '', #873 );
#653 = FILL_AREA_STYLE_COLOUR( '', #874 );
#654 = FILL_AREA_STYLE_COLOUR( '', #875 );
#655 = FILL_AREA_STYLE_COLOUR( '', #876 );
#656 = COLOUR_RGB( '', 1.00000000000000, 0.756862759600000, 0.0549019612000000 );
#657 = CARTESIAN_POINT( '', ( -0.00107500000001000, -0.0120000000000100, 0.00000000000000 ) );
#658 = AXIS2_PLACEMENT_3D( '', #877, #878, #879 );
#659 = COLOUR_RGB( '', 1.00000000000000, 0.756862759600000, 0.0549019612000000 );
#660 = CARTESIAN_POINT( '', ( 0.000258883476483200, 0.000850000000000000, 0.00147749089526900 ) );
#661 = CARTESIAN_POINT( '', ( 0.000258883476483200, 0.00150090082779400, 0.00147749089526900 ) );
#662 = CARTESIAN_POINT( '', ( 0.000258883476493200, 0.000850000000010000, 0.00147749089527900 ) );
#663 = VECTOR( '', #880, 1.00000000000000 );
#664 = CARTESIAN_POINT( '', ( -0.000258883476483200, 0.000850000000000000, 0.00147749089526900 ) );
#665 = AXIS2_PLACEMENT_3D( '', #881, #882, #883 );
#666 = CARTESIAN_POINT( '', ( -0.000258883476483200, 0.00150090082779400, 0.00147749089526900 ) );
#667 = CARTESIAN_POINT( '', ( -0.000258883476493200, 0.000850000000010000, 0.00147749089527900 ) );
#668 = VECTOR( '', #884, 1.00000000000000 );
#669 = AXIS2_PLACEMENT_3D( '', #885, #886, #887 );
#670 = COLOUR_RGB( '', 1.00000000000000, 0.756862759600000, 0.0549019612000000 );
#671 = CARTESIAN_POINT( '', ( 0.000258883476483200, 0.000850000000000000, -0.00147749089526900 ) );
#672 = CARTESIAN_POINT( '', ( 0.000258883476483200, 0.00150090082779400, -0.00147749089526900 ) );
#673 = CARTESIAN_POINT( '', ( 0.000258883476493200, 0.000850000000010000, -0.00147749089527900 ) );
#674 = VECTOR( '', #888, 1.00000000000000 );
#675 = CARTESIAN_POINT( '', ( 0.000258883476483200, 0.000850000000000000, -0.000883883476483200 ) );
#676 = CARTESIAN_POINT( '', ( 0.000258883476493200, 0.000850000000010000, -0.00147749089527900 ) );
#677 = VECTOR( '', #889, 1.00000000000000 );
#678 = CARTESIAN_POINT( '', ( 0.000258883476483200, 0.00162575804149600, -0.000883883476483200 ) );
#679 = CARTESIAN_POINT( '', ( 0.000258883476493200, 0.000850000000010000, -0.000883883476493200 ) );
#680 = VECTOR( '', #890, 1.00000000000000 );
#681 = AXIS2_PLACEMENT_3D( '', #891, #892, #893 );
#682 = COLOUR_RGB( '', 1.00000000000000, 0.756862759600000, 0.0549019612000000 );
#683 = CARTESIAN_POINT( '', ( -0.000258883476483200, 0.000850000000000000, 0.000883883476483200 ) );
#684 = CARTESIAN_POINT( '', ( -0.000258883476493200, 0.000850000000010000, 0.00147749089527900 ) );
#685 = VECTOR( '', #894, 1.00000000000000 );
#686 = CARTESIAN_POINT( '', ( -0.000258883476483200, 0.00162575804149600, 0.000883883476483200 ) );
#687 = CARTESIAN_POINT( '', ( -0.000258883476493200, 0.000850000000010000, 0.000883883476493200 ) );
#688 = VECTOR( '', #895, 1.00000000000000 );
#689 = AXIS2_PLACEMENT_3D( '', #896, #897, #898 );
#690 = COLOUR_RGB( '', 1.00000000000000, 0.756862759600000, 0.0549019612000000 );
#691 = CARTESIAN_POINT( '', ( -0.000883883476483200, 0.000850000000000000, 0.000258883476483200 ) );
#692 = CARTESIAN_POINT( '', ( -0.000883883476483200, 0.00162575804149600, 0.000258883476483200 ) );
#693 = CARTESIAN_POINT( '', ( -0.000883883476493200, 0.000850000000010000, 0.000258883476493200 ) );
#694 = VECTOR( '', #899, 1.00000000000000 );
#695 = CARTESIAN_POINT( '', ( -0.00147749089526900, 0.000850000000000000, 0.000258883476483200 ) );
#696 = CARTESIAN_POINT( '', ( -0.000883883476493200, 0.000850000000010000, 0.000258883476493200 ) );
#697 = VECTOR( '', #900, 1.00000000000000 );
#698 = CARTESIAN_POINT( '', ( -0.00147749089526900, 0.00150090082779400, 0.000258883476483200 ) );
#699 = CARTESIAN_POINT( '', ( -0.00147749089527900, 0.000850000000010000, 0.000258883476493200 ) );
#700 = VECTOR( '', #901, 1.00000000000000 );
#701 = AXIS2_PLACEMENT_3D( '', #902, #903, #904 );
#702 = COLOUR_RGB( '', 1.00000000000000, 0.756862759600000, 0.0549019612000000 );
#703 = CARTESIAN_POINT( '', ( 0.000883883476483200, 0.000850000000000000, -0.000258883476483200 ) );
#704 = CARTESIAN_POINT( '', ( 0.000883883476483200, 0.00162575804149600, -0.000258883476483200 ) );
#705 = CARTESIAN_POINT( '', ( 0.000883883476493200, 0.000850000000010000, -0.000258883476493200 ) );
#706 = VECTOR( '', #905, 1.00000000000000 );
#707 = CARTESIAN_POINT( '', ( 0.00147749089526900, 0.000850000000000000, -0.000258883476483200 ) );
#708 = CARTESIAN_POINT( '', ( 0.000883883476493200, 0.000850000000010000, -0.000258883476493200 ) );
#709 = VECTOR( '', #906, 1.00000000000000 );
#710 = CARTESIAN_POINT( '', ( 0.00147749089526900, 0.00150090082779400, -0.000258883476483200 ) );
#711 = CARTESIAN_POINT( '', ( 0.00147749089527900, 0.000850000000010000, -0.000258883476493200 ) );
#712 = VECTOR( '', #907, 1.00000000000000 );
#713 = AXIS2_PLACEMENT_3D( '', #908, #909, #910 );
#714 = COLOUR_RGB( '', 1.00000000000000, 0.756862759600000, 0.0549019612000000 );
#715 = CARTESIAN_POINT( '', ( -0.00125000000001000, -0.0118250000000100, 0.00000000000000 ) );
#716 = AXIS2_PLACEMENT_3D( '', #911, #912, #913 );
#717 = COLOUR_RGB( '', 1.00000000000000, 0.756862759600000, 0.0549019612000000 );
#718 = CARTESIAN_POINT( '', ( 0.00190801744513400, 0.00000000000000, 0.00000000000000 ) );
#719 = AXIS2_PLACEMENT_3D( '', #914, #915, #916 );
#720 = CARTESIAN_POINT( '', ( 0.00125000000001000, 0.00000000000000, 0.00000000000000 ) );
#721 = AXIS2_PLACEMENT_3D( '', #917, #918, #919 );
#722 = COLOUR_RGB( '', 1.00000000000000, 0.756862759600000, 0.0549019612000000 );
#723 = AXIS2_PLACEMENT_3D( '', #920, #921, #922 );
#724 = CARTESIAN_POINT( '', ( 0.000258883476483200, 0.000850000000000000, 0.000883883476483200 ) );
#725 = CARTESIAN_POINT( '', ( 0.000258883476493200, 0.000850000000010000, 0.000883883476493200 ) );
#726 = VECTOR( '', #923, 1.00000000000000 );
#727 = CARTESIAN_POINT( '', ( 0.000883883476483200, 0.000850000000000000, 0.000258883476483200 ) );
#728 = AXIS2_PLACEMENT_3D( '', #924, #925, #926 );
#729 = CARTESIAN_POINT( '', ( 0.00147749089526900, 0.000850000000000000, 0.000258883476483200 ) );
#730 = CARTESIAN_POINT( '', ( 0.00147749089527900, 0.000850000000010000, 0.000258883476493200 ) );
#731 = VECTOR( '', #927, 1.00000000000000 );
#732 = AXIS2_PLACEMENT_3D( '', #928, #929, #930 );
#733 = AXIS2_PLACEMENT_3D( '', #931, #932, #933 );
#734 = CARTESIAN_POINT( '', ( -0.000258883476483200, 0.000850000000000000, -0.00147749089526900 ) );
#735 = AXIS2_PLACEMENT_3D( '', #934, #935, #936 );
#736 = CARTESIAN_POINT( '', ( -0.000258883476483200, 0.000850000000000000, -0.000883883476483200 ) );
#737 = CARTESIAN_POINT( '', ( -0.000258883476493200, 0.000850000000010000, -0.000883883476493200 ) );
#738 = VECTOR( '', #937, 1.00000000000000 );
#739 = CARTESIAN_POINT( '', ( -0.000883883476483200, 0.000850000000000000, -0.000258883476483200 ) );
#740 = AXIS2_PLACEMENT_3D( '', #938, #939, #940 );
#741 = CARTESIAN_POINT( '', ( -0.00147749089526900, 0.000850000000000000, -0.000258883476483200 ) );
#742 = CARTESIAN_POINT( '', ( -0.00147749089527900, 0.000850000000010000, -0.000258883476493200 ) );
#743 = VECTOR( '', #941, 1.00000000000000 );
#744 = AXIS2_PLACEMENT_3D( '', #942, #943, #944 );
#745 = COLOUR_RGB( '', 1.00000000000000, 0.756862759600000, 0.0549019612000000 );
#746 = CARTESIAN_POINT( '', ( 0.00166666666667700, 0.00145315566037600, 0.00000000000000 ) );
#747 = AXIS2_PLACEMENT_3D( '', #945, #946, #947 );
#748 = COLOUR_RGB( '', 1.00000000000000, 0.756862759600000, 0.0549019612000000 );
#749 = CARTESIAN_POINT( '', ( 0.00147749089526900, 0.00150090082779400, 0.000258883476483200 ) );
#750 = CARTESIAN_POINT( '', ( 0.00147749089527900, 0.000850000000010000, 0.000258883476493200 ) );
#751 = VECTOR( '', #948, 1.00000000000000 );
#752 = CARTESIAN_POINT( '', ( 0.000883883476483200, 0.00162575804149600, 0.000258883476483200 ) );
#753 = CARTESIAN_POINT( '', ( 0.000883883476493200, 0.000850000000010000, 0.000258883476493200 ) );
#754 = VECTOR( '', #949, 1.00000000000000 );
#755 = AXIS2_PLACEMENT_3D( '', #950, #951, #952 );
#756 = COLOUR_RGB( '', 1.00000000000000, 0.756862759600000, 0.0549019612000000 );
#757 = CARTESIAN_POINT( '', ( -0.000883883476483200, 0.00162575804149600, -0.000258883476483200 ) );
#758 = CARTESIAN_POINT( '', ( -0.000883883476493200, 0.000850000000010000, -0.000258883476493200 ) );
#759 = VECTOR( '', #953, 1.00000000000000 );
#760 = CARTESIAN_POINT( '', ( -0.000258883476483200, 0.00162575804149600, -0.000883883476483200 ) );
#761 = CARTESIAN_POINT( '', ( -0.000258883476493200, 0.000850000000010000, -0.000883883476493200 ) );
#762 = VECTOR( '', #954, 1.00000000000000 );
#763 = CARTESIAN_POINT( '', ( -0.000883883476493200, 0.00162575804150600, -0.000258883476493200 ) );
#764 = CARTESIAN_POINT( '', ( -0.000859730123226600, 0.00162951943332300, -0.000258883476493200 ) );
#765 = CARTESIAN_POINT( '', ( -0.000811177845342300, 0.00163663600674200, -0.000261689332220500 ) );
#766 = CARTESIAN_POINT( '', ( -0.000738692658110100, 0.00164590567430900, -0.000274482545741300 ) );
#767 = CARTESIAN_POINT( '', ( -0.000667255814988400, 0.00165364298873400, -0.000296020180026600 ) );
#768 = CARTESIAN_POINT( '', ( -0.000597943194486200, 0.00165967087889000, -0.000326410448291600 ) );
#769 = CARTESIAN_POINT( '', ( -0.000533586614673700, 0.00166372497622400, -0.000364566126257000 ) );
#770 = CARTESIAN_POINT( '', ( -0.000477402091402400, 0.00166577907328600, -0.000407468423897000 ) );
#771 = CARTESIAN_POINT( '', ( -0.000428633519586900, 0.00166613066584200, -0.000453963111270500 ) );
#772 = CARTESIAN_POINT( '', ( -0.000386908550875000, 0.00166497038694400, -0.000503191533336300 ) );
#773 = CARTESIAN_POINT( '', ( -0.000353601336014200, 0.00166263811669900, -0.000551576355793800 ) );
#774 = CARTESIAN_POINT( '', ( -0.000328412975369500, 0.00165964993502000, -0.000596073155195500 ) );
#775 = CARTESIAN_POINT( '', ( -0.000309332655385400, 0.00165631504354400, -0.000636689979484600 ) );
#776 = CARTESIAN_POINT( '', ( -0.000294953829862700, 0.00165283473332300, -0.000673530797010800 ) );
#777 = CARTESIAN_POINT( '', ( -0.000284064460830800, 0.00164930439216900, -0.000707190997474600 ) );
#778 = CARTESIAN_POINT( '', ( -0.000275767251409700, 0.00164573807729200, -0.000738476757434900 ) );
#779 = CARTESIAN_POINT( '', ( -0.000269467355561900, 0.00164211959884400, -0.000768086797872100 ) );
#780 = CARTESIAN_POINT( '', ( -0.000264738524707700, 0.00163837805305100, -0.000796903135446900 ) );
#781 = CARTESIAN_POINT( '', ( -0.000261363246039700, 0.00163441419425100, -0.000825779959413600 ) );
#782 = CARTESIAN_POINT( '', ( -0.000259332992480800, 0.00163021091776200, -0.000854832608461900 ) );
#783 = CARTESIAN_POINT( '', ( -0.000258883476493200, 0.00162726568463100, -0.000874202316228400 ) );
#784 = CARTESIAN_POINT( '', ( -0.000258883476493200, 0.00162575804150600, -0.000883883476493200 ) );
#785 = COLOUR_RGB( '', 1.00000000000000, 0.756862759600000, 0.0549019612000000 );
#786 = COLOUR_RGB( '', 1.00000000000000, 0.756862759600000, 0.0549019612000000 );
#787 = CARTESIAN_POINT( '', ( -0.000258883476483200, 0.00150090082779400, -0.00147749089526900 ) );
#788 = CARTESIAN_POINT( '', ( -0.000258883476493200, 0.000850000000010000, -0.00147749089527900 ) );
#789 = VECTOR( '', #955, 1.00000000000000 );
#790 = AXIS2_PLACEMENT_3D( '', #956, #957, #958 );
#791 = COLOUR_RGB( '', 1.00000000000000, 0.756862759600000, 0.0549019612000000 );
#792 = AXIS2_PLACEMENT_3D( '', #959, #960, #961 );
#793 = COLOUR_RGB( '', 1.00000000000000, 0.756862759600000, 0.0549019612000000 );
#794 = CARTESIAN_POINT( '', ( 0.000258883476483200, 0.00162575804149600, 0.000883883476483200 ) );
#795 = CARTESIAN_POINT( '', ( 0.000258883476493200, 0.000850000000010000, 0.000883883476493200 ) );
#796 = VECTOR( '', #962, 1.00000000000000 );
#797 = CARTESIAN_POINT( '', ( 0.000883883476493200, 0.00162575804150600, 0.000258883476493200 ) );
#798 = CARTESIAN_POINT( '', ( 0.000859730123226700, 0.00162951943332300, 0.000258883476493200 ) );
#799 = CARTESIAN_POINT( '', ( 0.000811177845342300, 0.00163663600674200, 0.000261689332220500 ) );
#800 = CARTESIAN_POINT( '', ( 0.000738692658110100, 0.00164590567430900, 0.000274482545741300 ) );
#801 = CARTESIAN_POINT( '', ( 0.000667255814988400, 0.00165364298873400, 0.000296020180026600 ) );
#802 = CARTESIAN_POINT( '', ( 0.000597943194486200, 0.00165967087889000, 0.000326410448291600 ) );
#803 = CARTESIAN_POINT( '', ( 0.000533586614673700, 0.00166372497622400, 0.000364566126257000 ) );
#804 = CARTESIAN_POINT( '', ( 0.000477402091402400, 0.00166577907328600, 0.000407468423897000 ) );
#805 = CARTESIAN_POINT( '', ( 0.000428633519586900, 0.00166613066584200, 0.000453963111270400 ) );
#806 = CARTESIAN_POINT( '', ( 0.000386908550875000, 0.00166497038694400, 0.000503191533336300 ) );
#807 = CARTESIAN_POINT( '', ( 0.000353601336014200, 0.00166263811669900, 0.000551576355793800 ) );
#808 = CARTESIAN_POINT( '', ( 0.000328412975369500, 0.00165964993502000, 0.000596073155195500 ) );
#809 = CARTESIAN_POINT( '', ( 0.000309332655385400, 0.00165631504354400, 0.000636689979484600 ) );
#810 = CARTESIAN_POINT( '', ( 0.000294953829862700, 0.00165283473332300, 0.000673530797010800 ) );
#811 = CARTESIAN_POINT( '', ( 0.000284064460830800, 0.00164930439216900, 0.000707190997474600 ) );
#812 = CARTESIAN_POINT( '', ( 0.000275767251409700, 0.00164573807729200, 0.000738476757434900 ) );
#813 = CARTESIAN_POINT( '', ( 0.000269467355561900, 0.00164211959884400, 0.000768086797872100 ) );
#814 = CARTESIAN_POINT( '', ( 0.000264738524707700, 0.00163837805305100, 0.000796903135446900 ) );
#815 = CARTESIAN_POINT( '', ( 0.000261363246039700, 0.00163441419425100, 0.000825779959413500 ) );
#816 = CARTESIAN_POINT( '', ( 0.000259332992480800, 0.00163021091776200, 0.000854832608461900 ) );
#817 = CARTESIAN_POINT( '', ( 0.000258883476493200, 0.00162726568463100, 0.000874202316228400 ) );
#818 = CARTESIAN_POINT( '', ( 0.000258883476493200, 0.00162575804150600, 0.000883883476493200 ) );
#819 = COLOUR_RGB( '', 1.00000000000000, 0.756862759600000, 0.0549019612000000 );
#820 = AXIS2_PLACEMENT_3D( '', #963, #964, #965 );
#821 = COLOUR_RGB( '', 1.00000000000000, 0.756862759600000, 0.0549019612000000 );
#822 = CARTESIAN_POINT( '', ( -0.00147749089526900, 0.00150090082779400, -0.000258883476483200 ) );
#823 = CARTESIAN_POINT( '', ( -0.00147749089527900, 0.000850000000010000, -0.000258883476493200 ) );
#824 = VECTOR( '', #966, 1.00000000000000 );
#825 = AXIS2_PLACEMENT_3D( '', #967, #968, #969 );
#826 = COLOUR_RGB( '', 1.00000000000000, 0.756862759600000, 0.0549019612000000 );
#827 = AXIS2_PLACEMENT_3D( '', #970, #971, #972 );
#828 = CARTESIAN_POINT( '', ( -0.000258883476493200, 0.00162575804150600, 0.000883883476493200 ) );
#829 = CARTESIAN_POINT( '', ( -0.000258883476493200, 0.00162731381716300, 0.000873893238603700 ) );
#830 = CARTESIAN_POINT( '', ( -0.000259361476865300, 0.00163034839356000, 0.000853920849484100 ) );
#831 = CARTESIAN_POINT( '', ( -0.000261522567633800, 0.00163467327824400, 0.000823954549249400 ) );
#832 = CARTESIAN_POINT( '', ( -0.000265093539092100, 0.00163872019528000, 0.000794346227877900 ) );
#833 = CARTESIAN_POINT( '', ( -0.000270053684123900, 0.00164251514845400, 0.000764953175635100 ) );
#834 = CARTESIAN_POINT( '', ( -0.000276749956339300, 0.00164622872320600, 0.000734332358850600 ) );
#835 = CARTESIAN_POINT( '', ( -0.000285759978169200, 0.00164994288648500, 0.000701378487049800 ) );
#836 = CARTESIAN_POINT( '', ( -0.000298031921855600, 0.00165369658224000, 0.000664891921784200 ) );
#837 = CARTESIAN_POINT( '', ( -0.000314512472515700, 0.00165736174458600, 0.000624752268137500 ) );
#838 = CARTESIAN_POINT( '', ( -0.000336463900755400, 0.00166076864494900, 0.000580794933255600 ) );
#839 = CARTESIAN_POINT( '', ( -0.000365076579981400, 0.00166361485749900, 0.000533787481750500 ) );
#840 = CARTESIAN_POINT( '', ( -0.000400632300499900, 0.00166551394894400, 0.000485952773381300 ) );
#841 = CARTESIAN_POINT( '', ( -0.000443048439547200, 0.00166617485578600, 0.000439262376424300 ) );
#842 = CARTESIAN_POINT( '', ( -0.000492575917353800, 0.00166536575229000, 0.000394967552877200 ) );
#843 = CARTESIAN_POINT( '', ( -0.000548938207216900, 0.00166288658618900, 0.000354634240059100 ) );
#844 = CARTESIAN_POINT( '', ( -0.000611558380252100, 0.00165858538430400, 0.000319806847994300 ) );
#845 = CARTESIAN_POINT( '', ( -0.000677569797820400, 0.00165259134292300, 0.000292491453881600 ) );
#846 = CARTESIAN_POINT( '', ( -0.000745672418956900, 0.00164505201439300, 0.000273002679443600 ) );
#847 = CARTESIAN_POINT( '', ( -0.000814741666156600, 0.00163612369241600, 0.000261419902538200 ) );
#848 = CARTESIAN_POINT( '', ( -0.000860912305174600, 0.00162933533261200, 0.000258883476493200 ) );
#849 = CARTESIAN_POINT( '', ( -0.000883883476493200, 0.00162575804150600, 0.000258883476493200 ) );
#850 = AXIS2_PLACEMENT_3D( '', #973, #974, #975 );
#851 = CARTESIAN_POINT( '', ( 0.000258883476493200, 0.00162575804150600, -0.000883883476493200 ) );
#852 = CARTESIAN_POINT( '', ( 0.000258883476493200, 0.00162731381716300, -0.000873893238603700 ) );
#853 = CARTESIAN_POINT( '', ( 0.000259361476865300, 0.00163034839356000, -0.000853920849484100 ) );
#854 = CARTESIAN_POINT( '', ( 0.000261522567633800, 0.00163467327824400, -0.000823954549249400 ) );
#855 = CARTESIAN_POINT( '', ( 0.000265093539092100, 0.00163872019528000, -0.000794346227877900 ) );
#856 = CARTESIAN_POINT( '', ( 0.000270053684123900, 0.00164251514845400, -0.000764953175635100 ) );
#857 = CARTESIAN_POINT( '', ( 0.000276749956339300, 0.00164622872320600, -0.000734332358850600 ) );
#858 = CARTESIAN_POINT( '', ( 0.000285759978169200, 0.00164994288648500, -0.000701378487049800 ) );
#859 = CARTESIAN_POINT( '', ( 0.000298031921855600, 0.00165369658224000, -0.000664891921784200 ) );
#860 = CARTESIAN_POINT( '', ( 0.000314512472515700, 0.00165736174458600, -0.000624752268137500 ) );
#861 = CARTESIAN_POINT( '', ( 0.000336463900755400, 0.00166076864494900, -0.000580794933255600 ) );
#862 = CARTESIAN_POINT( '', ( 0.000365076579981400, 0.00166361485749900, -0.000533787481750500 ) );
#863 = CARTESIAN_POINT( '', ( 0.000400632300499900, 0.00166551394894400, -0.000485952773381300 ) );
#864 = CARTESIAN_POINT( '', ( 0.000443048439547200, 0.00166617485578600, -0.000439262376424300 ) );
#865 = CARTESIAN_POINT( '', ( 0.000492575917353800, 0.00166536575229000, -0.000394967552877200 ) );
#866 = CARTESIAN_POINT( '', ( 0.000548938207216900, 0.00166288658618900, -0.000354634240059100 ) );
#867 = CARTESIAN_POINT( '', ( 0.000611558380252100, 0.00165858538430400, -0.000319806847994300 ) );
#868 = CARTESIAN_POINT( '', ( 0.000677569797820400, 0.00165259134292300, -0.000292491453881600 ) );
#869 = CARTESIAN_POINT( '', ( 0.000745672418956900, 0.00164505201439300, -0.000273002679443600 ) );
#870 = CARTESIAN_POINT( '', ( 0.000814741666156600, 0.00163612369241600, -0.000261419902538200 ) );
#871 = CARTESIAN_POINT( '', ( 0.000860912305174600, 0.00162933533261200, -0.000258883476493200 ) );
#872 = CARTESIAN_POINT( '', ( 0.000883883476493200, 0.00162575804150600, -0.000258883476493200 ) );
#873 = COLOUR_RGB( '', 1.00000000000000, 0.756862759600000, 0.0549019612000000 );
#874 = COLOUR_RGB( '', 1.00000000000000, 0.756862759600000, 0.0549019612000000 );
#875 = COLOUR_RGB( '', 1.00000000000000, 0.756862759600000, 0.0549019612000000 );
#876 = COLOUR_RGB( '', 1.00000000000000, 0.756862759600000, 0.0549019612000000 );
#877 = CARTESIAN_POINT( '', ( 0.00000000000000, -0.0120000000000100, 0.00000000000000 ) );
#878 = DIRECTION( '', ( 0.00000000000000, 1.00000000000000, 0.00000000000000 ) );
#879 = DIRECTION( '', ( -1.00000000000000, 0.00000000000000, 0.00000000000000 ) );
#880 = DIRECTION( '', ( 0.00000000000000, 1.00000000000000, 0.00000000000000 ) );
#881 = CARTESIAN_POINT( '', ( 0.00000000000000, 0.000850000000010000, 0.00000000000000 ) );
#882 = DIRECTION( '', ( 0.00000000000000, -1.00000000000000, 0.00000000000000 ) );
#883 = DIRECTION( '', ( 0.172588984327435, 0.00000000000000, 0.984993930178671 ) );
#884 = DIRECTION( '', ( 0.00000000000000, 1.00000000000000, 0.00000000000000 ) );
#885 = CARTESIAN_POINT( '', ( 0.00000000000000, 0.00150090082780400, 0.00000000000000 ) );
#886 = DIRECTION( '', ( 0.00000000000000, -1.00000000000000, 0.00000000000000 ) );
#887 = DIRECTION( '', ( 0.172588984327435, 0.00000000000000, 0.984993930178671 ) );
#888 = DIRECTION( '', ( 0.00000000000000, 1.00000000000000, 0.00000000000000 ) );
#889 = DIRECTION( '', ( 0.00000000000000, 0.00000000000000, 1.00000000000000 ) );
#890 = DIRECTION( '', ( 0.00000000000000, 1.00000000000000, 0.00000000000000 ) );
#891 = CARTESIAN_POINT( '', ( 0.000258883476493200, -0.00405000000001000, 0.00000000000000 ) );
#892 = DIRECTION( '', ( 1.00000000000000, 0.00000000000000, 0.00000000000000 ) );
#893 = DIRECTION( '', ( 0.00000000000000, 0.966353997000082, -0.257215770282393 ) );
#894 = DIRECTION( '', ( 0.00000000000000, 0.00000000000000, -1.00000000000000 ) );
#895 = DIRECTION( '', ( 0.00000000000000, 1.00000000000000, 0.00000000000000 ) );
#896 = CARTESIAN_POINT( '', ( -0.000258883476493200, -0.00405000000001000, 0.00000000000000 ) );
#897 = DIRECTION( '', ( -1.00000000000000, 0.00000000000000, 0.00000000000000 ) );
#898 = DIRECTION( '', ( 0.00000000000000, 0.966353997000082, 0.257215770282393 ) );
#899 = DIRECTION( '', ( 0.00000000000000, 1.00000000000000, 0.00000000000000 ) );
#900 = DIRECTION( '', ( -1.00000000000000, 0.00000000000000, 0.00000000000000 ) );
#901 = DIRECTION( '', ( 0.00000000000000, 1.00000000000000, 0.00000000000000 ) );
#902 = CARTESIAN_POINT( '', ( 0.00000000000000, -0.00405000000001000, 0.000258883476493200 ) );
#903 = DIRECTION( '', ( 0.00000000000000, 0.00000000000000, 1.00000000000000 ) );
#904 = DIRECTION( '', ( -0.153874903711735, 0.988090336967073, 0.00000000000000 ) );
#905 = DIRECTION( '', ( 0.00000000000000, 1.00000000000000, 0.00000000000000 ) );
#906 = DIRECTION( '', ( 1.00000000000000, 0.00000000000000, 0.00000000000000 ) );
#907 = DIRECTION( '', ( 0.00000000000000, 1.00000000000000, 0.00000000000000 ) );
#908 = CARTESIAN_POINT( '', ( 0.00000000000000, -0.00405000000001000, -0.000258883476493200 ) );
#909 = DIRECTION( '', ( 0.00000000000000, 0.00000000000000, -1.00000000000000 ) );
#910 = DIRECTION( '', ( 0.153874903711735, 0.988090336967073, 0.00000000000000 ) );
#911 = CARTESIAN_POINT( '', ( 0.00000000000000, -0.0118250000000100, 0.00000000000000 ) );
#912 = DIRECTION( '', ( 0.00000000000000, -1.00000000000000, 0.00000000000000 ) );
#913 = DIRECTION( '', ( -1.00000000000000, 0.00000000000000, 0.00000000000000 ) );
#914 = CARTESIAN_POINT( '', ( 0.00000000000000, 0.00000000000000, 0.00000000000000 ) );
#915 = DIRECTION( '', ( -0.00000000000000, 1.00000000000000, 0.00000000000000 ) );
#916 = DIRECTION( '', ( 1.00000000000000, 0.00000000000000, 0.00000000000000 ) );
#917 = CARTESIAN_POINT( '', ( 0.00000000000000, 0.00000000000000, 0.00000000000000 ) );
#918 = DIRECTION( '', ( 0.00000000000000, -1.00000000000000, 0.00000000000000 ) );
#919 = DIRECTION( '', ( 1.00000000000000, 0.00000000000000, 0.00000000000000 ) );
#920 = CARTESIAN_POINT( '', ( -0.000883883476493200, 0.000850000000010000, 0.000883883476493200 ) );
#921 = DIRECTION( '', ( -0.00000000000000, 1.00000000000000, 0.00000000000000 ) );
#922 = DIRECTION( '', ( 1.00000000000000, 0.00000000000000, 0.00000000000000 ) );
#923 = DIRECTION( '', ( 0.00000000000000, 0.00000000000000, 1.00000000000000 ) );
#924 = CARTESIAN_POINT( '', ( 0.000883883476493200, 0.000850000000010000, 0.000883883476493200 ) );
#925 = DIRECTION( '', ( 0.00000000000000, 1.00000000000000, 0.00000000000000 ) );
#926 = DIRECTION( '', ( 0.00000000000000, 0.00000000000000, -1.00000000000000 ) );
#927 = DIRECTION( '', ( -1.00000000000000, 0.00000000000000, 0.00000000000000 ) );
#928 = CARTESIAN_POINT( '', ( 0.00000000000000, 0.000850000000010000, 0.00000000000000 ) );
#929 = DIRECTION( '', ( 0.00000000000000, -1.00000000000000, 0.00000000000000 ) );
#930 = DIRECTION( '', ( 0.984993930178671, 0.00000000000000, -0.172588984327435 ) );
#931 = CARTESIAN_POINT( '', ( 0.000883883476493200, 0.000850000000010000, -0.000883883476493200 ) );
#932 = DIRECTION( '', ( 0.00000000000000, 1.00000000000000, 0.00000000000000 ) );
#933 = DIRECTION( '', ( -1.00000000000000, 0.00000000000000, 0.00000000000000 ) );
#934 = CARTESIAN_POINT( '', ( 0.00000000000000, 0.000850000000010000, 0.00000000000000 ) );
#935 = DIRECTION( '', ( 0.00000000000000, -1.00000000000000, -0.00000000000000 ) );
#936 = DIRECTION( '', ( -0.172588984327435, 0.00000000000000, -0.984993930178671 ) );
#937 = DIRECTION( '', ( 0.00000000000000, 0.00000000000000, -1.00000000000000 ) );
#938 = CARTESIAN_POINT( '', ( -0.000883883476493200, 0.000850000000010000, -0.000883883476493200 ) );
#939 = DIRECTION( '', ( 0.00000000000000, 1.00000000000000, 0.00000000000000 ) );
#940 = DIRECTION( '', ( 0.00000000000000, 0.00000000000000, 1.00000000000000 ) );
#941 = DIRECTION( '', ( 1.00000000000000, 0.00000000000000, 0.00000000000000 ) );
#942 = CARTESIAN_POINT( '', ( 0.00000000000000, 0.000850000000010000, 0.00000000000000 ) );
#943 = DIRECTION( '', ( 0.00000000000000, -1.00000000000000, 0.00000000000000 ) );
#944 = DIRECTION( '', ( -0.984993930178671, 0.00000000000000, 0.172588984327435 ) );
#945 = CARTESIAN_POINT( '', ( 0.00000000000000, 0.00145315566037600, 0.00000000000000 ) );
#946 = DIRECTION( '', ( 0.00000000000000, -1.00000000000000, 0.00000000000000 ) );
#947 = DIRECTION( '', ( 1.00000000000000, 0.00000000000000, 0.00000000000000 ) );
#948 = DIRECTION( '', ( 0.00000000000000, 1.00000000000000, 0.00000000000000 ) );
#949 = DIRECTION( '', ( 0.00000000000000, 1.00000000000000, 0.00000000000000 ) );
#950 = CARTESIAN_POINT( '', ( 0.00000000000000, -0.00405000000001000, 0.000258883476493200 ) );
#951 = DIRECTION( '', ( 0.00000000000000, -0.00000000000000, 1.00000000000000 ) );
#952 = DIRECTION( '', ( 0.257215770282393, 0.966353997000082, 0.00000000000000 ) );
#953 = DIRECTION( '', ( 0.00000000000000, 1.00000000000000, 0.00000000000000 ) );
#954 = DIRECTION( '', ( 0.00000000000000, 1.00000000000000, 0.00000000000000 ) );
#955 = DIRECTION( '', ( 0.00000000000000, 1.00000000000000, 0.00000000000000 ) );
#956 = CARTESIAN_POINT( '', ( -0.000258883476493200, -0.00405000000001000, 0.00000000000000 ) );
#957 = DIRECTION( '', ( -1.00000000000000, 0.00000000000000, 0.00000000000000 ) );
#958 = DIRECTION( '', ( 0.00000000000000, 0.988090336967073, -0.153874903711735 ) );
#959 = CARTESIAN_POINT( '', ( 0.00000000000000, 0.00150090082780400, 0.00000000000000 ) );
#960 = DIRECTION( '', ( 0.00000000000000, -1.00000000000000, -0.00000000000000 ) );
#961 = DIRECTION( '', ( -0.172588984327435, 0.00000000000000, -0.984993930178671 ) );
#962 = DIRECTION( '', ( 0.00000000000000, 1.00000000000000, 0.00000000000000 ) );
#963 = CARTESIAN_POINT( '', ( 0.000258883476493200, -0.00405000000001000, 0.00000000000000 ) );
#964 = DIRECTION( '', ( 1.00000000000000, 0.00000000000000, -0.00000000000000 ) );
#965 = DIRECTION( '', ( 0.00000000000000, 0.988090336967073, 0.153874903711735 ) );
#966 = DIRECTION( '', ( 0.00000000000000, 1.00000000000000, 0.00000000000000 ) );
#967 = CARTESIAN_POINT( '', ( 0.00000000000000, -0.00405000000001000, -0.000258883476493200 ) );
#968 = DIRECTION( '', ( 0.00000000000000, 0.00000000000000, -1.00000000000000 ) );
#969 = DIRECTION( '', ( -0.257215770282393, 0.966353997000082, 0.00000000000000 ) );
#970 = CARTESIAN_POINT( '', ( 0.00000000000000, 0.00150090082780400, 0.00000000000000 ) );
#971 = DIRECTION( '', ( 0.00000000000000, -1.00000000000000, 0.00000000000000 ) );
#972 = DIRECTION( '', ( 0.984993930178671, 0.00000000000000, -0.172588984327435 ) );
#973 = CARTESIAN_POINT( '', ( 0.00000000000000, 0.00150090082780400, 0.00000000000000 ) );
#974 = DIRECTION( '', ( 0.00000000000000, -1.00000000000000, 0.00000000000000 ) );
#975 = DIRECTION( '', ( -1.00000000000000, 0.00000000000000, 0.00000000000000 ) );
ENDSEC;
END-ISO-10303-21;
