ISO-10303-21;
HEADER;
FILE_DESCRIPTION( ( '' ), ' ' );
FILE_NAME( '/vol/tmp/translate-3133843465046768044/589d5aa458735a1029ddc08a.step', '2017-02-10T06:16:05', ( '' ), ( '' ), ' ', ' ', ' ' );
FILE_SCHEMA( ( 'AUTOMOTIVE_DESIGN { 1 0 10303 214 1 1 1 1 }' ) );
ENDSEC;
DATA;
#1 = MECHANICAL_DESIGN_GEOMETRIC_PRESENTATION_REPRESENTATION( ' ', ( #10, #11, #12, #13, #14, #15, #16, #17, #18, #19, #20, #21, #22, #23, #24, #25, #26, #27, #28, #29, #30, #31, #32, #33, #34, #35, #36, #37, #38, #39, #40 ), #6 );
#2 = PRODUCT_DEFINITION_CONTEXT( '', #41, 'design' );
#3 = APPLICATION_PROTOCOL_DEFINITION( 'international standard', 'automotive_design', 2001, #41 );
#4 = PRODUCT_CATEGORY_RELATIONSHIP( 'NONE', 'NONE', #42, #43 );
#5 = SHAPE_DEFINITION_REPRESENTATION( #44, #45 );
#6 =  ( GEOMETRIC_REPRESENTATION_CONTEXT( 3 )GLOBAL_UNCERTAINTY_ASSIGNED_CONTEXT( ( #48 ) )GLOBAL_UNIT_ASSIGNED_CONTEXT( ( #50, #51, #52 ) )REPRESENTATION_CONTEXT( 'NONE', 'WORKSPACE' ) );
#10 = STYLED_ITEM( '', ( #54 ), #55 );
#11 = STYLED_ITEM( '', ( #56 ), #57 );
#12 = STYLED_ITEM( '', ( #58 ), #59 );
#13 = STYLED_ITEM( '', ( #60 ), #61 );
#14 = STYLED_ITEM( '', ( #62 ), #63 );
#15 = STYLED_ITEM( '', ( #64 ), #65 );
#16 = STYLED_ITEM( '', ( #66 ), #67 );
#17 = STYLED_ITEM( '', ( #68 ), #69 );
#18 = STYLED_ITEM( '', ( #70 ), #71 );
#19 = STYLED_ITEM( '', ( #72 ), #73 );
#20 = STYLED_ITEM( '', ( #74 ), #75 );
#21 = STYLED_ITEM( '', ( #76 ), #77 );
#22 = STYLED_ITEM( '', ( #78 ), #79 );
#23 = STYLED_ITEM( '', ( #80 ), #81 );
#24 = STYLED_ITEM( '', ( #82 ), #83 );
#25 = STYLED_ITEM( '', ( #84 ), #85 );
#26 = STYLED_ITEM( '', ( #86 ), #87 );
#27 = STYLED_ITEM( '', ( #88 ), #89 );
#28 = STYLED_ITEM( '', ( #90 ), #91 );
#29 = STYLED_ITEM( '', ( #92 ), #93 );
#30 = STYLED_ITEM( '', ( #94 ), #95 );
#31 = STYLED_ITEM( '', ( #96 ), #97 );
#32 = STYLED_ITEM( '', ( #98 ), #99 );
#33 = STYLED_ITEM( '', ( #100 ), #101 );
#34 = STYLED_ITEM( '', ( #102 ), #103 );
#35 = STYLED_ITEM( '', ( #104 ), #105 );
#36 = STYLED_ITEM( '', ( #106 ), #107 );
#37 = STYLED_ITEM( '', ( #108 ), #109 );
#38 = STYLED_ITEM( '', ( #110 ), #111 );
#39 = STYLED_ITEM( '', ( #112 ), #113 );
#40 = STYLED_ITEM( '', ( #114 ), #115 );
#41 = APPLICATION_CONTEXT( 'core data for automotive mechanical design processes' );
#42 = PRODUCT_CATEGORY( 'part', 'NONE' );
#43 = PRODUCT_RELATED_PRODUCT_CATEGORY( 'detail', ' ', ( #116 ) );
#44 = PRODUCT_DEFINITION_SHAPE( 'NONE', 'NONE', #117 );
#45 = ADVANCED_BREP_SHAPE_REPRESENTATION( 'PR07_ONE_RIVET_2', ( #118, #119 ), #6 );
#48 = UNCERTAINTY_MEASURE_WITH_UNIT( LENGTH_MEASURE( 1.00000000000000E-06 ), #50, '', '' );
#50 =  ( CONVERSION_BASED_UNIT( 'METRE', #122 )LENGTH_UNIT(  )NAMED_UNIT( #125 ) );
#51 =  ( NAMED_UNIT( #127 )PLANE_ANGLE_UNIT(  )SI_UNIT( $, .RADIAN. ) );
#52 =  ( NAMED_UNIT( #127 )SI_UNIT( $, .STERADIAN. )SOLID_ANGLE_UNIT(  ) );
#54 = PRESENTATION_STYLE_ASSIGNMENT( ( #133 ) );
#55 = ADVANCED_FACE( '', ( #134 ), #135, .F. );
#56 = PRESENTATION_STYLE_ASSIGNMENT( ( #136 ) );
#57 = ADVANCED_FACE( '', ( #137, #138 ), #139, .F. );
#58 = PRESENTATION_STYLE_ASSIGNMENT( ( #140 ) );
#59 = ADVANCED_FACE( '', ( #141 ), #142, .T. );
#60 = PRESENTATION_STYLE_ASSIGNMENT( ( #143 ) );
#61 = ADVANCED_FACE( '', ( #144 ), #145, .T. );
#62 = PRESENTATION_STYLE_ASSIGNMENT( ( #146 ) );
#63 = ADVANCED_FACE( '', ( #147 ), #148, .F. );
#64 = PRESENTATION_STYLE_ASSIGNMENT( ( #149 ) );
#65 = ADVANCED_FACE( '', ( #150 ), #151, .F. );
#66 = PRESENTATION_STYLE_ASSIGNMENT( ( #152 ) );
#67 = ADVANCED_FACE( '', ( #153, #154 ), #155, .F. );
#68 = PRESENTATION_STYLE_ASSIGNMENT( ( #156 ) );
#69 = ADVANCED_FACE( '', ( #157 ), #158, .F. );
#70 = PRESENTATION_STYLE_ASSIGNMENT( ( #159 ) );
#71 = ADVANCED_FACE( '', ( #160 ), #161, .F. );
#72 = PRESENTATION_STYLE_ASSIGNMENT( ( #162 ) );
#73 = ADVANCED_FACE( '', ( #163, #164 ), #165, .T. );
#74 = PRESENTATION_STYLE_ASSIGNMENT( ( #166 ) );
#75 = ADVANCED_FACE( '', ( #167 ), #168, .F. );
#76 = PRESENTATION_STYLE_ASSIGNMENT( ( #169 ) );
#77 = ADVANCED_FACE( '', ( #170, #171 ), #172, .T. );
#78 = PRESENTATION_STYLE_ASSIGNMENT( ( #173 ) );
#79 = ADVANCED_FACE( '', ( #174 ), #175, .T. );
#80 = PRESENTATION_STYLE_ASSIGNMENT( ( #176 ) );
#81 = ADVANCED_FACE( '', ( #177, #178 ), #179, .T. );
#82 = PRESENTATION_STYLE_ASSIGNMENT( ( #180 ) );
#83 = ADVANCED_FACE( '', ( #181 ), #182, .F. );
#84 = PRESENTATION_STYLE_ASSIGNMENT( ( #183 ) );
#85 = ADVANCED_FACE( '', ( #184, #185 ), #186, .T. );
#86 = PRESENTATION_STYLE_ASSIGNMENT( ( #187 ) );
#87 = ADVANCED_FACE( '', ( #188 ), #189, .F. );
#88 = PRESENTATION_STYLE_ASSIGNMENT( ( #190 ) );
#89 = ADVANCED_FACE( '', ( #191, #192 ), #193, .T. );
#90 = PRESENTATION_STYLE_ASSIGNMENT( ( #194 ) );
#91 = ADVANCED_FACE( '', ( #195 ), #196, .F. );
#92 = PRESENTATION_STYLE_ASSIGNMENT( ( #197 ) );
#93 = ADVANCED_FACE( '', ( #198, #199 ), #200, .T. );
#94 = PRESENTATION_STYLE_ASSIGNMENT( ( #201 ) );
#95 = ADVANCED_FACE( '', ( #202, #203 ), #204, .F. );
#96 = PRESENTATION_STYLE_ASSIGNMENT( ( #205 ) );
#97 = ADVANCED_FACE( '', ( #206 ), #207, .F. );
#98 = PRESENTATION_STYLE_ASSIGNMENT( ( #208 ) );
#99 = ADVANCED_FACE( '', ( #209, #210 ), #211, .F. );
#100 = PRESENTATION_STYLE_ASSIGNMENT( ( #212 ) );
#101 = ADVANCED_FACE( '', ( #213, #214 ), #215, .T. );
#102 = PRESENTATION_STYLE_ASSIGNMENT( ( #216 ) );
#103 = ADVANCED_FACE( '', ( #217 ), #218, .T. );
#104 = PRESENTATION_STYLE_ASSIGNMENT( ( #219 ) );
#105 = ADVANCED_FACE( '', ( #220, #221 ), #222, .F. );
#106 = PRESENTATION_STYLE_ASSIGNMENT( ( #223 ) );
#107 = ADVANCED_FACE( '', ( #224, #225 ), #226, .F. );
#108 = PRESENTATION_STYLE_ASSIGNMENT( ( #227 ) );
#109 = ADVANCED_FACE( '', ( #228 ), #229, .F. );
#110 = PRESENTATION_STYLE_ASSIGNMENT( ( #230 ) );
#111 = ADVANCED_FACE( '', ( #231, #232 ), #233, .T. );
#112 = PRESENTATION_STYLE_ASSIGNMENT( ( #234 ) );
#113 = ADVANCED_FACE( '', ( #235, #236 ), #237, .T. );
#114 = PRESENTATION_STYLE_ASSIGNMENT( ( #238 ) );
#115 = ADVANCED_FACE( '', ( #239 ), #240, .F. );
#116 = PRODUCT( 'PR07_ONE_RIVET_2', 'PR07_ONE_RIVET_2', 'PART-PR07_ONE_RIVET_2-DESC', ( #241 ) );
#117 = PRODUCT_DEFINITION( 'NONE', 'NONE', #242, #2 );
#118 = MANIFOLD_SOLID_BREP( 'PR07_ONE_RIVET_2', #243 );
#119 = AXIS2_PLACEMENT_3D( '', #244, #245, #246 );
#122 = LENGTH_MEASURE_WITH_UNIT( LENGTH_MEASURE( 1.00000000000000 ), #247 );
#125 = DIMENSIONAL_EXPONENTS( 1.00000000000000, 0.00000000000000, 0.00000000000000, 0.00000000000000, 0.00000000000000, 0.00000000000000, 0.00000000000000 );
#127 = DIMENSIONAL_EXPONENTS( 0.00000000000000, 0.00000000000000, 0.00000000000000, 0.00000000000000, 0.00000000000000, 0.00000000000000, 0.00000000000000 );
#133 = SURFACE_STYLE_USAGE( .BOTH., #248 );
#134 = FACE_OUTER_BOUND( '', #249, .T. );
#135 = PLANE( '', #250 );
#136 = SURFACE_STYLE_USAGE( .BOTH., #251 );
#137 = FACE_OUTER_BOUND( '', #252, .T. );
#138 = FACE_OUTER_BOUND( '', #253, .T. );
#139 = CYLINDRICAL_SURFACE( '', #254, 0.000490000000000000 );
#140 = SURFACE_STYLE_USAGE( .BOTH., #255 );
#141 = FACE_OUTER_BOUND( '', #256, .T. );
#142 = ( BOUNDED_SURFACE(  )B_SPLINE_SURFACE( 3, 3, ( ( #259, #260, #261, #262 ), ( #263, #264, #265, #266 ), ( #267, #268, #269, #270 ), ( #271, #272, #273, #274 ) ), .UNSPECIFIED., .F., .F., .F. )B_SPLINE_SURFACE_WITH_KNOTS( ( 4, 4 ), ( 4, 4 ), ( 4.83673472574003, 7.72963588861914 ), ( 0.498337532065101, 0.973798463623348 ), .UNSPECIFIED. )GEOMETRIC_REPRESENTATION_ITEM(  )RATIONAL_B_SPLINE_SURFACE( ( ( 1.00000000000000, 0.416017037877255, 0.416017037877255, 1.00000000000000 ), ( 0.981249964705490, 0.408216703733939, 0.408216703733939, 0.981249964705490 ), ( 0.981249964705490, 0.408216703733939, 0.408216703733939, 0.981249964705490 ), ( 1.00000000000000, 0.416017037877255, 0.416017037877255, 1.00000000000000 ) ) )REPRESENTATION_ITEM( '' )SURFACE(  ) );
#143 = SURFACE_STYLE_USAGE( .BOTH., #280 );
#144 = FACE_OUTER_BOUND( '', #281, .T. );
#145 = CYLINDRICAL_SURFACE( '', #282, 0.00195000000000000 );
#146 = SURFACE_STYLE_USAGE( .BOTH., #283 );
#147 = FACE_OUTER_BOUND( '', #284, .T. );
#148 = PLANE( '', #285 );
#149 = SURFACE_STYLE_USAGE( .BOTH., #286 );
#150 = FACE_OUTER_BOUND( '', #287, .T. );
#151 = PLANE( '', #288 );
#152 = SURFACE_STYLE_USAGE( .BOTH., #289 );
#153 = FACE_OUTER_BOUND( '', #290, .T. );
#154 = FACE_OUTER_BOUND( '', #291, .T. );
#155 = TOROIDAL_SURFACE( '', #292, 0.00140000000000000, 0.000100000000000000 );
#156 = SURFACE_STYLE_USAGE( .BOTH., #293 );
#157 = FACE_OUTER_BOUND( '', #294, .T. );
#158 = PLANE( '', #295 );
#159 = SURFACE_STYLE_USAGE( .BOTH., #296 );
#160 = FACE_OUTER_BOUND( '', #297, .T. );
#161 = PLANE( '', #298 );
#162 = SURFACE_STYLE_USAGE( .BOTH., #299 );
#163 = FACE_OUTER_BOUND( '', #300, .T. );
#164 = FACE_OUTER_BOUND( '', #301, .T. );
#165 = CYLINDRICAL_SURFACE( '', #302, 0.00129000000000000 );
#166 = SURFACE_STYLE_USAGE( .BOTH., #303 );
#167 = FACE_OUTER_BOUND( '', #304, .T. );
#168 = PLANE( '', #305 );
#169 = SURFACE_STYLE_USAGE( .BOTH., #306 );
#170 = FACE_OUTER_BOUND( '', #307, .T. );
#171 = FACE_OUTER_BOUND( '', #308, .T. );
#172 = CYLINDRICAL_SURFACE( '', #309, 0.00200000000000000 );
#173 = SURFACE_STYLE_USAGE( .BOTH., #310 );
#174 = FACE_OUTER_BOUND( '', #311, .T. );
#175 = ( BOUNDED_SURFACE(  )B_SPLINE_SURFACE( 3, 3, ( ( #314, #315, #316, #317 ), ( #318, #319, #320, #321 ), ( #322, #323, #324, #325 ), ( #326, #327, #328, #329 ) ), .UNSPECIFIED., .F., .F., .F. )B_SPLINE_SURFACE_WITH_KNOTS( ( 4, 4 ), ( 4, 4 ), ( 4.83673472573981, 7.72963588861937 ), ( -0.973798463623419, -0.498337532065106 ), .UNSPECIFIED. )GEOMETRIC_REPRESENTATION_ITEM(  )RATIONAL_B_SPLINE_SURFACE( ( ( 1.00000000000000, 0.416017037877105, 0.416017037877105, 1.00000000000000 ), ( 0.981249964705485, 0.408216703733790, 0.408216703733790, 0.981249964705485 ), ( 0.981249964705485, 0.408216703733790, 0.408216703733790, 0.981249964705485 ), ( 1.00000000000000, 0.416017037877105, 0.416017037877105, 1.00000000000000 ) ) )REPRESENTATION_ITEM( '' )SURFACE(  ) );
#176 = SURFACE_STYLE_USAGE( .BOTH., #335 );
#177 = FACE_OUTER_BOUND( '', #336, .T. );
#178 = FACE_OUTER_BOUND( '', #337, .T. );
#179 = CYLINDRICAL_SURFACE( '', #338, 0.00195000000000000 );
#180 = SURFACE_STYLE_USAGE( .BOTH., #339 );
#181 = FACE_OUTER_BOUND( '', #340, .T. );
#182 = PLANE( '', #341 );
#183 = SURFACE_STYLE_USAGE( .BOTH., #342 );
#184 = FACE_OUTER_BOUND( '', #343, .T. );
#185 = FACE_BOUND( '', #344, .T. );
#186 = PLANE( '', #345 );
#187 = SURFACE_STYLE_USAGE( .BOTH., #346 );
#188 = FACE_OUTER_BOUND( '', #347, .T. );
#189 = CYLINDRICAL_SURFACE( '', #348, 0.000650000000000000 );
#190 = SURFACE_STYLE_USAGE( .BOTH., #349 );
#191 = FACE_OUTER_BOUND( '', #350, .T. );
#192 = FACE_OUTER_BOUND( '', #351, .T. );
#193 = CYLINDRICAL_SURFACE( '', #352, 0.00240000000000000 );
#194 = SURFACE_STYLE_USAGE( .BOTH., #353 );
#195 = FACE_OUTER_BOUND( '', #354, .T. );
#196 = PLANE( '', #355 );
#197 = SURFACE_STYLE_USAGE( .BOTH., #356 );
#198 = FACE_BOUND( '', #357, .T. );
#199 = FACE_OUTER_BOUND( '', #358, .T. );
#200 = CONICAL_SURFACE( '', #359, 0.00139000000000000, 1.10714871780000 );
#201 = SURFACE_STYLE_USAGE( .BOTH., #360 );
#202 = FACE_OUTER_BOUND( '', #361, .T. );
#203 = FACE_OUTER_BOUND( '', #362, .T. );
#204 = TOROIDAL_SURFACE( '', #363, 0.000390000000000000, 0.000100000000000000 );
#205 = SURFACE_STYLE_USAGE( .BOTH., #364 );
#206 = FACE_OUTER_BOUND( '', #365, .T. );
#207 = PLANE( '', #366 );
#208 = SURFACE_STYLE_USAGE( .BOTH., #367 );
#209 = FACE_OUTER_BOUND( '', #368, .T. );
#210 = FACE_OUTER_BOUND( '', #369, .T. );
#211 = CYLINDRICAL_SURFACE( '', #370, 0.00150000000000000 );
#212 = SURFACE_STYLE_USAGE( .BOTH., #371 );
#213 = FACE_OUTER_BOUND( '', #372, .T. );
#214 = FACE_BOUND( '', #373, .T. );
#215 = PLANE( '', #374 );
#216 = SURFACE_STYLE_USAGE( .BOTH., #375 );
#217 = FACE_OUTER_BOUND( '', #376, .T. );
#218 = CYLINDRICAL_SURFACE( '', #377, 0.00195000000000000 );
#219 = SURFACE_STYLE_USAGE( .BOTH., #378 );
#220 = FACE_OUTER_BOUND( '', #379, .T. );
#221 = FACE_BOUND( '', #380, .T. );
#222 = PLANE( '', #381 );
#223 = SURFACE_STYLE_USAGE( .BOTH., #382 );
#224 = FACE_OUTER_BOUND( '', #383, .T. );
#225 = FACE_BOUND( '', #384, .T. );
#226 = CONICAL_SURFACE( '', #385, 0.000995000000000000, 1.10714871780000 );
#227 = SURFACE_STYLE_USAGE( .BOTH., #386 );
#228 = FACE_OUTER_BOUND( '', #387, .T. );
#229 = CYLINDRICAL_SURFACE( '', #388, 0.000650000000000000 );
#230 = SURFACE_STYLE_USAGE( .BOTH., #389 );
#231 = FACE_BOUND( '', #390, .T. );
#232 = FACE_OUTER_BOUND( '', #391, .T. );
#233 = CONICAL_SURFACE( '', #392, 0.00139000000000000, 1.10714871780000 );
#234 = SURFACE_STYLE_USAGE( .BOTH., #393 );
#235 = FACE_OUTER_BOUND( '', #394, .T. );
#236 = FACE_OUTER_BOUND( '', #395, .T. );
#237 = TOROIDAL_SURFACE( '', #396, 0.000590000000000000, 0.000100000000000000 );
#238 = SURFACE_STYLE_USAGE( .BOTH., #397 );
#239 = FACE_OUTER_BOUND( '', #398, .T. );
#240 = PLANE( '', #399 );
#241 = PRODUCT_CONTEXT( '', #41, 'mechanical' );
#242 = PRODUCT_DEFINITION_FORMATION_WITH_SPECIFIED_SOURCE( ' ', 'NONE', #116, .NOT_KNOWN. );
#243 = CLOSED_SHELL( '', ( #99, #59, #109, #97, #77, #91, #81, #101, #111, #73, #93, #85, #89, #105, #65, #95, #57, #113, #107, #55, #75, #61, #83, #69, #103, #79, #71, #63, #87, #67, #115 ) );
#244 = CARTESIAN_POINT( '', ( 0.00000000000000, 0.00000000000000, 0.00000000000000 ) );
#245 = DIRECTION( '', ( 0.00000000000000, 0.00000000000000, 1.00000000000000 ) );
#246 = DIRECTION( '', ( 1.00000000000000, 0.00000000000000, 0.00000000000000 ) );
#247 =  ( LENGTH_UNIT(  )NAMED_UNIT( #125 )SI_UNIT( $, .METRE. ) );
#248 = SURFACE_SIDE_STYLE( '', ( #401 ) );
#249 = EDGE_LOOP( '', ( #402, #403 ) );
#250 = AXIS2_PLACEMENT_3D( '', #404, #405, #406 );
#251 = SURFACE_SIDE_STYLE( '', ( #407 ) );
#252 = EDGE_LOOP( '', ( #408 ) );
#253 = EDGE_LOOP( '', ( #409 ) );
#254 = AXIS2_PLACEMENT_3D( '', #410, #411, #412 );
#255 = SURFACE_SIDE_STYLE( '', ( #413 ) );
#256 = EDGE_LOOP( '', ( #414, #415, #416, #417, #418, #419 ) );
#259 = CARTESIAN_POINT( '', ( -0.00128996273105965, -0.00299999999999996, -0.000536233223860407 ) );
#260 = CARTESIAN_POINT( '', ( -0.00103358165140043, -0.00299999999999997, -0.00258743600818944 ) );
#261 = CARTESIAN_POINT( '', ( 0.00103358165140040, -0.00299999999999997, -0.00258743600818944 ) );
#262 = CARTESIAN_POINT( '', ( 0.00128996273105963, -0.00299999999999996, -0.000536233223860410 ) );
#263 = CARTESIAN_POINT( '', ( -0.00155985980603724, -0.00281511304256129, -0.000569967822900675 ) );
#264 = CARTESIAN_POINT( '', ( -0.00124983647624666, -0.00281511304256129, -0.00305034086025053 ) );
#265 = CARTESIAN_POINT( '', ( 0.00124983647624664, -0.00281511304256129, -0.00305034086025053 ) );
#266 = CARTESIAN_POINT( '', ( 0.00155985980603722, -0.00281511304256129, -0.000569967822900679 ) );
#267 = CARTESIAN_POINT( '', ( -0.00177896176399170, -0.00257137138121345, -0.000597353509467101 ) );
#268 = CARTESIAN_POINT( '', ( -0.00142539175243795, -0.00257137138121345, -0.00342612618301338 ) );
#269 = CARTESIAN_POINT( '', ( 0.00142539175243792, -0.00257137138121346, -0.00342612618301339 ) );
#270 = CARTESIAN_POINT( '', ( 0.00177896176399168, -0.00257137138121345, -0.000597353509467105 ) );
#271 = CARTESIAN_POINT( '', ( -0.00193494409658880, -0.00228248551021549, -0.000616849835790630 ) );
#272 = CARTESIAN_POINT( '', ( -0.00155037247710010, -0.00228248551021549, -0.00369365401228312 ) );
#273 = CARTESIAN_POINT( '', ( 0.00155037247710007, -0.00228248551021549, -0.00369365401228312 ) );
#274 = CARTESIAN_POINT( '', ( 0.00193494409658878, -0.00228248551021549, -0.000616849835790635 ) );
#280 = SURFACE_SIDE_STYLE( '', ( #420 ) );
#281 = EDGE_LOOP( '', ( #421, #422, #423, #424 ) );
#282 = AXIS2_PLACEMENT_3D( '', #425, #426, #427 );
#283 = SURFACE_SIDE_STYLE( '', ( #428 ) );
#284 = EDGE_LOOP( '', ( #429, #430, #431, #432, #433, #434 ) );
#285 = AXIS2_PLACEMENT_3D( '', #435, #436, #437 );
#286 = SURFACE_SIDE_STYLE( '', ( #438 ) );
#287 = EDGE_LOOP( '', ( #439 ) );
#288 = AXIS2_PLACEMENT_3D( '', #440, #441, #442 );
#289 = SURFACE_SIDE_STYLE( '', ( #443 ) );
#290 = EDGE_LOOP( '', ( #444 ) );
#291 = EDGE_LOOP( '', ( #445 ) );
#292 = AXIS2_PLACEMENT_3D( '', #446, #447, #448 );
#293 = SURFACE_SIDE_STYLE( '', ( #449 ) );
#294 = EDGE_LOOP( '', ( #450, #451, #452, #453 ) );
#295 = AXIS2_PLACEMENT_3D( '', #454, #455, #456 );
#296 = SURFACE_SIDE_STYLE( '', ( #457 ) );
#297 = EDGE_LOOP( '', ( #458, #459, #460, #461, #462, #463 ) );
#298 = AXIS2_PLACEMENT_3D( '', #464, #465, #466 );
#299 = SURFACE_SIDE_STYLE( '', ( #467 ) );
#300 = EDGE_LOOP( '', ( #468 ) );
#301 = EDGE_LOOP( '', ( #469 ) );
#302 = AXIS2_PLACEMENT_3D( '', #470, #471, #472 );
#303 = SURFACE_SIDE_STYLE( '', ( #473 ) );
#304 = EDGE_LOOP( '', ( #474, #475 ) );
#305 = AXIS2_PLACEMENT_3D( '', #476, #477, #478 );
#306 = SURFACE_SIDE_STYLE( '', ( #479 ) );
#307 = EDGE_LOOP( '', ( #480 ) );
#308 = EDGE_LOOP( '', ( #481, #482, #483, #484, #485, #486, #487, #488, #489, #490 ) );
#309 = AXIS2_PLACEMENT_3D( '', #491, #492, #493 );
#310 = SURFACE_SIDE_STYLE( '', ( #494 ) );
#311 = EDGE_LOOP( '', ( #495, #496, #497, #498, #499, #500 ) );
#314 = CARTESIAN_POINT( '', ( -0.00193494409658882, -0.00228248551021550, 0.000616849835790641 ) );
#315 = CARTESIAN_POINT( '', ( -0.00155037247710065, -0.00228248551021550, 0.00369365401228435 ) );
#316 = CARTESIAN_POINT( '', ( 0.00155037247710066, -0.00228248551021550, 0.00369365401228434 ) );
#317 = CARTESIAN_POINT( '', ( 0.00193494409658881, -0.00228248551021550, 0.000616849835790635 ) );
#318 = CARTESIAN_POINT( '', ( -0.00177896176399169, -0.00257137138121350, 0.000597353509467144 ) );
#319 = CARTESIAN_POINT( '', ( -0.00142539175243844, -0.00257137138121350, 0.00342612618301451 ) );
#320 = CARTESIAN_POINT( '', ( 0.00142539175243844, -0.00257137138121350, 0.00342612618301450 ) );
#321 = CARTESIAN_POINT( '', ( 0.00177896176399168, -0.00257137138121350, 0.000597353509467139 ) );
#322 = CARTESIAN_POINT( '', ( -0.00155985980603718, -0.00281511304256136, 0.000569967822900762 ) );
#323 = CARTESIAN_POINT( '', ( -0.00124983647624706, -0.00281511304256136, 0.00305034086025149 ) );
#324 = CARTESIAN_POINT( '', ( 0.00124983647624706, -0.00281511304256136, 0.00305034086025149 ) );
#325 = CARTESIAN_POINT( '', ( 0.00155985980603717, -0.00281511304256136, 0.000569967822900757 ) );
#326 = CARTESIAN_POINT( '', ( -0.00128996273105953, -0.00300000000000004, 0.000536233223860548 ) );
#327 = CARTESIAN_POINT( '', ( -0.00103358165140069, -0.00300000000000004, 0.00258743600819019 ) );
#328 = CARTESIAN_POINT( '', ( 0.00103358165140069, -0.00300000000000004, 0.00258743600819019 ) );
#329 = CARTESIAN_POINT( '', ( 0.00128996273105952, -0.00300000000000004, 0.000536233223860543 ) );
#335 = SURFACE_SIDE_STYLE( '', ( #501 ) );
#336 = EDGE_LOOP( '', ( #502 ) );
#337 = EDGE_LOOP( '', ( #503 ) );
#338 = AXIS2_PLACEMENT_3D( '', #504, #505, #506 );
#339 = SURFACE_SIDE_STYLE( '', ( #507 ) );
#340 = EDGE_LOOP( '', ( #508, #509, #510, #511 ) );
#341 = AXIS2_PLACEMENT_3D( '', #512, #513, #514 );
#342 = SURFACE_SIDE_STYLE( '', ( #515 ) );
#343 = EDGE_LOOP( '', ( #516 ) );
#344 = EDGE_LOOP( '', ( #517 ) );
#345 = AXIS2_PLACEMENT_3D( '', #518, #519, #520 );
#346 = SURFACE_SIDE_STYLE( '', ( #521 ) );
#347 = EDGE_LOOP( '', ( #522, #523, #524, #525, #526, #527 ) );
#348 = AXIS2_PLACEMENT_3D( '', #528, #529, #530 );
#349 = SURFACE_SIDE_STYLE( '', ( #531 ) );
#350 = EDGE_LOOP( '', ( #532 ) );
#351 = EDGE_LOOP( '', ( #533 ) );
#352 = AXIS2_PLACEMENT_3D( '', #534, #535, #536 );
#353 = SURFACE_SIDE_STYLE( '', ( #537 ) );
#354 = EDGE_LOOP( '', ( #538 ) );
#355 = AXIS2_PLACEMENT_3D( '', #539, #540, #541 );
#356 = SURFACE_SIDE_STYLE( '', ( #542 ) );
#357 = EDGE_LOOP( '', ( #543 ) );
#358 = EDGE_LOOP( '', ( #544 ) );
#359 = AXIS2_PLACEMENT_3D( '', #545, #546, #547 );
#360 = SURFACE_SIDE_STYLE( '', ( #548 ) );
#361 = EDGE_LOOP( '', ( #549 ) );
#362 = EDGE_LOOP( '', ( #550 ) );
#363 = AXIS2_PLACEMENT_3D( '', #551, #552, #553 );
#364 = SURFACE_SIDE_STYLE( '', ( #554 ) );
#365 = EDGE_LOOP( '', ( #555, #556, #557, #558, #559, #560 ) );
#366 = AXIS2_PLACEMENT_3D( '', #561, #562, #563 );
#367 = SURFACE_SIDE_STYLE( '', ( #564 ) );
#368 = EDGE_LOOP( '', ( #565 ) );
#369 = EDGE_LOOP( '', ( #566, #567, #568, #569, #570, #571, #572, #573, #574, #575, #576, #577, #578, #579 ) );
#370 = AXIS2_PLACEMENT_3D( '', #580, #581, #582 );
#371 = SURFACE_SIDE_STYLE( '', ( #583 ) );
#372 = EDGE_LOOP( '', ( #584 ) );
#373 = EDGE_LOOP( '', ( #585 ) );
#374 = AXIS2_PLACEMENT_3D( '', #586, #587, #588 );
#375 = SURFACE_SIDE_STYLE( '', ( #589 ) );
#376 = EDGE_LOOP( '', ( #590, #591, #592, #593 ) );
#377 = AXIS2_PLACEMENT_3D( '', #594, #595, #596 );
#378 = SURFACE_SIDE_STYLE( '', ( #597 ) );
#379 = EDGE_LOOP( '', ( #598 ) );
#380 = EDGE_LOOP( '', ( #599 ) );
#381 = AXIS2_PLACEMENT_3D( '', #600, #601, #602 );
#382 = SURFACE_SIDE_STYLE( '', ( #603 ) );
#383 = EDGE_LOOP( '', ( #604 ) );
#384 = EDGE_LOOP( '', ( #605 ) );
#385 = AXIS2_PLACEMENT_3D( '', #606, #607, #608 );
#386 = SURFACE_SIDE_STYLE( '', ( #609 ) );
#387 = EDGE_LOOP( '', ( #610, #611, #612, #613, #614, #615 ) );
#388 = AXIS2_PLACEMENT_3D( '', #616, #617, #618 );
#389 = SURFACE_SIDE_STYLE( '', ( #619 ) );
#390 = EDGE_LOOP( '', ( #620 ) );
#391 = EDGE_LOOP( '', ( #621 ) );
#392 = AXIS2_PLACEMENT_3D( '', #622, #623, #624 );
#393 = SURFACE_SIDE_STYLE( '', ( #625 ) );
#394 = EDGE_LOOP( '', ( #626 ) );
#395 = EDGE_LOOP( '', ( #627 ) );
#396 = AXIS2_PLACEMENT_3D( '', #628, #629, #630 );
#397 = SURFACE_SIDE_STYLE( '', ( #631 ) );
#398 = EDGE_LOOP( '', ( #632, #633, #634, #635, #636, #637 ) );
#399 = AXIS2_PLACEMENT_3D( '', #638, #639, #640 );
#401 = SURFACE_STYLE_FILL_AREA( #641 );
#402 = ORIENTED_EDGE( '', *, *, #642, .F. );
#403 = ORIENTED_EDGE( '', *, *, #643, .F. );
#404 = CARTESIAN_POINT( '', ( 0.00000000000000, -0.00300000000000000, 0.00000000000000 ) );
#405 = DIRECTION( '', ( -0.00000000000000, 1.00000000000000, 0.00000000000000 ) );
#406 = DIRECTION( '', ( 1.00000000000000, 0.00000000000000, 0.00000000000000 ) );
#407 = SURFACE_STYLE_FILL_AREA( #644 );
#408 = ORIENTED_EDGE( '', *, *, #645, .F. );
#409 = ORIENTED_EDGE( '', *, *, #646, .F. );
#410 = CARTESIAN_POINT( '', ( 0.00000000000000, 0.00191000000000000, 0.00000000000000 ) );
#411 = DIRECTION( '', ( -0.00000000000000, -1.00000000000000, -0.00000000000000 ) );
#412 = DIRECTION( '', ( 0.00000000000000, 0.00000000000000, -1.00000000000000 ) );
#413 = SURFACE_STYLE_FILL_AREA( #647 );
#414 = ORIENTED_EDGE( '', *, *, #648, .F. );
#415 = ORIENTED_EDGE( '', *, *, #649, .F. );
#416 = ORIENTED_EDGE( '', *, *, #650, .F. );
#417 = ORIENTED_EDGE( '', *, *, #651, .T. );
#418 = ORIENTED_EDGE( '', *, *, #652, .F. );
#419 = ORIENTED_EDGE( '', *, *, #653, .F. );
#420 = SURFACE_STYLE_FILL_AREA( #654 );
#421 = ORIENTED_EDGE( '', *, *, #655, .F. );
#422 = ORIENTED_EDGE( '', *, *, #656, .T. );
#423 = ORIENTED_EDGE( '', *, *, #657, .T. );
#424 = ORIENTED_EDGE( '', *, *, #651, .F. );
#425 = CARTESIAN_POINT( '', ( 0.00000000000000, -0.00300000000000000, -0.000375000000000000 ) );
#426 = DIRECTION( '', ( -0.00000000000000, 1.00000000000000, -0.00000000000000 ) );
#427 = DIRECTION( '', ( -1.00000000000000, 0.00000000000000, 0.00000000000000 ) );
#428 = SURFACE_STYLE_FILL_AREA( #658 );
#429 = ORIENTED_EDGE( '', *, *, #659, .F. );
#430 = ORIENTED_EDGE( '', *, *, #660, .F. );
#431 = ORIENTED_EDGE( '', *, *, #661, .T. );
#432 = ORIENTED_EDGE( '', *, *, #662, .T. );
#433 = ORIENTED_EDGE( '', *, *, #663, .T. );
#434 = ORIENTED_EDGE( '', *, *, #664, .T. );
#435 = CARTESIAN_POINT( '', ( 0.00250000000000000, -0.00300000000000000, 0.000650000000000000 ) );
#436 = DIRECTION( '', ( 0.00000000000000, 0.00000000000000, 1.00000000000000 ) );
#437 = DIRECTION( '', ( 1.00000000000000, 0.00000000000000, 0.00000000000000 ) );
#438 = SURFACE_STYLE_FILL_AREA( #665 );
#439 = ORIENTED_EDGE( '', *, *, #666, .T. );
#440 = CARTESIAN_POINT( '', ( 0.00000000000000, 0.00380000000000000, 0.00000000000000 ) );
#441 = DIRECTION( '', ( -0.00000000000000, 1.00000000000000, 0.00000000000000 ) );
#442 = DIRECTION( '', ( 1.00000000000000, 0.00000000000000, 0.00000000000000 ) );
#443 = SURFACE_STYLE_FILL_AREA( #667 );
#444 = ORIENTED_EDGE( '', *, *, #668, .F. );
#445 = ORIENTED_EDGE( '', *, *, #669, .T. );
#446 = CARTESIAN_POINT( '', ( 0.00000000000000, 0.00205057280900000, 0.00000000000000 ) );
#447 = DIRECTION( '', ( 0.00000000000000, -1.00000000000000, 0.00000000000000 ) );
#448 = DIRECTION( '', ( 0.0109513167490698, 0.00000000000000, 0.999940032532682 ) );
#449 = SURFACE_STYLE_FILL_AREA( #670 );
#450 = ORIENTED_EDGE( '', *, *, #671, .F. );
#451 = ORIENTED_EDGE( '', *, *, #660, .T. );
#452 = ORIENTED_EDGE( '', *, *, #672, .F. );
#453 = ORIENTED_EDGE( '', *, *, #673, .T. );
#454 = CARTESIAN_POINT( '', ( 0.00000000000000, -0.00220000000000000, 0.00000000000000 ) );
#455 = DIRECTION( '', ( 0.00000000000000, -1.00000000000000, 0.00000000000000 ) );
#456 = DIRECTION( '', ( 0.00000000000000, 0.00000000000000, -1.00000000000000 ) );
#457 = SURFACE_STYLE_FILL_AREA( #674 );
#458 = ORIENTED_EDGE( '', *, *, #675, .F. );
#459 = ORIENTED_EDGE( '', *, *, #676, .T. );
#460 = ORIENTED_EDGE( '', *, *, #677, .F. );
#461 = ORIENTED_EDGE( '', *, *, #673, .F. );
#462 = ORIENTED_EDGE( '', *, *, #678, .T. );
#463 = ORIENTED_EDGE( '', *, *, #679, .T. );
#464 = CARTESIAN_POINT( '', ( 0.00250000000000000, -0.00300000000000000, 0.000650000000000000 ) );
#465 = DIRECTION( '', ( 0.00000000000000, 0.00000000000000, 1.00000000000000 ) );
#466 = DIRECTION( '', ( 1.00000000000000, 0.00000000000000, 0.00000000000000 ) );
#467 = SURFACE_STYLE_FILL_AREA( #680 );
#468 = ORIENTED_EDGE( '', *, *, #681, .T. );
#469 = ORIENTED_EDGE( '', *, *, #682, .T. );
#470 = CARTESIAN_POINT( '', ( 0.00000000000000, 0.00468000000000000, 0.00000000000000 ) );
#471 = DIRECTION( '', ( -0.00000000000000, 1.00000000000000, -0.00000000000000 ) );
#472 = DIRECTION( '', ( -1.00000000000000, 0.00000000000000, 0.00000000000000 ) );
#473 = SURFACE_STYLE_FILL_AREA( #683 );
#474 = ORIENTED_EDGE( '', *, *, #684, .F. );
#475 = ORIENTED_EDGE( '', *, *, #648, .T. );
#476 = CARTESIAN_POINT( '', ( 0.00000000000000, -0.00300000000000000, 0.00000000000000 ) );
#477 = DIRECTION( '', ( -0.00000000000000, 1.00000000000000, 0.00000000000000 ) );
#478 = DIRECTION( '', ( 1.00000000000000, 0.00000000000000, 0.00000000000000 ) );
#479 = SURFACE_STYLE_FILL_AREA( #685 );
#480 = ORIENTED_EDGE( '', *, *, #686, .F. );
#481 = ORIENTED_EDGE( '', *, *, #687, .T. );
#482 = ORIENTED_EDGE( '', *, *, #688, .T. );
#483 = ORIENTED_EDGE( '', *, *, #661, .F. );
#484 = ORIENTED_EDGE( '', *, *, #671, .T. );
#485 = ORIENTED_EDGE( '', *, *, #677, .T. );
#486 = ORIENTED_EDGE( '', *, *, #689, .T. );
#487 = ORIENTED_EDGE( '', *, *, #690, .T. );
#488 = ORIENTED_EDGE( '', *, *, #691, .F. );
#489 = ORIENTED_EDGE( '', *, *, #692, .T. );
#490 = ORIENTED_EDGE( '', *, *, #693, .T. );
#491 = CARTESIAN_POINT( '', ( 0.00000000000000, -0.00300000000000000, 0.00000000000000 ) );
#492 = DIRECTION( '', ( -0.00000000000000, -1.00000000000000, -0.00000000000000 ) );
#493 = DIRECTION( '', ( -1.00000000000000, 0.00000000000000, 0.00000000000000 ) );
#494 = SURFACE_STYLE_FILL_AREA( #694 );
#495 = ORIENTED_EDGE( '', *, *, #643, .T. );
#496 = ORIENTED_EDGE( '', *, *, #695, .F. );
#497 = ORIENTED_EDGE( '', *, *, #679, .F. );
#498 = ORIENTED_EDGE( '', *, *, #696, .T. );
#499 = ORIENTED_EDGE( '', *, *, #664, .F. );
#500 = ORIENTED_EDGE( '', *, *, #697, .F. );
#501 = SURFACE_STYLE_FILL_AREA( #698 );
#502 = ORIENTED_EDGE( '', *, *, #699, .T. );
#503 = ORIENTED_EDGE( '', *, *, #700, .T. );
#504 = CARTESIAN_POINT( '', ( 0.00000000000000, 0.00468000000000000, 0.00000000000000 ) );
#505 = DIRECTION( '', ( -0.00000000000000, 1.00000000000000, -0.00000000000000 ) );
#506 = DIRECTION( '', ( -1.00000000000000, 0.00000000000000, 0.00000000000000 ) );
#507 = SURFACE_STYLE_FILL_AREA( #701 );
#508 = ORIENTED_EDGE( '', *, *, #656, .F. );
#509 = ORIENTED_EDGE( '', *, *, #702, .F. );
#510 = ORIENTED_EDGE( '', *, *, #692, .F. );
#511 = ORIENTED_EDGE( '', *, *, #703, .F. );
#512 = CARTESIAN_POINT( '', ( 0.00000000000000, -0.00220000000000000, 0.00000000000000 ) );
#513 = DIRECTION( '', ( 0.00000000000000, -1.00000000000000, 0.00000000000000 ) );
#514 = DIRECTION( '', ( 0.00000000000000, 0.00000000000000, -1.00000000000000 ) );
#515 = SURFACE_STYLE_FILL_AREA( #704 );
#516 = ORIENTED_EDGE( '', *, *, #705, .T. );
#517 = ORIENTED_EDGE( '', *, *, #706, .F. );
#518 = CARTESIAN_POINT( '', ( 0.00000000000000, 0.00290000000000000, 0.00000000000000 ) );
#519 = DIRECTION( '', ( -0.00000000000000, 1.00000000000000, 0.00000000000000 ) );
#520 = DIRECTION( '', ( 1.00000000000000, 0.00000000000000, 0.00000000000000 ) );
#521 = SURFACE_STYLE_FILL_AREA( #707 );
#522 = ORIENTED_EDGE( '', *, *, #662, .F. );
#523 = ORIENTED_EDGE( '', *, *, #688, .F. );
#524 = ORIENTED_EDGE( '', *, *, #687, .F. );
#525 = ORIENTED_EDGE( '', *, *, #708, .F. );
#526 = ORIENTED_EDGE( '', *, *, #709, .T. );
#527 = ORIENTED_EDGE( '', *, *, #710, .T. );
#528 = CARTESIAN_POINT( '', ( 0.00202019306051700, 0.000100000000000000, 0.00000000000000 ) );
#529 = DIRECTION( '', ( 1.00000000000000, -0.00000000000000, -0.00000000000000 ) );
#530 = DIRECTION( '', ( 0.00000000000000, 1.00000000000000, 0.00000000000000 ) );
#531 = SURFACE_STYLE_FILL_AREA( #711 );
#532 = ORIENTED_EDGE( '', *, *, #712, .T. );
#533 = ORIENTED_EDGE( '', *, *, #705, .F. );
#534 = CARTESIAN_POINT( '', ( 0.00000000000000, 0.00300000000000000, 0.00000000000000 ) );
#535 = DIRECTION( '', ( -0.00000000000000, -1.00000000000000, -0.00000000000000 ) );
#536 = DIRECTION( '', ( 0.00000000000000, 0.00000000000000, 1.00000000000000 ) );
#537 = SURFACE_STYLE_FILL_AREA( #713 );
#538 = ORIENTED_EDGE( '', *, *, #699, .F. );
#539 = CARTESIAN_POINT( '', ( 0.00000000000000, 0.00460000000000000, 0.00000000000000 ) );
#540 = DIRECTION( '', ( 0.00000000000000, -1.00000000000000, 0.00000000000000 ) );
#541 = DIRECTION( '', ( 0.00000000000000, 0.00000000000000, -1.00000000000000 ) );
#542 = SURFACE_STYLE_FILL_AREA( #714 );
#543 = ORIENTED_EDGE( '', *, *, #682, .F. );
#544 = ORIENTED_EDGE( '', *, *, #706, .T. );
#545 = CARTESIAN_POINT( '', ( 0.00000000000000, 0.00295000000003400, 0.00000000000000 ) );
#546 = DIRECTION( '', ( 0.00000000000000, -1.00000000000000, -0.00000000000000 ) );
#547 = DIRECTION( '', ( 0.00000000000000, 0.00000000000000, -1.00000000000000 ) );
#548 = SURFACE_STYLE_FILL_AREA( #715 );
#549 = ORIENTED_EDGE( '', *, *, #666, .F. );
#550 = ORIENTED_EDGE( '', *, *, #646, .T. );
#551 = CARTESIAN_POINT( '', ( 0.00000000000000, 0.00370000000000000, 0.00000000000000 ) );
#552 = DIRECTION( '', ( 0.00000000000000, 1.00000000000000, 0.00000000000000 ) );
#553 = DIRECTION( '', ( -0.0307473025553400, 0.00000000000000, -0.999527189918098 ) );
#554 = SURFACE_STYLE_FILL_AREA( #716 );
#555 = ORIENTED_EDGE( '', *, *, #717, .F. );
#556 = ORIENTED_EDGE( '', *, *, #708, .T. );
#557 = ORIENTED_EDGE( '', *, *, #693, .F. );
#558 = ORIENTED_EDGE( '', *, *, #702, .T. );
#559 = ORIENTED_EDGE( '', *, *, #655, .T. );
#560 = ORIENTED_EDGE( '', *, *, #650, .T. );
#561 = CARTESIAN_POINT( '', ( -0.00250000000000000, -0.00300000000000000, -0.000650000000000000 ) );
#562 = DIRECTION( '', ( 0.00000000000000, 0.00000000000000, -1.00000000000000 ) );
#563 = DIRECTION( '', ( 0.00000000000000, -1.00000000000000, 0.00000000000000 ) );
#564 = SURFACE_STYLE_FILL_AREA( #718 );
#565 = ORIENTED_EDGE( '', *, *, #669, .F. );
#566 = ORIENTED_EDGE( '', *, *, #719, .F. );
#567 = ORIENTED_EDGE( '', *, *, #720, .F. );
#568 = ORIENTED_EDGE( '', *, *, #675, .T. );
#569 = ORIENTED_EDGE( '', *, *, #695, .T. );
#570 = ORIENTED_EDGE( '', *, *, #642, .T. );
#571 = ORIENTED_EDGE( '', *, *, #697, .T. );
#572 = ORIENTED_EDGE( '', *, *, #663, .F. );
#573 = ORIENTED_EDGE( '', *, *, #710, .F. );
#574 = ORIENTED_EDGE( '', *, *, #709, .F. );
#575 = ORIENTED_EDGE( '', *, *, #717, .T. );
#576 = ORIENTED_EDGE( '', *, *, #649, .T. );
#577 = ORIENTED_EDGE( '', *, *, #684, .T. );
#578 = ORIENTED_EDGE( '', *, *, #653, .T. );
#579 = ORIENTED_EDGE( '', *, *, #721, .F. );
#580 = CARTESIAN_POINT( '', ( 0.00000000000000, -0.00300000000000000, 0.00000000000000 ) );
#581 = DIRECTION( '', ( -0.00000000000000, 1.00000000000000, -0.00000000000000 ) );
#582 = DIRECTION( '', ( 1.00000000000000, 0.00000000000000, 0.00000000000000 ) );
#583 = SURFACE_STYLE_FILL_AREA( #722 );
#584 = ORIENTED_EDGE( '', *, *, #700, .F. );
#585 = ORIENTED_EDGE( '', *, *, #723, .F. );
#586 = CARTESIAN_POINT( '', ( 0.00000000000000, 0.00390000000000000, 0.00000000000000 ) );
#587 = DIRECTION( '', ( 0.00000000000000, -1.00000000000000, 0.00000000000000 ) );
#588 = DIRECTION( '', ( 0.00000000000000, 0.00000000000000, -1.00000000000000 ) );
#589 = SURFACE_STYLE_FILL_AREA( #724 );
#590 = ORIENTED_EDGE( '', *, *, #678, .F. );
#591 = ORIENTED_EDGE( '', *, *, #672, .T. );
#592 = ORIENTED_EDGE( '', *, *, #659, .T. );
#593 = ORIENTED_EDGE( '', *, *, #696, .F. );
#594 = CARTESIAN_POINT( '', ( 0.00000000000000, -0.00300000000000000, 0.000375000000000000 ) );
#595 = DIRECTION( '', ( -0.00000000000000, 1.00000000000000, -0.00000000000000 ) );
#596 = DIRECTION( '', ( -1.00000000000000, 0.00000000000000, 0.00000000000000 ) );
#597 = SURFACE_STYLE_FILL_AREA( #725 );
#598 = ORIENTED_EDGE( '', *, *, #712, .F. );
#599 = ORIENTED_EDGE( '', *, *, #686, .T. );
#600 = CARTESIAN_POINT( '', ( 0.00000000000000, 0.00230000000000000, 0.00000000000000 ) );
#601 = DIRECTION( '', ( -0.00000000000000, 1.00000000000000, 0.00000000000000 ) );
#602 = DIRECTION( '', ( 1.00000000000000, 0.00000000000000, 0.00000000000000 ) );
#603 = SURFACE_STYLE_FILL_AREA( #726 );
#604 = ORIENTED_EDGE( '', *, *, #668, .T. );
#605 = ORIENTED_EDGE( '', *, *, #727, .T. );
#606 = CARTESIAN_POINT( '', ( 0.00000000000000, 0.00236487620787500, 0.00000000000000 ) );
#607 = DIRECTION( '', ( -0.00000000000000, -1.00000000000000, 0.00000000000000 ) );
#608 = DIRECTION( '', ( 0.00000000000000, 0.00000000000000, 1.00000000000000 ) );
#609 = SURFACE_STYLE_FILL_AREA( #728 );
#610 = ORIENTED_EDGE( '', *, *, #719, .T. );
#611 = ORIENTED_EDGE( '', *, *, #729, .F. );
#612 = ORIENTED_EDGE( '', *, *, #690, .F. );
#613 = ORIENTED_EDGE( '', *, *, #689, .F. );
#614 = ORIENTED_EDGE( '', *, *, #676, .F. );
#615 = ORIENTED_EDGE( '', *, *, #720, .T. );
#616 = CARTESIAN_POINT( '', ( 0.00202019306051700, 0.000100000000000000, 0.00000000000000 ) );
#617 = DIRECTION( '', ( 1.00000000000000, -0.00000000000000, -0.00000000000000 ) );
#618 = DIRECTION( '', ( 0.00000000000000, 1.00000000000000, 0.00000000000000 ) );
#619 = SURFACE_STYLE_FILL_AREA( #730 );
#620 = ORIENTED_EDGE( '', *, *, #681, .F. );
#621 = ORIENTED_EDGE( '', *, *, #723, .T. );
#622 = CARTESIAN_POINT( '', ( 0.00000000000000, 0.00384999999996600, 0.00000000000000 ) );
#623 = DIRECTION( '', ( 0.00000000000000, 1.00000000000000, 0.00000000000000 ) );
#624 = DIRECTION( '', ( 0.00000000000000, 0.00000000000000, -1.00000000000000 ) );
#625 = SURFACE_STYLE_FILL_AREA( #731 );
#626 = ORIENTED_EDGE( '', *, *, #645, .T. );
#627 = ORIENTED_EDGE( '', *, *, #727, .F. );
#628 = CARTESIAN_POINT( '', ( 0.00000000000000, 0.00267917960675000, 0.00000000000000 ) );
#629 = DIRECTION( '', ( 0.00000000000000, 1.00000000000000, 0.00000000000000 ) );
#630 = DIRECTION( '', ( -0.0165091027373395, 0.00000000000000, 0.999863715476668 ) );
#631 = SURFACE_STYLE_FILL_AREA( #732 );
#632 = ORIENTED_EDGE( '', *, *, #657, .F. );
#633 = ORIENTED_EDGE( '', *, *, #703, .T. );
#634 = ORIENTED_EDGE( '', *, *, #691, .T. );
#635 = ORIENTED_EDGE( '', *, *, #729, .T. );
#636 = ORIENTED_EDGE( '', *, *, #721, .T. );
#637 = ORIENTED_EDGE( '', *, *, #652, .T. );
#638 = CARTESIAN_POINT( '', ( -0.00250000000000000, -0.00300000000000000, -0.000650000000000000 ) );
#639 = DIRECTION( '', ( 0.00000000000000, 0.00000000000000, -1.00000000000000 ) );
#640 = DIRECTION( '', ( 0.00000000000000, -1.00000000000000, 0.00000000000000 ) );
#641 = FILL_AREA_STYLE( '', ( #733 ) );
#642 = EDGE_CURVE( '', #734, #735, #736, .T. );
#643 = EDGE_CURVE( '', #735, #734, #737, .T. );
#644 = FILL_AREA_STYLE( '', ( #738 ) );
#645 = EDGE_CURVE( '', #739, #739, #740, .T. );
#646 = EDGE_CURVE( '', #741, #741, #742, .T. );
#647 = FILL_AREA_STYLE( '', ( #743 ) );
#648 = EDGE_CURVE( '', #744, #745, #746, .T. );
#649 = EDGE_CURVE( '', #747, #744, #748, .T. );
#650 = EDGE_CURVE( '', #749, #747, #750, .T. );
#651 = EDGE_CURVE( '', #749, #751, #752, .T. );
#652 = EDGE_CURVE( '', #753, #751, #754, .T. );
#653 = EDGE_CURVE( '', #745, #753, #755, .T. );
#654 = FILL_AREA_STYLE( '', ( #756 ) );
#655 = EDGE_CURVE( '', #757, #749, #758, .T. );
#656 = EDGE_CURVE( '', #757, #759, #760, .T. );
#657 = EDGE_CURVE( '', #759, #751, #761, .T. );
#658 = FILL_AREA_STYLE( '', ( #762 ) );
#659 = EDGE_CURVE( '', #763, #764, #765, .T. );
#660 = EDGE_CURVE( '', #766, #763, #767, .T. );
#661 = EDGE_CURVE( '', #766, #768, #769, .T. );
#662 = EDGE_CURVE( '', #768, #770, #771, .T. );
#663 = EDGE_CURVE( '', #770, #772, #773, .T. );
#664 = EDGE_CURVE( '', #772, #764, #774, .T. );
#665 = FILL_AREA_STYLE( '', ( #775 ) );
#666 = EDGE_CURVE( '', #776, #776, #777, .T. );
#667 = FILL_AREA_STYLE( '', ( #778 ) );
#668 = EDGE_CURVE( '', #779, #779, #780, .T. );
#669 = EDGE_CURVE( '', #781, #781, #782, .T. );
#670 = FILL_AREA_STYLE( '', ( #783 ) );
#671 = EDGE_CURVE( '', #766, #784, #785, .T. );
#672 = EDGE_CURVE( '', #786, #763, #787, .T. );
#673 = EDGE_CURVE( '', #786, #784, #788, .T. );
#674 = FILL_AREA_STYLE( '', ( #789 ) );
#675 = EDGE_CURVE( '', #790, #791, #792, .T. );
#676 = EDGE_CURVE( '', #790, #793, #794, .T. );
#677 = EDGE_CURVE( '', #784, #793, #795, .T. );
#678 = EDGE_CURVE( '', #786, #796, #797, .T. );
#679 = EDGE_CURVE( '', #796, #791, #798, .T. );
#680 = FILL_AREA_STYLE( '', ( #799 ) );
#681 = EDGE_CURVE( '', #800, #800, #801, .T. );
#682 = EDGE_CURVE( '', #802, #802, #803, .T. );
#683 = FILL_AREA_STYLE( '', ( #804 ) );
#684 = EDGE_CURVE( '', #744, #745, #805, .T. );
#685 = FILL_AREA_STYLE( '', ( #806 ) );
#686 = EDGE_CURVE( '', #807, #807, #808, .T. );
#687 = EDGE_CURVE( '', #809, #810, #811, .T. );
#688 = EDGE_CURVE( '', #810, #768, #812, .T. );
#689 = EDGE_CURVE( '', #793, #813, #814, .T. );
#690 = EDGE_CURVE( '', #813, #815, #816, .T. );
#691 = EDGE_CURVE( '', #817, #815, #818, .T. );
#692 = EDGE_CURVE( '', #817, #819, #820, .T. );
#693 = EDGE_CURVE( '', #819, #809, #821, .T. );
#694 = FILL_AREA_STYLE( '', ( #822 ) );
#695 = EDGE_CURVE( '', #791, #734, #823, .T. );
#696 = EDGE_CURVE( '', #796, #764, #824, .T. );
#697 = EDGE_CURVE( '', #735, #772, #825, .T. );
#698 = FILL_AREA_STYLE( '', ( #826 ) );
#699 = EDGE_CURVE( '', #827, #827, #828, .T. );
#700 = EDGE_CURVE( '', #829, #829, #830, .T. );
#701 = FILL_AREA_STYLE( '', ( #831 ) );
#702 = EDGE_CURVE( '', #819, #757, #832, .T. );
#703 = EDGE_CURVE( '', #759, #817, #833, .T. );
#704 = FILL_AREA_STYLE( '', ( #834 ) );
#705 = EDGE_CURVE( '', #835, #835, #836, .T. );
#706 = EDGE_CURVE( '', #837, #837, #838, .T. );
#707 = FILL_AREA_STYLE( '', ( #839 ) );
#708 = EDGE_CURVE( '', #840, #809, #841, .T. );
#709 = EDGE_CURVE( '', #840, #842, #843, .T. );
#710 = EDGE_CURVE( '', #842, #770, #844, .T. );
#711 = FILL_AREA_STYLE( '', ( #845 ) );
#712 = EDGE_CURVE( '', #846, #846, #847, .T. );
#713 = FILL_AREA_STYLE( '', ( #848 ) );
#714 = FILL_AREA_STYLE( '', ( #849 ) );
#715 = FILL_AREA_STYLE( '', ( #850 ) );
#716 = FILL_AREA_STYLE( '', ( #851 ) );
#717 = EDGE_CURVE( '', #840, #747, #852, .T. );
#718 = FILL_AREA_STYLE( '', ( #853 ) );
#719 = EDGE_CURVE( '', #854, #855, #856, .T. );
#720 = EDGE_CURVE( '', #790, #854, #857, .T. );
#721 = EDGE_CURVE( '', #855, #753, #858, .T. );
#722 = FILL_AREA_STYLE( '', ( #859 ) );
#723 = EDGE_CURVE( '', #860, #860, #861, .T. );
#724 = FILL_AREA_STYLE( '', ( #862 ) );
#725 = FILL_AREA_STYLE( '', ( #863 ) );
#726 = FILL_AREA_STYLE( '', ( #864 ) );
#727 = EDGE_CURVE( '', #865, #865, #866, .T. );
#728 = FILL_AREA_STYLE( '', ( #867 ) );
#729 = EDGE_CURVE( '', #815, #855, #868, .T. );
#730 = FILL_AREA_STYLE( '', ( #869 ) );
#731 = FILL_AREA_STYLE( '', ( #870 ) );
#732 = FILL_AREA_STYLE( '', ( #871 ) );
#733 = FILL_AREA_STYLE_COLOUR( '', #872 );
#734 = VERTEX_POINT( '', #873 );
#735 = VERTEX_POINT( '', #874 );
#736 = CIRCLE( '', #875, 0.00150000000000000 );
#737 = CIRCLE( '', #876, 0.00130000000000000 );
#738 = FILL_AREA_STYLE_COLOUR( '', #877 );
#739 = VERTEX_POINT( '', #878 );
#740 = CIRCLE( '', #879, 0.000490000000000000 );
#741 = VERTEX_POINT( '', #880 );
#742 = CIRCLE( '', #881, 0.000490000000000000 );
#743 = FILL_AREA_STYLE_COLOUR( '', #882 );
#744 = VERTEX_POINT( '', #883 );
#745 = VERTEX_POINT( '', #884 );
#746 = CIRCLE( '', #885, 0.00130000000000000 );
#747 = VERTEX_POINT( '', #886 );
#748 = B_SPLINE_CURVE_WITH_KNOTS( '', 3, ( #887, #888, #889, #890, #891 ), .UNSPECIFIED., .F., .F., ( 4, 1, 4 ), ( 0.00000000000000, 0.500000000000000, 1.00000000000000 ), .UNSPECIFIED. );
#749 = VERTEX_POINT( '', #892 );
#750 = B_SPLINE_CURVE_WITH_KNOTS( '', 2, ( #893, #894, #895, #896, #897 ), .UNSPECIFIED., .F., .F., ( 3, 2, 3 ), ( 0.00000000000000, 0.500000000000000, 1.00000000000000 ), .UNSPECIFIED. );
#751 = VERTEX_POINT( '', #898 );
#752 = CIRCLE( '', #899, 0.00195000000000000 );
#753 = VERTEX_POINT( '', #900 );
#754 = B_SPLINE_CURVE_WITH_KNOTS( '', 2, ( #901, #902, #903, #904, #905 ), .UNSPECIFIED., .F., .F., ( 3, 2, 3 ), ( 0.00000000000000, 0.500000000000000, 1.00000000000000 ), .UNSPECIFIED. );
#755 = B_SPLINE_CURVE_WITH_KNOTS( '', 3, ( #906, #907, #908, #909, #910 ), .UNSPECIFIED., .F., .F., ( 4, 1, 4 ), ( 0.00000000000000, 0.500000000000000, 1.00000000000000 ), .UNSPECIFIED. );
#756 = FILL_AREA_STYLE_COLOUR( '', #911 );
#757 = VERTEX_POINT( '', #912 );
#758 = LINE( '', #913, #914 );
#759 = VERTEX_POINT( '', #915 );
#760 = CIRCLE( '', #916, 0.00195000000000000 );
#761 = LINE( '', #917, #918 );
#762 = FILL_AREA_STYLE_COLOUR( '', #919 );
#763 = VERTEX_POINT( '', #920 );
#764 = VERTEX_POINT( '', #921 );
#765 = LINE( '', #922, #923 );
#766 = VERTEX_POINT( '', #924 );
#767 = LINE( '', #925, #926 );
#768 = VERTEX_POINT( '', #927 );
#769 = LINE( '', #928, #929 );
#770 = VERTEX_POINT( '', #930 );
#771 = LINE( '', #931, #932 );
#772 = VERTEX_POINT( '', #933 );
#773 = LINE( '', #934, #935 );
#774 = B_SPLINE_CURVE_WITH_KNOTS( '', 2, ( #936, #937, #938, #939, #940 ), .UNSPECIFIED., .F., .F., ( 3, 2, 3 ), ( 0.00000000000000, 0.500000000000000, 1.00000000000000 ), .UNSPECIFIED. );
#775 = FILL_AREA_STYLE_COLOUR( '', #941 );
#776 = VERTEX_POINT( '', #942 );
#777 = CIRCLE( '', #943, 0.000390000000000000 );
#778 = FILL_AREA_STYLE_COLOUR( '', #944 );
#779 = VERTEX_POINT( '', #945 );
#780 = CIRCLE( '', #946, 0.00144472140000000 );
#781 = VERTEX_POINT( '', #947 );
#782 = CIRCLE( '', #948, 0.00150000000000000 );
#783 = FILL_AREA_STYLE_COLOUR( '', #949 );
#784 = VERTEX_POINT( '', #950 );
#785 = CIRCLE( '', #951, 0.00200000000000000 );
#786 = VERTEX_POINT( '', #952 );
#787 = CIRCLE( '', #953, 0.00195000000000000 );
#788 = LINE( '', #954, #955 );
#789 = FILL_AREA_STYLE_COLOUR( '', #956 );
#790 = VERTEX_POINT( '', #957 );
#791 = VERTEX_POINT( '', #958 );
#792 = LINE( '', #959, #960 );
#793 = VERTEX_POINT( '', #961 );
#794 = LINE( '', #962, #963 );
#795 = LINE( '', #964, #965 );
#796 = VERTEX_POINT( '', #966 );
#797 = LINE( '', #967, #968 );
#798 = B_SPLINE_CURVE_WITH_KNOTS( '', 2, ( #969, #970, #971, #972, #973 ), .UNSPECIFIED., .F., .F., ( 3, 2, 3 ), ( 0.00000000000000, 0.500000000000000, 1.00000000000000 ), .UNSPECIFIED. );
#799 = FILL_AREA_STYLE_COLOUR( '', #974 );
#800 = VERTEX_POINT( '', #975 );
#801 = CIRCLE( '', #976, 0.00129000000000000 );
#802 = VERTEX_POINT( '', #977 );
#803 = CIRCLE( '', #978, 0.00129000000000000 );
#804 = FILL_AREA_STYLE_COLOUR( '', #979 );
#805 = CIRCLE( '', #980, 0.00150000000000000 );
#806 = FILL_AREA_STYLE_COLOUR( '', #981 );
#807 = VERTEX_POINT( '', #982 );
#808 = CIRCLE( '', #983, 0.00200000000000000 );
#809 = VERTEX_POINT( '', #984 );
#810 = VERTEX_POINT( '', #985 );
#811 = B_SPLINE_CURVE_WITH_KNOTS( '', 3, ( #986, #987, #988, #989, #990, #991, #992, #993, #994, #995, #996, #997, #998 ), .UNSPECIFIED., .F., .F., ( 4, 1, 1, 1, 1, 1, 1, 1, 1, 1, 4 ), ( 0.00000000000000, 0.0617293980196036, 0.123094456440889, 0.184741703938179, 0.247308909213640, 0.372834196150977, 0.499981006213966, 0.626668380978784, 0.752640012642503, 0.876769956719925, 1.00000000000000 ), .UNSPECIFIED. );
#812 = B_SPLINE_CURVE_WITH_KNOTS( '', 3, ( #999, #1000, #1001, #1002, #1003, #1004, #1005, #1006, #1007, #1008, #1009, #1010, #1011 ), .UNSPECIFIED., .F., .F., ( 4, 1, 1, 1, 1, 1, 1, 1, 1, 1, 4 ), ( 0.00000000000000, 0.0618597761980114, 0.123367487915000, 0.185112556901728, 0.247677697096943, 0.373599935110354, 0.500336465932897, 0.627433862317133, 0.753008379886326, 0.877042416710360, 1.00000000000000 ), .UNSPECIFIED. );
#813 = VERTEX_POINT( '', #1012 );
#814 = B_SPLINE_CURVE_WITH_KNOTS( '', 3, ( #1013, #1014, #1015, #1016, #1017, #1018, #1019, #1020, #1021, #1022, #1023, #1024, #1025 ), .UNSPECIFIED., .F., .F., ( 4, 1, 1, 1, 1, 1, 1, 1, 1, 1, 4 ), ( 0.00000000000000, 0.0617293980196040, 0.123094456440890, 0.184741703938182, 0.247308909213645, 0.372834196150980, 0.499981006213973, 0.626668380978789, 0.752640012642502, 0.876769956719923, 1.00000000000000 ), .UNSPECIFIED. );
#815 = VERTEX_POINT( '', #1026 );
#816 = B_SPLINE_CURVE_WITH_KNOTS( '', 3, ( #1027, #1028, #1029, #1030, #1031, #1032, #1033, #1034, #1035, #1036, #1037, #1038, #1039 ), .UNSPECIFIED., .F., .F., ( 4, 1, 1, 1, 1, 1, 1, 1, 1, 1, 4 ), ( 0.00000000000000, 0.0618597761978608, 0.123367487914799, 0.185112556901575, 0.247677697096929, 0.373599935110419, 0.500336465932908, 0.627433862318083, 0.753008379886351, 0.877042416711027, 1.00000000000000 ), .UNSPECIFIED. );
#817 = VERTEX_POINT( '', #1040 );
#818 = LINE( '', #1041, #1042 );
#819 = VERTEX_POINT( '', #1043 );
#820 = CIRCLE( '', #1044, 0.00200000000000000 );
#821 = LINE( '', #1045, #1046 );
#822 = FILL_AREA_STYLE_COLOUR( '', #1047 );
#823 = B_SPLINE_CURVE_WITH_KNOTS( '', 3, ( #1048, #1049, #1050, #1051, #1052 ), .UNSPECIFIED., .F., .F., ( 4, 1, 4 ), ( 0.00000000000000, 0.500000000000000, 1.00000000000000 ), .UNSPECIFIED. );
#824 = CIRCLE( '', #1053, 0.00195000000000000 );
#825 = B_SPLINE_CURVE_WITH_KNOTS( '', 3, ( #1054, #1055, #1056, #1057, #1058 ), .UNSPECIFIED., .F., .F., ( 4, 1, 4 ), ( 0.00000000000000, 0.500000000000000, 1.00000000000000 ), .UNSPECIFIED. );
#826 = FILL_AREA_STYLE_COLOUR( '', #1059 );
#827 = VERTEX_POINT( '', #1060 );
#828 = CIRCLE( '', #1061, 0.00195000000000000 );
#829 = VERTEX_POINT( '', #1062 );
#830 = CIRCLE( '', #1063, 0.00195000000000000 );
#831 = FILL_AREA_STYLE_COLOUR( '', #1064 );
#832 = LINE( '', #1065, #1066 );
#833 = LINE( '', #1067, #1068 );
#834 = FILL_AREA_STYLE_COLOUR( '', #1069 );
#835 = VERTEX_POINT( '', #1070 );
#836 = CIRCLE( '', #1071, 0.00240000000000000 );
#837 = VERTEX_POINT( '', #1072 );
#838 = CIRCLE( '', #1073, 0.00149000000000000 );
#839 = FILL_AREA_STYLE_COLOUR( '', #1074 );
#840 = VERTEX_POINT( '', #1075 );
#841 = LINE( '', #1076, #1077 );
#842 = VERTEX_POINT( '', #1078 );
#843 = B_SPLINE_CURVE_WITH_KNOTS( '', 3, ( #1079, #1080, #1081, #1082, #1083, #1084, #1085, #1086, #1087, #1088, #1089, #1090, #1091 ), .UNSPECIFIED., .F., .F., ( 4, 1, 1, 1, 1, 1, 1, 1, 1, 1, 4 ), ( 0.00000000000000, 0.0588379549815360, 0.119779843633103, 0.182937211520265, 0.248410263201972, 0.350073180965358, 0.499344768068345, 0.642539578437821, 0.750470607306808, 0.878644602959024, 1.00000000000000 ), .UNSPECIFIED. );
#844 = B_SPLINE_CURVE_WITH_KNOTS( '', 3, ( #1092, #1093, #1094, #1095, #1096, #1097, #1098, #1099, #1100, #1101, #1102, #1103, #1104 ), .UNSPECIFIED., .F., .F., ( 4, 1, 1, 1, 1, 1, 1, 1, 1, 1, 4 ), ( 0.00000000000000, 0.0599329538758233, 0.121488932683345, 0.184765167508995, 0.249851171841719, 0.357772826817247, 0.501047858072612, 0.650268812453882, 0.751960667971521, 0.880374098481577, 1.00000000000000 ), .UNSPECIFIED. );
#845 = FILL_AREA_STYLE_COLOUR( '', #1105 );
#846 = VERTEX_POINT( '', #1106 );
#847 = CIRCLE( '', #1107, 0.00240000000000000 );
#848 = FILL_AREA_STYLE_COLOUR( '', #1108 );
#849 = FILL_AREA_STYLE_COLOUR( '', #1109 );
#850 = FILL_AREA_STYLE_COLOUR( '', #1110 );
#851 = FILL_AREA_STYLE_COLOUR( '', #1111 );
#852 = LINE( '', #1112, #1113 );
#853 = FILL_AREA_STYLE_COLOUR( '', #1114 );
#854 = VERTEX_POINT( '', #1115 );
#855 = VERTEX_POINT( '', #1116 );
#856 = B_SPLINE_CURVE_WITH_KNOTS( '', 3, ( #1117, #1118, #1119, #1120, #1121, #1122, #1123, #1124, #1125, #1126, #1127, #1128, #1129 ), .UNSPECIFIED., .F., .F., ( 4, 1, 1, 1, 1, 1, 1, 1, 1, 1, 4 ), ( 0.00000000000000, 0.0599318565418034, 0.121486597350475, 0.184761448474065, 0.249845919236100, 0.357752165340496, 0.500985909698804, 0.650241046967482, 0.751932969031788, 0.880361953608633, 1.00000000000000 ), .UNSPECIFIED. );
#857 = B_SPLINE_CURVE_WITH_KNOTS( '', 3, ( #1130, #1131, #1132, #1133, #1134, #1135, #1136, #1137, #1138, #1139, #1140, #1141, #1142 ), .UNSPECIFIED., .F., .F., ( 4, 1, 1, 1, 1, 1, 1, 1, 1, 1, 4 ), ( 0.00000000000000, 0.0588324534241987, 0.119768009200412, 0.182918183066718, 0.248383155807292, 0.350046014131407, 0.499283691787020, 0.642520072847815, 0.750466748720854, 0.878642934153353, 1.00000000000000 ), .UNSPECIFIED. );
#858 = LINE( '', #1143, #1144 );
#859 = FILL_AREA_STYLE_COLOUR( '', #1145 );
#860 = VERTEX_POINT( '', #1146 );
#861 = CIRCLE( '', #1147, 0.00149000000000000 );
#862 = FILL_AREA_STYLE_COLOUR( '', #1148 );
#863 = FILL_AREA_STYLE_COLOUR( '', #1149 );
#864 = FILL_AREA_STYLE_COLOUR( '', #1150 );
#865 = VERTEX_POINT( '', #1151 );
#866 = CIRCLE( '', #1152, 0.000545278600000000 );
#867 = FILL_AREA_STYLE_COLOUR( '', #1153 );
#868 = LINE( '', #1154, #1155 );
#869 = FILL_AREA_STYLE_COLOUR( '', #1156 );
#870 = FILL_AREA_STYLE_COLOUR( '', #1157 );
#871 = FILL_AREA_STYLE_COLOUR( '', #1158 );
#872 = COLOUR_RGB( '', 1.00000000000000, 0.756862759600000, 0.0549019612000000 );
#873 = CARTESIAN_POINT( '', ( 0.00117359815903400, -0.00300000000000000, 0.000934166666666700 ) );
#874 = CARTESIAN_POINT( '', ( -0.00117359815903400, -0.00300000000000000, 0.000934166666666700 ) );
#875 = AXIS2_PLACEMENT_3D( '', #1159, #1160, #1161 );
#876 = AXIS2_PLACEMENT_3D( '', #1162, #1163, #1164 );
#877 = COLOUR_RGB( '', 1.00000000000000, 0.756862759600000, 0.0549019612000000 );
#878 = CARTESIAN_POINT( '', ( 0.00000000000000, 0.00267917960676000, 0.000490000000010000 ) );
#879 = AXIS2_PLACEMENT_3D( '', #1165, #1166, #1167 );
#880 = CARTESIAN_POINT( '', ( 0.00000000000000, 0.00370000000001000, 0.000490000000010000 ) );
#881 = AXIS2_PLACEMENT_3D( '', #1168, #1169, #1170 );
#882 = COLOUR_RGB( '', 1.00000000000000, 0.756862759600000, 0.0549019612000000 );
#883 = CARTESIAN_POINT( '', ( -0.00117359815903400, -0.00300000000000000, -0.000934166666666700 ) );
#884 = CARTESIAN_POINT( '', ( 0.00117359815903400, -0.00300000000000000, -0.000934166666666700 ) );
#885 = AXIS2_PLACEMENT_3D( '', #1171, #1172, #1173 );
#886 = CARTESIAN_POINT( '', ( -0.00135185058346000, -0.00294312283005900, -0.000650000000000000 ) );
#887 = CARTESIAN_POINT( '', ( -0.00135185058347000, -0.00294312283006900, -0.000650000000010000 ) );
#888 = CARTESIAN_POINT( '', ( -0.00132738641344500, -0.00295351899706300, -0.000700879850044000 ) );
#889 = CARTESIAN_POINT( '', ( -0.00127289859870500, -0.00297343116219700, -0.000799477470198800 ) );
#890 = CARTESIAN_POINT( '', ( -0.00120822449409500, -0.00299147034622000, -0.000890665432347600 ) );
#891 = CARTESIAN_POINT( '', ( -0.00117359815904400, -0.00300000000001000, -0.000934166666676700 ) );
#892 = CARTESIAN_POINT( '', ( -0.00193051159022700, -0.00228248551021300, -0.000650000000000000 ) );
#893 = CARTESIAN_POINT( '', ( -0.00193051159023700, -0.00228248551022300, -0.000650000000000000 ) );
#894 = CARTESIAN_POINT( '', ( -0.00182533920856681, -0.00247383363592803, -0.000650000000000000 ) );
#895 = CARTESIAN_POINT( '', ( -0.00168022854023167, -0.00264071218162833, -0.000650000000000000 ) );
#896 = CARTESIAN_POINT( '', ( -0.00153381277929061, -0.00280909159531152, -0.000650000000000000 ) );
#897 = CARTESIAN_POINT( '', ( -0.00135185058347000, -0.00294312283006900, -0.000650000000000000 ) );
#898 = CARTESIAN_POINT( '', ( 0.00193051159022700, -0.00228248551021300, -0.000650000000000000 ) );
#899 = AXIS2_PLACEMENT_3D( '', #1174, #1175, #1176 );
#900 = CARTESIAN_POINT( '', ( 0.00135185058346000, -0.00294312283005900, -0.000650000000000000 ) );
#901 = CARTESIAN_POINT( '', ( 0.00135185058347000, -0.00294312283006900, -0.000650000000000000 ) );
#902 = CARTESIAN_POINT( '', ( 0.00153161125980001, -0.00281071320893365, -0.000650000000000000 ) );
#903 = CARTESIAN_POINT( '', ( 0.00168026162711467, -0.00264067423289433, -0.000650000000000000 ) );
#904 = CARTESIAN_POINT( '', ( 0.00182402390086629, -0.00247622667542502, -0.000650000000000000 ) );
#905 = CARTESIAN_POINT( '', ( 0.00193051159023700, -0.00228248551022300, -0.000650000000000000 ) );
#906 = CARTESIAN_POINT( '', ( 0.00117359815904400, -0.00300000000001000, -0.000934166666676700 ) );
#907 = CARTESIAN_POINT( '', ( 0.00120822065180100, -0.00299147129270900, -0.000890670259439400 ) );
#908 = CARTESIAN_POINT( '', ( 0.00127289203127900, -0.00297343325080000, -0.000799487928162200 ) );
#909 = CARTESIAN_POINT( '', ( 0.00132738375337300, -0.00295352012747400, -0.000700885382382100 ) );
#910 = CARTESIAN_POINT( '', ( 0.00135185058347000, -0.00294312283006900, -0.000650000000010000 ) );
#911 = COLOUR_RGB( '', 1.00000000000000, 0.756862759600000, 0.0549019612000000 );
#912 = CARTESIAN_POINT( '', ( -0.00193051159022700, -0.00220000000000000, -0.000650000000000000 ) );
#913 = CARTESIAN_POINT( '', ( -0.00193051159023700, -0.00220000000001000, -0.000650000000010000 ) );
#914 = VECTOR( '', #1177, 1.00000000000000 );
#915 = CARTESIAN_POINT( '', ( 0.00193051159022700, -0.00220000000000000, -0.000650000000000000 ) );
#916 = AXIS2_PLACEMENT_3D( '', #1178, #1179, #1180 );
#917 = CARTESIAN_POINT( '', ( 0.00193051159023700, -0.00220000000001000, -0.000650000000010000 ) );
#918 = VECTOR( '', #1181, 1.00000000000000 );
#919 = COLOUR_RGB( '', 1.00000000000000, 0.756862759600000, 0.0549019612000000 );
#920 = CARTESIAN_POINT( '', ( -0.00193051159022700, -0.00220000000000000, 0.000650000000000000 ) );
#921 = CARTESIAN_POINT( '', ( -0.00193051159022700, -0.00228248551021300, 0.000650000000000000 ) );
#922 = CARTESIAN_POINT( '', ( -0.00193051159023700, -0.00220000000001000, 0.000650000000010000 ) );
#923 = VECTOR( '', #1182, 1.00000000000000 );
#924 = CARTESIAN_POINT( '', ( -0.00189142803193800, -0.00220000000000000, 0.000650000000000000 ) );
#925 = CARTESIAN_POINT( '', ( -0.00189142803194800, -0.00220000000001000, 0.000650000000010000 ) );
#926 = VECTOR( '', #1183, 1.00000000000000 );
#927 = CARTESIAN_POINT( '', ( -0.00189142803193800, 0.000100000000000000, 0.000650000000000000 ) );
#928 = CARTESIAN_POINT( '', ( -0.00189142803194800, -0.00220000000001000, 0.000650000000010000 ) );
#929 = VECTOR( '', #1184, 1.00000000000000 );
#930 = CARTESIAN_POINT( '', ( -0.00135185058346000, 0.000100000000000000, 0.000650000000000000 ) );
#931 = CARTESIAN_POINT( '', ( -0.00189142803194800, 0.000100000000010000, 0.000650000000010000 ) );
#932 = VECTOR( '', #1185, 1.00000000000000 );
#933 = CARTESIAN_POINT( '', ( -0.00135185058346000, -0.00294312283005900, 0.000650000000000000 ) );
#934 = CARTESIAN_POINT( '', ( -0.00135185058347000, 0.000100000000010000, 0.000650000000010000 ) );
#935 = VECTOR( '', #1186, 1.00000000000000 );
#936 = CARTESIAN_POINT( '', ( -0.00135185058347000, -0.00294312283006900, 0.000650000000000000 ) );
#937 = CARTESIAN_POINT( '', ( -0.00153143961730255, -0.00281083963880125, 0.000650000000000000 ) );
#938 = CARTESIAN_POINT( '', ( -0.00167998794653850, -0.00264098807182300, 0.000650000000000000 ) );
#939 = CARTESIAN_POINT( '', ( -0.00182392134900690, -0.00247641325583205, 0.000650000000000000 ) );
#940 = CARTESIAN_POINT( '', ( -0.00193051159023700, -0.00228248551022300, 0.000650000000000000 ) );
#941 = COLOUR_RGB( '', 1.00000000000000, 0.756862759600000, 0.0549019612000000 );
#942 = CARTESIAN_POINT( '', ( 0.00000000000000, 0.00380000000001000, -0.000390000000010000 ) );
#943 = AXIS2_PLACEMENT_3D( '', #1187, #1188, #1189 );
#944 = COLOUR_RGB( '', 1.00000000000000, 0.756862759600000, 0.0549019612000000 );
#945 = CARTESIAN_POINT( '', ( 0.00000000000000, 0.00214001552811000, 0.00144472135956000 ) );
#946 = AXIS2_PLACEMENT_3D( '', #1190, #1191, #1192 );
#947 = CARTESIAN_POINT( '', ( 0.00000000000000, 0.00205057280901000, 0.00150000000001000 ) );
#948 = AXIS2_PLACEMENT_3D( '', #1193, #1194, #1195 );
#949 = COLOUR_RGB( '', 1.00000000000000, 0.756862759600000, 0.0549019612000000 );
#950 = CARTESIAN_POINT( '', ( 0.00189142803193800, -0.00220000000000000, 0.000650000000000000 ) );
#951 = AXIS2_PLACEMENT_3D( '', #1196, #1197, #1198 );
#952 = CARTESIAN_POINT( '', ( 0.00193051159022700, -0.00220000000000000, 0.000650000000000000 ) );
#953 = AXIS2_PLACEMENT_3D( '', #1199, #1200, #1201 );
#954 = CARTESIAN_POINT( '', ( 0.00193051159023700, -0.00220000000001000, 0.000650000000010000 ) );
#955 = VECTOR( '', #1202, 1.00000000000000 );
#956 = COLOUR_RGB( '', 1.00000000000000, 0.756862759600000, 0.0549019612000000 );
#957 = CARTESIAN_POINT( '', ( 0.00135185058346000, 0.000100000000000000, 0.000650000000000000 ) );
#958 = CARTESIAN_POINT( '', ( 0.00135185058346000, -0.00294312283005900, 0.000650000000000000 ) );
#959 = CARTESIAN_POINT( '', ( 0.00135185058347000, 0.000100000000010000, 0.000650000000010000 ) );
#960 = VECTOR( '', #1203, 1.00000000000000 );
#961 = CARTESIAN_POINT( '', ( 0.00189142803193800, 0.000100000000000000, 0.000650000000000000 ) );
#962 = CARTESIAN_POINT( '', ( 0.00135185058347000, 0.000100000000010000, 0.000650000000010000 ) );
#963 = VECTOR( '', #1204, 1.00000000000000 );
#964 = CARTESIAN_POINT( '', ( 0.00189142803194800, -0.00220000000001000, 0.000650000000010000 ) );
#965 = VECTOR( '', #1205, 1.00000000000000 );
#966 = CARTESIAN_POINT( '', ( 0.00193051159022700, -0.00228248551021300, 0.000650000000000000 ) );
#967 = CARTESIAN_POINT( '', ( 0.00193051159023700, -0.00220000000001000, 0.000650000000010000 ) );
#968 = VECTOR( '', #1206, 1.00000000000000 );
#969 = CARTESIAN_POINT( '', ( 0.00193051159023700, -0.00228248551022300, 0.000650000000000000 ) );
#970 = CARTESIAN_POINT( '', ( 0.00182524859633430, -0.00247399849366497, 0.000650000000000000 ) );
#971 = CARTESIAN_POINT( '', ( 0.00167995874346767, -0.00264102155236117, 0.000650000000000000 ) );
#972 = CARTESIAN_POINT( '', ( 0.00153366069240497, -0.00280920362074150, 0.000650000000000000 ) );
#973 = CARTESIAN_POINT( '', ( 0.00135185058347000, -0.00294312283006900, 0.000650000000000000 ) );
#974 = COLOUR_RGB( '', 1.00000000000000, 0.756862759600000, 0.0549019612000000 );
#975 = CARTESIAN_POINT( '', ( -0.00129000000001000, 0.00380000000001000, 0.00000000000000 ) );
#976 = AXIS2_PLACEMENT_3D( '', #1207, #1208, #1209 );
#977 = CARTESIAN_POINT( '', ( -0.00129000000001000, 0.00300000000001000, 0.00000000000000 ) );
#978 = AXIS2_PLACEMENT_3D( '', #1210, #1211, #1212 );
#979 = COLOUR_RGB( '', 1.00000000000000, 0.756862759600000, 0.0549019612000000 );
#980 = AXIS2_PLACEMENT_3D( '', #1213, #1214, #1215 );
#981 = COLOUR_RGB( '', 1.00000000000000, 0.756862759600000, 0.0549019612000000 );
#982 = CARTESIAN_POINT( '', ( -0.00200000000001000, 0.00230000000001000, 0.00000000000000 ) );
#983 = AXIS2_PLACEMENT_3D( '', #1216, #1217, #1218 );
#984 = CARTESIAN_POINT( '', ( -0.00189142803193800, 0.000100000000000000, -0.000650000000000000 ) );
#985 = CARTESIAN_POINT( '', ( -0.00200000000000000, 0.000750000000000000, 0.00000000000000 ) );
#986 = CARTESIAN_POINT( '', ( -0.00189142803193578, 0.000100000000010000, -0.000650000000005792 ) );
#987 = CARTESIAN_POINT( '', ( -0.00189163174906027, 0.000121137190855763, -0.000649408769169083 ) );
#988 = CARTESIAN_POINT( '', ( -0.00189203798092888, 0.000163286816501233, -0.000648229797061617 ) );
#989 = CARTESIAN_POINT( '', ( -0.00189527929236946, 0.000225884479584488, -0.000638726289117472 ) );
#990 = CARTESIAN_POINT( '', ( -0.00190036308017063, 0.000287433727744587, -0.000623492367007946 ) );
#991 = CARTESIAN_POINT( '', ( -0.00190956815569415, 0.000367619620392760, -0.000594989740476194 ) );
#992 = CARTESIAN_POINT( '', ( -0.00192483870994696, 0.000462821553364217, -0.000544815976088705 ) );
#993 = CARTESIAN_POINT( '', ( -0.00194646015008357, 0.000562184978848378, -0.000462820679861325 ) );
#994 = CARTESIAN_POINT( '', ( -0.00196775548665210, 0.000644542040236246, -0.000363335764883097 ) );
#995 = CARTESIAN_POINT( '', ( -0.00198546505993244, 0.000704266897171276, -0.000249646353033261 ) );
#996 = CARTESIAN_POINT( '', ( -0.00199764018923692, 0.000742942034474900, -0.000127085054267077 ) );
#997 = CARTESIAN_POINT( '', ( -0.00199921530651549, 0.000747653057765322, -4.22588182165547E-05 ) );
#998 = CARTESIAN_POINT( '', ( -0.00200000000000000, 0.000750000000010000, 8.39192547734231E-18 ) );
#999 = CARTESIAN_POINT( '', ( -0.00200000000000000, 0.000750000000010000, 0.00000000000000 ) );
#1000 = CARTESIAN_POINT( '', ( -0.00199980513796986, 0.000749416842547026, 2.11823015218780E-05 ) );
#1001 = CARTESIAN_POINT( '', ( -0.00199941652293395, 0.000748253846563407, 6.34263490697930E-05 ) );
#1002 = CARTESIAN_POINT( '', ( -0.00199631671955343, 0.000738700557210680, 0.000126152880610509 ) );
#1003 = CARTESIAN_POINT( '', ( -0.00199148370954436, 0.000723394946918862, 0.000187788495560510 ) );
#1004 = CARTESIAN_POINT( '', ( -0.00198265316247889, 0.000694762188002222, 0.000268150390454882 ) );
#1005 = CARTESIAN_POINT( '', ( -0.00196772890547512, 0.000644465028404502, 0.000363346340801390 ) );
#1006 = CARTESIAN_POINT( '', ( -0.00194648079053541, 0.000562236677106139, 0.000462769541066915 ) );
#1007 = CARTESIAN_POINT( '', ( -0.00192481086193291, 0.000462810394339356, 0.000544891787883076 ) );
#1008 = CARTESIAN_POINT( '', ( -0.00190669793206996, 0.000349146110998953, 0.000604460240890519 ) );
#1009 = CARTESIAN_POINT( '', ( -0.00189388412469999, 0.000226863433070234, 0.000642934020971217 ) );
#1010 = CARTESIAN_POINT( '', ( -0.00189224434733218, 0.000142164764776118, 0.000647651527032552 ) );
#1011 = CARTESIAN_POINT( '', ( -0.00189142803193578, 0.000100000000010000, 0.000650000000005801 ) );
#1012 = CARTESIAN_POINT( '', ( 0.00200000000000000, 0.000750000000000000, 0.00000000000000 ) );
#1013 = CARTESIAN_POINT( '', ( 0.00189142803193578, 0.000100000000010000, 0.000650000000005804 ) );
#1014 = CARTESIAN_POINT( '', ( 0.00189163174906026, 0.000121137190855763, 0.000649408769169094 ) );
#1015 = CARTESIAN_POINT( '', ( 0.00189203798092888, 0.000163286816501233, 0.000648229797061626 ) );
#1016 = CARTESIAN_POINT( '', ( 0.00189527929236946, 0.000225884479584488, 0.000638726289117477 ) );
#1017 = CARTESIAN_POINT( '', ( 0.00190036308017063, 0.000287433727744587, 0.000623492367007945 ) );
#1018 = CARTESIAN_POINT( '', ( 0.00190956815569415, 0.000367619620392757, 0.000594989740476186 ) );
#1019 = CARTESIAN_POINT( '', ( 0.00192483870994696, 0.000462821553364221, 0.000544815976088706 ) );
#1020 = CARTESIAN_POINT( '', ( 0.00194646015008357, 0.000562184978848375, 0.000462820679861318 ) );
#1021 = CARTESIAN_POINT( '', ( 0.00196775548665210, 0.000644542040236245, 0.000363335764883095 ) );
#1022 = CARTESIAN_POINT( '', ( 0.00198546505993244, 0.000704266897171277, 0.000249646353033263 ) );
#1023 = CARTESIAN_POINT( '', ( 0.00199764018923692, 0.000742942034474900, 0.000127085054267082 ) );
#1024 = CARTESIAN_POINT( '', ( 0.00199921530651549, 0.000747653057765322, 4.22588182165592E-05 ) );
#1025 = CARTESIAN_POINT( '', ( 0.00200000000000000, 0.000750000000010000, -4.19596273867116E-18 ) );
#1026 = CARTESIAN_POINT( '', ( 0.00189142803193800, 0.000100000000000000, -0.000650000000000000 ) );
#1027 = CARTESIAN_POINT( '', ( 0.00200000000000000, 0.000750000000010000, -4.19596273867116E-18 ) );
#1028 = CARTESIAN_POINT( '', ( 0.00199980513796986, 0.000749416842547025, -2.11823015218304E-05 ) );
#1029 = CARTESIAN_POINT( '', ( 0.00199941652293395, 0.000748253846563402, -6.34263490696762E-05 ) );
#1030 = CARTESIAN_POINT( '', ( 0.00199631671955344, 0.000738700557210670, -0.000126152880610337 ) );
#1031 = CARTESIAN_POINT( '', ( 0.00199148370954437, 0.000723394946918847, -0.000187788495560385 ) );
#1032 = CARTESIAN_POINT( '', ( 0.00198265316247889, 0.000694762188002248, -0.000268150390454863 ) );
#1033 = CARTESIAN_POINT( '', ( 0.00196772890547510, 0.000644465028404621, -0.000363346340801501 ) );
#1034 = CARTESIAN_POINT( '', ( 0.00194648079053537, 0.000562236677105870, -0.000462769541067127 ) );
#1035 = CARTESIAN_POINT( '', ( 0.00192481086193283, 0.000462810394339168, -0.000544891787883363 ) );
#1036 = CARTESIAN_POINT( '', ( 0.00190669793206989, 0.000349146110998451, -0.000604460240890732 ) );
#1037 = CARTESIAN_POINT( '', ( 0.00189388412470004, 0.000226863433069965, -0.000642934020971064 ) );
#1038 = CARTESIAN_POINT( '', ( 0.00189224434733219, 0.000142164764775878, -0.000647651527032510 ) );
#1039 = CARTESIAN_POINT( '', ( 0.00189142803193578, 0.000100000000010000, -0.000650000000005801 ) );
#1040 = CARTESIAN_POINT( '', ( 0.00189142803193800, -0.00220000000000000, -0.000650000000000000 ) );
#1041 = CARTESIAN_POINT( '', ( 0.00189142803194800, -0.00220000000001000, -0.000650000000010000 ) );
#1042 = VECTOR( '', #1219, 1.00000000000000 );
#1043 = CARTESIAN_POINT( '', ( -0.00189142803193800, -0.00220000000000000, -0.000650000000000000 ) );
#1044 = AXIS2_PLACEMENT_3D( '', #1220, #1221, #1222 );
#1045 = CARTESIAN_POINT( '', ( -0.00189142803194800, -0.00220000000001000, -0.000650000000010000 ) );
#1046 = VECTOR( '', #1223, 1.00000000000000 );
#1047 = COLOUR_RGB( '', 1.00000000000000, 0.756862759600000, 0.0549019612000000 );
#1048 = CARTESIAN_POINT( '', ( 0.00135185058347000, -0.00294312283006900, 0.000650000000010000 ) );
#1049 = CARTESIAN_POINT( '', ( 0.00132737992902800, -0.00295352175264700, 0.000700893336139600 ) );
#1050 = CARTESIAN_POINT( '', ( 0.00127288258922100, -0.00297343625352600, 0.000799502963313300 ) );
#1051 = CARTESIAN_POINT( '', ( 0.00120821512779500, -0.00299147265346100, 0.000890677199275100 ) );
#1052 = CARTESIAN_POINT( '', ( 0.00117359815904400, -0.00300000000001000, 0.000934166666676700 ) );
#1053 = AXIS2_PLACEMENT_3D( '', #1224, #1225, #1226 );
#1054 = CARTESIAN_POINT( '', ( -0.00117359815904400, -0.00300000000001000, 0.000934166666676700 ) );
#1055 = CARTESIAN_POINT( '', ( -0.00120821686349500, -0.00299147222589800, 0.000890675018707700 ) );
#1056 = CARTESIAN_POINT( '', ( -0.00127288555603400, -0.00297343531004200, 0.000799498239127800 ) );
#1057 = CARTESIAN_POINT( '', ( -0.00132738113067600, -0.00295352124200100, 0.000700890836987500 ) );
#1058 = CARTESIAN_POINT( '', ( -0.00135185058347000, -0.00294312283006900, 0.000650000000010000 ) );
#1059 = COLOUR_RGB( '', 1.00000000000000, 0.756862759600000, 0.0549019612000000 );
#1060 = CARTESIAN_POINT( '', ( 0.00195000000001000, 0.00460000000001000, 0.00000000000000 ) );
#1061 = AXIS2_PLACEMENT_3D( '', #1227, #1228, #1229 );
#1062 = CARTESIAN_POINT( '', ( 0.00195000000001000, 0.00390000000001000, 0.00000000000000 ) );
#1063 = AXIS2_PLACEMENT_3D( '', #1230, #1231, #1232 );
#1064 = COLOUR_RGB( '', 1.00000000000000, 0.756862759600000, 0.0549019612000000 );
#1065 = CARTESIAN_POINT( '', ( -0.00189142803194800, -0.00220000000001000, -0.000650000000010000 ) );
#1066 = VECTOR( '', #1233, 1.00000000000000 );
#1067 = CARTESIAN_POINT( '', ( 0.00193051159023700, -0.00220000000001000, -0.000650000000010000 ) );
#1068 = VECTOR( '', #1234, 1.00000000000000 );
#1069 = COLOUR_RGB( '', 1.00000000000000, 0.756862759600000, 0.0549019612000000 );
#1070 = CARTESIAN_POINT( '', ( 0.00000000000000, 0.00290000000001000, 0.00240000000001000 ) );
#1071 = AXIS2_PLACEMENT_3D( '', #1235, #1236, #1237 );
#1072 = CARTESIAN_POINT( '', ( 0.00149000000001000, 0.00290000000001000, 0.00000000000000 ) );
#1073 = AXIS2_PLACEMENT_3D( '', #1238, #1239, #1240 );
#1074 = COLOUR_RGB( '', 1.00000000000000, 0.756862759600000, 0.0549019612000000 );
#1075 = CARTESIAN_POINT( '', ( -0.00135185058346000, 0.000100000000000000, -0.000650000000000000 ) );
#1076 = CARTESIAN_POINT( '', ( -0.00135185058347000, 0.000100000000010000, -0.000650000000010000 ) );
#1077 = VECTOR( '', #1241, 1.00000000000000 );
#1078 = CARTESIAN_POINT( '', ( -0.00150000000000000, 0.000750000000000000, 0.00000000000000 ) );
#1079 = CARTESIAN_POINT( '', ( -0.00135185058347000, 0.000100000000010001, -0.000650000000000000 ) );
#1080 = CARTESIAN_POINT( '', ( -0.00135213410119660, 0.000120261444890487, -0.000649450763977927 ) );
#1081 = CARTESIAN_POINT( '', ( -0.00135271127470594, 0.000161508845489760, -0.000648332652295389 ) );
#1082 = CARTESIAN_POINT( '', ( -0.00135719050501813, 0.000223814783005343, -0.000639090313408646 ) );
#1083 = CARTESIAN_POINT( '', ( -0.00136430362984261, 0.000286933222692020, -0.000623725416812322 ) );
#1084 = CARTESIAN_POINT( '', ( -0.00137594836045995, 0.000360956643650740, -0.000597370121054060 ) );
#1085 = CARTESIAN_POINT( '', ( -0.00139731967338087, 0.000456470132534950, -0.000548546357985546 ) );
#1086 = CARTESIAN_POINT( '', ( -0.00142719382859453, 0.000561310902977145, -0.000465825445761149 ) );
#1087 = CARTESIAN_POINT( '', ( -0.00145723516271865, 0.000646313955381239, -0.000359989262529860 ) );
#1088 = CARTESIAN_POINT( '', ( -0.00148122300802941, 0.000705564604516401, -0.000245682717390691 ) );
#1089 = CARTESIAN_POINT( '', ( -0.00149671485326936, 0.000742816680532991, -0.000127871000273741 ) );
#1090 = CARTESIAN_POINT( '', ( -0.00149892508322160, 0.000747649581190386, -4.18400442341380E-05 ) );
#1091 = CARTESIAN_POINT( '', ( -0.00150000000001000, 0.000750000000000000, 0.00000000000000 ) );
#1092 = CARTESIAN_POINT( '', ( -0.00150000000001000, 0.000750000000000000, -2.72737578013625E-18 ) );
#1093 = CARTESIAN_POINT( '', ( -0.00149973965735624, 0.000749430525358097, 2.06386552291028E-05 ) );
#1094 = CARTESIAN_POINT( '', ( -0.00149921192179355, 0.000748276154315775, 6.24748744316244E-05 ) );
#1095 = CARTESIAN_POINT( '', ( -0.00149507445755475, 0.000738792887970112, 0.000125406280043405 ) );
#1096 = CARTESIAN_POINT( '', ( -0.00148849612124777, 0.000723204710489601, 0.000188652149971172 ) );
#1097 = CARTESIAN_POINT( '', ( -0.00147735092540031, 0.000695921285797803, 0.000264626972726208 ) );
#1098 = CARTESIAN_POINT( '', ( -0.00145718541757572, 0.000646232429558186, 0.000360005734074312 ) );
#1099 = CARTESIAN_POINT( '', ( -0.00142722647877181, 0.000561344301371493, 0.000465794603591426 ) );
#1100 = CARTESIAN_POINT( '', ( -0.00139725446550782, 0.000456433219351078, 0.000548643841323337 ) );
#1101 = CARTESIAN_POINT( '', ( -0.00137185666942286, 0.000341990626098904, 0.000606852431079436 ) );
#1102 = CARTESIAN_POINT( '', ( -0.00135548034501599, 0.000226750726028651, 0.000642975511063517 ) );
#1103 = CARTESIAN_POINT( '', ( -0.00135303158579934, 0.000141240423320687, 0.000647714467550749 ) );
#1104 = CARTESIAN_POINT( '', ( -0.00135185058347000, 0.000100000000010004, 0.000650000000000000 ) );
#1105 = COLOUR_RGB( '', 1.00000000000000, 0.756862759600000, 0.0549019612000000 );
#1106 = CARTESIAN_POINT( '', ( 0.00000000000000, 0.00230000000001000, -0.00240000000001000 ) );
#1107 = AXIS2_PLACEMENT_3D( '', #1242, #1243, #1244 );
#1108 = COLOUR_RGB( '', 1.00000000000000, 0.756862759600000, 0.0549019612000000 );
#1109 = COLOUR_RGB( '', 1.00000000000000, 0.756862759600000, 0.0549019612000000 );
#1110 = COLOUR_RGB( '', 1.00000000000000, 0.756862759600000, 0.0549019612000000 );
#1111 = COLOUR_RGB( '', 1.00000000000000, 0.756862759600000, 0.0549019612000000 );
#1112 = CARTESIAN_POINT( '', ( -0.00135185058347000, 0.000100000000010000, -0.000650000000010000 ) );
#1113 = VECTOR( '', #1245, 1.00000000000000 );
#1114 = COLOUR_RGB( '', 1.00000000000000, 0.756862759600000, 0.0549019612000000 );
#1115 = CARTESIAN_POINT( '', ( 0.00150000000000000, 0.000750000000000000, 0.00000000000000 ) );
#1116 = CARTESIAN_POINT( '', ( 0.00135185058346000, 0.000100000000000000, -0.000650000000000000 ) );
#1117 = CARTESIAN_POINT( '', ( 0.00150000000001000, 0.000750000000000000, 0.00000000000000 ) );
#1118 = CARTESIAN_POINT( '', ( 0.00149973966817769, 0.000749430546373512, -2.06382758361269E-05 ) );
#1119 = CARTESIAN_POINT( '', ( 0.00149921195503290, 0.000748276218985328, -6.24736877720600E-05 ) );
#1120 = CARTESIAN_POINT( '', ( 0.00149507465032894, 0.000738793323537463, -0.000125403847489729 ) );
#1121 = CARTESIAN_POINT( '', ( 0.00148849658580021, 0.000723205786983364, -0.000188648414033856 ) );
#1122 = CARTESIAN_POINT( '', ( 0.00147735235519474, 0.000695925023717660, -0.000264617537425201 ) );
#1123 = CARTESIAN_POINT( '', ( 0.00145719171517305, 0.000646247198054238, -0.000359979819549061 ) );
#1124 = CARTESIAN_POINT( '', ( 0.00142723526339303, 0.000561371071160964, -0.000465767746256070 ) );
#1125 = CARTESIAN_POINT( '', ( 0.00139726338038697, 0.000456467141172744, -0.000548623244719939 ) );
#1126 = CARTESIAN_POINT( '', ( 0.00137186016209720, 0.000342012505161779, -0.000606844191507324 ) );
#1127 = CARTESIAN_POINT( '', ( 0.00135548123162770, 0.000226764475998295, -0.000642974029280341 ) );
#1128 = CARTESIAN_POINT( '', ( 0.00135303186618668, 0.000141244614764760, -0.000647714001076790 ) );
#1129 = CARTESIAN_POINT( '', ( 0.00135185058347000, 0.000100000000010001, -0.000650000000000000 ) );
#1130 = CARTESIAN_POINT( '', ( 0.00135185058347000, 0.000100000000010004, 0.000650000000000000 ) );
#1131 = CARTESIAN_POINT( '', ( 0.00135213404064787, 0.000120259547477264, 0.000649450867378431 ) );
#1132 = CARTESIAN_POINT( '', ( 0.00135271108783716, 0.000161502866873782, 0.000648332972117492 ) );
#1133 = CARTESIAN_POINT( '', ( 0.00135718940305069, 0.000223802446859492, 0.000639092488035648 ) );
#1134 = CARTESIAN_POINT( '', ( 0.00136430106094230, 0.000286914114622218, 0.000623730862683090 ) );
#1135 = CARTESIAN_POINT( '', ( 0.00137594420069702, 0.000360933630193384, 0.000597380004772987 ) );
#1136 = CARTESIAN_POINT( '', ( 0.00139731089731088, 0.000456436850840285, 0.000548566569614525 ) );
#1137 = CARTESIAN_POINT( '', ( 0.00142718526178518, 0.000561284815293343, 0.000465851659236981 ) );
#1138 = CARTESIAN_POINT( '', ( 0.00145722915455869, 0.000646299890192567, 0.000360014182388845 ) );
#1139 = CARTESIAN_POINT( '', ( 0.00148122201098355, 0.000705561827301431, 0.000245690907909624 ) );
#1140 = CARTESIAN_POINT( '', ( 0.00149671471234954, 0.000742816471816883, 0.000127872897191892 ) );
#1141 = CARTESIAN_POINT( '', ( 0.00149892503835011, 0.000747649515604814, 4.18406167213418E-05 ) );
#1142 = CARTESIAN_POINT( '', ( 0.00150000000001000, 0.000750000000000000, -2.72737578013625E-18 ) );
#1143 = CARTESIAN_POINT( '', ( 0.00135185058347000, 0.000100000000010000, -0.000650000000010000 ) );
#1144 = VECTOR( '', #1246, 1.00000000000000 );
#1145 = COLOUR_RGB( '', 1.00000000000000, 0.756862759600000, 0.0549019612000000 );
#1146 = CARTESIAN_POINT( '', ( -0.00149000000001000, 0.00390000000001000, 0.00000000000000 ) );
#1147 = AXIS2_PLACEMENT_3D( '', #1247, #1248, #1249 );
#1148 = COLOUR_RGB( '', 1.00000000000000, 0.756862759600000, 0.0549019612000000 );
#1149 = COLOUR_RGB( '', 1.00000000000000, 0.756862759600000, 0.0549019612000000 );
#1150 = COLOUR_RGB( '', 1.00000000000000, 0.756862759600000, 0.0549019612000000 );
#1151 = CARTESIAN_POINT( '', ( 0.00000000000000, 0.00258973688766000, 0.000545278640460000 ) );
#1152 = AXIS2_PLACEMENT_3D( '', #1250, #1251, #1252 );
#1153 = COLOUR_RGB( '', 1.00000000000000, 0.756862759600000, 0.0549019612000000 );
#1154 = CARTESIAN_POINT( '', ( 0.00189142803194800, 0.000100000000010000, -0.000650000000010000 ) );
#1155 = VECTOR( '', #1253, 1.00000000000000 );
#1156 = COLOUR_RGB( '', 1.00000000000000, 0.756862759600000, 0.0549019612000000 );
#1157 = COLOUR_RGB( '', 1.00000000000000, 0.756862759600000, 0.0549019612000000 );
#1158 = COLOUR_RGB( '', 1.00000000000000, 0.756862759600000, 0.0549019612000000 );
#1159 = CARTESIAN_POINT( '', ( 0.00000000000000, -0.00300000000001000, 0.00000000000000 ) );
#1160 = DIRECTION( '', ( 0.00000000000000, -1.00000000000000, 0.00000000000000 ) );
#1161 = DIRECTION( '', ( 0.782398772688919, 0.00000000000000, 0.622777777778618 ) );
#1162 = CARTESIAN_POINT( '', ( 0.00000000000000, -0.00300000000001000, 0.000375000000010000 ) );
#1163 = DIRECTION( '', ( 0.00000000000000, 1.00000000000000, 0.00000000000000 ) );
#1164 = DIRECTION( '', ( -0.902767814640264, 0.00000000000000, 0.430128205131496 ) );
#1165 = CARTESIAN_POINT( '', ( 0.00000000000000, 0.00267917960676000, 0.00000000000000 ) );
#1166 = DIRECTION( '', ( 0.00000000000000, 1.00000000000000, 0.00000000000000 ) );
#1167 = DIRECTION( '', ( 0.00000000000000, 0.00000000000000, 1.00000000000000 ) );
#1168 = CARTESIAN_POINT( '', ( 0.00000000000000, 0.00370000000001000, 0.00000000000000 ) );
#1169 = DIRECTION( '', ( 0.00000000000000, -1.00000000000000, 0.00000000000000 ) );
#1170 = DIRECTION( '', ( 0.00000000000000, 0.00000000000000, 1.00000000000000 ) );
#1171 = CARTESIAN_POINT( '', ( 0.00000000000000, -0.00300000000001000, -0.000375000000010000 ) );
#1172 = DIRECTION( '', ( 0.00000000000000, -1.00000000000000, -0.00000000000000 ) );
#1173 = DIRECTION( '', ( -0.902767814640264, 0.00000000000000, -0.430128205131496 ) );
#1174 = CARTESIAN_POINT( '', ( 0.00000000000000, -0.00228248551022300, -0.000375000000010000 ) );
#1175 = DIRECTION( '', ( 0.00000000000000, -1.00000000000000, -0.00000000000000 ) );
#1176 = DIRECTION( '', ( -0.990005943705443, 0.00000000000000, -0.141025641029904 ) );
#1177 = DIRECTION( '', ( 0.00000000000000, -1.00000000000000, 0.00000000000000 ) );
#1178 = CARTESIAN_POINT( '', ( 0.00000000000000, -0.00220000000001000, -0.000375000000010000 ) );
#1179 = DIRECTION( '', ( 0.00000000000000, -1.00000000000000, -0.00000000000000 ) );
#1180 = DIRECTION( '', ( -0.990005943705443, 0.00000000000000, -0.141025641029904 ) );
#1181 = DIRECTION( '', ( 0.00000000000000, -1.00000000000000, 0.00000000000000 ) );
#1182 = DIRECTION( '', ( 0.00000000000000, -1.00000000000000, 0.00000000000000 ) );
#1183 = DIRECTION( '', ( -1.00000000000000, 0.00000000000000, 0.00000000000000 ) );
#1184 = DIRECTION( '', ( 0.00000000000000, 1.00000000000000, 0.00000000000000 ) );
#1185 = DIRECTION( '', ( 1.00000000000000, 0.00000000000000, 0.00000000000000 ) );
#1186 = DIRECTION( '', ( 0.00000000000000, -1.00000000000000, 0.00000000000000 ) );
#1187 = CARTESIAN_POINT( '', ( 0.00000000000000, 0.00380000000001000, 0.00000000000000 ) );
#1188 = DIRECTION( '', ( 0.00000000000000, -1.00000000000000, 0.00000000000000 ) );
#1189 = DIRECTION( '', ( 0.00000000000000, 0.00000000000000, -1.00000000000000 ) );
#1190 = CARTESIAN_POINT( '', ( 0.00000000000000, 0.00214001552811000, 0.00000000000000 ) );
#1191 = DIRECTION( '', ( 0.00000000000000, -1.00000000000000, 0.00000000000000 ) );
#1192 = DIRECTION( '', ( 0.00000000000000, 0.00000000000000, 1.00000000000000 ) );
#1193 = CARTESIAN_POINT( '', ( 0.00000000000000, 0.00205057280901000, 0.00000000000000 ) );
#1194 = DIRECTION( '', ( 0.00000000000000, -1.00000000000000, 0.00000000000000 ) );
#1195 = DIRECTION( '', ( 0.00000000000000, 0.00000000000000, 1.00000000000000 ) );
#1196 = CARTESIAN_POINT( '', ( 0.00000000000000, -0.00220000000001000, 0.00000000000000 ) );
#1197 = DIRECTION( '', ( 0.00000000000000, 1.00000000000000, 0.00000000000000 ) );
#1198 = DIRECTION( '', ( -0.945714015967880, 0.00000000000000, 0.325000000002931 ) );
#1199 = CARTESIAN_POINT( '', ( 0.00000000000000, -0.00220000000001000, 0.000375000000010000 ) );
#1200 = DIRECTION( '', ( 0.00000000000000, -1.00000000000000, 0.00000000000000 ) );
#1201 = DIRECTION( '', ( 0.990005943705443, 0.00000000000000, 0.141025641029904 ) );
#1202 = DIRECTION( '', ( -1.00000000000000, 0.00000000000000, 0.00000000000000 ) );
#1203 = DIRECTION( '', ( 0.00000000000000, -1.00000000000000, 0.00000000000000 ) );
#1204 = DIRECTION( '', ( 1.00000000000000, 0.00000000000000, 0.00000000000000 ) );
#1205 = DIRECTION( '', ( 0.00000000000000, 1.00000000000000, 0.00000000000000 ) );
#1206 = DIRECTION( '', ( 0.00000000000000, -1.00000000000000, 0.00000000000000 ) );
#1207 = CARTESIAN_POINT( '', ( 0.00000000000000, 0.00380000000001000, 0.00000000000000 ) );
#1208 = DIRECTION( '', ( 0.00000000000000, -1.00000000000000, 0.00000000000000 ) );
#1209 = DIRECTION( '', ( -1.00000000000000, 0.00000000000000, 0.00000000000000 ) );
#1210 = CARTESIAN_POINT( '', ( 0.00000000000000, 0.00300000000001000, 0.00000000000000 ) );
#1211 = DIRECTION( '', ( 0.00000000000000, 1.00000000000000, 0.00000000000000 ) );
#1212 = DIRECTION( '', ( -1.00000000000000, 0.00000000000000, 0.00000000000000 ) );
#1213 = CARTESIAN_POINT( '', ( 0.00000000000000, -0.00300000000001000, 0.00000000000000 ) );
#1214 = DIRECTION( '', ( 0.00000000000000, -1.00000000000000, -0.00000000000000 ) );
#1215 = DIRECTION( '', ( -0.782398772688919, 0.00000000000000, -0.622777777778618 ) );
#1216 = CARTESIAN_POINT( '', ( 0.00000000000000, 0.00230000000001000, 0.00000000000000 ) );
#1217 = DIRECTION( '', ( 0.00000000000000, 1.00000000000000, 0.00000000000000 ) );
#1218 = DIRECTION( '', ( -1.00000000000000, 0.00000000000000, 0.00000000000000 ) );
#1219 = DIRECTION( '', ( 0.00000000000000, 1.00000000000000, 0.00000000000000 ) );
#1220 = CARTESIAN_POINT( '', ( 0.00000000000000, -0.00220000000001000, 0.00000000000000 ) );
#1221 = DIRECTION( '', ( 0.00000000000000, 1.00000000000000, 0.00000000000000 ) );
#1222 = DIRECTION( '', ( 0.945714015967880, 0.00000000000000, -0.325000000002931 ) );
#1223 = DIRECTION( '', ( 0.00000000000000, 1.00000000000000, 0.00000000000000 ) );
#1224 = CARTESIAN_POINT( '', ( 0.00000000000000, -0.00228248551022300, 0.000375000000010000 ) );
#1225 = DIRECTION( '', ( 0.00000000000000, -1.00000000000000, 0.00000000000000 ) );
#1226 = DIRECTION( '', ( 0.990005943705443, 0.00000000000000, 0.141025641029904 ) );
#1227 = CARTESIAN_POINT( '', ( 0.00000000000000, 0.00460000000001000, 0.00000000000000 ) );
#1228 = DIRECTION( '', ( 0.00000000000000, -1.00000000000000, 0.00000000000000 ) );
#1229 = DIRECTION( '', ( 1.00000000000000, 0.00000000000000, 0.00000000000000 ) );
#1230 = CARTESIAN_POINT( '', ( 0.00000000000000, 0.00390000000001000, 0.00000000000000 ) );
#1231 = DIRECTION( '', ( -0.00000000000000, 1.00000000000000, 0.00000000000000 ) );
#1232 = DIRECTION( '', ( 1.00000000000000, 0.00000000000000, 0.00000000000000 ) );
#1233 = DIRECTION( '', ( -1.00000000000000, 0.00000000000000, 0.00000000000000 ) );
#1234 = DIRECTION( '', ( -1.00000000000000, 0.00000000000000, 0.00000000000000 ) );
#1235 = CARTESIAN_POINT( '', ( 0.00000000000000, 0.00290000000001000, 0.00000000000000 ) );
#1236 = DIRECTION( '', ( 0.00000000000000, 1.00000000000000, 0.00000000000000 ) );
#1237 = DIRECTION( '', ( 0.00000000000000, 0.00000000000000, 1.00000000000000 ) );
#1238 = CARTESIAN_POINT( '', ( 0.00000000000000, 0.00290000000001000, 0.00000000000000 ) );
#1239 = DIRECTION( '', ( -0.00000000000000, 1.00000000000000, 0.00000000000000 ) );
#1240 = DIRECTION( '', ( 1.00000000000000, 0.00000000000000, 0.00000000000000 ) );
#1241 = DIRECTION( '', ( -1.00000000000000, 0.00000000000000, 0.00000000000000 ) );
#1242 = CARTESIAN_POINT( '', ( 0.00000000000000, 0.00230000000001000, 0.00000000000000 ) );
#1243 = DIRECTION( '', ( 0.00000000000000, 1.00000000000000, 0.00000000000000 ) );
#1244 = DIRECTION( '', ( 0.00000000000000, 0.00000000000000, -1.00000000000000 ) );
#1245 = DIRECTION( '', ( 0.00000000000000, -1.00000000000000, 0.00000000000000 ) );
#1246 = DIRECTION( '', ( 0.00000000000000, -1.00000000000000, 0.00000000000000 ) );
#1247 = CARTESIAN_POINT( '', ( 0.00000000000000, 0.00390000000001000, 0.00000000000000 ) );
#1248 = DIRECTION( '', ( 0.00000000000000, -1.00000000000000, 0.00000000000000 ) );
#1249 = DIRECTION( '', ( -1.00000000000000, 0.00000000000000, 0.00000000000000 ) );
#1250 = CARTESIAN_POINT( '', ( 0.00000000000000, 0.00258973688766000, 0.00000000000000 ) );
#1251 = DIRECTION( '', ( 0.00000000000000, 1.00000000000000, 0.00000000000000 ) );
#1252 = DIRECTION( '', ( 0.00000000000000, 0.00000000000000, 1.00000000000000 ) );
#1253 = DIRECTION( '', ( -1.00000000000000, 0.00000000000000, 0.00000000000000 ) );
ENDSEC;
END-ISO-10303-21;
