ISO-10303-21;
HEADER;
FILE_DESCRIPTION( ( '' ), ' ' );
FILE_NAME( '/vol/tmp/translate-273730668717763650/589d6688c139c90fab4a3a97.step', '2017-02-10T07:06:49', ( '' ), ( '' ), ' ', ' ', ' ' );
FILE_SCHEMA( ( 'AUTOMOTIVE_DESIGN { 1 0 10303 214 1 1 1 1 }' ) );
ENDSEC;
DATA;
#1 = MECHANICAL_DESIGN_GEOMETRIC_PRESENTATION_REPRESENTATION( ' ', ( #10, #11, #12, #13, #14, #15, #16, #17, #18, #19, #20, #21, #22, #23, #24, #25, #26 ), #6 );
#2 = PRODUCT_DEFINITION_CONTEXT( '', #27, 'design' );
#3 = APPLICATION_PROTOCOL_DEFINITION( 'international standard', 'automotive_design', 2001, #27 );
#4 = PRODUCT_CATEGORY_RELATIONSHIP( 'NONE', 'NONE', #28, #29 );
#5 = SHAPE_DEFINITION_REPRESENTATION( #30, #31 );
#6 =  ( GEOMETRIC_REPRESENTATION_CONTEXT( 3 )GLOBAL_UNCERTAINTY_ASSIGNED_CONTEXT( ( #34 ) )GLOBAL_UNIT_ASSIGNED_CONTEXT( ( #36, #37, #38 ) )REPRESENTATION_CONTEXT( 'NONE', 'WORKSPACE' ) );
#10 = STYLED_ITEM( '', ( #40 ), #41 );
#11 = STYLED_ITEM( '', ( #42 ), #43 );
#12 = STYLED_ITEM( '', ( #44 ), #45 );
#13 = STYLED_ITEM( '', ( #46 ), #47 );
#14 = STYLED_ITEM( '', ( #48 ), #49 );
#15 = STYLED_ITEM( '', ( #50 ), #51 );
#16 = STYLED_ITEM( '', ( #52 ), #53 );
#17 = STYLED_ITEM( '', ( #54 ), #55 );
#18 = STYLED_ITEM( '', ( #56 ), #57 );
#19 = STYLED_ITEM( '', ( #58 ), #59 );
#20 = STYLED_ITEM( '', ( #60 ), #61 );
#21 = STYLED_ITEM( '', ( #62 ), #63 );
#22 = STYLED_ITEM( '', ( #64 ), #65 );
#23 = STYLED_ITEM( '', ( #66 ), #67 );
#24 = STYLED_ITEM( '', ( #68 ), #69 );
#25 = STYLED_ITEM( '', ( #70 ), #71 );
#26 = STYLED_ITEM( '', ( #72 ), #73 );
#27 = APPLICATION_CONTEXT( 'core data for automotive mechanical design processes' );
#28 = PRODUCT_CATEGORY( 'part', 'NONE' );
#29 = PRODUCT_RELATED_PRODUCT_CATEGORY( 'detail', ' ', ( #74 ) );
#30 = PRODUCT_DEFINITION_SHAPE( 'NONE', 'NONE', #75 );
#31 = ADVANCED_BREP_SHAPE_REPRESENTATION( 'BIC04_C01_PCB', ( #76, #77 ), #6 );
#34 = UNCERTAINTY_MEASURE_WITH_UNIT( LENGTH_MEASURE( 1.00000000000000E-06 ), #36, '', '' );
#36 =  ( CONVERSION_BASED_UNIT( 'METRE', #80 )LENGTH_UNIT(  )NAMED_UNIT( #83 ) );
#37 =  ( NAMED_UNIT( #85 )PLANE_ANGLE_UNIT(  )SI_UNIT( $, .RADIAN. ) );
#38 =  ( NAMED_UNIT( #85 )SI_UNIT( $, .STERADIAN. )SOLID_ANGLE_UNIT(  ) );
#40 = PRESENTATION_STYLE_ASSIGNMENT( ( #91 ) );
#41 = ADVANCED_FACE( '', ( #92 ), #93, .T. );
#42 = PRESENTATION_STYLE_ASSIGNMENT( ( #94 ) );
#43 = ADVANCED_FACE( '', ( #95 ), #96, .T. );
#44 = PRESENTATION_STYLE_ASSIGNMENT( ( #97 ) );
#45 = ADVANCED_FACE( '', ( #98, #99 ), #100, .F. );
#46 = PRESENTATION_STYLE_ASSIGNMENT( ( #101 ) );
#47 = ADVANCED_FACE( '', ( #102 ), #103, .T. );
#48 = PRESENTATION_STYLE_ASSIGNMENT( ( #104 ) );
#49 = ADVANCED_FACE( '', ( #105 ), #106, .T. );
#50 = PRESENTATION_STYLE_ASSIGNMENT( ( #107 ) );
#51 = ADVANCED_FACE( '', ( #108, #109, #110 ), #111, .F. );
#52 = PRESENTATION_STYLE_ASSIGNMENT( ( #112 ) );
#53 = ADVANCED_FACE( '', ( #113 ), #114, .T. );
#54 = PRESENTATION_STYLE_ASSIGNMENT( ( #115 ) );
#55 = ADVANCED_FACE( '', ( #116 ), #117, .T. );
#56 = PRESENTATION_STYLE_ASSIGNMENT( ( #118 ) );
#57 = ADVANCED_FACE( '', ( #119 ), #120, .T. );
#58 = PRESENTATION_STYLE_ASSIGNMENT( ( #121 ) );
#59 = ADVANCED_FACE( '', ( #122 ), #123, .T. );
#60 = PRESENTATION_STYLE_ASSIGNMENT( ( #124 ) );
#61 = ADVANCED_FACE( '', ( #125 ), #126, .T. );
#62 = PRESENTATION_STYLE_ASSIGNMENT( ( #127 ) );
#63 = ADVANCED_FACE( '', ( #128, #129 ), #130, .F. );
#64 = PRESENTATION_STYLE_ASSIGNMENT( ( #131 ) );
#65 = ADVANCED_FACE( '', ( #132 ), #133, .T. );
#66 = PRESENTATION_STYLE_ASSIGNMENT( ( #134 ) );
#67 = ADVANCED_FACE( '', ( #135 ), #136, .T. );
#68 = PRESENTATION_STYLE_ASSIGNMENT( ( #137 ) );
#69 = ADVANCED_FACE( '', ( #138 ), #139, .T. );
#70 = PRESENTATION_STYLE_ASSIGNMENT( ( #140 ) );
#71 = ADVANCED_FACE( '', ( #141 ), #142, .T. );
#72 = PRESENTATION_STYLE_ASSIGNMENT( ( #143 ) );
#73 = ADVANCED_FACE( '', ( #144, #145, #146, #147 ), #148, .T. );
#74 = PRODUCT( 'BIC04_C01_PCB', 'BIC04_C01_PCB', 'PART-BIC04_C01_PCB-DESC', ( #149 ) );
#75 = PRODUCT_DEFINITION( 'NONE', 'NONE', #150, #2 );
#76 = MANIFOLD_SOLID_BREP( 'BIC04_C01_PCB', #151 );
#77 = AXIS2_PLACEMENT_3D( '', #152, #153, #154 );
#80 = LENGTH_MEASURE_WITH_UNIT( LENGTH_MEASURE( 1.00000000000000 ), #155 );
#83 = DIMENSIONAL_EXPONENTS( 1.00000000000000, 0.00000000000000, 0.00000000000000, 0.00000000000000, 0.00000000000000, 0.00000000000000, 0.00000000000000 );
#85 = DIMENSIONAL_EXPONENTS( 0.00000000000000, 0.00000000000000, 0.00000000000000, 0.00000000000000, 0.00000000000000, 0.00000000000000, 0.00000000000000 );
#91 = SURFACE_STYLE_USAGE( .BOTH., #156 );
#92 = FACE_OUTER_BOUND( '', #157, .T. );
#93 = PLANE( '', #158 );
#94 = SURFACE_STYLE_USAGE( .BOTH., #159 );
#95 = FACE_OUTER_BOUND( '', #160, .T. );
#96 = PLANE( '', #161 );
#97 = SURFACE_STYLE_USAGE( .BOTH., #162 );
#98 = FACE_OUTER_BOUND( '', #163, .T. );
#99 = FACE_OUTER_BOUND( '', #164, .T. );
#100 = CYLINDRICAL_SURFACE( '', #165, 0.00200000000000000 );
#101 = SURFACE_STYLE_USAGE( .BOTH., #166 );
#102 = FACE_OUTER_BOUND( '', #167, .T. );
#103 = PLANE( '', #168 );
#104 = SURFACE_STYLE_USAGE( .BOTH., #169 );
#105 = FACE_OUTER_BOUND( '', #170, .T. );
#106 = CYLINDRICAL_SURFACE( '', #171, 0.00300000000000000 );
#107 = SURFACE_STYLE_USAGE( .BOTH., #172 );
#108 = FACE_OUTER_BOUND( '', #173, .T. );
#109 = FACE_BOUND( '', #174, .T. );
#110 = FACE_BOUND( '', #175, .T. );
#111 = PLANE( '', #176 );
#112 = SURFACE_STYLE_USAGE( .BOTH., #177 );
#113 = FACE_OUTER_BOUND( '', #178, .T. );
#114 = CYLINDRICAL_SURFACE( '', #179, 0.00300000000000000 );
#115 = SURFACE_STYLE_USAGE( .BOTH., #180 );
#116 = FACE_OUTER_BOUND( '', #181, .T. );
#117 = PLANE( '', #182 );
#118 = SURFACE_STYLE_USAGE( .BOTH., #183 );
#119 = FACE_OUTER_BOUND( '', #184, .T. );
#120 = PLANE( '', #185 );
#121 = SURFACE_STYLE_USAGE( .BOTH., #186 );
#122 = FACE_OUTER_BOUND( '', #187, .T. );
#123 = CYLINDRICAL_SURFACE( '', #188, 0.00300000000000000 );
#124 = SURFACE_STYLE_USAGE( .BOTH., #189 );
#125 = FACE_OUTER_BOUND( '', #190, .T. );
#126 = PLANE( '', #191 );
#127 = SURFACE_STYLE_USAGE( .BOTH., #192 );
#128 = FACE_OUTER_BOUND( '', #193, .T. );
#129 = FACE_OUTER_BOUND( '', #194, .T. );
#130 = CYLINDRICAL_SURFACE( '', #195, 0.00200000000000000 );
#131 = SURFACE_STYLE_USAGE( .BOTH., #196 );
#132 = FACE_OUTER_BOUND( '', #197, .T. );
#133 = CYLINDRICAL_SURFACE( '', #198, 0.00300000000000000 );
#134 = SURFACE_STYLE_USAGE( .BOTH., #199 );
#135 = FACE_OUTER_BOUND( '', #200, .T. );
#136 = PLANE( '', #201 );
#137 = SURFACE_STYLE_USAGE( .BOTH., #202 );
#138 = FACE_OUTER_BOUND( '', #203, .T. );
#139 = PLANE( '', #204 );
#140 = SURFACE_STYLE_USAGE( .BOTH., #205 );
#141 = FACE_OUTER_BOUND( '', #206, .T. );
#142 = PLANE( '', #207 );
#143 = SURFACE_STYLE_USAGE( .BOTH., #208 );
#144 = FACE_OUTER_BOUND( '', #209, .T. );
#145 = FACE_BOUND( '', #210, .T. );
#146 = FACE_BOUND( '', #211, .T. );
#147 = FACE_BOUND( '', #212, .T. );
#148 = PLANE( '', #213 );
#149 = PRODUCT_CONTEXT( '', #27, 'mechanical' );
#150 = PRODUCT_DEFINITION_FORMATION_WITH_SPECIFIED_SOURCE( ' ', 'NONE', #74, .NOT_KNOWN. );
#151 = CLOSED_SHELL( '', ( #57, #47, #55, #51, #59, #41, #49, #61, #73, #45, #43, #63, #53, #65, #69, #71, #67 ) );
#152 = CARTESIAN_POINT( '', ( 0.00000000000000, 0.00000000000000, 0.00000000000000 ) );
#153 = DIRECTION( '', ( 0.00000000000000, 0.00000000000000, 1.00000000000000 ) );
#154 = DIRECTION( '', ( 1.00000000000000, 0.00000000000000, 0.00000000000000 ) );
#155 =  ( LENGTH_UNIT(  )NAMED_UNIT( #83 )SI_UNIT( $, .METRE. ) );
#156 = SURFACE_SIDE_STYLE( '', ( #215 ) );
#157 = EDGE_LOOP( '', ( #216, #217, #218, #219 ) );
#158 = AXIS2_PLACEMENT_3D( '', #220, #221, #222 );
#159 = SURFACE_SIDE_STYLE( '', ( #223 ) );
#160 = EDGE_LOOP( '', ( #224, #225, #226, #227 ) );
#161 = AXIS2_PLACEMENT_3D( '', #228, #229, #230 );
#162 = SURFACE_SIDE_STYLE( '', ( #231 ) );
#163 = EDGE_LOOP( '', ( #232 ) );
#164 = EDGE_LOOP( '', ( #233 ) );
#165 = AXIS2_PLACEMENT_3D( '', #234, #235, #236 );
#166 = SURFACE_SIDE_STYLE( '', ( #237 ) );
#167 = EDGE_LOOP( '', ( #238, #239, #240, #241 ) );
#168 = AXIS2_PLACEMENT_3D( '', #242, #243, #244 );
#169 = SURFACE_SIDE_STYLE( '', ( #245 ) );
#170 = EDGE_LOOP( '', ( #246, #247, #248, #249 ) );
#171 = AXIS2_PLACEMENT_3D( '', #250, #251, #252 );
#172 = SURFACE_SIDE_STYLE( '', ( #253 ) );
#173 = EDGE_LOOP( '', ( #254, #255, #256, #257, #258, #259, #260, #261 ) );
#174 = EDGE_LOOP( '', ( #262 ) );
#175 = EDGE_LOOP( '', ( #263 ) );
#176 = AXIS2_PLACEMENT_3D( '', #264, #265, #266 );
#177 = SURFACE_SIDE_STYLE( '', ( #267 ) );
#178 = EDGE_LOOP( '', ( #268, #269, #270, #271 ) );
#179 = AXIS2_PLACEMENT_3D( '', #272, #273, #274 );
#180 = SURFACE_SIDE_STYLE( '', ( #275 ) );
#181 = EDGE_LOOP( '', ( #276, #277, #278, #279 ) );
#182 = AXIS2_PLACEMENT_3D( '', #280, #281, #282 );
#183 = SURFACE_SIDE_STYLE( '', ( #283 ) );
#184 = EDGE_LOOP( '', ( #284, #285, #286, #287 ) );
#185 = AXIS2_PLACEMENT_3D( '', #288, #289, #290 );
#186 = SURFACE_SIDE_STYLE( '', ( #291 ) );
#187 = EDGE_LOOP( '', ( #292, #293, #294, #295 ) );
#188 = AXIS2_PLACEMENT_3D( '', #296, #297, #298 );
#189 = SURFACE_SIDE_STYLE( '', ( #299 ) );
#190 = EDGE_LOOP( '', ( #300, #301, #302, #303 ) );
#191 = AXIS2_PLACEMENT_3D( '', #304, #305, #306 );
#192 = SURFACE_SIDE_STYLE( '', ( #307 ) );
#193 = EDGE_LOOP( '', ( #308 ) );
#194 = EDGE_LOOP( '', ( #309 ) );
#195 = AXIS2_PLACEMENT_3D( '', #310, #311, #312 );
#196 = SURFACE_SIDE_STYLE( '', ( #313 ) );
#197 = EDGE_LOOP( '', ( #314, #315, #316, #317 ) );
#198 = AXIS2_PLACEMENT_3D( '', #318, #319, #320 );
#199 = SURFACE_SIDE_STYLE( '', ( #321 ) );
#200 = EDGE_LOOP( '', ( #322, #323, #324, #325 ) );
#201 = AXIS2_PLACEMENT_3D( '', #326, #327, #328 );
#202 = SURFACE_SIDE_STYLE( '', ( #329 ) );
#203 = EDGE_LOOP( '', ( #330, #331, #332, #333 ) );
#204 = AXIS2_PLACEMENT_3D( '', #334, #335, #336 );
#205 = SURFACE_SIDE_STYLE( '', ( #337 ) );
#206 = EDGE_LOOP( '', ( #338, #339, #340, #341 ) );
#207 = AXIS2_PLACEMENT_3D( '', #342, #343, #344 );
#208 = SURFACE_SIDE_STYLE( '', ( #345 ) );
#209 = EDGE_LOOP( '', ( #346, #347, #348, #349, #350, #351, #352, #353 ) );
#210 = EDGE_LOOP( '', ( #354 ) );
#211 = EDGE_LOOP( '', ( #355 ) );
#212 = EDGE_LOOP( '', ( #356, #357, #358, #359 ) );
#213 = AXIS2_PLACEMENT_3D( '', #360, #361, #362 );
#215 = SURFACE_STYLE_FILL_AREA( #363 );
#216 = ORIENTED_EDGE( '', *, *, #364, .F. );
#217 = ORIENTED_EDGE( '', *, *, #365, .T. );
#218 = ORIENTED_EDGE( '', *, *, #366, .T. );
#219 = ORIENTED_EDGE( '', *, *, #367, .F. );
#220 = CARTESIAN_POINT( '', ( -0.0150000000000000, 0.00000000000000, -0.00900000000000000 ) );
#221 = DIRECTION( '', ( -1.00000000000000, 0.00000000000000, 0.00000000000000 ) );
#222 = DIRECTION( '', ( 0.00000000000000, 0.00000000000000, 1.00000000000000 ) );
#223 = SURFACE_STYLE_FILL_AREA( #368 );
#224 = ORIENTED_EDGE( '', *, *, #369, .T. );
#225 = ORIENTED_EDGE( '', *, *, #370, .F. );
#226 = ORIENTED_EDGE( '', *, *, #371, .F. );
#227 = ORIENTED_EDGE( '', *, *, #372, .T. );
#228 = CARTESIAN_POINT( '', ( -0.0150000000000000, 0.00000000000000, 0.00900000000000000 ) );
#229 = DIRECTION( '', ( 0.00000000000000, 0.00000000000000, 1.00000000000000 ) );
#230 = DIRECTION( '', ( 1.00000000000000, 0.00000000000000, 0.00000000000000 ) );
#231 = SURFACE_STYLE_FILL_AREA( #373 );
#232 = ORIENTED_EDGE( '', *, *, #374, .T. );
#233 = ORIENTED_EDGE( '', *, *, #375, .F. );
#234 = CARTESIAN_POINT( '', ( 0.00600000000000000, 0.00000000000000, 0.00600000000000000 ) );
#235 = DIRECTION( '', ( 0.00000000000000, -1.00000000000000, -0.00000000000000 ) );
#236 = DIRECTION( '', ( 1.00000000000000, 0.00000000000000, 0.00000000000000 ) );
#237 = SURFACE_STYLE_FILL_AREA( #376 );
#238 = ORIENTED_EDGE( '', *, *, #377, .T. );
#239 = ORIENTED_EDGE( '', *, *, #378, .F. );
#240 = ORIENTED_EDGE( '', *, *, #379, .F. );
#241 = ORIENTED_EDGE( '', *, *, #380, .T. );
#242 = CARTESIAN_POINT( '', ( -0.00375000000000000, 0.00000000000000, -0.00300000000000000 ) );
#243 = DIRECTION( '', ( -1.00000000000000, 0.00000000000000, 0.00000000000000 ) );
#244 = DIRECTION( '', ( 0.00000000000000, 0.00000000000000, 1.00000000000000 ) );
#245 = SURFACE_STYLE_FILL_AREA( #381 );
#246 = ORIENTED_EDGE( '', *, *, #365, .F. );
#247 = ORIENTED_EDGE( '', *, *, #382, .F. );
#248 = ORIENTED_EDGE( '', *, *, #383, .T. );
#249 = ORIENTED_EDGE( '', *, *, #384, .F. );
#250 = CARTESIAN_POINT( '', ( -0.0120000000000000, 0.00492864000000000, -0.00600000000000000 ) );
#251 = DIRECTION( '', ( -0.00000000000000, 1.00000000000000, -0.00000000000000 ) );
#252 = DIRECTION( '', ( -1.00000000000000, 0.00000000000000, 0.00000000000000 ) );
#253 = SURFACE_STYLE_FILL_AREA( #385 );
#254 = ORIENTED_EDGE( '', *, *, #366, .F. );
#255 = ORIENTED_EDGE( '', *, *, #384, .T. );
#256 = ORIENTED_EDGE( '', *, *, #386, .F. );
#257 = ORIENTED_EDGE( '', *, *, #387, .T. );
#258 = ORIENTED_EDGE( '', *, *, #388, .F. );
#259 = ORIENTED_EDGE( '', *, *, #389, .T. );
#260 = ORIENTED_EDGE( '', *, *, #369, .F. );
#261 = ORIENTED_EDGE( '', *, *, #390, .T. );
#262 = ORIENTED_EDGE( '', *, *, #375, .T. );
#263 = ORIENTED_EDGE( '', *, *, #391, .T. );
#264 = CARTESIAN_POINT( '', ( 0.00000000000000, 0.00000000000000, 0.00000000000000 ) );
#265 = DIRECTION( '', ( -0.00000000000000, 1.00000000000000, 0.00000000000000 ) );
#266 = DIRECTION( '', ( 1.00000000000000, 0.00000000000000, 0.00000000000000 ) );
#267 = SURFACE_STYLE_FILL_AREA( #392 );
#268 = ORIENTED_EDGE( '', *, *, #393, .F. );
#269 = ORIENTED_EDGE( '', *, *, #394, .F. );
#270 = ORIENTED_EDGE( '', *, *, #395, .T. );
#271 = ORIENTED_EDGE( '', *, *, #387, .F. );
#272 = CARTESIAN_POINT( '', ( 0.0120000000000000, 0.00492864000000000, -0.00600000000000000 ) );
#273 = DIRECTION( '', ( -0.00000000000000, 1.00000000000000, -0.00000000000000 ) );
#274 = DIRECTION( '', ( 0.00000000000000, 0.00000000000000, -1.00000000000000 ) );
#275 = SURFACE_STYLE_FILL_AREA( #396 );
#276 = ORIENTED_EDGE( '', *, *, #397, .T. );
#277 = ORIENTED_EDGE( '', *, *, #398, .F. );
#278 = ORIENTED_EDGE( '', *, *, #399, .F. );
#279 = ORIENTED_EDGE( '', *, *, #400, .T. );
#280 = CARTESIAN_POINT( '', ( 0.00125000000000000, 0.00000000000000, 0.00200000000000000 ) );
#281 = DIRECTION( '', ( 1.00000000000000, 0.00000000000000, 0.00000000000000 ) );
#282 = DIRECTION( '', ( 0.00000000000000, 1.00000000000000, 0.00000000000000 ) );
#283 = SURFACE_STYLE_FILL_AREA( #401 );
#284 = ORIENTED_EDGE( '', *, *, #399, .T. );
#285 = ORIENTED_EDGE( '', *, *, #402, .F. );
#286 = ORIENTED_EDGE( '', *, *, #377, .F. );
#287 = ORIENTED_EDGE( '', *, *, #403, .T. );
#288 = CARTESIAN_POINT( '', ( -0.00375000000000000, 0.00000000000000, 0.00200000000000000 ) );
#289 = DIRECTION( '', ( 0.00000000000000, 0.00000000000000, 1.00000000000000 ) );
#290 = DIRECTION( '', ( 1.00000000000000, 0.00000000000000, 0.00000000000000 ) );
#291 = SURFACE_STYLE_FILL_AREA( #404 );
#292 = ORIENTED_EDGE( '', *, *, #372, .F. );
#293 = ORIENTED_EDGE( '', *, *, #405, .F. );
#294 = ORIENTED_EDGE( '', *, *, #367, .T. );
#295 = ORIENTED_EDGE( '', *, *, #390, .F. );
#296 = CARTESIAN_POINT( '', ( -0.0120000000000000, 0.00492864000000000, 0.00600000000000000 ) );
#297 = DIRECTION( '', ( -0.00000000000000, 1.00000000000000, -0.00000000000000 ) );
#298 = DIRECTION( '', ( 0.00000000000000, 0.00000000000000, 1.00000000000000 ) );
#299 = SURFACE_STYLE_FILL_AREA( #406 );
#300 = ORIENTED_EDGE( '', *, *, #386, .T. );
#301 = ORIENTED_EDGE( '', *, *, #383, .F. );
#302 = ORIENTED_EDGE( '', *, *, #407, .F. );
#303 = ORIENTED_EDGE( '', *, *, #393, .T. );
#304 = CARTESIAN_POINT( '', ( 0.0150000000000000, 0.00000000000000, -0.00900000000000000 ) );
#305 = DIRECTION( '', ( 0.00000000000000, 0.00000000000000, -1.00000000000000 ) );
#306 = DIRECTION( '', ( 0.00000000000000, -1.00000000000000, 0.00000000000000 ) );
#307 = SURFACE_STYLE_FILL_AREA( #408 );
#308 = ORIENTED_EDGE( '', *, *, #409, .T. );
#309 = ORIENTED_EDGE( '', *, *, #391, .F. );
#310 = CARTESIAN_POINT( '', ( 0.00600000000000000, 0.00000000000000, -0.00600000000000000 ) );
#311 = DIRECTION( '', ( 0.00000000000000, -1.00000000000000, -0.00000000000000 ) );
#312 = DIRECTION( '', ( 1.00000000000000, 0.00000000000000, 0.00000000000000 ) );
#313 = SURFACE_STYLE_FILL_AREA( #410 );
#314 = ORIENTED_EDGE( '', *, *, #411, .F. );
#315 = ORIENTED_EDGE( '', *, *, #412, .F. );
#316 = ORIENTED_EDGE( '', *, *, #370, .T. );
#317 = ORIENTED_EDGE( '', *, *, #389, .F. );
#318 = CARTESIAN_POINT( '', ( 0.0120000000000000, 0.00492864000000000, 0.00600000000000000 ) );
#319 = DIRECTION( '', ( -0.00000000000000, 1.00000000000000, -0.00000000000000 ) );
#320 = DIRECTION( '', ( 1.00000000000000, 0.00000000000000, 0.00000000000000 ) );
#321 = SURFACE_STYLE_FILL_AREA( #413 );
#322 = ORIENTED_EDGE( '', *, *, #414, .T. );
#323 = ORIENTED_EDGE( '', *, *, #378, .T. );
#324 = ORIENTED_EDGE( '', *, *, #402, .T. );
#325 = ORIENTED_EDGE( '', *, *, #398, .T. );
#326 = CARTESIAN_POINT( '', ( 0.00000000000000, 0.00210000000000000, 0.00000000000000 ) );
#327 = DIRECTION( '', ( -0.00000000000000, 1.00000000000000, 0.00000000000000 ) );
#328 = DIRECTION( '', ( 1.00000000000000, 0.00000000000000, 0.00000000000000 ) );
#329 = SURFACE_STYLE_FILL_AREA( #415 );
#330 = ORIENTED_EDGE( '', *, *, #388, .T. );
#331 = ORIENTED_EDGE( '', *, *, #395, .F. );
#332 = ORIENTED_EDGE( '', *, *, #416, .F. );
#333 = ORIENTED_EDGE( '', *, *, #411, .T. );
#334 = CARTESIAN_POINT( '', ( 0.0150000000000000, 0.00000000000000, 0.00900000000000000 ) );
#335 = DIRECTION( '', ( 1.00000000000000, 0.00000000000000, 0.00000000000000 ) );
#336 = DIRECTION( '', ( 0.00000000000000, 1.00000000000000, 0.00000000000000 ) );
#337 = SURFACE_STYLE_FILL_AREA( #417 );
#338 = ORIENTED_EDGE( '', *, *, #379, .T. );
#339 = ORIENTED_EDGE( '', *, *, #414, .F. );
#340 = ORIENTED_EDGE( '', *, *, #397, .F. );
#341 = ORIENTED_EDGE( '', *, *, #418, .T. );
#342 = CARTESIAN_POINT( '', ( 0.00125000000000000, 0.00000000000000, -0.00300000000000000 ) );
#343 = DIRECTION( '', ( 0.00000000000000, 0.00000000000000, -1.00000000000000 ) );
#344 = DIRECTION( '', ( 0.00000000000000, -1.00000000000000, 0.00000000000000 ) );
#345 = SURFACE_STYLE_FILL_AREA( #419 );
#346 = ORIENTED_EDGE( '', *, *, #371, .T. );
#347 = ORIENTED_EDGE( '', *, *, #412, .T. );
#348 = ORIENTED_EDGE( '', *, *, #416, .T. );
#349 = ORIENTED_EDGE( '', *, *, #394, .T. );
#350 = ORIENTED_EDGE( '', *, *, #407, .T. );
#351 = ORIENTED_EDGE( '', *, *, #382, .T. );
#352 = ORIENTED_EDGE( '', *, *, #364, .T. );
#353 = ORIENTED_EDGE( '', *, *, #405, .T. );
#354 = ORIENTED_EDGE( '', *, *, #374, .F. );
#355 = ORIENTED_EDGE( '', *, *, #409, .F. );
#356 = ORIENTED_EDGE( '', *, *, #403, .F. );
#357 = ORIENTED_EDGE( '', *, *, #380, .F. );
#358 = ORIENTED_EDGE( '', *, *, #418, .F. );
#359 = ORIENTED_EDGE( '', *, *, #400, .F. );
#360 = CARTESIAN_POINT( '', ( 0.00000000000000, 0.00120000000000000, 0.00000000000000 ) );
#361 = DIRECTION( '', ( -0.00000000000000, 1.00000000000000, 0.00000000000000 ) );
#362 = DIRECTION( '', ( 1.00000000000000, 0.00000000000000, 0.00000000000000 ) );
#363 = FILL_AREA_STYLE( '', ( #420 ) );
#364 = EDGE_CURVE( '', #421, #422, #423, .T. );
#365 = EDGE_CURVE( '', #421, #424, #425, .T. );
#366 = EDGE_CURVE( '', #424, #426, #427, .T. );
#367 = EDGE_CURVE( '', #422, #426, #428, .T. );
#368 = FILL_AREA_STYLE( '', ( #429 ) );
#369 = EDGE_CURVE( '', #430, #431, #432, .T. );
#370 = EDGE_CURVE( '', #433, #431, #434, .T. );
#371 = EDGE_CURVE( '', #435, #433, #436, .T. );
#372 = EDGE_CURVE( '', #435, #430, #437, .T. );
#373 = FILL_AREA_STYLE( '', ( #438 ) );
#374 = EDGE_CURVE( '', #439, #439, #440, .T. );
#375 = EDGE_CURVE( '', #441, #441, #442, .T. );
#376 = FILL_AREA_STYLE( '', ( #443 ) );
#377 = EDGE_CURVE( '', #444, #445, #446, .T. );
#378 = EDGE_CURVE( '', #447, #445, #448, .T. );
#379 = EDGE_CURVE( '', #449, #447, #450, .T. );
#380 = EDGE_CURVE( '', #449, #444, #451, .T. );
#381 = FILL_AREA_STYLE( '', ( #452 ) );
#382 = EDGE_CURVE( '', #453, #421, #454, .T. );
#383 = EDGE_CURVE( '', #453, #455, #456, .T. );
#384 = EDGE_CURVE( '', #424, #455, #457, .T. );
#385 = FILL_AREA_STYLE( '', ( #458 ) );
#386 = EDGE_CURVE( '', #459, #455, #460, .T. );
#387 = EDGE_CURVE( '', #459, #461, #462, .T. );
#388 = EDGE_CURVE( '', #463, #461, #464, .T. );
#389 = EDGE_CURVE( '', #463, #431, #465, .T. );
#390 = EDGE_CURVE( '', #430, #426, #466, .T. );
#391 = EDGE_CURVE( '', #467, #467, #468, .T. );
#392 = FILL_AREA_STYLE( '', ( #469 ) );
#393 = EDGE_CURVE( '', #470, #459, #471, .T. );
#394 = EDGE_CURVE( '', #472, #470, #473, .T. );
#395 = EDGE_CURVE( '', #472, #461, #474, .T. );
#396 = FILL_AREA_STYLE( '', ( #475 ) );
#397 = EDGE_CURVE( '', #476, #477, #478, .T. );
#398 = EDGE_CURVE( '', #479, #477, #480, .T. );
#399 = EDGE_CURVE( '', #481, #479, #482, .T. );
#400 = EDGE_CURVE( '', #481, #476, #483, .T. );
#401 = FILL_AREA_STYLE( '', ( #484 ) );
#402 = EDGE_CURVE( '', #445, #479, #485, .T. );
#403 = EDGE_CURVE( '', #444, #481, #486, .T. );
#404 = FILL_AREA_STYLE( '', ( #487 ) );
#405 = EDGE_CURVE( '', #422, #435, #488, .T. );
#406 = FILL_AREA_STYLE( '', ( #489 ) );
#407 = EDGE_CURVE( '', #470, #453, #490, .T. );
#408 = FILL_AREA_STYLE( '', ( #491 ) );
#409 = EDGE_CURVE( '', #492, #492, #493, .T. );
#410 = FILL_AREA_STYLE( '', ( #494 ) );
#411 = EDGE_CURVE( '', #495, #463, #496, .T. );
#412 = EDGE_CURVE( '', #433, #495, #497, .T. );
#413 = FILL_AREA_STYLE( '', ( #498 ) );
#414 = EDGE_CURVE( '', #477, #447, #499, .T. );
#415 = FILL_AREA_STYLE( '', ( #500 ) );
#416 = EDGE_CURVE( '', #495, #472, #501, .T. );
#417 = FILL_AREA_STYLE( '', ( #502 ) );
#418 = EDGE_CURVE( '', #476, #449, #503, .T. );
#419 = FILL_AREA_STYLE( '', ( #504 ) );
#420 = FILL_AREA_STYLE_COLOUR( '', #505 );
#421 = VERTEX_POINT( '', #506 );
#422 = VERTEX_POINT( '', #507 );
#423 = LINE( '', #508, #509 );
#424 = VERTEX_POINT( '', #510 );
#425 = LINE( '', #511, #512 );
#426 = VERTEX_POINT( '', #513 );
#427 = LINE( '', #514, #515 );
#428 = LINE( '', #516, #517 );
#429 = FILL_AREA_STYLE_COLOUR( '', #518 );
#430 = VERTEX_POINT( '', #519 );
#431 = VERTEX_POINT( '', #520 );
#432 = LINE( '', #521, #522 );
#433 = VERTEX_POINT( '', #523 );
#434 = LINE( '', #524, #525 );
#435 = VERTEX_POINT( '', #526 );
#436 = LINE( '', #527, #528 );
#437 = LINE( '', #529, #530 );
#438 = FILL_AREA_STYLE_COLOUR( '', #531 );
#439 = VERTEX_POINT( '', #532 );
#440 = CIRCLE( '', #533, 0.00200000000000000 );
#441 = VERTEX_POINT( '', #534 );
#442 = CIRCLE( '', #535, 0.00200000000000000 );
#443 = FILL_AREA_STYLE_COLOUR( '', #536 );
#444 = VERTEX_POINT( '', #537 );
#445 = VERTEX_POINT( '', #538 );
#446 = LINE( '', #539, #540 );
#447 = VERTEX_POINT( '', #541 );
#448 = LINE( '', #542, #543 );
#449 = VERTEX_POINT( '', #544 );
#450 = LINE( '', #545, #546 );
#451 = LINE( '', #547, #548 );
#452 = FILL_AREA_STYLE_COLOUR( '', #549 );
#453 = VERTEX_POINT( '', #550 );
#454 = CIRCLE( '', #551, 0.00300000000000000 );
#455 = VERTEX_POINT( '', #552 );
#456 = LINE( '', #553, #554 );
#457 = CIRCLE( '', #555, 0.00300000000000000 );
#458 = FILL_AREA_STYLE_COLOUR( '', #556 );
#459 = VERTEX_POINT( '', #557 );
#460 = LINE( '', #558, #559 );
#461 = VERTEX_POINT( '', #560 );
#462 = CIRCLE( '', #561, 0.00300000000000000 );
#463 = VERTEX_POINT( '', #562 );
#464 = LINE( '', #563, #564 );
#465 = CIRCLE( '', #565, 0.00300000000000000 );
#466 = CIRCLE( '', #566, 0.00300000000000000 );
#467 = VERTEX_POINT( '', #567 );
#468 = CIRCLE( '', #568, 0.00200000000000000 );
#469 = FILL_AREA_STYLE_COLOUR( '', #569 );
#470 = VERTEX_POINT( '', #570 );
#471 = LINE( '', #571, #572 );
#472 = VERTEX_POINT( '', #573 );
#473 = CIRCLE( '', #574, 0.00300000000000000 );
#474 = LINE( '', #575, #576 );
#475 = FILL_AREA_STYLE_COLOUR( '', #577 );
#476 = VERTEX_POINT( '', #578 );
#477 = VERTEX_POINT( '', #579 );
#478 = LINE( '', #580, #581 );
#479 = VERTEX_POINT( '', #582 );
#480 = LINE( '', #583, #584 );
#481 = VERTEX_POINT( '', #585 );
#482 = LINE( '', #586, #587 );
#483 = LINE( '', #588, #589 );
#484 = FILL_AREA_STYLE_COLOUR( '', #590 );
#485 = LINE( '', #591, #592 );
#486 = LINE( '', #593, #594 );
#487 = FILL_AREA_STYLE_COLOUR( '', #595 );
#488 = CIRCLE( '', #596, 0.00300000000000000 );
#489 = FILL_AREA_STYLE_COLOUR( '', #597 );
#490 = LINE( '', #598, #599 );
#491 = FILL_AREA_STYLE_COLOUR( '', #600 );
#492 = VERTEX_POINT( '', #601 );
#493 = CIRCLE( '', #602, 0.00200000000000000 );
#494 = FILL_AREA_STYLE_COLOUR( '', #603 );
#495 = VERTEX_POINT( '', #604 );
#496 = LINE( '', #605, #606 );
#497 = CIRCLE( '', #607, 0.00300000000000000 );
#498 = FILL_AREA_STYLE_COLOUR( '', #608 );
#499 = LINE( '', #609, #610 );
#500 = FILL_AREA_STYLE_COLOUR( '', #611 );
#501 = LINE( '', #612, #613 );
#502 = FILL_AREA_STYLE_COLOUR( '', #614 );
#503 = LINE( '', #615, #616 );
#504 = FILL_AREA_STYLE_COLOUR( '', #617 );
#505 = COLOUR_RGB( '', 1.00000000000000, 0.756862759600000, 0.0549019612000000 );
#506 = CARTESIAN_POINT( '', ( -0.0150000000000000, 0.00120000000000000, -0.00600000000000000 ) );
#507 = CARTESIAN_POINT( '', ( -0.0150000000000000, 0.00120000000000000, 0.00600000000000000 ) );
#508 = CARTESIAN_POINT( '', ( -0.0150000000000100, 0.00120000000001000, -0.00600000000001000 ) );
#509 = VECTOR( '', #618, 1.00000000000000 );
#510 = CARTESIAN_POINT( '', ( -0.0150000000000000, 0.00000000000000, -0.00600000000000000 ) );
#511 = CARTESIAN_POINT( '', ( -0.0150000000000100, 0.00120000000001000, -0.00600000000001000 ) );
#512 = VECTOR( '', #619, 1.00000000000000 );
#513 = CARTESIAN_POINT( '', ( -0.0150000000000000, 0.00000000000000, 0.00600000000000000 ) );
#514 = CARTESIAN_POINT( '', ( -0.0150000000000100, 0.00000000000000, -0.00600000000001000 ) );
#515 = VECTOR( '', #620, 1.00000000000000 );
#516 = CARTESIAN_POINT( '', ( -0.0150000000000100, 0.00120000000001000, 0.00600000000001000 ) );
#517 = VECTOR( '', #621, 1.00000000000000 );
#518 = COLOUR_RGB( '', 1.00000000000000, 0.756862759600000, 0.0549019612000000 );
#519 = CARTESIAN_POINT( '', ( -0.0120000000000000, 0.00000000000000, 0.00900000000000000 ) );
#520 = CARTESIAN_POINT( '', ( 0.0120000000000000, 0.00000000000000, 0.00900000000000000 ) );
#521 = CARTESIAN_POINT( '', ( -0.0120000000000100, 0.00000000000000, 0.00900000000001000 ) );
#522 = VECTOR( '', #622, 1.00000000000000 );
#523 = CARTESIAN_POINT( '', ( 0.0120000000000000, 0.00120000000000000, 0.00900000000000000 ) );
#524 = CARTESIAN_POINT( '', ( 0.0120000000000100, 0.00120000000001000, 0.00900000000001000 ) );
#525 = VECTOR( '', #623, 1.00000000000000 );
#526 = CARTESIAN_POINT( '', ( -0.0120000000000000, 0.00120000000000000, 0.00900000000000000 ) );
#527 = CARTESIAN_POINT( '', ( -0.0120000000000100, 0.00120000000001000, 0.00900000000001000 ) );
#528 = VECTOR( '', #624, 1.00000000000000 );
#529 = CARTESIAN_POINT( '', ( -0.0120000000000100, 0.00120000000001000, 0.00900000000001000 ) );
#530 = VECTOR( '', #625, 1.00000000000000 );
#531 = COLOUR_RGB( '', 1.00000000000000, 0.756862759600000, 0.0549019612000000 );
#532 = CARTESIAN_POINT( '', ( 0.00400000000000000, 0.00120000000001000, 0.00600000000001000 ) );
#533 = AXIS2_PLACEMENT_3D( '', #626, #627, #628 );
#534 = CARTESIAN_POINT( '', ( 0.00400000000000000, 0.00000000000000, 0.00600000000001000 ) );
#535 = AXIS2_PLACEMENT_3D( '', #629, #630, #631 );
#536 = COLOUR_RGB( '', 1.00000000000000, 0.756862759600000, 0.0549019612000000 );
#537 = CARTESIAN_POINT( '', ( -0.00375000000000000, 0.00120000000000000, 0.00200000000000000 ) );
#538 = CARTESIAN_POINT( '', ( -0.00375000000000000, 0.00210000000000000, 0.00200000000000000 ) );
#539 = CARTESIAN_POINT( '', ( -0.00375000000001000, 0.00120000000001000, 0.00200000000001000 ) );
#540 = VECTOR( '', #632, 1.00000000000000 );
#541 = CARTESIAN_POINT( '', ( -0.00375000000000000, 0.00210000000000000, -0.00300000000000000 ) );
#542 = CARTESIAN_POINT( '', ( -0.00375000000001000, 0.00210000000001000, -0.00300000000001000 ) );
#543 = VECTOR( '', #633, 1.00000000000000 );
#544 = CARTESIAN_POINT( '', ( -0.00375000000000000, 0.00120000000000000, -0.00300000000000000 ) );
#545 = CARTESIAN_POINT( '', ( -0.00375000000001000, 0.00120000000001000, -0.00300000000001000 ) );
#546 = VECTOR( '', #634, 1.00000000000000 );
#547 = CARTESIAN_POINT( '', ( -0.00375000000001000, 0.00120000000001000, -0.00300000000001000 ) );
#548 = VECTOR( '', #635, 1.00000000000000 );
#549 = COLOUR_RGB( '', 1.00000000000000, 0.756862759600000, 0.0549019612000000 );
#550 = CARTESIAN_POINT( '', ( -0.0120000000000000, 0.00120000000000000, -0.00900000000000000 ) );
#551 = AXIS2_PLACEMENT_3D( '', #636, #637, #638 );
#552 = CARTESIAN_POINT( '', ( -0.0120000000000000, 0.00000000000000, -0.00900000000000000 ) );
#553 = CARTESIAN_POINT( '', ( -0.0120000000000100, 0.00120000000001000, -0.00900000000001000 ) );
#554 = VECTOR( '', #639, 1.00000000000000 );
#555 = AXIS2_PLACEMENT_3D( '', #640, #641, #642 );
#556 = COLOUR_RGB( '', 1.00000000000000, 0.756862759600000, 0.0549019612000000 );
#557 = CARTESIAN_POINT( '', ( 0.0120000000000000, 0.00000000000000, -0.00900000000000000 ) );
#558 = CARTESIAN_POINT( '', ( 0.0120000000000100, 0.00000000000000, -0.00900000000001000 ) );
#559 = VECTOR( '', #643, 1.00000000000000 );
#560 = CARTESIAN_POINT( '', ( 0.0150000000000000, 0.00000000000000, -0.00600000000000000 ) );
#561 = AXIS2_PLACEMENT_3D( '', #644, #645, #646 );
#562 = CARTESIAN_POINT( '', ( 0.0150000000000000, 0.00000000000000, 0.00600000000000000 ) );
#563 = CARTESIAN_POINT( '', ( 0.0150000000000100, 0.00000000000000, 0.00600000000001000 ) );
#564 = VECTOR( '', #647, 1.00000000000000 );
#565 = AXIS2_PLACEMENT_3D( '', #648, #649, #650 );
#566 = AXIS2_PLACEMENT_3D( '', #651, #652, #653 );
#567 = CARTESIAN_POINT( '', ( 0.00400000000000000, 0.00000000000000, -0.00600000000001000 ) );
#568 = AXIS2_PLACEMENT_3D( '', #654, #655, #656 );
#569 = COLOUR_RGB( '', 1.00000000000000, 0.756862759600000, 0.0549019612000000 );
#570 = CARTESIAN_POINT( '', ( 0.0120000000000000, 0.00120000000000000, -0.00900000000000000 ) );
#571 = CARTESIAN_POINT( '', ( 0.0120000000000100, 0.00120000000001000, -0.00900000000001000 ) );
#572 = VECTOR( '', #657, 1.00000000000000 );
#573 = CARTESIAN_POINT( '', ( 0.0150000000000000, 0.00120000000000000, -0.00600000000000000 ) );
#574 = AXIS2_PLACEMENT_3D( '', #658, #659, #660 );
#575 = CARTESIAN_POINT( '', ( 0.0150000000000100, 0.00120000000001000, -0.00600000000001000 ) );
#576 = VECTOR( '', #661, 1.00000000000000 );
#577 = COLOUR_RGB( '', 1.00000000000000, 0.756862759600000, 0.0549019612000000 );
#578 = CARTESIAN_POINT( '', ( 0.00125000000000000, 0.00120000000000000, -0.00300000000000000 ) );
#579 = CARTESIAN_POINT( '', ( 0.00125000000000000, 0.00210000000000000, -0.00300000000000000 ) );
#580 = CARTESIAN_POINT( '', ( 0.00125000000001000, 0.00120000000001000, -0.00300000000001000 ) );
#581 = VECTOR( '', #662, 1.00000000000000 );
#582 = CARTESIAN_POINT( '', ( 0.00125000000000000, 0.00210000000000000, 0.00200000000000000 ) );
#583 = CARTESIAN_POINT( '', ( 0.00125000000001000, 0.00210000000001000, 0.00200000000001000 ) );
#584 = VECTOR( '', #663, 1.00000000000000 );
#585 = CARTESIAN_POINT( '', ( 0.00125000000000000, 0.00120000000000000, 0.00200000000000000 ) );
#586 = CARTESIAN_POINT( '', ( 0.00125000000001000, 0.00120000000001000, 0.00200000000001000 ) );
#587 = VECTOR( '', #664, 1.00000000000000 );
#588 = CARTESIAN_POINT( '', ( 0.00125000000001000, 0.00120000000001000, 0.00200000000001000 ) );
#589 = VECTOR( '', #665, 1.00000000000000 );
#590 = COLOUR_RGB( '', 1.00000000000000, 0.756862759600000, 0.0549019612000000 );
#591 = CARTESIAN_POINT( '', ( -0.00375000000001000, 0.00210000000001000, 0.00200000000001000 ) );
#592 = VECTOR( '', #666, 1.00000000000000 );
#593 = CARTESIAN_POINT( '', ( -0.00375000000001000, 0.00120000000001000, 0.00200000000001000 ) );
#594 = VECTOR( '', #667, 1.00000000000000 );
#595 = COLOUR_RGB( '', 1.00000000000000, 0.756862759600000, 0.0549019612000000 );
#596 = AXIS2_PLACEMENT_3D( '', #668, #669, #670 );
#597 = COLOUR_RGB( '', 1.00000000000000, 0.756862759600000, 0.0549019612000000 );
#598 = CARTESIAN_POINT( '', ( 0.0120000000000100, 0.00120000000001000, -0.00900000000001000 ) );
#599 = VECTOR( '', #671, 1.00000000000000 );
#600 = COLOUR_RGB( '', 1.00000000000000, 0.756862759600000, 0.0549019612000000 );
#601 = CARTESIAN_POINT( '', ( 0.00400000000000000, 0.00120000000001000, -0.00600000000001000 ) );
#602 = AXIS2_PLACEMENT_3D( '', #672, #673, #674 );
#603 = COLOUR_RGB( '', 1.00000000000000, 0.756862759600000, 0.0549019612000000 );
#604 = CARTESIAN_POINT( '', ( 0.0150000000000000, 0.00120000000000000, 0.00600000000000000 ) );
#605 = CARTESIAN_POINT( '', ( 0.0150000000000100, 0.00120000000001000, 0.00600000000001000 ) );
#606 = VECTOR( '', #675, 1.00000000000000 );
#607 = AXIS2_PLACEMENT_3D( '', #676, #677, #678 );
#608 = COLOUR_RGB( '', 1.00000000000000, 0.756862759600000, 0.0549019612000000 );
#609 = CARTESIAN_POINT( '', ( 0.00125000000001000, 0.00210000000001000, -0.00300000000001000 ) );
#610 = VECTOR( '', #679, 1.00000000000000 );
#611 = COLOUR_RGB( '', 1.00000000000000, 0.756862759600000, 0.0549019612000000 );
#612 = CARTESIAN_POINT( '', ( 0.0150000000000100, 0.00120000000001000, 0.00600000000001000 ) );
#613 = VECTOR( '', #680, 1.00000000000000 );
#614 = COLOUR_RGB( '', 1.00000000000000, 0.756862759600000, 0.0549019612000000 );
#615 = CARTESIAN_POINT( '', ( 0.00125000000001000, 0.00120000000001000, -0.00300000000001000 ) );
#616 = VECTOR( '', #681, 1.00000000000000 );
#617 = COLOUR_RGB( '', 1.00000000000000, 0.756862759600000, 0.0549019612000000 );
#618 = DIRECTION( '', ( 0.00000000000000, 0.00000000000000, 1.00000000000000 ) );
#619 = DIRECTION( '', ( 0.00000000000000, -1.00000000000000, 0.00000000000000 ) );
#620 = DIRECTION( '', ( 0.00000000000000, 0.00000000000000, 1.00000000000000 ) );
#621 = DIRECTION( '', ( 0.00000000000000, -1.00000000000000, 0.00000000000000 ) );
#622 = DIRECTION( '', ( 1.00000000000000, 0.00000000000000, 0.00000000000000 ) );
#623 = DIRECTION( '', ( 0.00000000000000, -1.00000000000000, 0.00000000000000 ) );
#624 = DIRECTION( '', ( 1.00000000000000, 0.00000000000000, 0.00000000000000 ) );
#625 = DIRECTION( '', ( 0.00000000000000, -1.00000000000000, 0.00000000000000 ) );
#626 = CARTESIAN_POINT( '', ( 0.00600000000001000, 0.00120000000001000, 0.00600000000001000 ) );
#627 = DIRECTION( '', ( 0.00000000000000, 1.00000000000000, 0.00000000000000 ) );
#628 = DIRECTION( '', ( -1.00000000000000, 0.00000000000000, 0.00000000000000 ) );
#629 = CARTESIAN_POINT( '', ( 0.00600000000001000, 0.00000000000000, 0.00600000000001000 ) );
#630 = DIRECTION( '', ( 0.00000000000000, 1.00000000000000, 0.00000000000000 ) );
#631 = DIRECTION( '', ( -1.00000000000000, 0.00000000000000, 0.00000000000000 ) );
#632 = DIRECTION( '', ( 0.00000000000000, 1.00000000000000, 0.00000000000000 ) );
#633 = DIRECTION( '', ( 0.00000000000000, 0.00000000000000, 1.00000000000000 ) );
#634 = DIRECTION( '', ( 0.00000000000000, 1.00000000000000, 0.00000000000000 ) );
#635 = DIRECTION( '', ( 0.00000000000000, 0.00000000000000, 1.00000000000000 ) );
#636 = CARTESIAN_POINT( '', ( -0.0120000000000100, 0.00120000000001000, -0.00600000000001000 ) );
#637 = DIRECTION( '', ( 0.00000000000000, 1.00000000000000, 0.00000000000000 ) );
#638 = DIRECTION( '', ( 0.00000000000000, 0.00000000000000, -1.00000000000000 ) );
#639 = DIRECTION( '', ( 0.00000000000000, -1.00000000000000, 0.00000000000000 ) );
#640 = CARTESIAN_POINT( '', ( -0.0120000000000100, 0.00000000000000, -0.00600000000001000 ) );
#641 = DIRECTION( '', ( 0.00000000000000, -1.00000000000000, 0.00000000000000 ) );
#642 = DIRECTION( '', ( -1.00000000000000, 0.00000000000000, 0.00000000000000 ) );
#643 = DIRECTION( '', ( -1.00000000000000, 0.00000000000000, 0.00000000000000 ) );
#644 = CARTESIAN_POINT( '', ( 0.0120000000000100, 0.00000000000000, -0.00600000000001000 ) );
#645 = DIRECTION( '', ( 0.00000000000000, -1.00000000000000, 0.00000000000000 ) );
#646 = DIRECTION( '', ( 0.00000000000000, 0.00000000000000, -1.00000000000000 ) );
#647 = DIRECTION( '', ( 0.00000000000000, 0.00000000000000, -1.00000000000000 ) );
#648 = CARTESIAN_POINT( '', ( 0.0120000000000100, 0.00000000000000, 0.00600000000001000 ) );
#649 = DIRECTION( '', ( 0.00000000000000, -1.00000000000000, 0.00000000000000 ) );
#650 = DIRECTION( '', ( 1.00000000000000, 0.00000000000000, 0.00000000000000 ) );
#651 = CARTESIAN_POINT( '', ( -0.0120000000000100, 0.00000000000000, 0.00600000000001000 ) );
#652 = DIRECTION( '', ( 0.00000000000000, -1.00000000000000, 0.00000000000000 ) );
#653 = DIRECTION( '', ( 0.00000000000000, 0.00000000000000, 1.00000000000000 ) );
#654 = CARTESIAN_POINT( '', ( 0.00600000000001000, 0.00000000000000, -0.00600000000001000 ) );
#655 = DIRECTION( '', ( 0.00000000000000, 1.00000000000000, 0.00000000000000 ) );
#656 = DIRECTION( '', ( -1.00000000000000, 0.00000000000000, 0.00000000000000 ) );
#657 = DIRECTION( '', ( 0.00000000000000, -1.00000000000000, 0.00000000000000 ) );
#658 = CARTESIAN_POINT( '', ( 0.0120000000000100, 0.00120000000001000, -0.00600000000001000 ) );
#659 = DIRECTION( '', ( -0.00000000000000, 1.00000000000000, 0.00000000000000 ) );
#660 = DIRECTION( '', ( 1.00000000000000, 0.00000000000000, 0.00000000000000 ) );
#661 = DIRECTION( '', ( 0.00000000000000, -1.00000000000000, 0.00000000000000 ) );
#662 = DIRECTION( '', ( 0.00000000000000, 1.00000000000000, 0.00000000000000 ) );
#663 = DIRECTION( '', ( 0.00000000000000, 0.00000000000000, -1.00000000000000 ) );
#664 = DIRECTION( '', ( 0.00000000000000, 1.00000000000000, 0.00000000000000 ) );
#665 = DIRECTION( '', ( 0.00000000000000, 0.00000000000000, -1.00000000000000 ) );
#666 = DIRECTION( '', ( 1.00000000000000, 0.00000000000000, 0.00000000000000 ) );
#667 = DIRECTION( '', ( 1.00000000000000, 0.00000000000000, 0.00000000000000 ) );
#668 = CARTESIAN_POINT( '', ( -0.0120000000000100, 0.00120000000001000, 0.00600000000001000 ) );
#669 = DIRECTION( '', ( 0.00000000000000, 1.00000000000000, 0.00000000000000 ) );
#670 = DIRECTION( '', ( -1.00000000000000, 0.00000000000000, 0.00000000000000 ) );
#671 = DIRECTION( '', ( -1.00000000000000, 0.00000000000000, 0.00000000000000 ) );
#672 = CARTESIAN_POINT( '', ( 0.00600000000001000, 0.00120000000001000, -0.00600000000001000 ) );
#673 = DIRECTION( '', ( 0.00000000000000, 1.00000000000000, 0.00000000000000 ) );
#674 = DIRECTION( '', ( -1.00000000000000, 0.00000000000000, 0.00000000000000 ) );
#675 = DIRECTION( '', ( 0.00000000000000, -1.00000000000000, 0.00000000000000 ) );
#676 = CARTESIAN_POINT( '', ( 0.0120000000000100, 0.00120000000001000, 0.00600000000001000 ) );
#677 = DIRECTION( '', ( 0.00000000000000, 1.00000000000000, 0.00000000000000 ) );
#678 = DIRECTION( '', ( 0.00000000000000, 0.00000000000000, 1.00000000000000 ) );
#679 = DIRECTION( '', ( -1.00000000000000, 0.00000000000000, 0.00000000000000 ) );
#680 = DIRECTION( '', ( 0.00000000000000, 0.00000000000000, -1.00000000000000 ) );
#681 = DIRECTION( '', ( -1.00000000000000, 0.00000000000000, 0.00000000000000 ) );
ENDSEC;
END-ISO-10303-21;
