ISO-10303-21;
HEADER;
FILE_DESCRIPTION( ( '' ), ' ' );
FILE_NAME( '/vol/tmp/translate-6350214549886004926/589d5b5558735a1029ddc0a9.step', '2017-02-10T06:19:02', ( '' ), ( '' ), ' ', ' ', ' ' );
FILE_SCHEMA( ( 'AUTOMOTIVE_DESIGN { 1 0 10303 214 1 1 1 1 }' ) );
ENDSEC;
DATA;
#1 = MECHANICAL_DESIGN_GEOMETRIC_PRESENTATION_REPRESENTATION( ' ', ( #10, #11, #12, #13, #14, #15, #16, #17, #18, #19, #20, #21 ), #6 );
#2 = PRODUCT_DEFINITION_CONTEXT( '', #22, 'design' );
#3 = APPLICATION_PROTOCOL_DEFINITION( 'international standard', 'automotive_design', 2001, #22 );
#4 = PRODUCT_CATEGORY_RELATIONSHIP( 'NONE', 'NONE', #23, #24 );
#5 = SHAPE_DEFINITION_REPRESENTATION( #25, #26 );
#6 =  ( GEOMETRIC_REPRESENTATION_CONTEXT( 3 )GLOBAL_UNCERTAINTY_ASSIGNED_CONTEXT( ( #29 ) )GLOBAL_UNIT_ASSIGNED_CONTEXT( ( #31, #32, #33 ) )REPRESENTATION_CONTEXT( 'NONE', 'WORKSPACE' ) );
#10 = STYLED_ITEM( '', ( #35 ), #36 );
#11 = STYLED_ITEM( '', ( #37 ), #38 );
#12 = STYLED_ITEM( '', ( #39 ), #40 );
#13 = STYLED_ITEM( '', ( #41 ), #42 );
#14 = STYLED_ITEM( '', ( #43 ), #44 );
#15 = STYLED_ITEM( '', ( #45 ), #46 );
#16 = STYLED_ITEM( '', ( #47 ), #48 );
#17 = STYLED_ITEM( '', ( #49 ), #50 );
#18 = STYLED_ITEM( '', ( #51 ), #52 );
#19 = STYLED_ITEM( '', ( #53 ), #54 );
#20 = STYLED_ITEM( '', ( #55 ), #56 );
#21 = STYLED_ITEM( '', ( #57 ), #58 );
#22 = APPLICATION_CONTEXT( 'core data for automotive mechanical design processes' );
#23 = PRODUCT_CATEGORY( 'part', 'NONE' );
#24 = PRODUCT_RELATED_PRODUCT_CATEGORY( 'detail', ' ', ( #59 ) );
#25 = PRODUCT_DEFINITION_SHAPE( 'NONE', 'NONE', #60 );
#26 = ADVANCED_BREP_SHAPE_REPRESENTATION( 'SUPPORT_HEX_M3_0XL45_FF', ( #61, #62 ), #6 );
#29 = UNCERTAINTY_MEASURE_WITH_UNIT( LENGTH_MEASURE( 1.00000000000000E-06 ), #31, '', '' );
#31 =  ( CONVERSION_BASED_UNIT( 'METRE', #65 )LENGTH_UNIT(  )NAMED_UNIT( #68 ) );
#32 =  ( NAMED_UNIT( #70 )PLANE_ANGLE_UNIT(  )SI_UNIT( $, .RADIAN. ) );
#33 =  ( NAMED_UNIT( #70 )SI_UNIT( $, .STERADIAN. )SOLID_ANGLE_UNIT(  ) );
#35 = PRESENTATION_STYLE_ASSIGNMENT( ( #76 ) );
#36 = ADVANCED_FACE( '', ( #77 ), #78, .T. );
#37 = PRESENTATION_STYLE_ASSIGNMENT( ( #79 ) );
#38 = ADVANCED_FACE( '', ( #80 ), #81, .T. );
#39 = PRESENTATION_STYLE_ASSIGNMENT( ( #82 ) );
#40 = ADVANCED_FACE( '', ( #83, #84 ), #85, .F. );
#41 = PRESENTATION_STYLE_ASSIGNMENT( ( #86 ) );
#42 = ADVANCED_FACE( '', ( #87, #88 ), #89, .T. );
#43 = PRESENTATION_STYLE_ASSIGNMENT( ( #90 ) );
#44 = ADVANCED_FACE( '', ( #91 ), #92, .T. );
#45 = PRESENTATION_STYLE_ASSIGNMENT( ( #93 ) );
#46 = ADVANCED_FACE( '', ( #94, #95 ), #96, .F. );
#47 = PRESENTATION_STYLE_ASSIGNMENT( ( #97 ) );
#48 = ADVANCED_FACE( '', ( #98, #99 ), #100, .F. );
#49 = PRESENTATION_STYLE_ASSIGNMENT( ( #101 ) );
#50 = ADVANCED_FACE( '', ( #102 ), #103, .T. );
#51 = PRESENTATION_STYLE_ASSIGNMENT( ( #104 ) );
#52 = ADVANCED_FACE( '', ( #105 ), #106, .T. );
#53 = PRESENTATION_STYLE_ASSIGNMENT( ( #107 ) );
#54 = ADVANCED_FACE( '', ( #108, #109 ), #110, .F. );
#55 = PRESENTATION_STYLE_ASSIGNMENT( ( #111 ) );
#56 = ADVANCED_FACE( '', ( #112, #113 ), #114, .F. );
#57 = PRESENTATION_STYLE_ASSIGNMENT( ( #115 ) );
#58 = ADVANCED_FACE( '', ( #116 ), #117, .T. );
#59 = PRODUCT( 'SUPPORT_HEX_M3_0XL45_FF', 'SUPPORT_HEX_M3_0XL45_FF', 'PART-SUPPORT_HEX_M3_0XL45_FF-DESC', ( #118 ) );
#60 = PRODUCT_DEFINITION( 'NONE', 'NONE', #119, #2 );
#61 = MANIFOLD_SOLID_BREP( 'SUPPORT_HEX_M3_0XL45_FF', #120 );
#62 = AXIS2_PLACEMENT_3D( '', #121, #122, #123 );
#65 = LENGTH_MEASURE_WITH_UNIT( LENGTH_MEASURE( 1.00000000000000 ), #124 );
#68 = DIMENSIONAL_EXPONENTS( 1.00000000000000, 0.00000000000000, 0.00000000000000, 0.00000000000000, 0.00000000000000, 0.00000000000000, 0.00000000000000 );
#70 = DIMENSIONAL_EXPONENTS( 0.00000000000000, 0.00000000000000, 0.00000000000000, 0.00000000000000, 0.00000000000000, 0.00000000000000, 0.00000000000000 );
#76 = SURFACE_STYLE_USAGE( .BOTH., #125 );
#77 = FACE_OUTER_BOUND( '', #126, .T. );
#78 = PLANE( '', #127 );
#79 = SURFACE_STYLE_USAGE( .BOTH., #128 );
#80 = FACE_OUTER_BOUND( '', #129, .T. );
#81 = PLANE( '', #130 );
#82 = SURFACE_STYLE_USAGE( .BOTH., #131 );
#83 = FACE_OUTER_BOUND( '', #132, .T. );
#84 = FACE_BOUND( '', #133, .T. );
#85 = CONICAL_SURFACE( '', #134, 0.000648474500000000, 1.02974425870000 );
#86 = SURFACE_STYLE_USAGE( .BOTH., #135 );
#87 = FACE_OUTER_BOUND( '', #136, .T. );
#88 = FACE_BOUND( '', #137, .T. );
#89 = PLANE( '', #138 );
#90 = SURFACE_STYLE_USAGE( .BOTH., #139 );
#91 = FACE_OUTER_BOUND( '', #140, .T. );
#92 = PLANE( '', #141 );
#93 = SURFACE_STYLE_USAGE( .BOTH., #142 );
#94 = FACE_OUTER_BOUND( '', #143, .T. );
#95 = FACE_BOUND( '', #144, .T. );
#96 = PLANE( '', #145 );
#97 = SURFACE_STYLE_USAGE( .BOTH., #146 );
#98 = FACE_OUTER_BOUND( '', #147, .T. );
#99 = FACE_OUTER_BOUND( '', #148, .T. );
#100 = CYLINDRICAL_SURFACE( '', #149, 0.00125000000000000 );
#101 = SURFACE_STYLE_USAGE( .BOTH., #150 );
#102 = FACE_OUTER_BOUND( '', #151, .T. );
#103 = PLANE( '', #152 );
#104 = SURFACE_STYLE_USAGE( .BOTH., #153 );
#105 = FACE_OUTER_BOUND( '', #154, .T. );
#106 = PLANE( '', #155 );
#107 = SURFACE_STYLE_USAGE( .BOTH., #156 );
#108 = FACE_OUTER_BOUND( '', #157, .T. );
#109 = FACE_OUTER_BOUND( '', #158, .T. );
#110 = CYLINDRICAL_SURFACE( '', #159, 0.00125000000000000 );
#111 = SURFACE_STYLE_USAGE( .BOTH., #160 );
#112 = FACE_OUTER_BOUND( '', #161, .T. );
#113 = FACE_BOUND( '', #162, .T. );
#114 = CONICAL_SURFACE( '', #163, 0.000648474500000000, 1.02974425870000 );
#115 = SURFACE_STYLE_USAGE( .BOTH., #164 );
#116 = FACE_OUTER_BOUND( '', #165, .T. );
#117 = PLANE( '', #166 );
#118 = PRODUCT_CONTEXT( '', #22, 'mechanical' );
#119 = PRODUCT_DEFINITION_FORMATION_WITH_SPECIFIED_SOURCE( ' ', 'NONE', #59, .NOT_KNOWN. );
#120 = CLOSED_SHELL( '', ( #40, #54, #46, #44, #38, #36, #50, #52, #58, #42, #48, #56 ) );
#121 = CARTESIAN_POINT( '', ( 0.00000000000000, 0.00000000000000, 0.00000000000000 ) );
#122 = DIRECTION( '', ( 0.00000000000000, 0.00000000000000, 1.00000000000000 ) );
#123 = DIRECTION( '', ( 1.00000000000000, 0.00000000000000, 0.00000000000000 ) );
#124 =  ( LENGTH_UNIT(  )NAMED_UNIT( #68 )SI_UNIT( $, .METRE. ) );
#125 = SURFACE_SIDE_STYLE( '', ( #168 ) );
#126 = EDGE_LOOP( '', ( #169, #170, #171, #172 ) );
#127 = AXIS2_PLACEMENT_3D( '', #173, #174, #175 );
#128 = SURFACE_SIDE_STYLE( '', ( #176 ) );
#129 = EDGE_LOOP( '', ( #177, #178, #179, #180 ) );
#130 = AXIS2_PLACEMENT_3D( '', #181, #182, #183 );
#131 = SURFACE_SIDE_STYLE( '', ( #184 ) );
#132 = EDGE_LOOP( '', ( #185 ) );
#133 = VERTEX_LOOP( '', #186 );
#134 = AXIS2_PLACEMENT_3D( '', #187, #188, #189 );
#135 = SURFACE_SIDE_STYLE( '', ( #190 ) );
#136 = EDGE_LOOP( '', ( #191, #192, #193, #194, #195, #196 ) );
#137 = EDGE_LOOP( '', ( #197 ) );
#138 = AXIS2_PLACEMENT_3D( '', #198, #199, #200 );
#139 = SURFACE_SIDE_STYLE( '', ( #201 ) );
#140 = EDGE_LOOP( '', ( #202, #203, #204, #205 ) );
#141 = AXIS2_PLACEMENT_3D( '', #206, #207, #208 );
#142 = SURFACE_SIDE_STYLE( '', ( #209 ) );
#143 = EDGE_LOOP( '', ( #210, #211, #212, #213, #214, #215 ) );
#144 = EDGE_LOOP( '', ( #216 ) );
#145 = AXIS2_PLACEMENT_3D( '', #217, #218, #219 );
#146 = SURFACE_SIDE_STYLE( '', ( #220 ) );
#147 = EDGE_LOOP( '', ( #221 ) );
#148 = EDGE_LOOP( '', ( #222 ) );
#149 = AXIS2_PLACEMENT_3D( '', #223, #224, #225 );
#150 = SURFACE_SIDE_STYLE( '', ( #226 ) );
#151 = EDGE_LOOP( '', ( #227, #228, #229, #230 ) );
#152 = AXIS2_PLACEMENT_3D( '', #231, #232, #233 );
#153 = SURFACE_SIDE_STYLE( '', ( #234 ) );
#154 = EDGE_LOOP( '', ( #235, #236, #237, #238 ) );
#155 = AXIS2_PLACEMENT_3D( '', #239, #240, #241 );
#156 = SURFACE_SIDE_STYLE( '', ( #242 ) );
#157 = EDGE_LOOP( '', ( #243 ) );
#158 = EDGE_LOOP( '', ( #244 ) );
#159 = AXIS2_PLACEMENT_3D( '', #245, #246, #247 );
#160 = SURFACE_SIDE_STYLE( '', ( #248 ) );
#161 = EDGE_LOOP( '', ( #249 ) );
#162 = VERTEX_LOOP( '', #250 );
#163 = AXIS2_PLACEMENT_3D( '', #251, #252, #253 );
#164 = SURFACE_SIDE_STYLE( '', ( #254 ) );
#165 = EDGE_LOOP( '', ( #255, #256, #257, #258 ) );
#166 = AXIS2_PLACEMENT_3D( '', #259, #260, #261 );
#168 = SURFACE_STYLE_FILL_AREA( #262 );
#169 = ORIENTED_EDGE( '', *, *, #263, .T. );
#170 = ORIENTED_EDGE( '', *, *, #264, .F. );
#171 = ORIENTED_EDGE( '', *, *, #265, .F. );
#172 = ORIENTED_EDGE( '', *, *, #266, .T. );
#173 = CARTESIAN_POINT( '', ( 0.00000000000000, 0.00000000000000, 0.00288675134594800 ) );
#174 = DIRECTION( '', ( 0.500000000000017, 0.00000000000000, 0.866025403784429 ) );
#175 = DIRECTION( '', ( 0.00000000000000, -1.00000000000000, 0.00000000000000 ) );
#176 = SURFACE_STYLE_FILL_AREA( #267 );
#177 = ORIENTED_EDGE( '', *, *, #268, .T. );
#178 = ORIENTED_EDGE( '', *, *, #269, .F. );
#179 = ORIENTED_EDGE( '', *, *, #263, .F. );
#180 = ORIENTED_EDGE( '', *, *, #270, .T. );
#181 = CARTESIAN_POINT( '', ( 0.00250000000000000, 0.00000000000000, 0.00144337567297400 ) );
#182 = DIRECTION( '', ( 1.00000000000000, 0.00000000000000, 0.00000000000000 ) );
#183 = DIRECTION( '', ( 0.00000000000000, 1.00000000000000, 0.00000000000000 ) );
#184 = SURFACE_STYLE_FILL_AREA( #271 );
#185 = ORIENTED_EDGE( '', *, *, #272, .F. );
#186 = VERTEX_POINT( '', #273 );
#187 = CARTESIAN_POINT( '', ( 0.00000000000000, 0.0103614329883100, 0.00000000000000 ) );
#188 = DIRECTION( '', ( -0.00000000000000, -1.00000000000000, 0.00000000000000 ) );
#189 = DIRECTION( '', ( -1.00000000000000, 0.00000000000000, 0.00000000000000 ) );
#190 = SURFACE_STYLE_FILL_AREA( #274 );
#191 = ORIENTED_EDGE( '', *, *, #275, .T. );
#192 = ORIENTED_EDGE( '', *, *, #276, .T. );
#193 = ORIENTED_EDGE( '', *, *, #264, .T. );
#194 = ORIENTED_EDGE( '', *, *, #269, .T. );
#195 = ORIENTED_EDGE( '', *, *, #277, .T. );
#196 = ORIENTED_EDGE( '', *, *, #278, .T. );
#197 = ORIENTED_EDGE( '', *, *, #279, .F. );
#198 = CARTESIAN_POINT( '', ( 0.00000000000000, 0.0450000000000000, 0.00000000000000 ) );
#199 = DIRECTION( '', ( -0.00000000000000, 1.00000000000000, 0.00000000000000 ) );
#200 = DIRECTION( '', ( 1.00000000000000, 0.00000000000000, 0.00000000000000 ) );
#201 = SURFACE_STYLE_FILL_AREA( #280 );
#202 = ORIENTED_EDGE( '', *, *, #281, .T. );
#203 = ORIENTED_EDGE( '', *, *, #278, .F. );
#204 = ORIENTED_EDGE( '', *, *, #282, .F. );
#205 = ORIENTED_EDGE( '', *, *, #283, .T. );
#206 = CARTESIAN_POINT( '', ( 0.00000000000000, 0.00000000000000, -0.00288675134594800 ) );
#207 = DIRECTION( '', ( -0.500000000000017, 0.00000000000000, -0.866025403784429 ) );
#208 = DIRECTION( '', ( -0.866025403784429, 0.00000000000000, 0.500000000000017 ) );
#209 = SURFACE_STYLE_FILL_AREA( #284 );
#210 = ORIENTED_EDGE( '', *, *, #285, .F. );
#211 = ORIENTED_EDGE( '', *, *, #270, .F. );
#212 = ORIENTED_EDGE( '', *, *, #266, .F. );
#213 = ORIENTED_EDGE( '', *, *, #286, .F. );
#214 = ORIENTED_EDGE( '', *, *, #287, .F. );
#215 = ORIENTED_EDGE( '', *, *, #283, .F. );
#216 = ORIENTED_EDGE( '', *, *, #288, .T. );
#217 = CARTESIAN_POINT( '', ( 0.00000000000000, 0.00000000000000, 0.00000000000000 ) );
#218 = DIRECTION( '', ( -0.00000000000000, 1.00000000000000, 0.00000000000000 ) );
#219 = DIRECTION( '', ( 1.00000000000000, 0.00000000000000, 0.00000000000000 ) );
#220 = SURFACE_STYLE_FILL_AREA( #289 );
#221 = ORIENTED_EDGE( '', *, *, #279, .T. );
#222 = ORIENTED_EDGE( '', *, *, #290, .F. );
#223 = CARTESIAN_POINT( '', ( 0.00000000000000, 0.0337113704375300, 0.00000000000000 ) );
#224 = DIRECTION( '', ( 0.00000000000000, -1.00000000000000, -0.00000000000000 ) );
#225 = DIRECTION( '', ( 1.00000000000000, 0.00000000000000, 0.00000000000000 ) );
#226 = SURFACE_STYLE_FILL_AREA( #291 );
#227 = ORIENTED_EDGE( '', *, *, #282, .T. );
#228 = ORIENTED_EDGE( '', *, *, #277, .F. );
#229 = ORIENTED_EDGE( '', *, *, #268, .F. );
#230 = ORIENTED_EDGE( '', *, *, #285, .T. );
#231 = CARTESIAN_POINT( '', ( 0.00250000000000000, 0.00000000000000, -0.00144337567297400 ) );
#232 = DIRECTION( '', ( 0.500000000000017, 0.00000000000000, -0.866025403784429 ) );
#233 = DIRECTION( '', ( 0.00000000000000, -1.00000000000000, 0.00000000000000 ) );
#234 = SURFACE_STYLE_FILL_AREA( #292 );
#235 = ORIENTED_EDGE( '', *, *, #265, .T. );
#236 = ORIENTED_EDGE( '', *, *, #276, .F. );
#237 = ORIENTED_EDGE( '', *, *, #293, .F. );
#238 = ORIENTED_EDGE( '', *, *, #286, .T. );
#239 = CARTESIAN_POINT( '', ( -0.00250000000000000, 0.00000000000000, 0.00144337567297400 ) );
#240 = DIRECTION( '', ( -0.500000000000017, 0.00000000000000, 0.866025403784429 ) );
#241 = DIRECTION( '', ( 0.00000000000000, 1.00000000000000, 0.00000000000000 ) );
#242 = SURFACE_STYLE_FILL_AREA( #294 );
#243 = ORIENTED_EDGE( '', *, *, #288, .F. );
#244 = ORIENTED_EDGE( '', *, *, #272, .T. );
#245 = CARTESIAN_POINT( '', ( 0.00000000000000, 0.0112886295624700, 0.00000000000000 ) );
#246 = DIRECTION( '', ( 0.00000000000000, -1.00000000000000, -0.00000000000000 ) );
#247 = DIRECTION( '', ( 1.00000000000000, 0.00000000000000, 0.00000000000000 ) );
#248 = SURFACE_STYLE_FILL_AREA( #295 );
#249 = ORIENTED_EDGE( '', *, *, #290, .T. );
#250 = VERTEX_POINT( '', #296 );
#251 = CARTESIAN_POINT( '', ( 0.00000000000000, 0.0346385670116900, 0.00000000000000 ) );
#252 = DIRECTION( '', ( -0.00000000000000, 1.00000000000000, -0.00000000000000 ) );
#253 = DIRECTION( '', ( 1.00000000000000, 0.00000000000000, 0.00000000000000 ) );
#254 = SURFACE_STYLE_FILL_AREA( #297 );
#255 = ORIENTED_EDGE( '', *, *, #293, .T. );
#256 = ORIENTED_EDGE( '', *, *, #275, .F. );
#257 = ORIENTED_EDGE( '', *, *, #281, .F. );
#258 = ORIENTED_EDGE( '', *, *, #287, .T. );
#259 = CARTESIAN_POINT( '', ( -0.00250000000000000, 0.00000000000000, -0.00144337567297400 ) );
#260 = DIRECTION( '', ( -1.00000000000000, 0.00000000000000, 0.00000000000000 ) );
#261 = DIRECTION( '', ( 0.00000000000000, 0.00000000000000, 1.00000000000000 ) );
#262 = FILL_AREA_STYLE( '', ( #298 ) );
#263 = EDGE_CURVE( '', #299, #300, #301, .T. );
#264 = EDGE_CURVE( '', #302, #300, #303, .T. );
#265 = EDGE_CURVE( '', #304, #302, #305, .T. );
#266 = EDGE_CURVE( '', #304, #299, #306, .T. );
#267 = FILL_AREA_STYLE( '', ( #307 ) );
#268 = EDGE_CURVE( '', #308, #309, #310, .T. );
#269 = EDGE_CURVE( '', #300, #309, #311, .T. );
#270 = EDGE_CURVE( '', #299, #308, #312, .T. );
#271 = FILL_AREA_STYLE( '', ( #313 ) );
#272 = EDGE_CURVE( '', #314, #314, #315, .T. );
#273 = CARTESIAN_POINT( '', ( 0.00000000000000, 0.0107510757737800, 0.00000000000000 ) );
#274 = FILL_AREA_STYLE( '', ( #316 ) );
#275 = EDGE_CURVE( '', #317, #318, #319, .T. );
#276 = EDGE_CURVE( '', #318, #302, #320, .T. );
#277 = EDGE_CURVE( '', #309, #321, #322, .T. );
#278 = EDGE_CURVE( '', #321, #317, #323, .T. );
#279 = EDGE_CURVE( '', #324, #324, #325, .T. );
#280 = FILL_AREA_STYLE( '', ( #326 ) );
#281 = EDGE_CURVE( '', #327, #317, #328, .T. );
#282 = EDGE_CURVE( '', #329, #321, #330, .T. );
#283 = EDGE_CURVE( '', #329, #327, #331, .T. );
#284 = FILL_AREA_STYLE( '', ( #332 ) );
#285 = EDGE_CURVE( '', #308, #329, #333, .T. );
#286 = EDGE_CURVE( '', #334, #304, #335, .T. );
#287 = EDGE_CURVE( '', #327, #334, #336, .T. );
#288 = EDGE_CURVE( '', #337, #337, #338, .T. );
#289 = FILL_AREA_STYLE( '', ( #339 ) );
#290 = EDGE_CURVE( '', #340, #340, #341, .T. );
#291 = FILL_AREA_STYLE( '', ( #342 ) );
#292 = FILL_AREA_STYLE( '', ( #343 ) );
#293 = EDGE_CURVE( '', #334, #318, #344, .T. );
#294 = FILL_AREA_STYLE( '', ( #345 ) );
#295 = FILL_AREA_STYLE( '', ( #346 ) );
#296 = CARTESIAN_POINT( '', ( 0.00000000000000, 0.0342489242262200, 0.00000000000000 ) );
#297 = FILL_AREA_STYLE( '', ( #347 ) );
#298 = FILL_AREA_STYLE_COLOUR( '', #348 );
#299 = VERTEX_POINT( '', #349 );
#300 = VERTEX_POINT( '', #350 );
#301 = LINE( '', #351, #352 );
#302 = VERTEX_POINT( '', #353 );
#303 = LINE( '', #354, #355 );
#304 = VERTEX_POINT( '', #356 );
#305 = LINE( '', #357, #358 );
#306 = LINE( '', #359, #360 );
#307 = FILL_AREA_STYLE_COLOUR( '', #361 );
#308 = VERTEX_POINT( '', #362 );
#309 = VERTEX_POINT( '', #363 );
#310 = LINE( '', #364, #365 );
#311 = LINE( '', #366, #367 );
#312 = LINE( '', #368, #369 );
#313 = FILL_AREA_STYLE_COLOUR( '', #370 );
#314 = VERTEX_POINT( '', #371 );
#315 = CIRCLE( '', #372, 0.00125000000000000 );
#316 = FILL_AREA_STYLE_COLOUR( '', #373 );
#317 = VERTEX_POINT( '', #374 );
#318 = VERTEX_POINT( '', #375 );
#319 = LINE( '', #376, #377 );
#320 = LINE( '', #378, #379 );
#321 = VERTEX_POINT( '', #380 );
#322 = LINE( '', #381, #382 );
#323 = LINE( '', #383, #384 );
#324 = VERTEX_POINT( '', #385 );
#325 = CIRCLE( '', #386, 0.00125000000000000 );
#326 = FILL_AREA_STYLE_COLOUR( '', #387 );
#327 = VERTEX_POINT( '', #388 );
#328 = LINE( '', #389, #390 );
#329 = VERTEX_POINT( '', #391 );
#330 = LINE( '', #392, #393 );
#331 = LINE( '', #394, #395 );
#332 = FILL_AREA_STYLE_COLOUR( '', #396 );
#333 = LINE( '', #397, #398 );
#334 = VERTEX_POINT( '', #399 );
#335 = LINE( '', #400, #401 );
#336 = LINE( '', #402, #403 );
#337 = VERTEX_POINT( '', #404 );
#338 = CIRCLE( '', #405, 0.00125000000000000 );
#339 = FILL_AREA_STYLE_COLOUR( '', #406 );
#340 = VERTEX_POINT( '', #407 );
#341 = CIRCLE( '', #408, 0.00125000000000000 );
#342 = FILL_AREA_STYLE_COLOUR( '', #409 );
#343 = FILL_AREA_STYLE_COLOUR( '', #410 );
#344 = LINE( '', #411, #412 );
#345 = FILL_AREA_STYLE_COLOUR( '', #413 );
#346 = FILL_AREA_STYLE_COLOUR( '', #414 );
#347 = FILL_AREA_STYLE_COLOUR( '', #415 );
#348 = COLOUR_RGB( '', 0.811764717100000, 0.858823537800000, 0.898039221800000 );
#349 = CARTESIAN_POINT( '', ( 0.00250000000000000, 0.00000000000000, 0.00144337567297400 ) );
#350 = CARTESIAN_POINT( '', ( 0.00250000000000000, 0.0450000000000000, 0.00144337567297400 ) );
#351 = CARTESIAN_POINT( '', ( 0.00250000000001000, 0.00000000000000, 0.00144337567298400 ) );
#352 = VECTOR( '', #416, 1.00000000000000 );
#353 = CARTESIAN_POINT( '', ( 0.00000000000000, 0.0450000000000000, 0.00288675134594800 ) );
#354 = CARTESIAN_POINT( '', ( 0.00000000000000, 0.0450000000000100, 0.00288675134595800 ) );
#355 = VECTOR( '', #417, 1.00000000000000 );
#356 = CARTESIAN_POINT( '', ( 0.00000000000000, 0.00000000000000, 0.00288675134594800 ) );
#357 = CARTESIAN_POINT( '', ( 0.00000000000000, 0.00000000000000, 0.00288675134595800 ) );
#358 = VECTOR( '', #418, 1.00000000000000 );
#359 = CARTESIAN_POINT( '', ( 0.00000000000000, 0.00000000000000, 0.00288675134595800 ) );
#360 = VECTOR( '', #419, 1.00000000000000 );
#361 = COLOUR_RGB( '', 0.811764717100000, 0.858823537800000, 0.898039221800000 );
#362 = CARTESIAN_POINT( '', ( 0.00250000000000000, 0.00000000000000, -0.00144337567297400 ) );
#363 = CARTESIAN_POINT( '', ( 0.00250000000000000, 0.0450000000000000, -0.00144337567297400 ) );
#364 = CARTESIAN_POINT( '', ( 0.00250000000001000, 0.00000000000000, -0.00144337567298400 ) );
#365 = VECTOR( '', #420, 1.00000000000000 );
#366 = CARTESIAN_POINT( '', ( 0.00250000000001000, 0.0450000000000100, 0.00144337567298400 ) );
#367 = VECTOR( '', #421, 1.00000000000000 );
#368 = CARTESIAN_POINT( '', ( 0.00250000000001000, 0.00000000000000, 0.00144337567298400 ) );
#369 = VECTOR( '', #422, 1.00000000000000 );
#370 = COLOUR_RGB( '', 0.811764717100000, 0.858823537800000, 0.898039221800000 );
#371 = CARTESIAN_POINT( '', ( 0.00125000000001000, 0.0100000000000100, 0.00000000000000 ) );
#372 = AXIS2_PLACEMENT_3D( '', #423, #424, #425 );
#373 = COLOUR_RGB( '', 0.811764717100000, 0.858823537800000, 0.898039221800000 );
#374 = CARTESIAN_POINT( '', ( -0.00250000000000000, 0.0450000000000000, -0.00144337567297400 ) );
#375 = CARTESIAN_POINT( '', ( -0.00250000000000000, 0.0450000000000000, 0.00144337567297400 ) );
#376 = CARTESIAN_POINT( '', ( -0.00250000000001000, 0.0450000000000100, -0.00144337567298400 ) );
#377 = VECTOR( '', #426, 1.00000000000000 );
#378 = CARTESIAN_POINT( '', ( -0.00250000000001000, 0.0450000000000100, 0.00144337567298400 ) );
#379 = VECTOR( '', #427, 1.00000000000000 );
#380 = CARTESIAN_POINT( '', ( 0.00000000000000, 0.0450000000000000, -0.00288675134594800 ) );
#381 = CARTESIAN_POINT( '', ( 0.00250000000001000, 0.0450000000000100, -0.00144337567298400 ) );
#382 = VECTOR( '', #428, 1.00000000000000 );
#383 = CARTESIAN_POINT( '', ( 0.00000000000000, 0.0450000000000100, -0.00288675134595800 ) );
#384 = VECTOR( '', #429, 1.00000000000000 );
#385 = CARTESIAN_POINT( '', ( -0.00125000000001000, 0.0450000000000100, 0.00000000000000 ) );
#386 = AXIS2_PLACEMENT_3D( '', #430, #431, #432 );
#387 = COLOUR_RGB( '', 0.811764717100000, 0.858823537800000, 0.898039221800000 );
#388 = CARTESIAN_POINT( '', ( -0.00250000000000000, 0.00000000000000, -0.00144337567297400 ) );
#389 = CARTESIAN_POINT( '', ( -0.00250000000001000, 0.00000000000000, -0.00144337567298400 ) );
#390 = VECTOR( '', #433, 1.00000000000000 );
#391 = CARTESIAN_POINT( '', ( 0.00000000000000, 0.00000000000000, -0.00288675134594800 ) );
#392 = CARTESIAN_POINT( '', ( 0.00000000000000, 0.00000000000000, -0.00288675134595800 ) );
#393 = VECTOR( '', #434, 1.00000000000000 );
#394 = CARTESIAN_POINT( '', ( 0.00000000000000, 0.00000000000000, -0.00288675134595800 ) );
#395 = VECTOR( '', #435, 1.00000000000000 );
#396 = COLOUR_RGB( '', 0.811764717100000, 0.858823537800000, 0.898039221800000 );
#397 = CARTESIAN_POINT( '', ( 0.00250000000001000, 0.00000000000000, -0.00144337567298400 ) );
#398 = VECTOR( '', #436, 1.00000000000000 );
#399 = CARTESIAN_POINT( '', ( -0.00250000000000000, 0.00000000000000, 0.00144337567297400 ) );
#400 = CARTESIAN_POINT( '', ( -0.00250000000001000, 0.00000000000000, 0.00144337567298400 ) );
#401 = VECTOR( '', #437, 1.00000000000000 );
#402 = CARTESIAN_POINT( '', ( -0.00250000000001000, 0.00000000000000, -0.00144337567298400 ) );
#403 = VECTOR( '', #438, 1.00000000000000 );
#404 = CARTESIAN_POINT( '', ( -0.00125000000001000, 0.00000000000000, 0.00000000000000 ) );
#405 = AXIS2_PLACEMENT_3D( '', #439, #440, #441 );
#406 = COLOUR_RGB( '', 0.811764717100000, 0.858823537800000, 0.898039221800000 );
#407 = CARTESIAN_POINT( '', ( 0.00125000000001000, 0.0350000000000100, 0.00000000000000 ) );
#408 = AXIS2_PLACEMENT_3D( '', #442, #443, #444 );
#409 = COLOUR_RGB( '', 0.811764717100000, 0.858823537800000, 0.898039221800000 );
#410 = COLOUR_RGB( '', 0.811764717100000, 0.858823537800000, 0.898039221800000 );
#411 = CARTESIAN_POINT( '', ( -0.00250000000001000, 0.00000000000000, 0.00144337567298400 ) );
#412 = VECTOR( '', #445, 1.00000000000000 );
#413 = COLOUR_RGB( '', 0.811764717100000, 0.858823537800000, 0.898039221800000 );
#414 = COLOUR_RGB( '', 0.811764717100000, 0.858823537800000, 0.898039221800000 );
#415 = COLOUR_RGB( '', 0.811764717100000, 0.858823537800000, 0.898039221800000 );
#416 = DIRECTION( '', ( 0.00000000000000, 1.00000000000000, 0.00000000000000 ) );
#417 = DIRECTION( '', ( 0.866025403783795, 0.00000000000000, -0.500000000001115 ) );
#418 = DIRECTION( '', ( 0.00000000000000, 1.00000000000000, 0.00000000000000 ) );
#419 = DIRECTION( '', ( 0.866025403783795, 0.00000000000000, -0.500000000001115 ) );
#420 = DIRECTION( '', ( 0.00000000000000, 1.00000000000000, 0.00000000000000 ) );
#421 = DIRECTION( '', ( 0.00000000000000, 0.00000000000000, -1.00000000000000 ) );
#422 = DIRECTION( '', ( 0.00000000000000, 0.00000000000000, -1.00000000000000 ) );
#423 = CARTESIAN_POINT( '', ( 0.00000000000000, 0.0100000000000100, 0.00000000000000 ) );
#424 = DIRECTION( '', ( -0.00000000000000, 1.00000000000000, 0.00000000000000 ) );
#425 = DIRECTION( '', ( 1.00000000000000, 0.00000000000000, 0.00000000000000 ) );
#426 = DIRECTION( '', ( 0.00000000000000, 0.00000000000000, 1.00000000000000 ) );
#427 = DIRECTION( '', ( 0.866025403783795, 0.00000000000000, 0.500000000001115 ) );
#428 = DIRECTION( '', ( -0.866025403783795, 0.00000000000000, -0.500000000001115 ) );
#429 = DIRECTION( '', ( -0.866025403783795, 0.00000000000000, 0.500000000001115 ) );
#430 = CARTESIAN_POINT( '', ( 0.00000000000000, 0.0450000000000100, 0.00000000000000 ) );
#431 = DIRECTION( '', ( 0.00000000000000, 1.00000000000000, 0.00000000000000 ) );
#432 = DIRECTION( '', ( -1.00000000000000, 0.00000000000000, 0.00000000000000 ) );
#433 = DIRECTION( '', ( 0.00000000000000, 1.00000000000000, 0.00000000000000 ) );
#434 = DIRECTION( '', ( 0.00000000000000, 1.00000000000000, 0.00000000000000 ) );
#435 = DIRECTION( '', ( -0.866025403783795, 0.00000000000000, 0.500000000001115 ) );
#436 = DIRECTION( '', ( -0.866025403783795, 0.00000000000000, -0.500000000001115 ) );
#437 = DIRECTION( '', ( 0.866025403783795, 0.00000000000000, 0.500000000001115 ) );
#438 = DIRECTION( '', ( 0.00000000000000, 0.00000000000000, 1.00000000000000 ) );
#439 = CARTESIAN_POINT( '', ( 0.00000000000000, 0.00000000000000, 0.00000000000000 ) );
#440 = DIRECTION( '', ( 0.00000000000000, 1.00000000000000, 0.00000000000000 ) );
#441 = DIRECTION( '', ( -1.00000000000000, 0.00000000000000, 0.00000000000000 ) );
#442 = CARTESIAN_POINT( '', ( 0.00000000000000, 0.0350000000000100, 0.00000000000000 ) );
#443 = DIRECTION( '', ( -0.00000000000000, 1.00000000000000, 0.00000000000000 ) );
#444 = DIRECTION( '', ( 1.00000000000000, 0.00000000000000, 0.00000000000000 ) );
#445 = DIRECTION( '', ( 0.00000000000000, 1.00000000000000, 0.00000000000000 ) );
ENDSEC;
END-ISO-10303-21;
