ISO-10303-21;
HEADER;
FILE_DESCRIPTION( ( '' ), ' ' );
FILE_NAME( '/vol/tmp/translate-5910548467284248027/589d3742c139c90fab49b57e.step', '2017-02-10T03:45:07', ( '' ), ( '' ), ' ', ' ', ' ' );
FILE_SCHEMA( ( 'AUTOMOTIVE_DESIGN { 1 0 10303 214 1 1 1 1 }' ) );
ENDSEC;
DATA;
#1 = MECHANICAL_DESIGN_GEOMETRIC_PRESENTATION_REPRESENTATION( ' ', ( #10, #11, #12, #13, #14, #15, #16, #17, #18, #19, #20, #21 ), #6 );
#2 = PRODUCT_DEFINITION_CONTEXT( '', #22, 'design' );
#3 = APPLICATION_PROTOCOL_DEFINITION( 'international standard', 'automotive_design', 2001, #22 );
#4 = PRODUCT_CATEGORY_RELATIONSHIP( 'NONE', 'NONE', #23, #24 );
#5 = SHAPE_DEFINITION_REPRESENTATION( #25, #26 );
#6 =  ( GEOMETRIC_REPRESENTATION_CONTEXT( 3 )GLOBAL_UNCERTAINTY_ASSIGNED_CONTEXT( ( #29 ) )GLOBAL_UNIT_ASSIGNED_CONTEXT( ( #31, #32, #33 ) )REPRESENTATION_CONTEXT( 'NONE', 'WORKSPACE' ) );
#10 = STYLED_ITEM( '', ( #35 ), #36 );
#11 = STYLED_ITEM( '', ( #37 ), #38 );
#12 = STYLED_ITEM( '', ( #39 ), #40 );
#13 = STYLED_ITEM( '', ( #41 ), #42 );
#14 = STYLED_ITEM( '', ( #43 ), #44 );
#15 = STYLED_ITEM( '', ( #45 ), #46 );
#16 = STYLED_ITEM( '', ( #47 ), #48 );
#17 = STYLED_ITEM( '', ( #49 ), #50 );
#18 = STYLED_ITEM( '', ( #51 ), #52 );
#19 = STYLED_ITEM( '', ( #53 ), #54 );
#20 = STYLED_ITEM( '', ( #55 ), #56 );
#21 = STYLED_ITEM( '', ( #57 ), #58 );
#22 = APPLICATION_CONTEXT( 'core data for automotive mechanical design processes' );
#23 = PRODUCT_CATEGORY( 'part', 'NONE' );
#24 = PRODUCT_RELATED_PRODUCT_CATEGORY( 'detail', ' ', ( #59 ) );
#25 = PRODUCT_DEFINITION_SHAPE( 'NONE', 'NONE', #60 );
#26 = ADVANCED_BREP_SHAPE_REPRESENTATION( 'SUPPORT_HEX_M3_0XL35_FF', ( #61, #62 ), #6 );
#29 = UNCERTAINTY_MEASURE_WITH_UNIT( LENGTH_MEASURE( 1.00000000000000E-06 ), #31, '', '' );
#31 =  ( CONVERSION_BASED_UNIT( 'METRE', #65 )LENGTH_UNIT(  )NAMED_UNIT( #68 ) );
#32 =  ( NAMED_UNIT( #70 )PLANE_ANGLE_UNIT(  )SI_UNIT( $, .RADIAN. ) );
#33 =  ( NAMED_UNIT( #70 )SI_UNIT( $, .STERADIAN. )SOLID_ANGLE_UNIT(  ) );
#35 = PRESENTATION_STYLE_ASSIGNMENT( ( #76 ) );
#36 = ADVANCED_FACE( '', ( #77 ), #78, .T. );
#37 = PRESENTATION_STYLE_ASSIGNMENT( ( #79 ) );
#38 = ADVANCED_FACE( '', ( #80 ), #81, .T. );
#39 = PRESENTATION_STYLE_ASSIGNMENT( ( #82 ) );
#40 = ADVANCED_FACE( '', ( #83 ), #84, .T. );
#41 = PRESENTATION_STYLE_ASSIGNMENT( ( #85 ) );
#42 = ADVANCED_FACE( '', ( #86, #87 ), #88, .T. );
#43 = PRESENTATION_STYLE_ASSIGNMENT( ( #89 ) );
#44 = ADVANCED_FACE( '', ( #90 ), #91, .T. );
#45 = PRESENTATION_STYLE_ASSIGNMENT( ( #92 ) );
#46 = ADVANCED_FACE( '', ( #93 ), #94, .T. );
#47 = PRESENTATION_STYLE_ASSIGNMENT( ( #95 ) );
#48 = ADVANCED_FACE( '', ( #96, #97 ), #98, .F. );
#49 = PRESENTATION_STYLE_ASSIGNMENT( ( #99 ) );
#50 = ADVANCED_FACE( '', ( #100 ), #101, .T. );
#51 = PRESENTATION_STYLE_ASSIGNMENT( ( #102 ) );
#52 = ADVANCED_FACE( '', ( #103, #104 ), #105, .F. );
#53 = PRESENTATION_STYLE_ASSIGNMENT( ( #106 ) );
#54 = ADVANCED_FACE( '', ( #107, #108 ), #109, .F. );
#55 = PRESENTATION_STYLE_ASSIGNMENT( ( #110 ) );
#56 = ADVANCED_FACE( '', ( #111, #112 ), #113, .F. );
#57 = PRESENTATION_STYLE_ASSIGNMENT( ( #114 ) );
#58 = ADVANCED_FACE( '', ( #115, #116 ), #117, .F. );
#59 = PRODUCT( 'SUPPORT_HEX_M3_0XL35_FF', 'SUPPORT_HEX_M3_0XL35_FF', 'PART-SUPPORT_HEX_M3_0XL35_FF-DESC', ( #118 ) );
#60 = PRODUCT_DEFINITION( 'NONE', 'NONE', #119, #2 );
#61 = MANIFOLD_SOLID_BREP( 'SUPPORT_HEX_M3_0XL35_FF', #120 );
#62 = AXIS2_PLACEMENT_3D( '', #121, #122, #123 );
#65 = LENGTH_MEASURE_WITH_UNIT( LENGTH_MEASURE( 1.00000000000000 ), #124 );
#68 = DIMENSIONAL_EXPONENTS( 1.00000000000000, 0.00000000000000, 0.00000000000000, 0.00000000000000, 0.00000000000000, 0.00000000000000, 0.00000000000000 );
#70 = DIMENSIONAL_EXPONENTS( 0.00000000000000, 0.00000000000000, 0.00000000000000, 0.00000000000000, 0.00000000000000, 0.00000000000000, 0.00000000000000 );
#76 = SURFACE_STYLE_USAGE( .BOTH., #125 );
#77 = FACE_OUTER_BOUND( '', #126, .T. );
#78 = PLANE( '', #127 );
#79 = SURFACE_STYLE_USAGE( .BOTH., #128 );
#80 = FACE_OUTER_BOUND( '', #129, .T. );
#81 = PLANE( '', #130 );
#82 = SURFACE_STYLE_USAGE( .BOTH., #131 );
#83 = FACE_OUTER_BOUND( '', #132, .T. );
#84 = PLANE( '', #133 );
#85 = SURFACE_STYLE_USAGE( .BOTH., #134 );
#86 = FACE_OUTER_BOUND( '', #135, .T. );
#87 = FACE_BOUND( '', #136, .T. );
#88 = PLANE( '', #137 );
#89 = SURFACE_STYLE_USAGE( .BOTH., #138 );
#90 = FACE_OUTER_BOUND( '', #139, .T. );
#91 = PLANE( '', #140 );
#92 = SURFACE_STYLE_USAGE( .BOTH., #141 );
#93 = FACE_OUTER_BOUND( '', #142, .T. );
#94 = PLANE( '', #143 );
#95 = SURFACE_STYLE_USAGE( .BOTH., #144 );
#96 = FACE_OUTER_BOUND( '', #145, .T. );
#97 = FACE_BOUND( '', #146, .T. );
#98 = PLANE( '', #147 );
#99 = SURFACE_STYLE_USAGE( .BOTH., #148 );
#100 = FACE_OUTER_BOUND( '', #149, .T. );
#101 = PLANE( '', #150 );
#102 = SURFACE_STYLE_USAGE( .BOTH., #151 );
#103 = FACE_OUTER_BOUND( '', #152, .T. );
#104 = FACE_BOUND( '', #153, .T. );
#105 = CONICAL_SURFACE( '', #154, 0.000643424100000000, 1.02974425870000 );
#106 = SURFACE_STYLE_USAGE( .BOTH., #155 );
#107 = FACE_OUTER_BOUND( '', #156, .T. );
#108 = FACE_OUTER_BOUND( '', #157, .T. );
#109 = CYLINDRICAL_SURFACE( '', #158, 0.00125000000000000 );
#110 = SURFACE_STYLE_USAGE( .BOTH., #159 );
#111 = FACE_OUTER_BOUND( '', #160, .T. );
#112 = FACE_BOUND( '', #161, .T. );
#113 = CONICAL_SURFACE( '', #162, 0.000643424100000000, 1.02974425870000 );
#114 = SURFACE_STYLE_USAGE( .BOTH., #163 );
#115 = FACE_OUTER_BOUND( '', #164, .T. );
#116 = FACE_OUTER_BOUND( '', #165, .T. );
#117 = CYLINDRICAL_SURFACE( '', #166, 0.00125000000000000 );
#118 = PRODUCT_CONTEXT( '', #22, 'mechanical' );
#119 = PRODUCT_DEFINITION_FORMATION_WITH_SPECIFIED_SOURCE( ' ', 'NONE', #59, .NOT_KNOWN. );
#120 = CLOSED_SHELL( '', ( #50, #40, #48, #46, #38, #42, #52, #44, #54, #56, #36, #58 ) );
#121 = CARTESIAN_POINT( '', ( 0.00000000000000, 0.00000000000000, 0.00000000000000 ) );
#122 = DIRECTION( '', ( 0.00000000000000, 0.00000000000000, 1.00000000000000 ) );
#123 = DIRECTION( '', ( 1.00000000000000, 0.00000000000000, 0.00000000000000 ) );
#124 =  ( LENGTH_UNIT(  )NAMED_UNIT( #68 )SI_UNIT( $, .METRE. ) );
#125 = SURFACE_SIDE_STYLE( '', ( #168 ) );
#126 = EDGE_LOOP( '', ( #169, #170, #171, #172 ) );
#127 = AXIS2_PLACEMENT_3D( '', #173, #174, #175 );
#128 = SURFACE_SIDE_STYLE( '', ( #176 ) );
#129 = EDGE_LOOP( '', ( #177, #178, #179, #180 ) );
#130 = AXIS2_PLACEMENT_3D( '', #181, #182, #183 );
#131 = SURFACE_SIDE_STYLE( '', ( #184 ) );
#132 = EDGE_LOOP( '', ( #185, #186, #187, #188 ) );
#133 = AXIS2_PLACEMENT_3D( '', #189, #190, #191 );
#134 = SURFACE_SIDE_STYLE( '', ( #192 ) );
#135 = EDGE_LOOP( '', ( #193, #194, #195, #196, #197, #198 ) );
#136 = EDGE_LOOP( '', ( #199 ) );
#137 = AXIS2_PLACEMENT_3D( '', #200, #201, #202 );
#138 = SURFACE_SIDE_STYLE( '', ( #203 ) );
#139 = EDGE_LOOP( '', ( #204, #205, #206, #207 ) );
#140 = AXIS2_PLACEMENT_3D( '', #208, #209, #210 );
#141 = SURFACE_SIDE_STYLE( '', ( #211 ) );
#142 = EDGE_LOOP( '', ( #212, #213, #214, #215 ) );
#143 = AXIS2_PLACEMENT_3D( '', #216, #217, #218 );
#144 = SURFACE_SIDE_STYLE( '', ( #219 ) );
#145 = EDGE_LOOP( '', ( #220, #221, #222, #223, #224, #225 ) );
#146 = EDGE_LOOP( '', ( #226 ) );
#147 = AXIS2_PLACEMENT_3D( '', #227, #228, #229 );
#148 = SURFACE_SIDE_STYLE( '', ( #230 ) );
#149 = EDGE_LOOP( '', ( #231, #232, #233, #234 ) );
#150 = AXIS2_PLACEMENT_3D( '', #235, #236, #237 );
#151 = SURFACE_SIDE_STYLE( '', ( #238 ) );
#152 = EDGE_LOOP( '', ( #239 ) );
#153 = VERTEX_LOOP( '', #240 );
#154 = AXIS2_PLACEMENT_3D( '', #241, #242, #243 );
#155 = SURFACE_SIDE_STYLE( '', ( #244 ) );
#156 = EDGE_LOOP( '', ( #245 ) );
#157 = EDGE_LOOP( '', ( #246 ) );
#158 = AXIS2_PLACEMENT_3D( '', #247, #248, #249 );
#159 = SURFACE_SIDE_STYLE( '', ( #250 ) );
#160 = EDGE_LOOP( '', ( #251 ) );
#161 = VERTEX_LOOP( '', #252 );
#162 = AXIS2_PLACEMENT_3D( '', #253, #254, #255 );
#163 = SURFACE_SIDE_STYLE( '', ( #256 ) );
#164 = EDGE_LOOP( '', ( #257 ) );
#165 = EDGE_LOOP( '', ( #258 ) );
#166 = AXIS2_PLACEMENT_3D( '', #259, #260, #261 );
#168 = SURFACE_STYLE_FILL_AREA( #262 );
#169 = ORIENTED_EDGE( '', *, *, #263, .T. );
#170 = ORIENTED_EDGE( '', *, *, #264, .F. );
#171 = ORIENTED_EDGE( '', *, *, #265, .F. );
#172 = ORIENTED_EDGE( '', *, *, #266, .T. );
#173 = CARTESIAN_POINT( '', ( 0.00250000000000000, 0.00000000000000, 0.00144337567297400 ) );
#174 = DIRECTION( '', ( 1.00000000000000, 0.00000000000000, 0.00000000000000 ) );
#175 = DIRECTION( '', ( 0.00000000000000, 1.00000000000000, 0.00000000000000 ) );
#176 = SURFACE_STYLE_FILL_AREA( #267 );
#177 = ORIENTED_EDGE( '', *, *, #268, .T. );
#178 = ORIENTED_EDGE( '', *, *, #269, .F. );
#179 = ORIENTED_EDGE( '', *, *, #270, .F. );
#180 = ORIENTED_EDGE( '', *, *, #271, .T. );
#181 = CARTESIAN_POINT( '', ( -0.00250000000000000, 0.00000000000000, -0.00144337567297400 ) );
#182 = DIRECTION( '', ( -1.00000000000000, 0.00000000000000, 0.00000000000000 ) );
#183 = DIRECTION( '', ( 0.00000000000000, 0.00000000000000, 1.00000000000000 ) );
#184 = SURFACE_STYLE_FILL_AREA( #272 );
#185 = ORIENTED_EDGE( '', *, *, #273, .T. );
#186 = ORIENTED_EDGE( '', *, *, #274, .F. );
#187 = ORIENTED_EDGE( '', *, *, #263, .F. );
#188 = ORIENTED_EDGE( '', *, *, #275, .T. );
#189 = CARTESIAN_POINT( '', ( 0.00250000000000000, 0.00000000000000, -0.00144337567297400 ) );
#190 = DIRECTION( '', ( 0.500000000000017, 0.00000000000000, -0.866025403784429 ) );
#191 = DIRECTION( '', ( 0.00000000000000, -1.00000000000000, 0.00000000000000 ) );
#192 = SURFACE_STYLE_FILL_AREA( #276 );
#193 = ORIENTED_EDGE( '', *, *, #269, .T. );
#194 = ORIENTED_EDGE( '', *, *, #277, .T. );
#195 = ORIENTED_EDGE( '', *, *, #278, .T. );
#196 = ORIENTED_EDGE( '', *, *, #264, .T. );
#197 = ORIENTED_EDGE( '', *, *, #274, .T. );
#198 = ORIENTED_EDGE( '', *, *, #279, .T. );
#199 = ORIENTED_EDGE( '', *, *, #280, .F. );
#200 = CARTESIAN_POINT( '', ( 0.00000000000000, 0.0350000000000000, 0.00000000000000 ) );
#201 = DIRECTION( '', ( -0.00000000000000, 1.00000000000000, 0.00000000000000 ) );
#202 = DIRECTION( '', ( 1.00000000000000, 0.00000000000000, 0.00000000000000 ) );
#203 = SURFACE_STYLE_FILL_AREA( #281 );
#204 = ORIENTED_EDGE( '', *, *, #282, .T. );
#205 = ORIENTED_EDGE( '', *, *, #277, .F. );
#206 = ORIENTED_EDGE( '', *, *, #268, .F. );
#207 = ORIENTED_EDGE( '', *, *, #283, .T. );
#208 = CARTESIAN_POINT( '', ( -0.00250000000000000, 0.00000000000000, 0.00144337567297400 ) );
#209 = DIRECTION( '', ( -0.500000000000017, 0.00000000000000, 0.866025403784429 ) );
#210 = DIRECTION( '', ( 0.00000000000000, 1.00000000000000, 0.00000000000000 ) );
#211 = SURFACE_STYLE_FILL_AREA( #284 );
#212 = ORIENTED_EDGE( '', *, *, #270, .T. );
#213 = ORIENTED_EDGE( '', *, *, #279, .F. );
#214 = ORIENTED_EDGE( '', *, *, #273, .F. );
#215 = ORIENTED_EDGE( '', *, *, #285, .T. );
#216 = CARTESIAN_POINT( '', ( 0.00000000000000, 0.00000000000000, -0.00288675134594800 ) );
#217 = DIRECTION( '', ( -0.500000000000017, 0.00000000000000, -0.866025403784429 ) );
#218 = DIRECTION( '', ( -0.866025403784429, 0.00000000000000, 0.500000000000017 ) );
#219 = SURFACE_STYLE_FILL_AREA( #286 );
#220 = ORIENTED_EDGE( '', *, *, #275, .F. );
#221 = ORIENTED_EDGE( '', *, *, #266, .F. );
#222 = ORIENTED_EDGE( '', *, *, #287, .F. );
#223 = ORIENTED_EDGE( '', *, *, #283, .F. );
#224 = ORIENTED_EDGE( '', *, *, #271, .F. );
#225 = ORIENTED_EDGE( '', *, *, #285, .F. );
#226 = ORIENTED_EDGE( '', *, *, #288, .T. );
#227 = CARTESIAN_POINT( '', ( 0.00000000000000, 0.00000000000000, 0.00000000000000 ) );
#228 = DIRECTION( '', ( -0.00000000000000, 1.00000000000000, 0.00000000000000 ) );
#229 = DIRECTION( '', ( 1.00000000000000, 0.00000000000000, 0.00000000000000 ) );
#230 = SURFACE_STYLE_FILL_AREA( #289 );
#231 = ORIENTED_EDGE( '', *, *, #265, .T. );
#232 = ORIENTED_EDGE( '', *, *, #278, .F. );
#233 = ORIENTED_EDGE( '', *, *, #282, .F. );
#234 = ORIENTED_EDGE( '', *, *, #287, .T. );
#235 = CARTESIAN_POINT( '', ( 0.00000000000000, 0.00000000000000, 0.00288675134594800 ) );
#236 = DIRECTION( '', ( 0.500000000000017, 0.00000000000000, 0.866025403784429 ) );
#237 = DIRECTION( '', ( 0.00000000000000, -1.00000000000000, 0.00000000000000 ) );
#238 = SURFACE_STYLE_FILL_AREA( #290 );
#239 = ORIENTED_EDGE( '', *, *, #291, .F. );
#240 = VERTEX_POINT( '', #292 );
#241 = CARTESIAN_POINT( '', ( 0.00000000000000, 0.0103644675630900, 0.00000000000000 ) );
#242 = DIRECTION( '', ( -0.00000000000000, -1.00000000000000, 0.00000000000000 ) );
#243 = DIRECTION( '', ( -1.00000000000000, 0.00000000000000, 0.00000000000000 ) );
#244 = SURFACE_STYLE_FILL_AREA( #293 );
#245 = ORIENTED_EDGE( '', *, *, #288, .F. );
#246 = ORIENTED_EDGE( '', *, *, #291, .T. );
#247 = CARTESIAN_POINT( '', ( 0.00000000000000, 0.0112886295624700, 0.00000000000000 ) );
#248 = DIRECTION( '', ( 0.00000000000000, -1.00000000000000, -0.00000000000000 ) );
#249 = DIRECTION( '', ( 1.00000000000000, 0.00000000000000, 0.00000000000000 ) );
#250 = SURFACE_STYLE_FILL_AREA( #294 );
#251 = ORIENTED_EDGE( '', *, *, #295, .T. );
#252 = VERTEX_POINT( '', #296 );
#253 = CARTESIAN_POINT( '', ( 0.00000000000000, 0.0246355324369100, 0.00000000000000 ) );
#254 = DIRECTION( '', ( -0.00000000000000, 1.00000000000000, -0.00000000000000 ) );
#255 = DIRECTION( '', ( 1.00000000000000, 0.00000000000000, 0.00000000000000 ) );
#256 = SURFACE_STYLE_FILL_AREA( #297 );
#257 = ORIENTED_EDGE( '', *, *, #280, .T. );
#258 = ORIENTED_EDGE( '', *, *, #295, .F. );
#259 = CARTESIAN_POINT( '', ( 0.00000000000000, 0.0237113704375300, 0.00000000000000 ) );
#260 = DIRECTION( '', ( 0.00000000000000, -1.00000000000000, -0.00000000000000 ) );
#261 = DIRECTION( '', ( 1.00000000000000, 0.00000000000000, 0.00000000000000 ) );
#262 = FILL_AREA_STYLE( '', ( #298 ) );
#263 = EDGE_CURVE( '', #299, #300, #301, .T. );
#264 = EDGE_CURVE( '', #302, #300, #303, .T. );
#265 = EDGE_CURVE( '', #304, #302, #305, .T. );
#266 = EDGE_CURVE( '', #304, #299, #306, .T. );
#267 = FILL_AREA_STYLE( '', ( #307 ) );
#268 = EDGE_CURVE( '', #308, #309, #310, .T. );
#269 = EDGE_CURVE( '', #311, #309, #312, .T. );
#270 = EDGE_CURVE( '', #313, #311, #314, .T. );
#271 = EDGE_CURVE( '', #313, #308, #315, .T. );
#272 = FILL_AREA_STYLE( '', ( #316 ) );
#273 = EDGE_CURVE( '', #317, #318, #319, .T. );
#274 = EDGE_CURVE( '', #300, #318, #320, .T. );
#275 = EDGE_CURVE( '', #299, #317, #321, .T. );
#276 = FILL_AREA_STYLE( '', ( #322 ) );
#277 = EDGE_CURVE( '', #309, #323, #324, .T. );
#278 = EDGE_CURVE( '', #323, #302, #325, .T. );
#279 = EDGE_CURVE( '', #318, #311, #326, .T. );
#280 = EDGE_CURVE( '', #327, #327, #328, .T. );
#281 = FILL_AREA_STYLE( '', ( #329 ) );
#282 = EDGE_CURVE( '', #330, #323, #331, .T. );
#283 = EDGE_CURVE( '', #308, #330, #332, .T. );
#284 = FILL_AREA_STYLE( '', ( #333 ) );
#285 = EDGE_CURVE( '', #317, #313, #334, .T. );
#286 = FILL_AREA_STYLE( '', ( #335 ) );
#287 = EDGE_CURVE( '', #330, #304, #336, .T. );
#288 = EDGE_CURVE( '', #337, #337, #338, .T. );
#289 = FILL_AREA_STYLE( '', ( #339 ) );
#290 = FILL_AREA_STYLE( '', ( #340 ) );
#291 = EDGE_CURVE( '', #341, #341, #342, .T. );
#292 = CARTESIAN_POINT( '', ( 0.00000000000000, 0.0107510757737800, 0.00000000000000 ) );
#293 = FILL_AREA_STYLE( '', ( #343 ) );
#294 = FILL_AREA_STYLE( '', ( #344 ) );
#295 = EDGE_CURVE( '', #345, #345, #346, .T. );
#296 = CARTESIAN_POINT( '', ( 0.00000000000000, 0.0242489242262200, 0.00000000000000 ) );
#297 = FILL_AREA_STYLE( '', ( #347 ) );
#298 = FILL_AREA_STYLE_COLOUR( '', #348 );
#299 = VERTEX_POINT( '', #349 );
#300 = VERTEX_POINT( '', #350 );
#301 = LINE( '', #351, #352 );
#302 = VERTEX_POINT( '', #353 );
#303 = LINE( '', #354, #355 );
#304 = VERTEX_POINT( '', #356 );
#305 = LINE( '', #357, #358 );
#306 = LINE( '', #359, #360 );
#307 = FILL_AREA_STYLE_COLOUR( '', #361 );
#308 = VERTEX_POINT( '', #362 );
#309 = VERTEX_POINT( '', #363 );
#310 = LINE( '', #364, #365 );
#311 = VERTEX_POINT( '', #366 );
#312 = LINE( '', #367, #368 );
#313 = VERTEX_POINT( '', #369 );
#314 = LINE( '', #370, #371 );
#315 = LINE( '', #372, #373 );
#316 = FILL_AREA_STYLE_COLOUR( '', #374 );
#317 = VERTEX_POINT( '', #375 );
#318 = VERTEX_POINT( '', #376 );
#319 = LINE( '', #377, #378 );
#320 = LINE( '', #379, #380 );
#321 = LINE( '', #381, #382 );
#322 = FILL_AREA_STYLE_COLOUR( '', #383 );
#323 = VERTEX_POINT( '', #384 );
#324 = LINE( '', #385, #386 );
#325 = LINE( '', #387, #388 );
#326 = LINE( '', #389, #390 );
#327 = VERTEX_POINT( '', #391 );
#328 = CIRCLE( '', #392, 0.00125000000000000 );
#329 = FILL_AREA_STYLE_COLOUR( '', #393 );
#330 = VERTEX_POINT( '', #394 );
#331 = LINE( '', #395, #396 );
#332 = LINE( '', #397, #398 );
#333 = FILL_AREA_STYLE_COLOUR( '', #399 );
#334 = LINE( '', #400, #401 );
#335 = FILL_AREA_STYLE_COLOUR( '', #402 );
#336 = LINE( '', #403, #404 );
#337 = VERTEX_POINT( '', #405 );
#338 = CIRCLE( '', #406, 0.00125000000000000 );
#339 = FILL_AREA_STYLE_COLOUR( '', #407 );
#340 = FILL_AREA_STYLE_COLOUR( '', #408 );
#341 = VERTEX_POINT( '', #409 );
#342 = CIRCLE( '', #410, 0.00125000000000000 );
#343 = FILL_AREA_STYLE_COLOUR( '', #411 );
#344 = FILL_AREA_STYLE_COLOUR( '', #412 );
#345 = VERTEX_POINT( '', #413 );
#346 = CIRCLE( '', #414, 0.00125000000000000 );
#347 = FILL_AREA_STYLE_COLOUR( '', #415 );
#348 = COLOUR_RGB( '', 0.105882354100000, 0.372549027200000, 0.666666686500000 );
#349 = CARTESIAN_POINT( '', ( 0.00250000000000000, 0.00000000000000, -0.00144337567297400 ) );
#350 = CARTESIAN_POINT( '', ( 0.00250000000000000, 0.0350000000000000, -0.00144337567297400 ) );
#351 = CARTESIAN_POINT( '', ( 0.00250000000001000, 0.00000000000000, -0.00144337567298400 ) );
#352 = VECTOR( '', #416, 1.00000000000000 );
#353 = CARTESIAN_POINT( '', ( 0.00250000000000000, 0.0350000000000000, 0.00144337567297400 ) );
#354 = CARTESIAN_POINT( '', ( 0.00250000000001000, 0.0350000000000100, 0.00144337567298400 ) );
#355 = VECTOR( '', #417, 1.00000000000000 );
#356 = CARTESIAN_POINT( '', ( 0.00250000000000000, 0.00000000000000, 0.00144337567297400 ) );
#357 = CARTESIAN_POINT( '', ( 0.00250000000001000, 0.00000000000000, 0.00144337567298400 ) );
#358 = VECTOR( '', #418, 1.00000000000000 );
#359 = CARTESIAN_POINT( '', ( 0.00250000000001000, 0.00000000000000, 0.00144337567298400 ) );
#360 = VECTOR( '', #419, 1.00000000000000 );
#361 = COLOUR_RGB( '', 0.105882354100000, 0.372549027200000, 0.666666686500000 );
#362 = CARTESIAN_POINT( '', ( -0.00250000000000000, 0.00000000000000, 0.00144337567297400 ) );
#363 = CARTESIAN_POINT( '', ( -0.00250000000000000, 0.0350000000000000, 0.00144337567297400 ) );
#364 = CARTESIAN_POINT( '', ( -0.00250000000001000, 0.00000000000000, 0.00144337567298400 ) );
#365 = VECTOR( '', #420, 1.00000000000000 );
#366 = CARTESIAN_POINT( '', ( -0.00250000000000000, 0.0350000000000000, -0.00144337567297400 ) );
#367 = CARTESIAN_POINT( '', ( -0.00250000000001000, 0.0350000000000100, -0.00144337567298400 ) );
#368 = VECTOR( '', #421, 1.00000000000000 );
#369 = CARTESIAN_POINT( '', ( -0.00250000000000000, 0.00000000000000, -0.00144337567297400 ) );
#370 = CARTESIAN_POINT( '', ( -0.00250000000001000, 0.00000000000000, -0.00144337567298400 ) );
#371 = VECTOR( '', #422, 1.00000000000000 );
#372 = CARTESIAN_POINT( '', ( -0.00250000000001000, 0.00000000000000, -0.00144337567298400 ) );
#373 = VECTOR( '', #423, 1.00000000000000 );
#374 = COLOUR_RGB( '', 0.105882354100000, 0.372549027200000, 0.666666686500000 );
#375 = CARTESIAN_POINT( '', ( 0.00000000000000, 0.00000000000000, -0.00288675134594800 ) );
#376 = CARTESIAN_POINT( '', ( 0.00000000000000, 0.0350000000000000, -0.00288675134594800 ) );
#377 = CARTESIAN_POINT( '', ( 0.00000000000000, 0.00000000000000, -0.00288675134595800 ) );
#378 = VECTOR( '', #424, 1.00000000000000 );
#379 = CARTESIAN_POINT( '', ( 0.00250000000001000, 0.0350000000000100, -0.00144337567298400 ) );
#380 = VECTOR( '', #425, 1.00000000000000 );
#381 = CARTESIAN_POINT( '', ( 0.00250000000001000, 0.00000000000000, -0.00144337567298400 ) );
#382 = VECTOR( '', #426, 1.00000000000000 );
#383 = COLOUR_RGB( '', 0.105882354100000, 0.372549027200000, 0.666666686500000 );
#384 = CARTESIAN_POINT( '', ( 0.00000000000000, 0.0350000000000000, 0.00288675134594800 ) );
#385 = CARTESIAN_POINT( '', ( -0.00250000000001000, 0.0350000000000100, 0.00144337567298400 ) );
#386 = VECTOR( '', #427, 1.00000000000000 );
#387 = CARTESIAN_POINT( '', ( 0.00000000000000, 0.0350000000000100, 0.00288675134595800 ) );
#388 = VECTOR( '', #428, 1.00000000000000 );
#389 = CARTESIAN_POINT( '', ( 0.00000000000000, 0.0350000000000100, -0.00288675134595800 ) );
#390 = VECTOR( '', #429, 1.00000000000000 );
#391 = CARTESIAN_POINT( '', ( -0.00125000000001000, 0.0350000000000100, 0.00000000000000 ) );
#392 = AXIS2_PLACEMENT_3D( '', #430, #431, #432 );
#393 = COLOUR_RGB( '', 0.105882354100000, 0.372549027200000, 0.666666686500000 );
#394 = CARTESIAN_POINT( '', ( 0.00000000000000, 0.00000000000000, 0.00288675134594800 ) );
#395 = CARTESIAN_POINT( '', ( 0.00000000000000, 0.00000000000000, 0.00288675134595800 ) );
#396 = VECTOR( '', #433, 1.00000000000000 );
#397 = CARTESIAN_POINT( '', ( -0.00250000000001000, 0.00000000000000, 0.00144337567298400 ) );
#398 = VECTOR( '', #434, 1.00000000000000 );
#399 = COLOUR_RGB( '', 0.105882354100000, 0.372549027200000, 0.666666686500000 );
#400 = CARTESIAN_POINT( '', ( 0.00000000000000, 0.00000000000000, -0.00288675134595800 ) );
#401 = VECTOR( '', #435, 1.00000000000000 );
#402 = COLOUR_RGB( '', 0.105882354100000, 0.372549027200000, 0.666666686500000 );
#403 = CARTESIAN_POINT( '', ( 0.00000000000000, 0.00000000000000, 0.00288675134595800 ) );
#404 = VECTOR( '', #436, 1.00000000000000 );
#405 = CARTESIAN_POINT( '', ( -0.00125000000001000, 0.00000000000000, 0.00000000000000 ) );
#406 = AXIS2_PLACEMENT_3D( '', #437, #438, #439 );
#407 = COLOUR_RGB( '', 0.105882354100000, 0.372549027200000, 0.666666686500000 );
#408 = COLOUR_RGB( '', 0.105882354100000, 0.372549027200000, 0.666666686500000 );
#409 = CARTESIAN_POINT( '', ( 0.00125000000001000, 0.0100000000000100, 0.00000000000000 ) );
#410 = AXIS2_PLACEMENT_3D( '', #440, #441, #442 );
#411 = COLOUR_RGB( '', 0.105882354100000, 0.372549027200000, 0.666666686500000 );
#412 = COLOUR_RGB( '', 0.105882354100000, 0.372549027200000, 0.666666686500000 );
#413 = CARTESIAN_POINT( '', ( 0.00125000000001000, 0.0250000000000100, 0.00000000000000 ) );
#414 = AXIS2_PLACEMENT_3D( '', #443, #444, #445 );
#415 = COLOUR_RGB( '', 0.105882354100000, 0.372549027200000, 0.666666686500000 );
#416 = DIRECTION( '', ( 0.00000000000000, 1.00000000000000, 0.00000000000000 ) );
#417 = DIRECTION( '', ( 0.00000000000000, 0.00000000000000, -1.00000000000000 ) );
#418 = DIRECTION( '', ( 0.00000000000000, 1.00000000000000, 0.00000000000000 ) );
#419 = DIRECTION( '', ( 0.00000000000000, 0.00000000000000, -1.00000000000000 ) );
#420 = DIRECTION( '', ( 0.00000000000000, 1.00000000000000, 0.00000000000000 ) );
#421 = DIRECTION( '', ( 0.00000000000000, 0.00000000000000, 1.00000000000000 ) );
#422 = DIRECTION( '', ( 0.00000000000000, 1.00000000000000, 0.00000000000000 ) );
#423 = DIRECTION( '', ( 0.00000000000000, 0.00000000000000, 1.00000000000000 ) );
#424 = DIRECTION( '', ( 0.00000000000000, 1.00000000000000, 0.00000000000000 ) );
#425 = DIRECTION( '', ( -0.866025403783795, 0.00000000000000, -0.500000000001115 ) );
#426 = DIRECTION( '', ( -0.866025403783795, 0.00000000000000, -0.500000000001115 ) );
#427 = DIRECTION( '', ( 0.866025403783795, 0.00000000000000, 0.500000000001115 ) );
#428 = DIRECTION( '', ( 0.866025403783795, 0.00000000000000, -0.500000000001115 ) );
#429 = DIRECTION( '', ( -0.866025403783795, 0.00000000000000, 0.500000000001115 ) );
#430 = CARTESIAN_POINT( '', ( 0.00000000000000, 0.0350000000000100, 0.00000000000000 ) );
#431 = DIRECTION( '', ( 0.00000000000000, 1.00000000000000, 0.00000000000000 ) );
#432 = DIRECTION( '', ( -1.00000000000000, 0.00000000000000, 0.00000000000000 ) );
#433 = DIRECTION( '', ( 0.00000000000000, 1.00000000000000, 0.00000000000000 ) );
#434 = DIRECTION( '', ( 0.866025403783795, 0.00000000000000, 0.500000000001115 ) );
#435 = DIRECTION( '', ( -0.866025403783795, 0.00000000000000, 0.500000000001115 ) );
#436 = DIRECTION( '', ( 0.866025403783795, 0.00000000000000, -0.500000000001115 ) );
#437 = CARTESIAN_POINT( '', ( 0.00000000000000, 0.00000000000000, 0.00000000000000 ) );
#438 = DIRECTION( '', ( 0.00000000000000, 1.00000000000000, 0.00000000000000 ) );
#439 = DIRECTION( '', ( -1.00000000000000, 0.00000000000000, 0.00000000000000 ) );
#440 = CARTESIAN_POINT( '', ( 0.00000000000000, 0.0100000000000100, 0.00000000000000 ) );
#441 = DIRECTION( '', ( -0.00000000000000, 1.00000000000000, 0.00000000000000 ) );
#442 = DIRECTION( '', ( 1.00000000000000, 0.00000000000000, 0.00000000000000 ) );
#443 = CARTESIAN_POINT( '', ( 0.00000000000000, 0.0250000000000100, 0.00000000000000 ) );
#444 = DIRECTION( '', ( -0.00000000000000, 1.00000000000000, 0.00000000000000 ) );
#445 = DIRECTION( '', ( 1.00000000000000, 0.00000000000000, 0.00000000000000 ) );
ENDSEC;
END-ISO-10303-21;
